<?xml version="1.0" standalone="no"?>
<!DOCTYPE svg PUBLIC "-//W3C//DTD SVG 1.1//EN" "http://www.w3.org/Graphics/SVG/1.1/DTD/svg11.dtd">
<svg xmlns="http://www.w3.org/2000/svg">
<metadata>Copyright (C) 2021 by original authors @ fontello.com</metadata>
<defs>
<font id="epic2021" horiz-adv-x="1000" >
<font-face font-family="epic2021" font-weight="400" font-stretch="normal" units-per-em="1000" ascent="850" descent="-150" />
<missing-glyph horiz-adv-x="1000" />
<glyph glyph-name="-check-all" unicode="&#xe800;" d="M897 476l-298-298a81 81 0 0 0-58-24h0a81 81 0 0 0-58 24l-65 65-65-65a81 81 0 0 0-57-24h0a81 81 0 0 0-58 24l-137 136a41 41 0 0 0 0 58 41 41 0 0 0 59 0l136-136 298 296a41 41 0 0 0 58 0 41 41 0 0 0 0-58l-176-176 65-64 298 298a41 41 0 0 0 58 0 41 41 0 0 0 0-56z" horiz-adv-x="1000" />

<glyph glyph-name="-notification-off" unicode="&#xe801;" d="M866 113a46 46 0 0 0-43-43h-387a43 43 0 0 0 0 86h215v259a43 43 0 1 0 86 0v-259h86a46 46 0 0 0 43-43z m-603 129a46 46 0 0 1 46 44v129a167 167 0 0 0 172 172 204 204 0 0 0 71-12 43 43 0 1 1 30 81c-5 0-11 2-16 4a62 62 0 0 1 0 13 86 86 0 0 1-173 0 109 109 0 0 1 0-12 255 255 0 0 1-173-246v-129a46 46 0 0 1 43-44z m546 419a46 46 0 0 1-61 0l-602-604a46 46 0 0 1 0-61 46 46 0 0 1 31-12 43 43 0 0 1 30 12l604 604a46 46 0 0 1 0 61z m-330-720a86 86 0 0 1 86 86h-173a86 86 0 0 1 87-86z" horiz-adv-x="1000" />

<glyph glyph-name="alarm" unicode="&#xe802;" d="M629 286a46 46 0 0 0-43-44h-129a46 46 0 0 0-45 44v172a43 43 0 1 0 86 0v-129h86a46 46 0 0 0 45-43z m93-220l31-63a46 46 0 0 0-19-58 40 40 0 0 0-19-4 43 43 0 0 0-39 23l-26 55a341 341 0 0 0-299 0l-27-55a43 43 0 0 0-38-23 40 40 0 0 0-20 4 46 46 0 0 0-19 58l31 63a344 344 0 1 0 444 0z m-222 4a259 259 0 1 1-258 259 259 259 0 0 1 258-259z m382 536a358 358 0 0 1-148 149 43 43 0 0 1-38-77 277 277 0 0 0 109-110 46 46 0 0 1 39-24 49 49 0 0 1 19 4 46 46 0 0 1 19 58z m-687-38a277 277 0 0 0 110 110 43 43 0 0 1-39 77 358 358 0 0 1-148-149 46 46 0 0 1 18-58 49 49 0 0 1 20-4 46 46 0 0 1 39 24z" horiz-adv-x="1000" />

<glyph glyph-name="archive" unicode="&#xe803;" d="M369 234a46 46 0 0 0 61 20l25-12v108a46 46 0 0 0 91 0v-108l25 12a46 46 0 1 0 40-81l-90-45h0a42 42 0 0 0-39 0h0l-91 45a46 46 0 0 0-22 61z m586 480v-182a46 46 0 0 0-46-46h-45v-454a91 91 0 0 0-91-91h-546a91 91 0 0 0-91 91v454h-45a46 46 0 0 0-45 46v182a46 46 0 0 0 45 45h818a46 46 0 0 0 46-45z m-182-228h-546v-454h546z m91 182h-728v-91h728z" horiz-adv-x="1000" />

<glyph glyph-name="arrow-down" unicode="&#xe804;" d="M500 759a46 46 0 0 0 46-45v-618l104 105a46 46 0 0 0 64 0 46 46 0 0 0 13-33 46 46 0 0 0-13-32l-182-182a46 46 0 0 0-15-10 42 42 0 0 0-34 0 46 46 0 0 0-15 10l-182 182a46 46 0 0 0 65 65l104-105v618a46 46 0 0 0 45 45z" horiz-adv-x="1000" />

<glyph glyph-name="arrow-end" unicode="&#xe805;" d="M773 77v546a46 46 0 0 0 91 0v-546a46 46 0 0 0-91 0z m-591 228h380l-194-195a46 46 0 0 1 0-65 46 46 0 0 1 64 0l273 273a46 46 0 0 1 9 15 43 43 0 0 1 0 34 46 46 0 0 1-9 15l-273 273a46 46 0 0 1-64 0 46 46 0 0 1 0-64l194-195h-380a46 46 0 0 1 0-91z" horiz-adv-x="1000" />

<glyph glyph-name="arrow-left" unicode="&#xe806;" d="M909 350a46 46 0 0 0-45-45h-618l105-104a46 46 0 0 0 0-65 46 46 0 0 0-33-13 46 46 0 0 0-32 13l-182 182a46 46 0 0 0-9 15 42 42 0 0 0 0 34 46 46 0 0 0 9 15l182 182a46 46 0 0 0 65-64l-105-104h618a46 46 0 0 0 45-46z" horiz-adv-x="1000" />

<glyph glyph-name="arrow-right" unicode="&#xe807;" d="M91 350a46 46 0 0 0 45 46h618l-104 104a46 46 0 0 0 0 64 46 46 0 0 0 32 13 46 46 0 0 0 32-13l182-182a46 46 0 0 0 10-15 42 42 0 0 0 0-34 46 46 0 0 0-10-15l-182-182a46 46 0 0 0-64 65l104 104h-618a46 46 0 0 0-45 45z" horiz-adv-x="1000" />

<glyph glyph-name="arrow-start" unicode="&#xe808;" d="M227 623v-546a46 46 0 0 0-91 0v546a46 46 0 0 0 91 0z m591-227h-380l194 195a46 46 0 0 1 0 64 46 46 0 0 1-64 0l-272-273a46 46 0 0 1-10-15 43 43 0 0 1 0-34 46 46 0 0 1 10-15l272-273a46 46 0 0 1 64 0 46 46 0 0 1 0 65l-194 195h380a46 46 0 0 1 0 91z" horiz-adv-x="1000" />

<glyph glyph-name="arrow-up" unicode="&#xe809;" d="M500-59a46 46 0 0 0-45 45v618l-104-104a46 46 0 0 0-65 0 46 46 0 0 0-13 32 46 46 0 0 0 13 32l182 182a46 46 0 0 0 15 10 42 42 0 0 0 34 0 46 46 0 0 0 15-10l182-182a46 46 0 0 0-64-64l-104 104v-618a46 46 0 0 0-46-45z" horiz-adv-x="1000" />

<glyph glyph-name="attach" unicode="&#xe80a;" d="M488-59a313 313 0 0 0-157 45 276 276 0 0 0-140 160 182 182 0 0 0 15 136l235 409a142 142 0 0 0 85 63 202 202 0 0 0 156-30 204 204 0 0 0 104-120 140 140 0 0 0-13-105l-214-371a104 104 0 0 0-60-45 134 134 0 0 0-104 17 131 131 0 0 0-68 82 104 104 0 0 0 10 75l182 315a43 43 0 0 0 74-43l-181-315s-10-19 26-40 46-3 46-3l213 370a52 52 0 0 1 4 40 125 125 0 0 1-62 69 123 123 0 0 1-91 21 54 54 0 0 1-33-23l-235-409a94 94 0 0 1-7-68 201 201 0 0 1 100-108c118-68 182-25 202 7l160 277a43 43 0 1 0 74-42l-160-278a185 185 0 0 0-161-86z" horiz-adv-x="1000" />

<glyph glyph-name="attention" unicode="&#xe80b;" d="M459 309v205a41 41 0 1 0 82 0v-205a41 41 0 1 0-82 0z m41-82a41 41 0 1 1 41-41 41 41 0 0 1-41 41z m409 123a409 409 0 1 0-409 409 409 409 0 0 0 409-409z m-82 0a327 327 0 1 1-327-327 328 328 0 0 1 327 327z" horiz-adv-x="1000" />

<glyph glyph-name="blank-empty" unicode="&#xe80c;" d="M803 596l-139 139a81 81 0 0 1-58 24h-351a82 82 0 0 1-82-82v-654a82 82 0 0 1 82-82h491a82 82 0 0 1 81 82v515a81 81 0 0 1-24 58z m-76-41h-104v106z m-472-532v654h286v-163a41 41 0 0 1 41-41h164v-450z" horiz-adv-x="1000" />

<glyph glyph-name="blank-fill" unicode="&#xe80d;" d="M816 623l-123 123-11 13h-427a82 82 0 0 1-82-82v-654a82 82 0 0 1 82-82h491a82 82 0 0 1 81 82v591z m-152 38l63-65h-63z m82-637h-491v653h327v-163h164z m-369 409h246a41 41 0 0 0 0-82h-246a41 41 0 0 0 0 82z m205-204a41 41 0 0 0-41-41h-164a41 41 0 0 0 0 82h164a41 41 0 0 0 41-43z" horiz-adv-x="1000" />

<glyph glyph-name="board" unicode="&#xe80e;" d="M786 677h-245v41a41 41 0 0 1-82 0v-41h-245a82 82 0 0 1-82-81v-328a82 82 0 0 1 82-82h128l-121-181a41 41 0 1 1 68-46l151 227h19v-204a41 41 0 0 1 82 0v204h19l151-227a41 41 0 0 1 69 46l-122 181h128a82 82 0 0 1 82 82v328a82 82 0 0 1-82 81z m0-409h-572v328h572z m-490 205a41 41 0 0 0 40 41h164a41 41 0 0 0 0-82h-164a41 41 0 0 0-40 41z" horiz-adv-x="1000" />

<glyph glyph-name="calendar-check" unicode="&#xe80f;" d="M786 636h-81v41a41 41 0 0 1-82 0v-41h-246v41a41 41 0 0 1-81 0v-41h-82a123 123 0 0 1-123-122v-409a123 123 0 0 1 123-123h572a123 123 0 0 1 123 123v409a123 123 0 0 1-123 122z m41-531a41 41 0 0 0-41-41h-572a41 41 0 0 0-41 41v409a41 41 0 0 0 41 41h82v-41a41 41 0 0 1 81 0v41h246v-41a41 41 0 0 1 82 0v41h81a41 41 0 0 0 41-41z m-175 272a41 41 0 0 0 0-58l-164-163a42 42 0 0 0-58 0l-82 81a41 41 0 0 0 58 59l53-54 137 137a41 41 0 0 0 56 0z" horiz-adv-x="1000" />

<glyph glyph-name="calendar-list" unicode="&#xe810;" d="M786 636h-81v41a41 41 0 0 1-82 0v-41h-246v41a41 41 0 0 1-81 0v-41h-82a123 123 0 0 1-123-122v-409a123 123 0 0 1 123-123h572a123 123 0 0 1 123 123v409a123 123 0 0 1-123 122z m41-531a41 41 0 0 0-41-41h-572a41 41 0 0 0-41 41v409a41 41 0 0 0 41 41h82v-41a41 41 0 0 1 81 0v41h246v-41a41 41 0 0 1 82 0v41h81a41 41 0 0 0 41-41z m-122 245a41 41 0 0 0-41-41h-328a41 41 0 1 0 0 82h328a41 41 0 0 0 41-41z m-205-164a41 41 0 0 0-41-40h-123a41 41 0 1 0 0 81h123a41 41 0 0 0 41-41z" horiz-adv-x="1000" />

<glyph glyph-name="calendar" unicode="&#xe811;" d="M746 636h-41v41a41 41 0 0 1-82 0v-41h-246v41a41 41 0 0 1-81 0v-41h-41a164 164 0 0 1-164-163v-327a164 164 0 0 1 164-164h491a164 164 0 0 1 163 164v327a164 164 0 0 1-163 163z m81-490a82 82 0 0 0-81-82h-491a82 82 0 0 0-82 82v327a82 82 0 0 0 82 82h491a82 82 0 0 0 81-82z m-450 286a41 41 0 1 0-41 41 41 41 0 0 0 41-41z m164 0a41 41 0 1 0-41 41 41 41 0 0 0 41-41z m164 0a41 41 0 1 0-41 41 41 41 0 0 0 41-41z m-328-164a41 41 0 1 0-41 41 41 41 0 0 0 41-41z" horiz-adv-x="1000" />

<glyph glyph-name="call-cancel" unicode="&#xe812;" d="M816 607l-573-572a42 42 0 0 0-58 0 41 41 0 0 0 0 58l572 573a41 41 0 1 0 59-59z m-591-363a42 42 0 0 1 24 8 41 41 0 0 1 8 57c-136 185-86 289-15 367l130-129-51-51a41 41 0 0 1-9-45 474 474 0 0 1 30-63 41 41 0 1 1 71 41c-4 12-11 21-14 29l33 33a79 79 0 0 1 0 112l-133 133a83 83 0 0 1-57 23 76 76 0 0 1-55-24c-48-52-193-208 7-476a41 41 0 0 1 33-16z m659-94l-133 133a79 79 0 0 1-111 0l-33-33-34 19a41 41 0 1 1-42-70c21-13 44-24 67-35a41 41 0 0 1 45 8l51 51 129-129c-80-73-189-125-382 27a41 41 0 0 1-58-7 41 41 0 0 1 7-57c113-88 205-116 279-116a309 309 0 0 1 216 96 76 76 0 0 1 24 55 79 79 0 0 1-23 57z" horiz-adv-x="1000" />

<glyph glyph-name="call-in" unicode="&#xe813;" d="M636 526a41 41 0 0 0 59 58l11-13v147a41 41 0 1 0 82 0v-147l12 13a41 41 0 1 0 58-58l-85-82a46 46 0 0 0-14-9 39 39 0 0 0-31 0 35 35 0 0 0-13 9z m273-434a77 77 0 0 0-24-55 318 318 0 0 0-219-96c-113 0-236 68-372 203-227 227-264 422-107 591a76 76 0 0 0 55 24 80 80 0 0 0 57-23l133-133a79 79 0 0 0 0-112l-33-33a443 443 0 0 1 87-122 495 495 0 0 1 123-86l32 32a79 79 0 0 0 112 0l133-133a79 79 0 0 0 23-57z m-83 0l-129 129-51-52a41 41 0 0 0-45-8 616 616 0 0 0-172 115 511 511 0 0 0-117 176 41 41 0 0 0 9 46l51 49-128 129c-55-60-171-195 108-474s414-163 474-108z" horiz-adv-x="1000" />

<glyph glyph-name="call-out" unicode="&#xe814;" d="M856 666a41 41 0 0 0-58-59l-12 13v-147a41 41 0 0 0-81 0v147l-12-13a41 41 0 0 0-57 59l82 81a41 41 0 0 0 14 9 39 39 0 0 0 31 0 53 53 0 0 0 13-9z m53-574a77 77 0 0 0-24-55 318 318 0 0 0-219-96c-113 0-236 68-372 203-227 227-264 422-107 591a76 76 0 0 0 55 24 80 80 0 0 0 57-23l133-133a79 79 0 0 0 0-112l-33-33a443 443 0 0 1 87-122 495 495 0 0 1 123-86l32 32a79 79 0 0 0 112 0l133-133a79 79 0 0 0 23-57z m-83 0l-129 129-51-52a41 41 0 0 0-45-8 616 616 0 0 0-172 115 511 511 0 0 0-117 176 41 41 0 0 0 9 46l51 49-128 129c-55-60-171-195 108-474s414-163 474-108z" horiz-adv-x="1000" />

<glyph glyph-name="call" unicode="&#xe815;" d="M666-59c-113 0-236 68-371 204-228 227-264 421-108 591a77 77 0 0 0 55 23 79 79 0 0 0 57-23l133-133a79 79 0 0 0 0-112l-33-33a443 443 0 0 1 87-122 516 516 0 0 1 123-86l32 32h0a79 79 0 0 0 112 0l133-133a80 80 0 0 0 23-57 79 79 0 0 0-24-55 318 318 0 0 0-219-96z m-422 735c-55-60-171-195 108-474s414-163 474-108l-129 128-51-51a43 43 0 0 0-45-8 616 616 0 0 0-172 115 512 512 0 0 0-117 174 41 41 0 0 0 9 46l51 49z m454-451z" horiz-adv-x="1000" />

<glyph glyph-name="card-memory" unicode="&#xe816;" d="M418 473v82a41 41 0 0 0 82 0v-82a41 41 0 0 0-82 0z m205-41a41 41 0 0 1 41 41v82a41 41 0 0 1-82 0v-82a41 41 0 0 1 41-41z m204 245v-654a82 82 0 0 0-81-82h-491a82 82 0 0 0-82 82v491a41 41 0 0 0 9 25l164 205a40 40 0 0 0 31 15h369a82 82 0 0 0 81-82z m-81 0h-349l-142-178v-476h491z" horiz-adv-x="1000" />

<glyph glyph-name="card-usb" unicode="&#xe817;" d="M786 391h-40v327a41 41 0 0 1-41 41h-409a41 41 0 0 1-41-41v-327h-41a41 41 0 0 1-41-41v-245a164 164 0 0 1 163-164h328a164 164 0 0 1 163 164v245a41 41 0 0 1-41 41z m-450 286h328v-286h-328z m123-81v-82a41 41 0 0 0-82 0v82a41 41 0 0 0 82 0z m164 0v-82a41 41 0 1 0-82 0v82a41 41 0 1 0 82 0z" horiz-adv-x="1000" />

<glyph glyph-name="centre" unicode="&#xe818;" d="M909 422v-144a72 72 0 0 0-63-72 386 386 0 0 0-204-190 96 96 0 0 0-94-75h-96a96 96 0 1 0 0 193h96a96 96 0 0 0 65-26 291 291 0 0 1 153 155 80 80 0 0 0 0 15v144a67 67 0 0 0 12 38 289 289 0 0 1-552 0 67 67 0 0 0 11-38v-144a72 72 0 0 0-144 0v144a71 71 0 0 0 39 64 385 385 0 0 0 736 0 71 71 0 0 0 41-64z m-457-48a48 48 0 1 1-48-48 48 48 0 0 1 48 48z m193 0a48 48 0 1 1-97 0 48 48 0 0 1 97 0z" horiz-adv-x="1000" />

<glyph glyph-name="check-box" unicode="&#xe819;" d="M705 759h-409a205 205 0 0 1-205-204v-409a205 205 0 0 1 205-205h409a205 205 0 0 1 204 205v409a205 205 0 0 1-204 204z m-11-337l-209-208a46 46 0 0 0-32-13 46 46 0 0 0-32 13l-115 114a46 46 0 0 0 64 64l85-82 175 176a46 46 0 0 0 64 0 46 46 0 0 0 0-64z" horiz-adv-x="1000" />

<glyph glyph-name="check-empty" unicode="&#xe81a;" d="M705-59h-409a205 205 0 0 0-205 205v409a205 205 0 0 0 205 204h409a205 205 0 0 0 204-204v-409a205 205 0 0 0-204-205z m-409 736a123 123 0 0 1-123-122v-409a123 123 0 0 1 123-123h409a123 123 0 0 1 122 123v409a123 123 0 0 1-122 122z" horiz-adv-x="1000" />

<glyph glyph-name="check-indeterminate" unicode="&#xe81b;" d="M705 759h-409a205 205 0 0 1-205-204v-409a205 205 0 0 1 205-205h409a205 205 0 0 1 204 205v409a205 205 0 0 1-204 204z m-39-454h-332a46 46 0 0 0 0 91h332a46 46 0 0 0 0-91z" horiz-adv-x="1000" />

<glyph glyph-name="check" unicode="&#xe81c;" d="M409 132a91 91 0 0 0-64 27l-150 150a46 46 0 0 0 0 64 46 46 0 0 0 65 0l149-150 332 332a46 46 0 0 0 64 0 46 46 0 0 0 0-64l-332-332a91 91 0 0 0-64-27z" horiz-adv-x="1000" />

<glyph glyph-name="close" unicode="&#xe81d;" d="M564 350l196 195a46 46 0 1 1-65 65l-195-196-195 196a46 46 0 0 1-64-65l195-195-195-195a46 46 0 0 1 0-64 46 46 0 0 1 64 0l195 195 195-195a46 46 0 0 1 65 0 46 46 0 0 1 0 64z" horiz-adv-x="1000" />

<glyph glyph-name="compass" unicode="&#xe81e;" d="M500 759a409 409 0 1 1 409-409 409 409 0 0 1-409 409z m0-736a327 327 0 1 0 327 327 328 328 0 0 0-327-327z m204 491c0 3 0 6 0 8a58 58 0 0 1-3 10s0 3 0 4l0 0-6 7a31 31 0 0 1-6 5s0 0 0 0l-5 0a52 52 0 0 1-8 3h-8l-7 0a58 58 0 0 1-9-3l-4 0-201-117a84 84 0 0 1-28-28l-118-196s0-2 0-4l-2-8c0-2 0-5 0-7a36 36 0 0 1 2-16 17 17 0 0 0 0-5s0 0 3-3l0-3a52 52 0 0 1 10-10h0a31 31 0 0 1 10-4 31 31 0 0 1 11 0h0a41 41 0 0 1 18 5h0l194 102a83 83 0 0 1 34 33l116 209a21 21 0 0 1 0 5 52 52 0 0 1 3 7 46 46 0 0 1 4 6z m-193-189l-64-34 42 70 64 39z" horiz-adv-x="1000" />

<glyph glyph-name="copy" unicode="&#xe81f;" d="M377 677a205 205 0 0 1-204-204v-327a41 41 0 0 0-82 0v327a287 287 0 0 0 286 286h328a41 41 0 0 0 0-82z m532-286v-245a205 205 0 0 0-204-205h-246a205 205 0 0 0-204 205v245a205 205 0 0 0 204 205h246a205 205 0 0 0 204-205z m-82 0a123 123 0 0 1-122 123h-246a123 123 0 0 1-123-123v-245a123 123 0 0 1 123-123h246a123 123 0 0 1 122 123z" horiz-adv-x="1000" />

<glyph glyph-name="credit-card" unicode="&#xe820;" d="M786 636h-572a123 123 0 0 1-123-122v-328a123 123 0 0 1 123-122h572a123 123 0 0 1 123 122v328a123 123 0 0 1-123 122z m-572-81h572a41 41 0 0 0 41-41v-41h-654v41a41 41 0 0 0 41 41z m572-409h-572a41 41 0 0 0-41 40v205h654v-205a41 41 0 0 0-41-40z" horiz-adv-x="1000" />

<glyph glyph-name="daily-planner" unicode="&#xe821;" d="M693 256a41 41 0 0 0 0-58 42 42 0 0 0-58 0 136 136 0 0 1-94 29 136 136 0 0 1-94-29 42 42 0 0 0-58 0 41 41 0 0 0 0 57 218 218 0 0 0 152 54 218 218 0 0 0 152-53z m175 380v-572a123 123 0 0 0-122-123h-410a123 123 0 0 0-122 123v41h-41a41 41 0 0 0 0 81h41v123h-41a41 41 0 1 0 0 82h41v123h-41a41 41 0 0 0 0 82h41v40a123 123 0 0 0 122 123h410a123 123 0 0 0 122-123z m-82 0a41 41 0 0 1-40 41h-410a41 41 0 0 1-40-41v-572a41 41 0 0 1 40-41h410a41 41 0 0 1 40 41z m-245-286a82 82 0 1 1-82 82 82 82 0 0 1 82-82z" horiz-adv-x="1000" />

<glyph glyph-name="delete" unicode="&#xe822;" d="M786 514v-450a123 123 0 0 0-122-123h-328a123 123 0 0 0-122 123v450a41 41 0 0 0 82 0v-450a41 41 0 0 1 40-41h328a41 41 0 0 1 41 41v450a41 41 0 1 0 81 0z m-327-368v327a41 41 0 0 1-82 0v-327a41 41 0 0 1 82 0z m164 0v327a41 41 0 0 1-82 0v-327a41 41 0 0 1 82 0z m163 531h-163a41 41 0 1 1 0 82h-246a41 41 0 0 1 0-82h-163a41 41 0 1 1 0-81h572a41 41 0 1 1 0 81z" horiz-adv-x="1000" />

<glyph glyph-name="desktop" unicode="&#xe823;" d="M909 23a41 41 0 0 0-41-41h-736a41 41 0 0 0 0 82h736a41 41 0 0 0 41-41z m-777 245v328a123 123 0 0 0 123 122h491a123 123 0 0 0 122-122v-328a123 123 0 0 0-122-122h-491a123 123 0 0 0-123 122z m82 0a41 41 0 0 1 41-41h491a41 41 0 0 1 40 41v328a41 41 0 0 1-40 40h-491a41 41 0 0 1-41-40z" horiz-adv-x="1000" />

<glyph glyph-name="documents" unicode="&#xe824;" d="M664 186v352a81 81 0 0 1-24 58l-140 139a81 81 0 0 1-58 24h-187a82 82 0 0 1-82-82v-491a82 82 0 0 1 82-81h327a82 82 0 0 1 82 81z m-82 0h0m-123 475l106-106h-106z m-204-475v491h122v-163a41 41 0 0 1 41-41h164v-287z m572 205v-327a123 123 0 0 0-122-123h-369a41 41 0 1 0 0 82h369a41 41 0 0 1 41 41v327a41 41 0 0 0 81 0z" horiz-adv-x="1000" />

<glyph glyph-name="down" unicode="&#xe825;" d="M227 532a46 46 0 0 0 33-13l240-241 241 241a46 46 0 1 0 64-65l-273-273a46 46 0 0 0-64 0l-273 273a46 46 0 0 0 0 65 46 46 0 0 0 32 13z" horiz-adv-x="1000" />

<glyph glyph-name="download" unicode="&#xe826;" d="M195 409a46 46 0 0 0 65 64l195-195v436a46 46 0 0 0 91 0v-436l195 195a46 46 0 0 0 64-64l-273-273a46 46 0 0 0-15-10 43 43 0 0 0-34 0 46 46 0 0 0-15 10z m578-377h-546a46 46 0 0 1 0-91h546a46 46 0 0 1 0 91z" horiz-adv-x="1000" />

<glyph glyph-name="drop-down-line" unicode="&#xe827;" d="M511 190a46 46 0 0 0-31 13l-182 182a46 46 0 0 0 0 65 46 46 0 0 0 66 0l149-150 150 150a46 46 0 0 0 64 0 46 46 0 0 0 0-65l-181-182a46 46 0 0 0-35-13z" horiz-adv-x="1000" />

<glyph glyph-name="drop-down" unicode="&#xe828;" d="M500 259a46 46 0 0 0-28 10l-114 91a46 46 0 0 0-14 51 46 46 0 0 0 42 30h228a46 46 0 0 0 42-30 46 46 0 0 0-14-51l-114-91a46 46 0 0 0-28-10z" horiz-adv-x="1000" />

<glyph glyph-name="drop-left-line" unicode="&#xe829;" d="M364 350a46 46 0 0 0 13 32l182 182a46 46 0 1 0 64-64l-150-150 150-149a46 46 0 0 0-64-65l-182 182a46 46 0 0 0-13 32z" horiz-adv-x="1000" />

<glyph glyph-name="drop-right-line" unicode="&#xe82a;" d="M636 350a46 46 0 0 0-13-32l-182-182a46 46 0 0 0-64 65l150 149-150 150a46 46 0 0 0 64 64l182-182a46 46 0 0 0 13-32z" horiz-adv-x="1000" />

<glyph glyph-name="drop-start-line-copy" unicode="&#xe82b;" d="M532 382a46 46 0 0 0 0-64l-181-182a46 46 0 0 0-65 65l150 149-150 150a46 46 0 0 0 65 64z m150 195a46 46 0 0 1-46-45v-364a46 46 0 0 1 91 0v364a46 46 0 0 1-45 45z" horiz-adv-x="1000" />

<glyph glyph-name="drop-start-line" unicode="&#xe82c;" d="M468 318a46 46 0 0 0 0 64l182 182a46 46 0 1 0 64-64l-150-150 150-149a46 46 0 0 0-64-65z m-150-195a46 46 0 0 1 46 45v364a46 46 0 0 1-91 0v-364a46 46 0 0 1 45-45z" horiz-adv-x="1000" />

<glyph glyph-name="drop-up-line" unicode="&#xe82d;" d="M500 486a46 46 0 0 0 32-13l182-182a46 46 0 0 0-64-64l-150 150-149-150a46 46 0 0 0-65 64l182 182a46 46 0 0 0 32 13z" horiz-adv-x="1000" />

<glyph glyph-name="drop-up" unicode="&#xe82e;" d="M500 441a46 46 0 0 0 29-10l113-91a46 46 0 0 0-28-81h-228a46 46 0 0 0-42 31 46 46 0 0 0 14 50l114 91a46 46 0 0 0 28 10z" horiz-adv-x="1000" />

<glyph glyph-name="edit" unicode="&#xe82f;" d="M896 574l-172 172a46 46 0 0 1-61 0l-559-559a46 46 0 0 1-13-31v-172a43 43 0 0 1 45-43h170a46 46 0 0 1 31 13l559 559a46 46 0 0 1 0 61z m-202 81l111-111-68-68-111 111z m-406-628h-111v111l388 388 111-111z" horiz-adv-x="1000" />

<glyph glyph-name="end" unicode="&#xe830;" d="M773 623v-546a46 46 0 0 0-91 0v546a46 46 0 0 0 91 0z m-468 32a46 46 0 0 1-64-64l240-241-240-240a46 46 0 0 1 0-65 46 46 0 0 1 64 0l273 273a46 46 0 0 1 0 64z" horiz-adv-x="1000" />

<glyph glyph-name="excel" unicode="&#xe831;" d="M842 596l-139 139a84 84 0 0 1-58 24h-351a82 82 0 0 1-82-82v-246h-34a46 46 0 0 1-45-45v-250a46 46 0 0 1 45-45h34v-68a81 81 0 0 1 82-82h491a82 82 0 0 1 81 82v514a81 81 0 0 1-24 59z m-181 64l106-105h-105z m-392-417l-45-63a16 16 0 0 0-13-8 15 15 0 0 0-11 4 16 16 0 0 0-4 11 18 18 0 0 0 4 11l51 70-52 68a15 15 0 0 0-3 10 16 16 0 0 0 5 11 17 17 0 0 0 11 5 16 16 0 0 0 13-6l46-63 45 61 6 6a24 24 0 0 0 7 0 13 13 0 0 0 11-5 15 15 0 0 0 4-10 18 18 0 0 0-3-10l-50-67 52-69a17 17 0 0 0 0-22 17 17 0 0 0-11-5 16 16 0 0 0-14 8z m516-220h-491v69h379a46 46 0 0 1 46 46v249a46 46 0 0 1-46 45h-379v245h286v-163a41 41 0 0 1 41-41h164z m-311 182a18 18 0 0 0 12-4 17 17 0 0 0 5-12 15 15 0 0 0-5-11 18 18 0 0 0-12-5h-87a17 17 0 0 0-16 17v155a16 16 0 0 0 5 12 16 16 0 0 0 12 4 15 15 0 0 0 11-4 16 16 0 0 0 5-12v-140z m126 39a91 91 0 0 1-34 10c-40 6-59 24-59 55a46 46 0 0 0 9 29 54 54 0 0 0 24 19 91 91 0 0 0 34 7 96 96 0 0 0 32-5 71 71 0 0 0 25-14 16 16 0 0 0 3-25 16 16 0 0 0-11-4 11 11 0 0 0-7 2 74 74 0 0 1-20 10 65 65 0 0 1-22 5 46 46 0 0 1-26-6 20 20 0 0 1 0-34 88 88 0 0 1 29-10 141 141 0 0 0 37-10 46 46 0 0 0 21-17 53 53 0 0 0 7-29 50 50 0 0 0-10-30 59 59 0 0 0-25-20 81 81 0 0 0-34-6 116 116 0 0 0-34 5 76 76 0 0 0-28 16 18 18 0 0 0-7 14 15 15 0 0 0 4 11 15 15 0 0 0 11 4 12 12 0 0 0 9-3 133 133 0 0 1 21-12 70 70 0 0 1 24-5 46 46 0 0 1 26 8 19 19 0 0 1 11 16 21 21 0 0 1-10 19z" horiz-adv-x="1000" />

<glyph glyph-name="facebook" unicode="&#xe832;" d="M565-59v373h127l19 146h-146v91c0 44 11 72 71 72h79v130a1028 1028 0 0 1-113 6 177 177 0 0 1-191-192v-107h-127v-146h127v-373z" horiz-adv-x="1000" />

<glyph glyph-name="fax" unicode="&#xe833;" d="M827 473h-654a82 82 0 0 1-82-82v-123a164 164 0 0 1 164-163v-82a41 41 0 0 1 41-41h409a41 41 0 0 1 41 41v82a164 164 0 0 1 163 163v123a82 82 0 0 1-82 82z m-163-409h-328v204h328z m163 204a82 82 0 0 0-81-82v123a41 41 0 0 1-41 41h-409a41 41 0 0 1-41-41v-123a82 82 0 0 0-82 82v123h654z m-572 287v122a41 41 0 0 0 41 41h122a41 41 0 0 0 0-82h-82v-81a41 41 0 0 0-81 0z m286 122a41 41 0 0 0 41 41h123a41 41 0 0 0 41-41v-122a41 41 0 1 0-82 0v81h-82a41 41 0 0 0-41 41z m45-74a41 41 0 1 0 0-82h-173a41 41 0 1 0 0 82z" horiz-adv-x="1000" />

<glyph glyph-name="file-search" unicode="&#xe834;" d="M874 596l-140 139a81 81 0 0 1-58 24h-351a82 82 0 0 1-82-82v-54a41 41 0 0 1 82 0v54h286v-163a41 41 0 0 1 41-41h166v-450h-422a41 41 0 0 1 0-82h422a82 82 0 0 1 82 82v515a81 81 0 0 1-26 58z m-182 65l107-106h-106z m-227-288a182 182 0 1 1-223-177v-214a41 41 0 0 1 82 0v214a182 182 0 0 1 142 177z m-282 0a100 100 0 1 0 100-100 101 101 0 0 0-99 100z" horiz-adv-x="1000" />

<glyph glyph-name="form-edit" unicode="&#xe835;" d="M818 327v-272a91 91 0 0 0-91-91h-545a91 91 0 0 0-91 91v591a91 91 0 0 0 91 90h545a46 46 0 0 0 0-90h-545v-591h545v272a46 46 0 0 0 91 0z m-272 182a46 46 0 0 1-46 46h-182a46 46 0 0 1 0-91h182a46 46 0 0 1 46 45z m-228-136a46 46 0 0 1 0-91h91a46 46 0 0 1 0 91z m581 256a46 46 0 0 1-64 6l-273-227a46 46 0 0 1-6-64 46 46 0 0 1 35-17 46 46 0 0 1 29 11l273 227a46 46 0 0 1 6 64z" horiz-adv-x="1000" />

<glyph glyph-name="forward-back" unicode="&#xe836;" d="M389 35l-286 286a41 41 0 0 0 0 58l286 287a41 41 0 0 0 46 8 41 41 0 0 0 25-38v-124c150-10 449-71 449-285a41 41 0 0 0-41-41h-409v-122a41 41 0 0 0-25-38 36 36 0 0 0-16-3 42 42 0 0 0-29 12z m29 397a41 41 0 0 0-41 41v65l-187-188 187-188v65a41 41 0 0 0 41 41h400c-42 122-284 164-400 164z" horiz-adv-x="1000" />

<glyph glyph-name="forward-next" unicode="&#xe837;" d="M582 23a36 36 0 0 0-16 3 41 41 0 0 0-25 38v122h-409a41 41 0 0 0-41 41c0 213 300 273 450 285v124a41 41 0 0 0 25 38 41 41 0 0 0 46-8l286-287a41 41 0 0 0 0-58l-286-286a42 42 0 0 0-30-12z m-400 245h400a41 41 0 0 0 41-41v-65l188 188-188 188v-65a41 41 0 0 0-41-41c-116 0-357-42-400-164z" horiz-adv-x="1000" />

<glyph glyph-name="group" unicode="&#xe838;" d="M367 372a144 144 0 1 1-143 144 143 143 0 0 1 143-144z m0 199a56 56 0 1 0-55-55 56 56 0 0 0 55 55z m133-243h-265a144 144 0 0 1-144-144v-107a39 39 0 0 1 38-38h477a38 38 0 0 1 38 38v107a143 143 0 0 1-144 144z m56-199h-374v55a56 56 0 0 0 55 56h263a56 56 0 0 0 56-56z m132 387a55 55 0 0 1-102 27 216 216 0 0 1-33 91 144 144 0 1 0 0-238 216 216 0 0 1 33 90 55 55 0 0 1 45-28 56 56 0 0 1 57 58z m221-332v-107a38 38 0 0 0-38-38h-157a116 116 0 0 1 7 38v50h100v57a56 56 0 0 1-55 56h-53a217 217 0 0 1-46 88h99a143 143 0 0 0 143-144z" horiz-adv-x="1000" />

<glyph glyph-name="hashtag" unicode="&#xe839;" d="M870 720a131 131 0 0 1-97 39l-227-3a46 46 0 0 1-32-13l-409-409a46 46 0 0 1 0-63l318-319a46 46 0 0 1 63 0l410 409a46 46 0 0 1 13 32l0 230a136 136 0 0 1-39 97z m-52-307l-363-364-256 256 364 363 210 0a46 46 0 0 0 33-12 46 46 0 0 0 12-33z m-103 84a67 67 0 1 0-68 68 67 67 0 0 0 68-68z" horiz-adv-x="1000" />

<glyph glyph-name="home" unicode="&#xe83a;" d="M902 450a41 41 0 0 0-56-11l-346 229-345-229a41 41 0 0 0-23-7 41 41 0 0 0-34 18 41 41 0 0 0 11 57l368 245a41 41 0 0 0 46 0l368-245a41 41 0 0 0 11-57z m-75-100v-368a41 41 0 0 0-41-41h-572a41 41 0 0 0-41 41v368a41 41 0 0 0 82 0v-327h122v163a41 41 0 0 0 41 41h164a41 41 0 0 0 41-41v-163h123v327a41 41 0 0 0 81 0z m-286-327v123h-82v-123z" horiz-adv-x="1000" />

<glyph glyph-name="instagram" unicode="&#xe83b;" d="M682 759h-364a227 227 0 0 1-227-227v-364a227 227 0 0 1 227-227h364a227 227 0 0 1 227 227v364a227 227 0 0 1-227 227z m0-73a153 153 0 0 0 154-154v-364a153 153 0 0 0-154-154h-364a153 153 0 0 0-154 154v364a153 153 0 0 0 154 154z m-182-122a214 214 0 1 1 214-214 214 214 0 0 1-214 214z m0-73a141 141 0 1 0-140-141 141 141 0 0 0 140 141z m234 151a60 60 0 0 1-42-17 59 59 0 0 1-16-41 61 61 0 0 1 16-42 61 61 0 0 1 42-16 61 61 0 0 1 41 16 60 60 0 0 1 17 42 59 59 0 0 1-58 58z" horiz-adv-x="1000" />

<glyph glyph-name="kakaotalk" unicode="&#xe83c;" d="M409 417l26-56h-51z m0 0l26-56h-51z m91 313a484 484 0 0 0 207-46 370 370 0 0 0 146-116 269 269 0 0 0 0-330 375 375 0 0 0-146-115 478 478 0 0 0-207-46 482 482 0 0 0-77 7l-177-114 31 161a376 376 0 0 0-136 115 269 269 0 0 0 5 323 370 370 0 0 0 147 117 484 484 0 0 0 207 44z m-208-423v143h43a16 16 0 0 1 11 5 8 8 0 0 1 5 5 16 16 0 0 1 0 11 17 17 0 0 1-7 8 36 36 0 0 1-10 0h-121a18 18 0 0 1-12-4 9 9 0 0 1-5-5 16 16 0 0 1 0-6 20 20 0 0 1 0-7 11 11 0 0 1 6-6 25 25 0 0 1 10-3h43v-142a16 16 0 0 1 5-12 16 16 0 0 1 11-5h4a18 18 0 0 1 12 5 14 14 0 0 1 5 13z m205-8l5 8-73 161a11 11 0 0 1 0 6l-3 3-8 4a14 14 0 0 1-7 0h-2a17 17 0 0 1-9-3 18 18 0 0 1-6-6l0 0a35 35 0 0 0 0-5v0l-76-152a32 32 0 0 1 0-7 25 25 0 0 1 3-10 18 18 0 0 1 7-6l3 0a16 16 0 0 1 17 0 17 17 0 0 1 6 7l14 31h81l14-31a17 17 0 0 1 6-7 16 16 0 0 1 17 0l3 2a16 16 0 0 1 8 5z m146 0l5 8-7 8a8 8 0 0 1-5 3 15 15 0 0 1-9 3h-78v144a16 16 0 0 1-3 11 18 18 0 0 1-13 5h-4a16 16 0 0 1-12-5 15 15 0 0 1-5-11v-163l0-3a14 14 0 0 1 5-6 17 17 0 0 1 8-2h102a18 18 0 0 1 13 4 13 13 0 0 1 3 4z m161 3a17 17 0 0 1 0 17l-59 80 47 51a16 16 0 0 1 6 11 13 13 0 0 1 0 8 13 13 0 0 1-4 5l-3 3a17 17 0 0 1-18 3l-6-3-73-74v62a18 18 0 0 1-4 12 15 15 0 0 1-12 5h-4a16 16 0 0 1-12-5 17 17 0 0 1-6-12v-160l3-5 3-4a18 18 0 0 1 12-4h3a17 17 0 0 1 12 5 14 14 0 0 1 5 12v39l24 24 55-75a11 11 0 0 1 6-5 16 16 0 0 1 17 0l3 2a16 16 0 0 1 5 8z m-420 59l25 56 26-56z m25 56l26-56h-51z m0 0l26-56h-51z" horiz-adv-x="1000" />

<glyph glyph-name="left-double" unicode="&#xe83d;" d="M532 110a46 46 0 0 0-64-65l-273 273a46 46 0 0 0 0 64l273 273a46 46 0 0 0 64 0 46 46 0 0 0 0-64l-241-241z m32 240l241 241a46 46 0 0 1 0 64 46 46 0 0 1-64 0l-273-273a46 46 0 0 1 0-64l273-273a46 46 0 0 1 64 65z" horiz-adv-x="1000" />

<glyph glyph-name="left" unicode="&#xe83e;" d="M682 623a46 46 0 0 0-13-32l-241-241 241-240a46 46 0 0 0-65-65l-273 273a46 46 0 0 0 0 64l273 273a46 46 0 0 0 65 0 46 46 0 0 0 13-32z" horiz-adv-x="1000" />

<glyph glyph-name="location-map" unicode="&#xe83f;" d="M462 97l10-10a41 41 0 0 1 28-10 39 39 0 0 1 27 11l11 10a773 773 0 0 1 85 91 524 524 0 0 1 123 318 266 266 0 0 1-62 174 234 234 0 0 1-184 78 233 233 0 0 1-182-79 266 266 0 0 1-63-174 524 524 0 0 1 122-318 773 773 0 0 1 85-91z m-84 530a156 156 0 0 0 122 50 156 156 0 0 0 122-50 187 187 0 0 0 42-121 452 452 0 0 0-106-265 727 727 0 0 0-58-67 727 727 0 0 0-58 67 452 452 0 0 0-106 265 187 187 0 0 0 42 121z m245-113a123 123 0 1 1-123-123 123 123 0 0 1 123 123z m-164 0a41 41 0 1 0 41-41 41 41 0 0 0-41 41z m450-391c0-119-206-182-409-182s-409 62-409 182c0 59 54 110 150 143a41 41 0 0 0 27-77c-66-23-95-51-95-66 0-35 124-99 327-99s327 64 327 99c0 13-26 43-96 67a41 41 0 1 0 26 77c98-34 152-85 152-144z" horiz-adv-x="1000" />

<glyph glyph-name="locked" unicode="&#xe840;" d="M705 514h0c-4 93-30 245-205 245s-200-152-204-245h0a123 123 0 0 1-122-123v-327a123 123 0 0 1 122-123h409a123 123 0 0 1 122 123v327a123 123 0 0 1-122 123z m-205 163c91 0 117-61 122-163h-244c5 102 31 163 122 163z m246-613a41 41 0 0 0-41-41h-409a41 41 0 0 0-41 41v327a41 41 0 0 0 41 41h409a41 41 0 0 0 41-41z m-246 286a123 123 0 1 1 123-123 123 123 0 0 1-123 123z m0-164a41 41 0 1 0 41 41 41 41 0 0 0-41-41z" horiz-adv-x="1000" />

<glyph glyph-name="love" unicode="&#xe841;" d="M500-18a41 41 0 0 0-29 12l-312 316h0a237 237 0 0 0-68 167 242 242 0 0 0 244 241 232 232 0 0 0 165-99 232 232 0 0 0 166 99 242 242 0 0 0 243-241 238 238 0 0 0-74-172l-306-311a41 41 0 0 0-29-12z m-283 385l283-286 277 281a156 156 0 0 1 50 115 161 161 0 0 1-161 159c-36 0-81-36-133-108a41 41 0 0 0-33-17h0a41 41 0 0 0-33 17c-51 72-96 108-132 108a161 161 0 0 1-162-159 158 158 0 0 1 44-110z" horiz-adv-x="1000" />

<glyph glyph-name="menu-list" unicode="&#xe842;" d="M273 623a46 46 0 0 0 45 45h546a46 46 0 0 0 0-91h-546a46 46 0 0 0-45 46z m591-227h-546a46 46 0 0 1 0-91h546a46 46 0 0 1 0 91z m0-273h-546a46 46 0 0 1 0-91h546a46 46 0 0 1 0 91z m-728 545a46 46 0 1 1 46-45 46 46 0 0 1-46 45z m0-272a46 46 0 1 1 46-46 46 46 0 0 1-46 46z m0-273a46 46 0 1 1 46-46 46 46 0 0 1-46 46z" horiz-adv-x="1000" />

<glyph glyph-name="menu-point-h" unicode="&#xe843;" d="M318 350a68 68 0 1 0-68 68 68 68 0 0 0 68-68z m182 68a68 68 0 1 1 68-68 68 68 0 0 1-68 68z m250 0a68 68 0 1 1 68-68 68 68 0 0 1-68 68z" horiz-adv-x="1000" />

<glyph glyph-name="menu-point-v" unicode="&#xe844;" d="M500 168a68 68 0 1 0-68-68 68 68 0 0 0 68 68z m-68 182a68 68 0 1 1 68 68 68 68 0 0 1-68-68z m0 250a68 68 0 1 1 68 68 68 68 0 0 1-68-68z" horiz-adv-x="1000" />

<glyph glyph-name="menu" unicode="&#xe845;" d="M91 623a46 46 0 0 0 45 45h728a46 46 0 0 0 0-91h-728a46 46 0 0 0-45 46z m773-227h-728a46 46 0 0 1 0-91h728a46 46 0 0 1 0 91z m0-273h-728a46 46 0 0 1 0-91h728a46 46 0 0 1 0 91z" horiz-adv-x="1000" />

<glyph glyph-name="message-wait" unicode="&#xe846;" d="M846 174a339 339 0 0 1 63 197c0 203-182 368-409 368s-409-165-409-368 182-369 409-369a495 495 0 0 1 82 8l282-48h7a42 42 0 0 1 31 15 41 41 0 0 1 7 40z m-85-8l43-111-213 37h-9l-8 0a364 364 0 0 0-74-7c-182 0-327 128-327 286s145 286 327 286 327-129 327-286a261 261 0 0 0-59-165 40 40 0 0 1-7-40z m-397 230a46 46 0 1 0-46 45 46 46 0 0 0 46-45z m182 0a46 46 0 1 0-46 45 46 46 0 0 0 46-45z m181 0a46 46 0 1 0-45 45 46 46 0 0 0 45-45z" horiz-adv-x="1000" />

<glyph glyph-name="message" unicode="&#xe847;" d="M868-39h-4l-279 48a495 495 0 0 0-83-7c-227 0-409 165-409 368s182 368 409 368 409-165 409-368a339 339 0 0 0-63-197l61-157a41 41 0 0 0-7-40 42 42 0 0 0-34-15z m-286 131h9l215-37-42 111a40 40 0 0 0 6 40 261 261 0 0 1 60 165c0 158-147 286-328 286s-327-128-327-286 143-287 325-287a364 364 0 0 1 74 7z" horiz-adv-x="1000" />

<glyph glyph-name="mic-off" unicode="&#xe848;" d="M377 432v204a123 123 0 1 0 246 0v-40a41 41 0 1 0-82 0v40a41 41 0 1 1-82 0v-204a41 41 0 1 0-82 0z m439 234a41 41 0 0 1-59 0l-413-414a285 285 0 0 0-48 182 41 41 0 0 1-82 0 361 361 0 0 1 72-238l-101-103a41 41 0 0 1 0-58 42 42 0 0 1 58 0l106 106a277 277 0 0 1 110-34v-125a41 41 0 0 1 82 0v125c156 17 245 133 245 325a41 41 0 0 1-81 0c0-163-69-246-205-246a239 239 0 0 0-91 16l406 405a41 41 0 0 1 1 59z" horiz-adv-x="1000" />

<glyph glyph-name="mic" unicode="&#xe849;" d="M541 107v-125a41 41 0 0 0-82 0v125c-156 16-245 133-245 325a41 41 0 0 0 82 0c0-163 68-246 204-246s205 83 205 246a41 41 0 0 0 81 0c0-192-89-309-245-325z m-164 284v245a123 123 0 1 0 246 0v-245a123 123 0 0 0-246 0z m82 0a41 41 0 1 1 82 0v245a41 41 0 1 1-82 0z" horiz-adv-x="1000" />

<glyph glyph-name="minus" unicode="&#xe84a;" d="M773 305h-546a46 46 0 0 0 0 91h546a46 46 0 0 0 0-91z" horiz-adv-x="1000" />

<glyph glyph-name="mouse" unicode="&#xe84b;" d="M500 759a287 287 0 0 1-286-286v-246a286 286 0 0 1 572 0v246a287 287 0 0 1-286 286z m205-532a205 205 0 0 0-409 0v246a205 205 0 1 0 409 0z m-164 287v-82a41 41 0 0 0-82 0v82a41 41 0 1 0 82 0z" horiz-adv-x="1000" />

<glyph glyph-name="naver" unicode="&#xe84c;" d="M909 726v-752h-280l-259 379v-379h-279v752h280l259-379v379z" horiz-adv-x="1000" />

<glyph glyph-name="naverblog" unicode="&#xe84d;" d="M298 421a25 25 0 0 0-6-15 26 26 0 0 0-12-11 25 25 0 0 0-17 0 24 24 0 0 0-14 8 26 26 0 0 0-8 15 25 25 0 0 0 0 17 24 24 0 0 0 11 12 28 28 0 0 0 16 4 25 25 0 0 0 21-10 26 26 0 0 0 9-20z m250 31a31 31 0 0 0 22-9 30 30 0 0 0 0-45 31 31 0 0 0-22-9 30 30 0 0 0-21 9 29 29 0 0 0 0 45 30 30 0 0 0 21 9z m361 168v-356a103 103 0 0 0-15-54 111 111 0 0 0-39-40 106 106 0 0 0-55-15h-209l-73-169a19 19 0 0 0-4-7 14 14 0 0 0-13-7 15 15 0 0 0-12 7l-4 7-72 169h-212a106 106 0 0 0-55 13 111 111 0 0 0-40 40 103 103 0 0 0-15 56v356a103 103 0 0 0 15 55 111 111 0 0 0 40 39 106 106 0 0 0 55 15h599a106 106 0 0 0 55-15 111 111 0 0 0 39-40 103 103 0 0 0 15-54z m-625-122a34 34 0 0 1-9 0 63 63 0 0 1-19-5 41 41 0 0 1-16-13v76h-49v-202h49v12a54 54 0 0 1 41-18l10 0a112 112 0 0 1 24 8 51 51 0 0 1 22 20 60 60 0 0 1 12 38v14a127 127 0 0 1-5 27 66 66 0 0 1-58 45z m80 65v-49l6 0a30 30 0 0 0 11-7 20 20 0 0 0 6-15v-136h48v146a72 72 0 0 1-8 24 57 57 0 0 1-18 25 84 84 0 0 1-45 12z m264-142a68 68 0 0 1-23 53 80 80 0 0 1-56 21 81 81 0 0 1-57-21 67 67 0 0 1-24-53 66 66 0 0 1 23-51 86 86 0 0 1 115 0 69 69 0 0 1 22 51z m182 72h-48v-14a53 53 0 0 1-19 14 41 41 0 0 1-23 4 67 67 0 0 1-45-19 66 66 0 0 1-21-46v-22a62 62 0 0 1 9-35 50 50 0 0 1 20-18 58 58 0 0 1 21-7l9-3a79 79 0 0 1 32 6 26 26 0 0 1 13 8l3 5a61 61 0 0 0-5-27 19 19 0 0 0-9-11 31 31 0 0 0-11-5h-18v-46h21a71 71 0 0 1 42 12 60 60 0 0 1 21 24 104 104 0 0 1 7 24l0 11z m-76-42a29 29 0 0 0 21-8 29 29 0 0 0 0-42 29 29 0 0 0-21-9 30 30 0 0 0-21 9 28 28 0 0 0-8 20 29 29 0 0 0 8 20 30 30 0 0 0 21 10z" horiz-adv-x="1000" />

<glyph glyph-name="notification" unicode="&#xe84e;" d="M845 156h-87v259a255 255 0 0 1-173 246 112 112 0 0 1 0 12 86 86 0 0 1-172 0 112 112 0 0 1 0-12 255 255 0 0 1-171-246v-259h-86a46 46 0 0 1 0-86h689a43 43 0 1 1 0 86z m-517 259a167 167 0 0 0 172 172h0a167 167 0 0 0 172-172v-259h-344z m86-388h172a86 86 0 0 0-172 0z" horiz-adv-x="1000" />

<glyph glyph-name="order-ribbon" unicode="&#xe84f;" d="M866 105l-125 218a286 286 0 1 1-531 150 288 288 0 0 1 53-166l-127-201a42 42 0 0 1 0-41 41 41 0 0 1 36-22h92l31-76a41 41 0 0 1 73-6l132 228 12 0 119-225a41 41 0 0 1 38-22 41 41 0 0 1 36 26l31 77h95a41 41 0 0 1 35 61z m-370 572a205 205 0 1 0-204-204 204 204 0 0 0 204 204z m-156-602l-10 24a41 41 0 0 1-38 24h-48l77 122a276 276 0 0 1 91-48z m368 48a41 41 0 0 1-38-26l-8-20-66 128a273 273 0 0 1 88 52l76-134z m-212 227a123 123 0 1 1-122 123 123 123 0 0 1 122-123z m0 164a41 41 0 1 0-40-41 41 41 0 0 0 40 41z" horiz-adv-x="1000" />

<glyph glyph-name="order" unicode="&#xe850;" d="M826 105l-107 185 0 0a287 287 0 1 1-439-4l-104-182a41 41 0 0 1 35-62h94l31-76a41 41 0 0 1 35-26 42 42 0 0 1 38 21l91 152 91-152a42 42 0 0 1 39-20 41 41 0 0 1 34 26l31 76h95a41 41 0 0 1 36 62z m-330 572a205 205 0 1 0-204-204 204 204 0 0 0 204 204z m-115-603l-10 25a41 41 0 0 1-38 24h-52l61 109a286 286 0 0 1 109-41z m286 49a41 41 0 0 1-38-26l-10-26-71 118a287 287 0 0 1 108 46l64-112z m-281 318a41 41 0 0 0 0 58 41 41 0 0 0 58 0l52-53 95 97a41 41 0 0 0 58 0 41 41 0 0 0 0-58l-123-123a41 41 0 0 0-58 0z" horiz-adv-x="1000" />

<glyph glyph-name="pdf" unicode="&#xe851;" d="M299 316a34 34 0 0 1-8 11 19 19 0 0 1-10 4h-46v-59h46a18 18 0 0 1 10 4 39 39 0 0 1 8 11 40 40 0 0 1 3 14 38 38 0 0 1-3 15z m172-3a41 41 0 0 1-36 18h-46v-126h46a41 41 0 0 1 36 18 82 82 0 0 1 12 45 78 78 0 0 1-12 45z m0 0a41 41 0 0 1-36 18h-46v-126h46a41 41 0 0 1 36 18 82 82 0 0 1 12 45 78 78 0 0 1-12 45z m-172 3a34 34 0 0 1-8 11 19 19 0 0 1-10 4h-46v-59h46a18 18 0 0 1 10 4 39 39 0 0 1 8 11 40 40 0 0 1 3 14 38 38 0 0 1-3 15z m545 280l-141 140a81 81 0 0 1-58 23h-351a82 82 0 0 1-82-82v-245h-34a46 46 0 0 1-45-46v-250a46 46 0 0 1 45-45h34v-68a82 82 0 0 1 82-82h491a82 82 0 0 1 81 82v515a81 81 0 0 1-24 58z m-182 65l105-106h-105z m-381-420h-46v-50a17 17 0 0 0-4-12 17 17 0 0 0-12-5 14 14 0 0 0-11 5 16 16 0 0 0-4 12v155a15 15 0 0 0 5 11 14 14 0 0 0 11 5h61a46 46 0 0 0 25-8 58 58 0 0 0 20-22 63 63 0 0 0 8-31 64 64 0 0 0-8-30 55 55 0 0 0-20-21 46 46 0 0 0-25-9z m504-218h-491v69h379a46 46 0 0 1 46 46v249a46 46 0 0 1-46 46h-379v244h286v-163a41 41 0 0 1 41-41h164z m-428 168v155a15 15 0 0 0 4 11 15 15 0 0 0 12 5h64a76 76 0 0 0 46-12 82 82 0 0 0 28-34 129 129 0 0 0 0-95 78 78 0 0 0-28-34 72 72 0 0 0-46-13h-64a16 16 0 0 0-9 5 15 15 0 0 0-7 12z m275 90a14 14 0 0 0 11-4 13 13 0 0 0 5-11 12 12 0 0 0-5-10 14 14 0 0 0-11-5h-58v-63a15 15 0 0 0-5-11 18 18 0 0 0-12-5 19 19 0 0 0-12 4 16 16 0 0 0-4 12v158a15 15 0 0 0 4 11 15 15 0 0 0 12 5h87a16 16 0 0 0 12-5 14 14 0 0 0 4-11 13 13 0 0 0-4-10 14 14 0 0 0-12-5h-70v-47z m-161-58a82 82 0 0 1 12 45 78 78 0 0 1-12 46 41 41 0 0 1-36 18h-46v-126h46a41 41 0 0 1 36 17z m-182 104a19 19 0 0 1-10 4h-46v-59h46a18 18 0 0 1 10 4 39 39 0 0 1 8 11 40 40 0 0 1 3 14 38 38 0 0 1-3 15 34 34 0 0 1-6 11z m8-11a34 34 0 0 1-8 11 19 19 0 0 1-10 4h-46v-59h46a18 18 0 0 1 10 4 39 39 0 0 1 8 11 40 40 0 0 1 3 14 38 38 0 0 1-1 15z m0 0a34 34 0 0 1-8 11 19 19 0 0 1-10 4h-46v-59h46a18 18 0 0 1 10 4 39 39 0 0 1 8 11 40 40 0 0 1 3 14 38 38 0 0 1-1 15z" horiz-adv-x="1000" />

<glyph glyph-name="photo" unicode="&#xe852;" d="M786 616a41 41 0 0 1-40 41h-164a41 41 0 0 1-41-41h-327a123 123 0 0 1-123-123v-327a123 123 0 0 1 123-123h572a123 123 0 0 1 123 123v327a123 123 0 0 1-123 123z m41-450a41 41 0 0 0-41-41h-572a41 41 0 0 0-41 41v327a41 41 0 0 0 41 39h572a41 41 0 0 0 41-41z m-286 286a123 123 0 1 1 123-122 123 123 0 0 1-123 122z m0-163a41 41 0 1 0 41 41 41 41 0 0 0-41-41z m-205 122a41 41 0 1 0-40 41 41 41 0 0 0 40-41z" horiz-adv-x="1000" />

<glyph glyph-name="picture" unicode="&#xe853;" d="M909 514a123 123 0 0 1-123 122h-572a123 123 0 0 1-123-122v-328a123 123 0 0 1 123-122h572a123 123 0 0 1 123 117v3s0 0 0 2z m-695 41h572a41 41 0 0 0 41-41v-214l-132 158a46 46 0 0 1-32 15 41 41 0 0 1-31-16l-139-173-132 99a41 41 0 0 1-54-4l-136-136v271a41 41 0 0 0 43 41z m572-409h-572a39 39 0 0 0-21 6 91 91 0 0 1 9 5l136 139 137-101a41 41 0 0 1 56 7l132 165 161-192a41 41 0 0 0-38-29z" horiz-adv-x="1000" />

<glyph glyph-name="pin" unicode="&#xe854;" d="M664 415v212l37 73a42 42 0 0 1 0 40 41 41 0 0 1-37 19h-328a41 41 0 0 1-35-19 42 42 0 0 1 0-40l35-73v-212c-81-51-122-142-122-269a41 41 0 0 1 41-41h204v-123a41 41 0 0 1 82 0v123h205a41 41 0 0 1 40 41c0 127-41 218-122 269z m-367-227a190 190 0 0 0 99 166 41 41 0 0 1 22 37v245a41 41 0 0 1-4 19l-11 22h194l-11-22a41 41 0 0 1-4-19v-245a41 41 0 0 1 23-37 190 190 0 0 0 98-168z" horiz-adv-x="1000" />

<glyph glyph-name="plus" unicode="&#xe855;" d="M818 350a46 46 0 0 0-45-45h-227v-228a46 46 0 0 0-91 0v228h-228a46 46 0 0 0 0 91h228v227a46 46 0 0 0 91 0v-227h227a46 46 0 0 0 45-46z" horiz-adv-x="1000" />

<glyph glyph-name="print" unicode="&#xe856;" d="M827 473h-654a82 82 0 0 1-82-82v-123a164 164 0 0 1 164-163v-82a41 41 0 0 1 41-41h409a41 41 0 0 1 41 41v82a164 164 0 0 1 163 163v123a82 82 0 0 1-82 82z m-163-409h-328v204h328z m163 204a82 82 0 0 0-81-82v123a41 41 0 0 1-41 41h-409a41 41 0 0 1-41-41v-123a82 82 0 0 0-82 82v123h654z m-572 287v122a41 41 0 0 0 41 41h409a41 41 0 0 0 41-41v-122a41 41 0 1 0-82 0v81h-328v-81a41 41 0 0 0-81 0z" horiz-adv-x="1000" />

<glyph glyph-name="radio-check" unicode="&#xe857;" d="M500 759a409 409 0 1 1 409-409 409 409 0 0 1-409 409z m0-736a327 327 0 1 0 327 327 328 328 0 0 0-327-327z m223 327a223 223 0 1 0-223 223 223 223 0 0 0 223-223z" horiz-adv-x="1000" />

<glyph glyph-name="radio" unicode="&#xe858;" d="M500-59a409 409 0 1 0 409 409 409 409 0 0 0-409-409z m0 736a327 327 0 1 1 327-327 328 328 0 0 1-327 327z" horiz-adv-x="1000" />

<glyph glyph-name="record-off" unicode="&#xe859;" d="M909 566v-431a42 42 0 0 0-20-37 40 40 0 0 0-23-6 41 41 0 0 0-19 4l-199 100a129 129 0 0 0-127-104h-172a43 43 0 0 0 0 86h172a46 46 0 0 1 44 43v129a46 46 0 0 0 86 0v-59l172-86v291l-67-34a43 43 0 1 0-38 77l129 65a42 42 0 0 0 42 0 42 42 0 0 0 20-38z m-732-345a43 43 0 0 1 43 43v215a46 46 0 0 0 46 46h215a43 43 0 0 1 0 86h-218a129 129 0 0 1-127-132v-215a43 43 0 0 1 41-43z m591 461a46 46 0 0 1-61 0l-603-605a46 46 0 0 1 0-61 41 41 0 0 1 30-12 43 43 0 0 1 31 12l602 607a46 46 0 0 1 0 59z" horiz-adv-x="1000" />

<glyph glyph-name="record" unicode="&#xe85a;" d="M888 616a46 46 0 0 1-46 0l-209-105a136 136 0 0 1-133 112h-273a136 136 0 0 1-136-137v-272a136 136 0 0 1 136-137h273a136 136 0 0 1 134 110l209-105a46 46 0 0 1 21-5 46 46 0 0 1 24 7 46 46 0 0 1 21 39v454a46 46 0 0 1-21 39z m-342-402a46 46 0 0 0-46-46h-273a46 46 0 0 0-45 46v272a46 46 0 0 0 45 46h273a46 46 0 0 0 46-46v-272z m272-18l-182 91v126l182 91z" horiz-adv-x="1000" />

<glyph glyph-name="reload" unicode="&#xe85b;" d="M902 373l-81 123a43 43 0 0 1-69 0l-81-123a41 41 0 0 1 0-42 40 40 0 0 1 35-22h38a246 246 0 0 0-368-169 41 41 0 1 1-43-70 327 327 0 0 1 492 239h45a40 40 0 0 1 36 22 41 41 0 0 1-4 42z m-571-4a40 40 0 0 1-35 22h-38a246 246 0 0 0 368 170 41 41 0 0 1 56 16 41 41 0 0 1-14 56 327 327 0 0 1-492-242h-46a40 40 0 0 1-36-22 41 41 0 0 1 0-42l88-122a41 41 0 0 1 68 0l82 122a41 41 0 0 1-1 42z" horiz-adv-x="1000" />

<glyph glyph-name="right-double" unicode="&#xe85c;" d="M468 591a46 46 0 0 0 64 64l273-273a46 46 0 0 0 0-64l-273-273a46 46 0 0 0-64 0 46 46 0 0 0 0 65l241 240z m-32-241l-241-240a46 46 0 0 1 0-65 46 46 0 0 1 65 0l272 273a46 46 0 0 1 0 64l-272 273a46 46 0 0 1-65-64z" horiz-adv-x="1000" />

<glyph glyph-name="right" unicode="&#xe85d;" d="M318 77a46 46 0 0 0 13 33l241 240-241 241a46 46 0 1 0 65 64l273-273a46 46 0 0 0 0-64l-273-273a46 46 0 0 0-65 0 46 46 0 0 0-13 32z" horiz-adv-x="1000" />

<glyph glyph-name="save" unicode="&#xe85e;" d="M867 150a12 12 0 0 1 0 4l-91 430a41 41 0 1 1-79-18l81-380h-555l82 380a41 41 0 1 1-78 18l-91-430a12 12 0 0 1 0-4s0-3 0-4v-82a123 123 0 0 1 119-123h491a123 123 0 0 1 122 123v82s-1 3-1 4z m-81-86a41 41 0 0 0-40-41h-491a41 41 0 0 0-41 41v41h572z m-397 422a41 41 0 1 0 58 57l12-11v186a41 41 0 0 0 82 0v-186l12 12a41 41 0 1 0 58-58l-82-81a42 42 0 0 0-58 0z" horiz-adv-x="1000" />

<glyph glyph-name="search" unicode="&#xe85f;" d="M897 11l-221 220a328 328 0 1 1-57-57l220-221a42 42 0 0 1 58 0 41 41 0 0 1 0 58z m-724 421a246 246 0 1 0 245-246 246 246 0 0 0-245 246z" horiz-adv-x="1000" />

<glyph glyph-name="settings" unicode="&#xe860;" d="M858 427l-43 6a51 51 0 0 0-34 81l26 35a51 51 0 0 1 0 72l-34 36a51 51 0 0 1-72 0l-35-26a51 51 0 0 0-82 34l-6 46a51 51 0 0 1-52 48h-51a51 51 0 0 1-52-51l-6-45a51 51 0 0 0-81-34l-35 26a51 51 0 0 1-74 2l-34-34a51 51 0 0 1 0-72l26-35a51 51 0 0 0-34-82l-45-6a51 51 0 0 1-49-52v-51a51 51 0 0 1 51-52l45-6a51 51 0 0 0 34-81l-26-35a51 51 0 0 1 0-72l36-36a51 51 0 0 1 72 0l35 26a51 51 0 0 0 82-34l6-43a51 51 0 0 1 49-51h51a51 51 0 0 1 51 51l6 43a51 51 0 0 0 81 34l35-26a51 51 0 0 1 72 0l36 36a51 51 0 0 1 0 72l-26 35a51 51 0 0 0 34 81l43 6a51 51 0 0 1 51 52v51a51 51 0 0 1-51 51z m-358-281a205 205 0 1 0 205 204 204 204 0 0 0-205-204z m82 204a82 82 0 1 0-82 82 82 82 0 0 0 82-82z" horiz-adv-x="1000" />

<glyph glyph-name="sign-out" unicode="&#xe861;" d="M173 391h392l-94 95a41 41 0 0 0 58 59l164-164a41 41 0 0 0 0-58l-164-164a42 42 0 0 0-58 0 41 41 0 0 0 0 58l94 94h-392z m573 368h-491a164 164 0 0 1-164-163v-123h82v123a82 82 0 0 0 82 81h491a82 82 0 0 0 81-81v-491a82 82 0 0 0-81-82h-491a82 82 0 0 0-82 82v122h-82v-122a164 164 0 0 1 164-164h491a164 164 0 0 1 163 164v491a164 164 0 0 1-163 163z" horiz-adv-x="1000" />

<glyph glyph-name="star" unicode="&#xe862;" d="M727-36a46 46 0 0 0-20 5l-207 104-207-104a46 46 0 0 0-48 5 46 46 0 0 0-17 45l41 204-165 164a46 46 0 0 0-11 45 46 46 0 0 0 34 32l208 41 126 209a46 46 0 0 0 78 0l126-210 208-42a46 46 0 0 0 34-31 46 46 0 0 0-11-45l-165-165 42-202a46 46 0 0 0-17-46 48 48 0 0 0-29-9z m-227 204a46 46 0 0 0 21-5l144-72-28 137a46 46 0 0 0 13 41l123 122-146 29a46 46 0 0 0-30 21l-97 162-97-162a46 46 0 0 0-30-21l-146-29 122-122a46 46 0 0 0 12-41l-27-136 144 72a46 46 0 0 0 22 4z" horiz-adv-x="1000" />

<glyph glyph-name="start" unicode="&#xe863;" d="M227 77v546a46 46 0 0 0 91 0v-546a46 46 0 0 0-91 0z m468-32a46 46 0 0 1 65 65l-241 240 241 241a46 46 0 0 1 0 64 46 46 0 0 1-65 0l-273-273a46 46 0 0 1 0-64z" horiz-adv-x="1000" />

<glyph glyph-name="strl-down" unicode="&#xe864;" d="M805 272l-273-273a46 46 0 0 0-15-9 43 43 0 0 0-34 0 46 46 0 0 0-15 9l-273 273a46 46 0 0 0 65 65l195-196v527a46 46 0 0 0 91 0v-527l195 196a46 46 0 0 0 64-65z" horiz-adv-x="1000" />

<glyph glyph-name="strl-left" unicode="&#xe865;" d="M422 45l-272 273a46 46 0 0 0-10 15 43 43 0 0 0 0 34 46 46 0 0 0 10 15l272 273a46 46 0 1 0 65-64l-196-195h527a46 46 0 0 0 0-91h-527l196-195a46 46 0 0 0-65-65z" horiz-adv-x="1000" />

<glyph glyph-name="strl-right" unicode="&#xe866;" d="M578 655l273-273a46 46 0 0 0 9-15 43 43 0 0 0 0-34 46 46 0 0 0-9-15l-273-273a46 46 0 0 0-65 65l196 195h-527a46 46 0 0 0 0 91h527l-196 195a46 46 0 0 0 65 64z" horiz-adv-x="1000" />

<glyph glyph-name="strl-up" unicode="&#xe867;" d="M195 428l273 273a46 46 0 0 0 15 9 43 43 0 0 0 34 0 46 46 0 0 0 15-9l273-273a46 46 0 0 0-64-65l-195 196v-527a46 46 0 0 0-91 0v527l-195-196a46 46 0 0 0-65 65z" horiz-adv-x="1000" />

<glyph glyph-name="t-account-user" unicode="&#xe868;" d="M818-14v-45h-636v45z m-318 773a205 205 0 0 0 129-363h30a159 159 0 0 0 159-160v-204h-636v204a159 159 0 0 0 159 160h30a205 205 0 0 0 129 363z m0-45a159 159 0 0 1-45-312v-52h-114a114 114 0 0 1-114-114v-159h546v159a114 114 0 0 1-114 114h-113v52a159 159 0 0 1-46 312z" horiz-adv-x="1000" />

<glyph glyph-name="t-add-location" unicode="&#xe869;" d="M500 759v-50c-173 0-314-136-314-309 0-136 96-259 232-295 5 0 9-5 14-9l0 0 68-87 68 87c5 4 9 9 14 9 136 36 232 159 232 295l0 0h50c0-159-105-295-259-341l0 0-82-109c-9-5-14-9-23-9s-14 4-23 9l0 0-81 109c-155 46-260 187-260 341 0 200 164 359 364 359l0 0z m0-227c77 0 136-59 136-136s-59-137-136-137-136 59-136 137 59 136 136 136z m0-55c-45 0-82-36-82-81s37-82 82-82 82 36 82 82-36 81-82 81z m255 282v-109h109v-54h-109v-110h-55v110h-109v54h109v109h55z" horiz-adv-x="1000" />

<glyph glyph-name="t-add-plus" unicode="&#xe86a;" d="M473 377v382h59v-382h377v-59h-382v-377h-59v382h-377v59h382z" horiz-adv-x="1000" />

<glyph glyph-name="t-bag" unicode="&#xe86b;" d="M614 718c27 0 50-18 59-41l27-81h150c32 0 59-28 59-60v-490c0-32-27-64-59-64h-695c-32 0-64 27-64 64v490c0 32 27 60 64 60h122v-41h-122c-9 0-23-9-23-19l0-113 4-5c82-72 164-122 241-145v-46c-81 23-163 69-245 137l0-323c0-9 9-23 23-23h695c9 0 18 9 18 23l0 323c-82-68-163-114-245-137v46c82 23 159 73 241 145l4 5 0 113c0 10-9 19-18 19h-564l41 122c9 28 32 41 59 41h228z m-73-409c23 0 41-18 41-41v-82c0-22-18-40-41-40h-82c-23 0-41 18-41 40v82c0 23 18 41 41 41h82z m0-41h-82v-82h82v82z m73 409h-228c-9 0-18-4-18-13l-22-68h313l-23 68c-4 9-13 13-22 13z" horiz-adv-x="1000" />

<glyph glyph-name="t-bell" unicode="&#xe86c;" d="M441 23c9-23 32-41 59-41 27 0 50 18 59 41h41c-9-46-50-82-100-82s-91 36-100 82h41z m59 736c55 0 100-45 100-100 86-41 146-127 146-236v-187c0-4 0-4 0-9l31-77c5-9 5-18 5-27 0-23-9-46-32-55-9-4-18-4-27-4h-450c-32 0-59 27-59 63 0 9 0 19 4 28l32 77c0 4 0 4 0 9v182c0 104 59 195 146 236 4 55 50 100 104 100z m9-123h-18c-109 0-200-95-200-213v-187c0-9 0-18-5-27l-31-77c0-5 0-5 0-9 0-9 9-23 18-23h454c5 0 5 0 9 0 10 5 14 18 10 27l-32 78c-5 9-5 18-5 27v191c0 118-91 213-200 213z m-9 82c-27 0-54-18-59-45 18 4 32 4 50 4h18c18 0 32 0 50-4-4 27-32 45-59 45z" horiz-adv-x="1000" />

<glyph glyph-name="t-blank" unicode="&#xe86d;" d="M500-14c200 0 364 164 364 364s-164 364-364 364-364-164-364-364 164-364 364-364z m0-45c-227 0-409 182-409 409s182 409 409 409 409-182 409-409-182-409-409-409z" horiz-adv-x="1000" />

<glyph glyph-name="t-bookmark-flag" unicode="&#xe86e;" d="M568 759c37 0 68-32 68-68l0 0 0 0 0-136 0-182c0-37-31-68-68-68l0 0-386 0v45l386 0c14 0 23 9 23 23l0 0 0 182 0 0 0 0 0 136c0 14-9 23-23 23l0 0h-432v-773h-45v795c0 14 9 23 23 23l0 0h454z m278-136c36 0 63-32 63-68 0-14-4-28-9-37l0 0-82-122 82-123c18-32 9-73-18-91-9-9-23-9-36-9l0 0h-505c-14-5-23 4-23 18l0 0v68h46l0-45h482c4 0 9 0 9 4 9 5 13 23 4 32l0 0-86 136c-5 10-5 19 0 23l0 0 86 137c5 0 5 4 5 9 0 13-9 22-18 22l0 0h-164v46h164z" horiz-adv-x="1000" />

<glyph glyph-name="t-broadcast-marketing-toa-speaker" unicode="&#xe86f;" d="M286 5h82l-41 204h46l45-245h-159l-77 282-27 0c-32 0-64 27-64 63v164c0 36 27 63 64 63l254 0 327 196c32 18 69 4 82-27 5-9 9-19 9-28l0-186c46-9 82-50 82-100s-36-91-82-100l0-186c0-37-27-64-63-64-9 0-18 5-28 9l-327 196-186 0 63-241z m500 672c0 5 0 5-4 9-5 10-18 14-27 10l-337-200 0 0 0-119h-41l0 119-222 0c-14 0-23-10-23-23v-164c0-13 9-23 23-23h268l336-200c5 0 5-4 9-4 9 0 23 9 23 23v572z m41-227v-114c23 10 41 32 41 60 0 22-18 45-41 54z" horiz-adv-x="1000" />

<glyph glyph-name="t-building-1" unicode="&#xe870;" d="M109-59c-9 0-18 9-18 18 0 9 9 18 18 18h59v682c0 55 46 100 100 100h468c55 0 96-45 96-95v-682h59c9 0 18-9 18-18 0-10-9-19-18-19h-782z m623 777h-464c-32 0-59-27-59-59v-682h118l0 137c0 9 9 18 19 18h313c9 0 18-9 18-18v-137h119v682c-5 37-28 59-64 59z m-96-622h-272l0-119h272l0 119z m19 313c31 0 59-27 59-59v-77c0-32-28-59-59-59h-78c-31 0-59 27-59 59v77c0 32 28 59 59 59h78z m-232 0c32 0 59-27 59-59v-77c0-32-27-59-59-59h-77c-32 0-60 27-60 59v77c0 32 28 59 60 59h77z m232-41h-78c-9 0-18-9-18-18v-77c0-9 9-18 18-18h78c9 0 18 9 18 18v77c4 9-5 18-18 18z m-232 0h-77c-10 0-19-9-19-18v-77c0-9 9-18 19-18h77c9 0 18 9 18 18v77c0 9-9 18-18 18z m0 273c32 0 59-27 59-59v-77c0-32-27-59-59-59h-77c-32 0-60 27-60 59v77c0 32 28 59 60 59h77z m232 0c31 0 59-27 59-59v-77c0-32-28-59-59-59h-78c-31 0-59 27-59 59v77c0 32 28 59 59 59h78z m-232-36h-77c-10 0-19-9-19-19v-77c-4-13 5-23 19-23h77c9 0 18 10 18 19v77c0 14-9 23-18 23z m232 0h-78c-9 0-18-9-18-19v-77c0-9 9-18 18-18h78c9 0 18 9 18 18v73c4 14-5 23-18 23z" horiz-adv-x="1000" />

<glyph glyph-name="t-building-2" unicode="&#xe871;" d="M850 759c32 0 59-27 59-59v-41c0-32-27-59-59-59l-18 0v-623l59 0c9 0 18-9 18-18 0-9-9-18-18-18h-782c-9 0-18 9-18 18 0 9 9 18 18 18l59 0v628l-18 0c-32 0-59 22-59 59v36c0 32 27 59 59 59h700z m-59-154h-582l0-623h587l-5 623z m-136-350c31 0 59-28 59-59v-78c0-32-28-59-59-59h-78c-31 0-59 27-59 59v78c0 31 28 59 59 59h78z m-232 0c32 0 59-28 59-59v-78c0-32-27-59-59-59h-77c-32 0-60 27-60 59v78c0 31 28 59 60 59h77z m232-41h-78c-9 0-18-9-18-18v-78c0-9 9-18 18-18h78c9 0 18 9 18 18v78c4 9-5 18-18 18z m-232 0h-77c-10 0-19-9-19-18v-78c0-9 9-18 19-18h77c9 0 18 9 18 18v78c0 9-9 18-18 18z m0 313c32 0 59-27 59-59v-77c0-32-27-59-59-59h-77c-32 0-60 27-60 59v77c0 32 28 59 60 59h77z m232 0c31 0 59-27 59-59v-77c0-32-28-59-59-59h-78c-31 0-59 27-59 59v77c0 32 28 59 59 59h78z m-232-41h-77c-14 0-23-9-23-18v-77c0-9 9-18 18-18h77c9 0 18 9 18 18v77c5 9-4 18-13 18z m232 0h-78c-9 0-18-9-18-18v-77c0-9 9-18 18-18h78c9 0 18 9 18 18v77c4 9-5 18-18 18z m195 232h-700c-14 0-18-4-18-18v-41c0-9 9-18 18-18h700c9 0 18 9 18 18v41c0 14-4 18-18 18z" horiz-adv-x="1000" />

<glyph glyph-name="t-building-3" unicode="&#xe872;" d="M509 755l391-273c9-5 9-18 5-27s-19-9-28-5l-45 32v-505h59c9 0 18-9 18-18 0-9-9-18-18-18h-782c-9 0-18 9-18 18 0 9 9 18 18 18h59v505l-45-32c-9-4-23-4-27 5-10 9-5 22 4 27l391 273c5 4 14 4 18 0z m-9-41l-291-205c0 0 0-4 0-4v-528h587v528c0 0 0 4 0 4l-296 205z m-77-500c9 0 18-9 18-18v-119c0-9-9-18-18-18h-118c-9 0-19 9-19 18v119c0 9 10 18 19 18h118z m273 0c9 0 18-9 18-18v-119c0-9-9-18-18-18h-119c-9 0-18 9-18 18v119c0 9 9 18 18 18h119z m-291-41h-82v-77h77v77z m272 0h-77v-77h77v77z m-254 273c9 0 18-10 18-19v-118c0-9-9-18-18-18h-118c-9 0-19 9-19 18v118c0 9 10 19 19 19h118z m273 0c9 0 18-10 18-19v-118c0-9-9-18-18-18h-119c-9 0-18 9-18 18v118c0 9 9 19 18 19h119z m-291-37h-82v-77h77v77z m272 0h-77v-77h77v77z" horiz-adv-x="1000" />

<glyph glyph-name="t-building-4" unicode="&#xe873;" d="M109-59c-9 0-18 9-18 18 0 9 9 18 18 18h64c0 5-5 14-5 18v610h-59c-9 0-18 9-18 18v118c0 9 9 18 18 18h777c14 0 23-9 23-18v-118c0-9-9-18-18-18h-59v-605c0-9 0-14-5-18h64c9 0 18-9 18-18 0-10-9-19-18-19h-782z m682 664h-582v-605c0-9 9-18 18-18h96l0 291c0 9 9 18 18 18h314c9 0 18-9 18-18v-291h100c9 0 18 9 18 18v605z m-309-350h-118l0-273h118l0 273z m154 0h-118l0-273h118l0 273z m-213 272c9 0 18-9 18-18v-118c0-9-9-18-18-18h-118c-9 0-19 9-19 18v114c0 9 10 18 19 18h118z m273 0c9 0 18-9 18-18v-118c0-9-9-18-18-18h-119c-9 0-18 9-18 18v114c0 9 9 18 18 18h119z m-291-41h-82v-77h77v77z m272 0h-77v-77h77v77z m191 232h-736v-77h741v77z" horiz-adv-x="1000" />

<glyph glyph-name="t-building-5" unicode="&#xe874;" d="M109-59c-27 0-27 41 0 41h59v759c0 9 9 18 18 18h428c13 0 22-9 22-18v-214h178c9 0 18-9 18-18v-527h59c27 0 27-41 0-41h-782z m487 777h-387v-741h77v178c0 31 28 59 60 59h118c32 0 59-28 59-59l0-178h77v741z m195-232h-155v-504h155l0 77-59 0c-27 0-27 41 0 41l59 0v114l-59 0c-27 0-27 41 0 41l59 0v118h-59c-27 0-27 41 0 41l59 0 0 72z m-332-313h-113c-10 0-19-9-19-18v-178h155v178c0 13-9 18-23 18z m41 159c27 0 27-41 0-41h-195c-28 0-28 41 0 41h195z m0 154c27 0 27-40 0-40h-195c-28 0-28 40 0 40h195z m0 155c27 0 27-41 0-41h-195c-28 0-28 41 0 41h195z" horiz-adv-x="1000" />

<glyph glyph-name="t-building-6" unicode="&#xe875;" d="M655 759c54 0 95-45 95-95v-137h96c31 0 59-27 59-59v-427c0-55-46-96-96-96h-623c-50-4-95 41-95 91v432c0 32 27 59 59 59h96v137c0 50 45 95 100 95h309z m0-41h-309c-32 0-60-27-60-59v-682h78l0 255c0 32 27 59 59 59h154c32 0 59-27 59-59l0-255h78v682c0 37-28 59-59 59z m-409-232h-96c-14 0-18-9-18-18v-427c0-32 27-59 59-59h59v504z m604 0h-95v-504h59c32 0 59 27 59 59v427c-5 9-9 18-23 18z m-368-231h-59c-9 0-18-9-18-19l0-254h77v273z m95 0h-59l0-273h78l0 254c0 10-5 19-19 19z m0 191c28 0 28-41 0-41h-154c-27 0-27 41 0 41h154z m0 159c28 0 28-41 0-41h-154c-27 0-27 41 0 41h154z" horiz-adv-x="1000" />

<glyph glyph-name="t-cal-week" unicode="&#xe876;" d="M255 700v-41h-100c-9 0-23-9-23-18v-614c0-9 9-18 23-18h695c9 0 18 9 18 18v469h-695v40h736v-513c0-32-27-59-59-59h-695c-32 0-64 27-64 59v613c0 32 27 64 64 64h100z m31-450v-50h-95v50h95z m519 0v-50h-446v50h446z m-519 146v-50h-95v50h95z m519 0v-50h-446v50h446z m45 304c32 0 59-32 59-64v-63h-41v63c0 10-9 19-18 19h-100v45h100z m-514 41v-123h-40v123h40z m369 0v-123h-41v123h41z m-82-41v-41h-246v41h246z" horiz-adv-x="1000" />

<glyph glyph-name="t-cal" unicode="&#xe877;" d="M255 700v-41h-100c-9 0-23-9-23-18v-614c0-9 9-18 23-18h695c9 0 18 9 18 18v469h-695v40h736v-513c0-32-27-59-59-59h-695c-32 0-64 27-64 59v613c0 32 27 64 64 64h100z m81-495v-82h-81v82h81z m205 0v-82h-82v82h82z m205 0v-82h-82v82h82z m-410 204v-82h-81v82h81z m205 0v-82h-82v82h82z m205 0v-82h-82v82h82z m104 291c32 0 59-32 59-64v-63h-41v63c0 10-9 19-18 19h-100v45h100z m-514 41v-123h-40v123h40z m369 0v-123h-41v123h41z m-82-41v-41h-246v41h246z" horiz-adv-x="1000" />

<glyph glyph-name="t-camera-thin" unicode="&#xe878;" d="M618 718c5 0 9 0 14-4 9-5 18-14 27-23 5-9 14-18 14-23l32-68h68c77 0 136-59 136-136v-350c0-78-59-137-136-137h-546c-77 0-136 59-136 137v354c0 78 59 137 136 137h64l32 68c4 4 9 13 13 23 14 9 23 18 32 22 5 5 9 5 14 5h236z m-4-36h-228c-4 0-9-5-13-14-5-4-9-13-9-13l-41-78c-5-9-9-13-18-13h-78c-54 0-95-46-95-96v-350c0-54 45-95 95-95h546c54 0 95 45 95 95v350c0 55-45 96-95 96h-77c-10 0-14 4-19 9l-41 77c0 5-4 9-9 18-4 9-9 14-13 14z m-114-196c96 0 177-77 177-177s-77-177-177-177-177 82-177 177 82 177 177 177z m0-40c-77 0-136-60-136-137s59-136 136-136 136 59 136 136-59 137-136 137z m-254 40c22 0 40-18 40-40s-18-37-40-37c-19 0-37 18-37 37s18 40 37 40z" horiz-adv-x="1000" />

<glyph glyph-name="t-chart-down" unicode="&#xe879;" d="M827 268c32 0 59-27 59-63v-205c0-32-27-59-59-59h-81c-32 0-64 27-64 59v205c0 31 27 63 64 63h81z m-286 164c32 0 64-27 64-59v-368c0-32-28-60-64-60h-82c-32 0-59 28-59 60v368c0 32 27 59 59 59h82z m-286 327c31 0 59-27 59-63v-696c0-32-28-59-59-59h-82c-32 0-64 27-64 59v696c0 36 32 63 64 63h82z m0-41h-82c-9 0-23-9-23-22v-696c0-9 9-18 23-18h82c9 0 18 9 18 18v696c4 13-9 22-18 22z m572-491h-81c-10 0-23-9-23-18v-204c0-10 9-19 23-19h81c9 0 19 9 19 19v204c0 9-10 18-19 18z m-286 164h-82c-9 0-18-9-18-18v-368c0-10 9-19 18-19h82c9 0 18 9 18 19v368c5 9-9 18-18 18z" horiz-adv-x="1000" />

<glyph glyph-name="t-chart-up" unicode="&#xe87a;" d="M255 268c31 0 59-27 59-63v-205c0-32-28-59-59-59h-82c-32 0-64 27-64 59v205c0 31 27 63 64 63h82z m286 164c32 0 64-27 64-59v-368c0-32-28-60-64-60h-82c-32 0-59 28-59 60v368c0 32 27 59 59 59h82z m286 327c32 0 59-27 59-63v-696c0-32-27-59-59-59h-81c-32 0-64 27-64 59v696c0 31 27 63 64 63h81z m0-41h-81c-10 0-23-9-23-22v-696c0-9 9-18 23-18h81c9 0 19 9 19 18v696c0 13-10 22-19 22z m-572-491h-82c-9 0-23-9-23-18v-204c0-10 9-19 23-19h82c9 0 18 9 18 19v204c4 9-9 18-18 18z m286 164h-82c-9 0-18-9-18-18v-368c0-10 9-19 18-19h82c9 0 18 9 18 19v368c5 9-9 18-18 18z" horiz-adv-x="1000" />

<glyph glyph-name="t-circle-down" unicode="&#xe87b;" d="M500 759c227 0 409-182 409-409s-182-409-409-409-409 182-409 409 182 409 409 409z m0-41c-204 0-368-163-368-368s164-368 368-368 368 164 368 368-163 368-368 368z m209-277c9-9 9-18 0-27l-195-196c-9-9-18-9-28 0l-195 196c-9 9-9 18 0 27 9 9 18 9 27 0l182-182 182 182c4 9 18 9 27 0z" horiz-adv-x="1000" />

<glyph glyph-name="t-circle-up" unicode="&#xe87c;" d="M500 759c227 0 409-182 409-409s-182-409-409-409-409 182-409 409 182 409 409 409z m0-41c-204 0-368-163-368-368s164-368 368-368 368 164 368 368-163 368-368 368z m14-236l195-196c9-9 9-18 0-27-9-9-18-9-27 0l-182 182-182-182c-9-9-18-9-27 0-9 9-9 18 0 27l195 196c10 4 19 4 28 0z" horiz-adv-x="1000" />

<glyph glyph-name="t-clock" unicode="&#xe87d;" d="M500 759c227 0 409-182 409-409s-182-409-409-409-409 182-409 409 182 409 409 409z m0-45c-200 0-364-164-364-364s164-364 364-364 364 164 364 364-164 364-364 364z m0-137v-227h159v-45h-204v272h45z" horiz-adv-x="1000" />

<glyph glyph-name="t-close-l" unicode="&#xe87e;" d="M905 755c9-9 9-23 0-32l-373-373 373-373c9-9 9-18 4-27l-4-5c-9-9-23-9-32 0l0 0-373 373-373-373c-9-9-22-9-31 0-10 9-10 23 0 32l372 373-372 373c-5 4-5 18 0 27l4 5c5 4 18 4 27 0l0 0 373-373 373 373c9 4 23 4 32 0z" horiz-adv-x="1000" />

<glyph glyph-name="t-close" unicode="&#xe87f;" d="M905 755c9-9 9-23 0-32l-373-373 373-373c9-9 9-18 4-27l-4-5c-9-9-23-9-32 0l0 0-373 373-373-373c-9-9-22-9-31 0-10 9-10 23 0 32l372 373-372 373c-5 4-5 18 0 27l4 5c5 4 18 4 27 0l0 0 373-373 373 373c9 4 23 4 32 0z" horiz-adv-x="1000" />

<glyph glyph-name="t-copy-doc" unicode="&#xe880;" d="M227 623v-568c0-37 32-69 69-69l0 0h386v-45h-386c-64 0-114 50-114 114l0 0v568h45z m364 136l227-227h-227c-27 0-45 18-45 45v137h-205c-14 0-23-9-23-23v-591c0-14 9-23 23-23h409c14 0 23 9 23 23v386h45v-386c0-36-32-68-68-68h-409c-36 0-68 32-68 68v591c0 36 32 68 68 68h250z m0-63v-119h118l-118 119z" horiz-adv-x="1000" />

<glyph glyph-name="t-copy-file" unicode="&#xe881;" d="M591 668l227-227h-227c-27 0-45 18-45 45v137h-205c-14 0-23-9-23-23v-591c0-14 9-23 23-23h409c14 0 23 9 23 23v387h45v-387c0-36-32-68-68-68h-409c-36 0-68 32-68 68v591c0 36 32 68 68 68h250z m-91 91l46-45h-250c-37 0-69-32-69-68v-569h-45v569c0 63 50 113 114 113h204z m91-154v-119h118l-118 119z" horiz-adv-x="1000" />

<glyph glyph-name="t-dashboard-grid" unicode="&#xe882;" d="M909 41c0-55-45-100-100-100h-618c-55 0-100 45-100 100v618c0 55 45 100 100 100h614c59 0 104-45 104-100v-618z m-491 677l-227 0c-32 0-59-27-59-59v-613c0-32 27-60 59-60l227 0v732z m450-386l-409 0 0-350 350 0c32 0 59 27 59 59l0 291z m-59 386l-350 0 0-345 409 0 0 286c0 32-27 59-59 59z" horiz-adv-x="1000" />

<glyph glyph-name="t-disable-file" unicode="&#xe883;" d="M646 268c90 0 163-72 163-163s-77-164-163-164c-91 0-164 73-164 164s73 163 164 163z m-105 491c27 0 50-18 59-41h105c31 0 63-27 63-59v-391h-41v391c0 9-9 18-18 18h-145v19c0 9-9 22-18 22h-128c-9 0-22-9-22-22v-23h-141c-9 4-23-5-23-14v-613c0-10 9-19 23-19h227v-41h-227c-32 0-64 28-64 60v613c0 32 27 59 64 59h104c9 23 32 41 59 41h123z m105-532c-69 0-123-54-123-122s54-123 123-123c68 0 122 54 122 123s-59 122-122 122z m40-50l28-27-46-45 46-46-28-27-45 45-45-45-28 27 46 46-46 45 28 27 45-45 45 45z m-86 459v-40h-245v40h245z" horiz-adv-x="1000" />

<glyph glyph-name="t-document-file" unicode="&#xe884;" d="M577 759c46 0 87-32 96-77h136c32 0 59-27 59-59v-546c0-77-59-136-136-136h-464c-77 0-136 59-136 136v546c0 32 27 59 59 59h136c9 45 46 77 96 77h154z m-250-118h-136c-14 0-23-9-23-18v-546c0-54 46-95 96-95h468c54 0 95 45 95 95v546c0 9-9 18-18 18h-136c-9-45-50-77-96-77h-154c-50 0-87 36-96 77z m369-273c9 0 18-9 18-18s-9-18-18-18h-391c-9 0-19 9-19 18s10 18 19 18h391z m0 118c9 0 18-9 18-18 0-9-9-18-18-18h-391c-9 0-19 9-19 18 0 9 10 18 19 18h391z m-119 232h-154c-32 0-59-22-59-54s27-59 59-59h154c32 0 59 27 59 59s-27 54-59 54z" horiz-adv-x="1000" />

<glyph glyph-name="t-edit-1" unicode="&#xe885;" d="M877 727c41-41 41-104 0-145l-41-41 0-450c0-82-68-150-150-150h-440c-82 0-150 68-150 150v441c0 82 68 150 150 150h436l0 0 45 45c46 41 109 41 150 0z m-236-86l-395 0c-60 0-110-50-110-109v-436c0-60 50-110 110-110h436c59 0 109 50 109 110l0 409-209-209c-5-5-9-5-14-5l-118 0c-14 0-23 9-23 23l0 118c0 4 0 9 5 14l209 195z m118 59l-286-286 0-87 86 0 287 287c22 22 22 63 0 86-23 23-64 23-87 0z" horiz-adv-x="1000" />

<glyph glyph-name="t-equalizer" unicode="&#xe886;" d="M218 350v-386h-41v386h41z m305-173v-213h-41v213h41z m300-172v-41h-41v41h41z m-23 259c59 0 109-50 109-109 0-59-50-109-109-109s-109 50-109 109c5 59 50 109 109 109z m0-41c-36 0-64-27-64-64s28-63 64-63c36 0 64 27 64 63s-28 64-64 64z m-300 213c59 0 109-50 109-109s-50-109-109-109-109 50-109 109 50 109 109 109z m0-45c-36 0-64-27-64-64 0-36 28-63 64-63 36 0 64 27 64 63 0 37-28 64-64 64z m323 345v-431h-41v431h41z m-623-127c59 0 109-50 109-109s-50-109-109-109-109 50-109 109 50 109 109 109z m0-45c-36 0-64-28-64-64 0-36 28-64 64-64s64 28 64 64c0 36-28 64-64 64z m323 172v-259h-41v259h41z m-305 0v-86h-41v86h41z" horiz-adv-x="1000" />

<glyph glyph-name="t-expand" unicode="&#xe887;" d="M891 177c9 0 18-9 18-18l0 0v-82c0-72-59-132-132-136l-4 0h-77c-10 0-19 9-19 18 0 9 9 18 19 18l0 0h77c54 0 95 41 95 91l0 5v77c0 18 9 27 23 27z m-782-4c9 0 18-5 18-14l0-4v-78c0-50 41-95 91-95l9 0h78c9 0 18-9 18-18 0-14-5-23-14-23l-4 0h-78c-72 0-131 54-136 127l0 9v78c0 9 9 18 18 18z m509 432c78 0 137-59 137-137v-232c0-77-59-136-137-136h-236c-77 0-136 59-136 136v232c0 78 59 137 136 137h236z m0-41h-236c-55 0-96-46-96-96v-232c0-54 46-95 96-95h232c54 0 95 45 95 95v232c5 55-36 96-91 96z m-313 195c9 0 18-9 18-18 0-9-9-18-18-18l0 0h-78c-54 0-95-41-95-91l0-5v-77c0-9-9-18-18-18-14-5-23 0-23 9l0 0v82c0 73 59 132 132 136l4 0h78z m468 0c73 0 132-59 136-132l0-4v-77c0-10-9-19-18-19-9 0-18 9-18 19l0 0v77c0 54-41 95-91 95l-5 0h-77c-9 0-18 9-18 18-5 14 0 23 9 23l0 0h82z" horiz-adv-x="1000" />

<glyph glyph-name="t-female-user" unicode="&#xe888;" d="M500 759c141 0 255-113 255-254v-119c0-54 4-90 36-145 5-14-5-27-18-27h-46c41-50 69-114 69-178v-72c0-10-10-19-19-19h-550c-9 0-18 9-18 19v72c0 69 23 128 68 178h-50c-13 0-22 13-18 27 27 59 37 105 37 145v119c0 141 113 254 254 254z m109-504l-4-5c-28-23-64-36-105-36-41 0-82 13-109 41l0 0c-86-41-145-123-145-219v-54h504v54c5 91-54 178-141 219z m-109 463c-118 0-214-95-214-213v-119c0-40-9-81-27-136h50c5 0 5 0 9 0 14 14 32 23 50 32-22 27-36 68-36 104v160c0 18 18 27 32 13 45-41 91-68 141-73 50-4 100-4 150 0 13 0 22-9 22-18v-77c0-41-13-77-36-105 18-9 32-18 50-31 0 0 5 0 9 0h46c-23 50-28 86-28 136v114c-4 118-100 213-218 213z m-136-213v-114c0-77 59-136 136-136s136 59 136 136v55c-45-5-95-5-140 0-41 9-87 27-132 59z" horiz-adv-x="1000" />

<glyph glyph-name="t-file-folder" unicode="&#xe889;" d="M377 700v-41h-222c-9 0-23-9-23-18v-614c0-9 9-18 23-18h695c9 0 18 9 18 18v423h-591c-13 0-22-9-22-18v-386h-41v386c0 32 27 64 63 64h632v-473c0-32-27-59-59-59h-695c-32 0-64 27-64 59v613c0 32 27 64 64 64h222z m450-577v-41h-204v41h204z m23 618c32 0 59-27 59-64v-141h-41v141c0 9-9 23-18 23h-368c-9 0-18-9-18-23v-141h-46v141c0 32 28 64 59 64h373z m-309-123l245 0 0-41-245 0 0 41z" horiz-adv-x="1000" />

<glyph glyph-name="t-filter" unicode="&#xe88a;" d="M609 286v-186c0-27-18-54-41-68l-136-91c-18-9-36 4-36 23v318l-287 350c-27 32-23 82 9 109 14 9 32 18 50 18l664 0c41 0 77-36 77-77 0-18-4-36-18-50l-282-346z m-163-277l100 73c9 4 13 14 13 23v195c0 5 0 14 5 18l286 350c5 5 5 9 5 18 0 14-14 28-28 28l-663 0c-5 0-14 0-18-5-5-18-5-32 4-45l291-355c5-4 5-9 5-18v-282z" horiz-adv-x="1000" />

<glyph glyph-name="t-fit-in" unicode="&#xe88b;" d="M891 177c9 0 18-9 18-18 0-9-9-18-18-18l0 0h-77c-55 0-96-41-96-91l0-4v-78c0-9-9-18-18-18-9 0-18 9-18 18l0 0v78c0 72 59 131 132 136l4 0h73z m-705-4c73 0 132-55 137-127l0-10v-77c0-9-9-18-18-18-9 0-19 4-19 13l0 5v77c0 50-40 96-90 96l-10 0h-77c-9 0-18 9-18 18 0 9 5 18 14 18l4 0h77z m391 354c55 0 96-45 96-95v-155c0-54-46-95-96-95h-154c-55 0-96 45-96 95v150c0 55 46 96 96 96h154z m0-41h-154c-32 0-59-27-59-59v-154c0-32 27-59 59-59h154c32 0 59 27 59 59v154c0 32-27 59-59 59z m-272 273c9 0 18-9 18-18l0 0v-77c0-73-59-132-132-137l-5 0h-77c-9 0-18 5-18 19 0 9 9 18 18 18l0 0h77c55 0 96 41 96 91l0 4v82c4 9 14 18 23 18z m391 0c9 0 18-9 18-18l0 0v-77c0-55 41-96 91-96l4 0h77c10 0 19-9 19-18 0-9-9-18-19-18l0 0h-77c-73 0-132 59-136 132l0 4v73c4 9 13 18 23 18z" horiz-adv-x="1000" />

<glyph glyph-name="t-folder-download" unicode="&#xe88c;" d="M382 718c18 0 32-4 45-18l64-64h359c32 0 59-27 59-63v-18h-41v18c0 9-9 23-18 23h-377l-77 77c-5 4-10 4-14 4h-227c-14 0-23-9-23-18v-613c0-10 9-23 23-23h554l41-41h-595c-32 0-64 27-64 64v613c0 32 27 64 64 64h227z m527-654v-18c0-32-27-64-59-64h-23l82 82z m-104 286v-300l104 105v-55l-109-114c-9-9-18-9-27 0l-109 114v55l104-105v300h37z m104 164v-328l-41-40v327h-591c-9 0-18-9-18-23v-391h-45v391c0 32 27 64 63 64h632z" horiz-adv-x="1000" />

<glyph glyph-name="t-folder-new" unicode="&#xe88d;" d="M382 718c18 0 32-4 45-18l64-64h359c32 0 59-27 59-63v-18h-41v18c0 9-9 23-18 23h-377l-77 77c-5 4-10 4-14 4h-227c-14 0-23-9-23-18v-613c0-10 9-23 23-23h695c9 0 18 9 18 23v427h-591c-9 0-18-9-18-23v-391h-45v391c0 32 27 64 63 64h632v-473c0-32-27-64-59-64h-695c-32 0-64 28-64 64v618c0 32 27 64 64 64h227z m445-572v-41h-204v41h204z" horiz-adv-x="1000" />

<glyph glyph-name="t-folder-search" unicode="&#xe88e;" d="M382 718c18 0 32-4 45-18l64-64h359c32 0 59-27 59-63v-18h-41v18c0 9-9 23-18 23h-377l-77 77c-5 4-10 4-14 4h-227c-14 0-23-9-23-18v-613c0-10 9-23 23-23h509l41-41h-550c-32 0-64 27-64 64v613c0 32 27 64 64 64h227z m450-486c41-41 45-109 14-159l63-64-27-27-64 64c-50-37-113-32-159 13-50 50-50 127 0 173s127 50 173 0z m77 282v-328l-41 41v246h-591c-9 0-18-9-18-23v-391h-45v391c0 32 27 64 63 64h632z m-223-309c-31-32-31-82 0-114s82-32 114 0 32 82 0 114-82 31-114 0z" horiz-adv-x="1000" />

<glyph glyph-name="t-folder-upload" unicode="&#xe88f;" d="M382 718c18 0 32-4 45-18l64-64h359c32 0 59-27 59-63v-18h-41v18c0 9-9 23-18 23h-377l-77 77c-5 4-10 4-14 4h-227c-14 0-23-9-23-18v-613c0-10 9-23 23-23h595v-41h-595c-32 0-64 27-64 64v613c0 32 27 64 64 64h227z m486-532l41-40v-100c0-32-27-64-59-64h-23v41h23c9 0 18 9 18 23v140z m-68 160l109-114v-55l-104 105v-300h-41v300l-105-105v55l109 114c14 4 23 4 32 0z m109 168v-246l-41 41v164h-591c-9 0-18-9-18-23v-391h-45v391c0 32 27 64 63 64h632z" horiz-adv-x="1000" />

<glyph glyph-name="t-fullscreen-wide" unicode="&#xe890;" d="M909 214v-205c0-36-32-68-68-68h-205v45h205c14 0 23 9 23 23v205h45z m-773 0v-205c0-14 10-23 23-23h205v-45h-205c-36 0-68 32-68 68v205h45z m569 409c36 0 68-32 68-68v-409c0-37-32-69-68-69h-409c-37 0-69 32-69 69v409c0 36 32 68 69 68h409z m0-46h-409c-14 0-23-9-23-22v-409c0-14 9-23 23-23h409c13 0 22 9 22 23v409c0 13-9 22-22 22z m-341 182v-45h-205c-13 0-23-9-23-23v-205h-45v205c0 36 32 68 68 68h205z m477 0c36 0 68-32 68-68v-205h-45v205c0 14-9 23-23 23h-205v45h205z" horiz-adv-x="1000" />

<glyph glyph-name="t-headset-customer-service" unicode="&#xe891;" d="M559 759c27 0 46-18 55-41 132-9 236-118 236-254v-368c0-78-59-137-136-137h-64c-4-14-18-18-32-18h-77c-23 0-41 18-41 41 0 23 18 41 41 41h77c14 0 28-9 32-18h64c54 0 95 45 95 95l0 55c-27-32-68-55-118-55h-55c-9 0-18 9-18 18v273c0 9 9 18 18 18h60c45 0 86-18 118-54v113c0 114-87 205-200 214-9-23-32-36-55-36h-118c-27 0-45 18-55 36-109-9-200-100-200-214v-109c28 32 69 55 119 55h59c9 0 18-9 18-18v-273c0-9-9-18-18-18h-59c-87 0-155 68-155 154v209c0 137 105 246 236 255 10 18 32 36 55 36h118z m-213-391h-41c-64 0-119-54-119-118s55-118 119-118h41v236z m350 0h-41v-232h41c63 0 118 55 118 119s-55 113-118 113z m-137 350h-118c-9 0-18-4-18-18s9-18 18-18h118c9 0 18 9 18 18s-9 18-18 18z" horiz-adv-x="1000" />

<glyph glyph-name="t-holder" unicode="&#xe892;" d="M564 759c27 0 50-18 59-41h109c36 0 64-27 64-63v-646c0-36-28-64-64-64h-468c-37 0-64 28-64 64v641c0 36 27 64 64 64h109c9 27 36 45 63 45h128z m0-41h-128c-13 0-22-9-22-22v-23h-150c-14 0-23-9-23-23v-645c0-14 9-23 23-23h472c14 0 23 9 23 23v645c0 14-9 23-23 23h-150v23c0 9-9 22-22 22z m91-163v-41h-309v41h309z" horiz-adv-x="1000" />

<glyph glyph-name="t-home-house-1" unicode="&#xe893;" d="M746 350l40-41v-268c0-32-27-64-63-64h-187v187c0 9-9 18-18 18h-41c-9 0-18-9-18-18v-187h-182c-31 0-63 28-63 64v268l41 41v-309c0-9 9-23 18-23h145v146c0 32 28 59 59 59h41c32 0 59-27 59-59v-146h150c9 0 23 9 23 23v309z m-246 368l409-409h-59l-350 350-350-350h-59l409 409z" horiz-adv-x="1000" />

<glyph glyph-name="t-home-house-2" unicode="&#xe894;" d="M746 350l40-41v-268c0-32-27-64-63-64h-187v187c0 9-9 18-18 18h-41c-9 0-18-9-18-18v-187h-182c-31 0-63 28-63 64v268l41 41v-309c0-9 9-23 18-23h145v146c0 32 28 59 59 59h41c32 0 59-27 59-59v-146h150c9 0 23 9 23 23v309z m-246 368l164-163v41h122v-164l123-123h-59l-104 105v141h-41v-100l-205 204-350-350h-59l409 409z" horiz-adv-x="1000" />

<glyph glyph-name="t-home" unicode="&#xe895;" d="M746 350l40-41v-268c0-32-27-64-63-64h-187v187c0 9-9 18-18 18h-41c-9 0-18-9-18-18v-187h-182c-31 0-63 28-63 64v268l41 41v-309c0-9 9-23 18-23h145v146c0 32 28 59 59 59h41c32 0 59-27 59-59v-146h150c9 0 23 9 23 23v309z m-246 368l164-163v41h122v-164l123-123h-59l-104 105v141h-41v-100l-205 204-350-350h-59l409 409z" horiz-adv-x="1000" />

<glyph glyph-name="t-image-file" unicode="&#xe896;" d="M591 759l236-236v-9h-227c-32 0-59 27-59 59v145h-309c-9 0-18-9-18-22v-696c0-9 9-18 18-18h532c9 0 18 9 18 18v473h41v-473c0-32-27-59-59-59h-532c-32 0-59 27-59 59v696c0 36 27 63 59 63h359z m-200-368l168-150 118 64 73-50v-50l-73 54-122-68-159 145-137-136v59l132 132z m191 41c23 0 41-18 41-41s-18-41-41-41c-23 0-41 18-41 41s18 41 41 41z m0 277v-132c0-13 9-22 23-22h131l-154 154z" horiz-adv-x="1000" />

<glyph glyph-name="t-inbox" unicode="&#xe897;" d="M373 227l32-68c4-9 9-13 18-13l154 0c9 0 14 4 19 9l36 72h277v-181c0-32-27-64-59-64h-636v41h636c9 0 18 9 18 23v140h-213l-23-50c-9-22-32-31-55-31l-154 0c-23 0-46 13-55 36l-22 45h-214v-140c0-10 9-23 23-23h22v-41h-22c-32 0-64 27-64 64v181h282z m150 491v-422l113 113 28-27-150-146c-9-9-23-9-28 0l-150 146 28 27 113-113v422h46z" horiz-adv-x="1000" />

<glyph glyph-name="t-information" unicode="&#xe898;" d="M500 759c227 0 409-182 409-409s-182-409-409-409-409 182-409 409 182 409 409 409z m0-50c-200 0-359-163-359-359s164-359 359-359 359 164 359 359-159 359-359 359z m32-577v-50h-59v50h59z m0 482v-387h-59v387h59z" horiz-adv-x="1000" />

<glyph glyph-name="t-like" unicode="&#xe899;" d="M277 432c32 0 59-27 59-59v-368c0-32-27-60-59-60h-122c-37-4-64 23-64 55v96h41v-96c0-9 9-18 23-18h122c9 0 19 9 19 18v368c0 9-10 18-19 18h-122c-9 0-23-9-23-18v-141h-41v141c0 32 27 59 64 59h122z m605-350c18-14 27-36 27-64 0-45-36-82-82-82h-350l-4 0-96 41 0 41 105-41h345c23 0 41 18 41 41 0 23-18 41-41 41l9 0c19 5 32 14 46 23l0 0z m0 123c18-14 27-37 27-64 0-23-9-45-27-59l-5 4c-13 10-31 19-50 19l0 0 5 0c18 4 36 18 36 41 0 22-18 40-41 40l9 0c19 0 32 10 46 19l0 0z m0 127c18-14 27-36 27-64 0-22-9-45-27-63l-5 4c-13 9-31 18-50 18l0 0 5 0c18 5 36 19 36 41 0 23-18 41-41 41 23 0 41 9 55 23l0 0z m-300 427c45 0 86-32 95-77l9-41c10-45 10-91-4-136l0-5c-5-9 0-23 14-27 0 0 4 0 4 0h127c46 0 82-37 82-82 0-23-9-45-27-64l-5 5c-13 14-31 18-50 18l0 0h0c23 0 41 18 41 41s-18 41-41 41h-127c-4 0-14 0-18 4-32 10-50 46-41 78l5 9c13 36 13 77 4 113l-14 37c-4 27-31 45-54 45h-18c-9 0-18-9-18-22v-123l0-5-5-13c-27-78-68-146-123-200l-13-5-28 0 0 41 14 0c50 50 86 109 109 177l0 9v119c0 36 27 63 64 63h18z" horiz-adv-x="1000" />

<glyph glyph-name="t-line-thine-down" unicode="&#xe89a;" d="M500 168l-373 414c-9 9-22 9-31 0-5-9-10-23 0-32l386-432c9-9 23-9 32 0l386 432c9 9 9 23 0 32-9 9-23 9-32 0l-368-414z" horiz-adv-x="1000" />

<glyph glyph-name="t-line-thine-left" unicode="&#xe89b;" d="M755 718c9 9 13 23 4 32-9 9-23 14-32 5l-481-387c-14-9-14-27 0-36l481-387c9-9 28-4 32 5 9 9 5 27-4 32l-455 368 455 368z" horiz-adv-x="1000" />

<glyph glyph-name="t-line-thine-right" unicode="&#xe89c;" d="M246 718c-14 5-14 23-5 32 9 9 23 14 32 5l482-387c13-9 13-27 0-36l-482-387c-9-9-27-4-32 5-9 9-5 27 5 32l454 368-454 368z" horiz-adv-x="1000" />

<glyph glyph-name="t-line-thine-up" unicode="&#xe89d;" d="M500 532l-373-414c-9-9-22-9-31 0-10 9-10 23 0 32l386 432c9 9 23 9 32 0l386-432c9-9 9-23 0-32-9-9-23-9-32 0l-368 414z" horiz-adv-x="1000" />

<glyph glyph-name="t-link-hyperlink" unicode="&#xe89e;" d="M441 359l-36-36c-37 9-78 4-105-27l-132-128c-41-41-41-104 0-145 41-41 105-41 146 0l127 127c27 27 36 68 27 105l37 36c27-59 18-127-28-177l-127-128c-59-59-154-59-214 0-59 60-59 155 0 214l128 127c50 50 118 59 177 32z m159 127l36-36-236-236-36 36 236 236z m264 228c59-59 59-155 0-214l-128-127c-45-46-118-59-177-27l37 36c36-9 77-5 104 27l132 123c41 41 41 104 0 145-41 41-105 41-146 0l-127-127c-27-27-36-68-27-104l-36-37c-28 59-19 127 27 177l127 128c59 59 155 59 214 0z" horiz-adv-x="1000" />

<glyph glyph-name="t-link" unicode="&#xe89f;" d="M323 441c68 68 186 59 268-18 9-9 9-23 0-32s-23-9-32 0c-59 64-150 68-200 18l0 0-163-163c-50-50-46-141 18-205 59-64 150-73 200-23l0 0 163 164c9 9 23 9 32 0 9-9 9-23 0-32l0 0-163-164c-69-68-187-59-269 19-77 77-86 200-18 268l0 0 164 168z m232 273c68 68 186 59 268-18 77-78 86-200 18-269l0 0-164-168c-68-68-186-59-268 18-9 9-9 23 0 32 9 9 23 9 32 0 59-63 150-68 200-18l0 0 164 164c50 50 45 141-19 204-59 64-150 73-200 23l0 0-159-164c-9-9-22-9-31 0-10 9-10 23 0 32l0 0 159 164z" horiz-adv-x="1000" />

<glyph glyph-name="t-location" unicode="&#xe8a0;" d="M118 682l5 0 254-50-9-50-227 45v-563l205-41v482h50v-482l204 41v109h50v-109l205-41v582h54v-614c0-9-4-14-9-18-4-5-9-5-18-5 0 0-5 0-5 0l0 0-250 50-250-50c-4 0-4 0-9 0l0 0-254 50c-14 5-23 14-23 23l0 0v618c0 9 5 14 9 18 5 5 14 9 23 5l-5 0z m509 50c100 0 178-82 178-177 0-164-155-319-159-323-5-5-14-9-19-9s-13 4-18 9c-4 4-159 164-159 323 0 100 77 177 177 177z m0-50c-72 0-127-59-127-127 0-109 91-223 127-269 41 46 128 160 128 269 0 72-55 127-128 127z m0-50c41 0 78-36 78-77s-37-78-78-78c-41 0-77 37-77 78s36 77 77 77z m0-50c-13 0-27-14-27-27s14-28 27-28 28 14 28 28-14 27-28 27z" horiz-adv-x="1000" />

<glyph glyph-name="t-lock-open" unicode="&#xe8a1;" d="M296 555c0 113 90 204 204 204s205-91 205-204l0 0h-50c0 86-69 154-155 154-86 0-154-68-154-154l0 0v-100h381c41 0 78-37 78-78v-359c0-41-37-77-78-77h-459c-41 0-77 36-77 77v359c0 41 36 78 77 78h28v100z m436-155h-464c-13 0-27-14-27-27v-359c0-14 14-28 27-28h459c14 0 28 14 28 28v359c0 18-9 27-23 27z" horiz-adv-x="1000" />

<glyph glyph-name="t-locked" unicode="&#xe8a2;" d="M655 555c0 86-69 154-155 154-86 0-154-68-154-154l0 0v-100h-50v100c0 113 90 204 204 204s205-91 205-204l0 0v-100h27c41 0 77-37 77-78v-359c0-41-36-77-77-77h-464c-41 0-77 36-77 77v359c0 41 36 78 77 78h382v100z m77-155h-464c-13 0-27-14-27-27v-359c0-14 14-28 27-28h459c14 0 28 14 28 28v359c0 18-9 27-23 27z" horiz-adv-x="1000" />

<glyph glyph-name="t-maintenance" unicode="&#xe8a3;" d="M496 691c63-64 86-155 59-241l331-332c28-27 28-72 0-100l-54-54c-27-28-73-28-100 0l-332 332c-82-28-177-5-241 59-68 68-86 168-50 254l14 32 150-155 68 23 23 68-155 155 32 14c86 31 186 13 255-55z m-200 18l122-123-41-113-113-41-123 123c-9-59 9-123 55-169 54-54 136-68 204-40l14 4 354-355c9-9 23-9 32 0l55 55c9 9 9 23 0 32l-355 354 5 14c27 68 13 150-41 205-46 45-109 63-168 54z m190-313l105-105-32-32-104 105 31 32z" horiz-adv-x="1000" />

<glyph glyph-name="t-man" unicode="&#xe8a4;" d="M500 374a193 193 0 1 1-127 48 192 192 0 0 1 127-48z m0 340a146 146 0 1 0-146-148 146 146 0 0 0 146 148z m136-388h-272a289 289 0 0 1-273-288 96 96 0 0 1 96-97h626a96 96 0 0 1 96 96 289 289 0 0 1-273 289z m206-310a69 69 0 0 0-51-24h-580a69 69 0 0 0-52 24 66 66 0 0 0-16 52 237 237 0 0 0 221 208h272a238 238 0 0 0 223-209 67 67 0 0 0-18-52z" horiz-adv-x="1000" />

<glyph glyph-name="t-menu-list" unicode="&#xe8a5;" d="M91 323v59h818v-59h-818z m0 350v59h818v-59h-818z m0-705v59h818v-59h-818z" horiz-adv-x="1000" />

<glyph glyph-name="t-message" unicode="&#xe8a6;" d="M909-36c5-14-9-28-23-23l-200 45c-59-27-122-45-186-45-227 0-409 182-409 409s182 409 409 409 409-182 409-409c0-64-13-127-45-186l45-200z m-86 200c0 4 0 9 0 13 27 55 45 114 45 173 0 205-163 368-368 368s-368-163-368-368 164-368 368-368c64 0 123 13 173 45 4 0 9 5 13 0l178-41-41 178z" horiz-adv-x="1000" />

<glyph glyph-name="t-mobile-menu" unicode="&#xe8a7;" d="M109 82h777c10 0 23-9 23-23 0-9-9-18-18-18l-5 0h-777c-9 0-18 9-18 18 0 14 9 23 18 23l0 0h777-777z m777 286c10 0 23-9 23-18s-9-18-23-18l0 0h-777c-9 0-18 9-18 18s9 18 18 18l0 0h777z m-777 291h777c10 0 23-9 23-18 0-9-9-18-18-18l-5 0h-777c-9-5-18 4-18 13 0 10 9 19 18 23l0 0h777-777z" horiz-adv-x="1000" />

<glyph glyph-name="t-move-location" unicode="&#xe8a8;" d="M373 82v-50h-50v50h50z m-105 0v-50h-150v50h150z m205 0v-50h-50v50h50z m104 0v-50h-50v50h50z m100 0v-50h-50v50h50z m205 0v-50h-155v50h155z m-150 586c95 0 177-77 177-177 0-164-154-318-159-323-4-4-14-9-18-9-5 0-14 5-18 9-5 5-159 164-159 323-5 100 77 177 177 177z m-464 0c100 0 178-82 178-177 0-164-155-318-160-323-4-4-13-9-18-9s-13 5-18 9c-4 5-159 159-159 323 0 100 82 177 177 177z m464-50c-73 0-127-59-127-127 0-109 91-223 127-268 41 45 127 159 127 268 0 68-59 127-127 127z m-464 0c-72 0-127-59-127-127 0-109 91-223 127-268 41 45 128 159 128 268 4 68-55 127-128 127z m464-77c41 0 77-36 77-77s-36-78-77-78c-41 0-77 37-77 78s31 77 77 77z m-464 0c41 0 78-36 78-77s-37-78-78-78-77 37-77 78 36 77 77 77z m464-50c-14 0-27-14-27-27s13-23 27-23c14 0 27 14 27 27s-13 23-27 23z m-464 0c-13 0-27-14-27-27s14-23 27-23 28 14 28 27-14 23-28 23z" horiz-adv-x="1000" />

<glyph glyph-name="t-multiple-doc" unicode="&#xe8a9;" d="M841 259l68-45-409-273-409 273 68 45 41-27-27-18 327-219 327 219-27 18 41 27z m0 137l68-46-409-273-409 273 68 46 41-28-27-18 327-218 327 218-27 18 41 28z m-341 363l409-273-409-272-409 272 409 273z m0-54l-327-219 327-218 327 218-327 219z" horiz-adv-x="1000" />

<glyph glyph-name="t-notification-alarm" unicode="&#xe8aa;" d="M441 23c9-23 32-41 59-41 27 0 50 18 59 41h41c-9-46-50-82-100-82s-91 36-100 82h41z m59 736c55 0 100-45 100-100 86-41 146-127 146-236v-187c0-4 0-4 0-9l31-77c5-9 5-18 5-27 0-23-9-46-32-55-9-4-18-4-27-4h-450c-32 0-59 27-59 63 0 9 0 19 4 28l32 77c0 4 0 4 0 9v182c0 104 59 195 146 236 4 55 50 100 104 100z m9-123h-18c-109 0-200-95-200-213v-187c0-9 0-18-5-27l-31-77c0-5 0-5 0-9 0-9 9-23 18-23h454c5 0 5 0 9 0 10 5 14 18 10 27l-32 78c-5 9-5 18-5 27v191c0 118-91 213-200 213z m177 82c78 0 146-63 146-145l0 0v-18h-41v18c0 54-45 100-105 100l0 0h-18v45h18z m-350 0v-41h-22c-55 0-105-45-105-100v-18h-36v14c0 77 63 145 145 145h18z m164 0c-27 0-54-18-59-45 18 4 32 4 50 4h18c18 0 32 0 50-4-4 27-32 45-59 45z" horiz-adv-x="1000" />

<glyph glyph-name="t-outbox" unicode="&#xe8ab;" d="M373 227l32-68c4-9 9-13 18-13l154 0c9 0 14 4 19 9l36 72h277v-181c0-32-27-64-59-64h-636v41h636c9 0 18 9 18 23v140h-213l-23-50c-9-22-32-31-55-31l-154 0c-23 0-46 13-55 36l-22 45h-214v-140c0-10 9-23 23-23h22v-41h-22c-32 0-64 27-64 64v181h282z m141 487l150-146-28-32-113 114v-423h-41v423l-118-114-28 28 150 150c10 4 19 4 28 0z" horiz-adv-x="1000" />

<glyph glyph-name="t-paste" unicode="&#xe8ac;" d="M600 555l205-205h-205c-23 0-41 18-41 41v123h-141c-9 0-18-9-18-23v-491c0-9 9-18 18-18h328c9 0 18 9 18 18v309h41v-309c0-32-28-59-59-59h-328c-32 0-59 27-59 59v491c0 32 27 64 59 64h182z m-59 204c27 0 50-18 59-41h105c31 0 63-27 63-59v-227l-41 41v186c0 9-9 18-18 18h-145v19c0 9-9 22-18 22h-128c-9 0-22-9-22-22v-23h-141c-9 4-23-5-23-14v-613c0-10 9-19 23-19h59v-41h-59c-32 0-64 28-64 60v613c0 32 27 59 64 59h104c9 23 32 41 59 41h123z m59-263v-105h105l-105 105z m0 140v-40h-245v40h245z" horiz-adv-x="1000" />

<glyph glyph-name="t-pie-chart" unicode="&#xe8ad;" d="M500 718v-368h82v-41h-123v368c-182-9-327-163-327-345 0-191 154-346 350-346 186 0 336 146 345 328h-204v36h245v-23c0-213-172-386-391-386s-386 173-386 386 173 391 391 391h18z m64 41c191 0 345-154 345-350v-18h-368v368h23z m18-41v-286h286c-9 154-132 277-286 286z" horiz-adv-x="1000" />

<glyph glyph-name="t-power" unicode="&#xe8ae;" d="M600 627c5 9 14 14 23 14 50-18 100-45 136-86 146-141 146-369 0-509-145-142-377-142-523 0-145 140-145 368 0 509 41 36 87 68 137 86 9 5 23 0 23-14 4-9 0-22-14-22-46-14-86-41-123-78-127-127-127-327 0-454 127-128 341-128 468 0 128 127 128 327 0 454-36 37-77 59-122 78-5 4-9 13-5 22z m-100 132c9 0 18-9 18-18l0 0v-314c0-9-9-18-18-18-9 0-18 9-18 18l0 0v314c0 9 9 18 18 18z" horiz-adv-x="1000" />

<glyph glyph-name="t-print" unicode="&#xe8af;" d="M786 268v-282h-572v282z m-40-41h-491v-200h491z m104 314a61 61 0 0 0 59-63v-314a65 65 0 0 0-59-64h-23v41h23a20 20 0 0 1 18 18v318c0 9-9 23-18 23h-695a25 25 0 0 1-23-23v-313a21 21 0 0 1 23-18h22v-41h-22a65 65 0 0 0-64 63v310a65 65 0 0 0 64 63z m-550-109c9 0 23-9 23-18a21 21 0 0 0-23-18h-68a18 18 0 0 0 0 36z m486 282v-132h-40v91h-491v-91h-41v132z" horiz-adv-x="1000" />

<glyph glyph-name="t-reduce-min" unicode="&#xe8b0;" d="M909 377v-59h-818v59h818z" horiz-adv-x="1000" />

<glyph glyph-name="t-refresh-1" unicode="&#xe8b1;" d="M241 596l118-119c5-4 5-18 0-22s-18-9-27 0l-86 81v-422c0-55 45-96 95-96h273c9 0 18-9 18-18 0-9-9-18-18-18h-273c-77 0-136 59-136 136v418l-82-81c-9-9-18-9-27 0s-5 18 0 27l118 118c9 5 18 5 27-4z m414 122c77 0 136-59 136-136v-423l82 82c9 9 18 9 27 0 9-9 9-18 0-27l-118-118c-9-10-18-10-27 0l-119 118c-9 9-9 18 0 27 10 9 19 9 28 0l82-82v423c0 54-46 95-96 95h-273c-4 5-13 14-13 23 0 14 9 18 18 18h273z" horiz-adv-x="1000" />

<glyph glyph-name="t-refresh" unicode="&#xe8b2;" d="M850 486c9 0 18-9 18-18v-272c0-78-59-137-136-137h-418l82-82c9-9 9-18 0-27-10-9-19-9-28 0l-118 118c-9 9-9 18 0 28l118 118c9 9 18 9 28 0 9-9 9-18 0-28l-82-81h418c54 0 95 45 95 95v273c5 4 14 13 23 13z m-218 269l118-119c9-9 9-18 0-27l-118-118c-9-9-18-9-27 0-9 9-9 18 0 27l81 82h-418c-54 0-95-45-95-95v-273c0-9-9-18-18-18-9 0-19 9-19 18v273c0 77 60 136 137 136h423l-82 82c-9 9-9 18 0 27-5 9 9 9 18 5z" horiz-adv-x="1000" />

<glyph glyph-name="t-remove-location" unicode="&#xe8b3;" d="M500 759v-50c-168 0-309-136-309-309 0-136 91-259 227-295 5 0 9-5 14-9l0 0 68-87 68 87c5 4 9 9 14 9 132 36 227 159 227 295l0 0h50c0-159-104-295-254-341l0 0-82-109c-9-5-14-9-23-9s-14 4-18 9l0 0-82 109c-150 46-254 187-254 341-5 200 159 359 354 359l0 0z m0-232c73 0 127-59 127-127s-59-127-127-127-127 59-127 127 54 127 127 127z m0-50c-41 0-77-36-77-77s36-77 77-77 77 36 77 77-36 77-77 77z m314 273l36-36-86-87 86-86-36-36-87 86-86-86-36 36 86 86-82 87 37 36 86-82 82 82z" horiz-adv-x="1000" />

<glyph glyph-name="t-reply_share" unicode="&#xe8b4;" d="M541 696c0 18 23 27 36 13l328-350c9-9 9-18 0-27l-328-346c-13-13-36-4-36 14l0 223c-200-18-327-91-414-232-9-18-36-9-36 14 18 295 159 459 450 500l0 191z m41-50l0-164c0-9-9-18-18-18-255-32-387-155-423-387 91 114 227 173 418 187 14 0 23-9 23-18l0-191 277 295-277 296z" horiz-adv-x="1000" />

<glyph glyph-name="t-ribbon" unicode="&#xe8b5;" d="M750 759c36 0 68-32 68-68v-727c0-14-9-23-22-23-5 0-14 0-19 4l-268 219c-9 9-18 9-27 0l-268-219c-14-13-37 0-37 19v727c5 36 37 68 73 68h500z m0-45h-500c-14 0-23-9-23-23v-677l228 186c27 23 59 23 86 0l227-186v677c5 14-4 23-18 23z m-23-91v-46h-454v46h454z" horiz-adv-x="1000" />

<glyph glyph-name="t-save-disk" unicode="&#xe8b6;" d="M696 759c4 0 9 0 13-4l196-196c4-4 4-9 4-13v-469c0-77-59-136-136-136h-546c-77 0-136 59-136 136v546c0 77 59 136 136 136h469z m-10-41l-127 0 0-177c0-9-9-18-18-18h-236c-9 4-19 9-19 23l0 177-59-5c-54 0-95-45-95-95v-546c0-54 45-95 95-95l19 0 0 332c0 9 9 18 18 18h391c9 0 18-9 18-18l0-332 95 0c55 0 96 45 96 95v459l-178 182z m-50-659h-350v-77h350v77z m0 114h-350v-77h350v77z m0 118h-350v-77h350v77z m-118 427h-195v-154h195v154z" horiz-adv-x="1000" />

<glyph glyph-name="t-scale-1" unicode="&#xe8b7;" d="M773 759c77 0 136-59 136-136v-546c0-77-59-136-136-136h-546c-77 0-136 59-136 136v546c0 77 59 136 136 136h546z m0-41h-546c-54 0-95-45-95-95v-546c0-54 45-95 95-95l332 0v232c0 45 37 82 77 82l5 0h232l0 331c-5 50-46 91-100 91z m95-463h-232c-22 0-40-19-40-37l0-4v-232l177 0c54 0 95 45 95 95l0 178z m-486 386c9 0 18-9 18-18 0-9-9-18-18-18l0 0h-109l241-241c9-9 9-18 0-28-9-9-18-9-28 0l0 0-240 241v-109c0-9-10-18-19-18-9 0-18 9-18 18l0 0v155c0 9 9 18 18 18l0 0h155z" horiz-adv-x="1000" />

<glyph glyph-name="t-scale-2" unicode="&#xe8b8;" d="M773 759c77 0 136-59 136-136v-546c0-77-59-136-136-136h-546c-77 0-136 59-136 136v546c0 77 59 136 136 136h546z m0-41h-546c-54 0-95-45-95-95v-546c0-54 45-95 95-95l332 0v232c0 45 37 82 77 82l5 0h232l0 331c-5 50-46 91-100 91z m95-463h-232c-22 0-40-19-40-37l0-4v-232l177 0c54 0 95 45 95 95l0 178z m-654 381c9 10 18 10 27 0l0 0 241-240v109c0 9 9 18 18 18 9 0 18-9 18-18l0 0v-155c0-9-9-18-18-18l0 0h-154c-10 0-19 9-19 18 0 9 9 18 19 18l0 0h109l-241 241c-9 9-9 18 0 27z" horiz-adv-x="1000" />

<glyph glyph-name="t-search" unicode="&#xe8b9;" d="M691 185a307 307 0 1 1-434 0 306 306 0 0 1 434 0z m29-46l164-163-37-37-165 169a356 356 0 1 0 45 40z" horiz-adv-x="1000" />

<glyph glyph-name="t-send-box" unicode="&#xe8ba;" d="M868 350c9 0 18-9 18-18l0 0v-246c0-77-63-141-140-141l0 0h-491c-78 0-146 64-146 141l0 0v246c0 9 9 18 23 18s23-9 23-18l0 0v-246c0-54 45-100 104-100l0 0h491c55 0 100 46 100 100l0 0v246c-4 9 9 18 18 18z m-382 405c10 9 23 9 28 0l0 0 163-164c9-9 9-23 0-27-9-9-22-9-27 0l0 0-127 127v-523c0-9-9-18-18-18s-19 9-19 18l0 0v523l-136-132c-9-9-23-9-27 0-9 9-9 23 0 27l0 0 163 169z" horiz-adv-x="1000" />

<glyph glyph-name="t-ser-1-add" unicode="&#xe8bb;" d="M382 350c164 0 291-132 291-291v-77c0-9-9-18-18-18h-546c-9 0-18 9-18 18v77c0 159 132 291 291 291z m0-41c-141 0-255-113-255-254v-60h509v60c0 141-113 254-254 254z m409 218v-95h95c28 0 28-41 0-41h-95v-95c0-28-41-28-41 0v95h-95c-28 0-28 41 0 41h95v95c5 23 41 23 41 0z m-409 214c95 0 177-77 177-177s-77-178-177-178-173 82-173 178 77 177 173 177z m0-41c-77 0-136-59-136-136s59-137 136-137 136 59 136 137-59 136-136 136z" horiz-adv-x="1000" />

<glyph glyph-name="t-ser-1-reduce" unicode="&#xe8bc;" d="M382 350c164 0 291-132 291-291v-77c0-9-9-18-18-18h-546c-9 0-18 9-18 18v77c0 159 132 291 291 291z m0-41c-141 0-255-113-255-254v-60h509v60c0 141-113 254-254 254z m509 82c27 0 27-41 0-41h-232c-27 0-27 41 0 41h232z m-509 350c95 0 177-77 177-177s-77-178-177-178-173 82-173 178 77 177 173 177z m0-41c-77 0-136-59-136-136s59-137 136-137 136 59 136 137-59 136-136 136z" horiz-adv-x="1000" />

<glyph glyph-name="t-ser-1" unicode="&#xe8bd;" d="M500 350c168 0 309-136 309-309v-82c0-9-9-18-18-18h-577c-9 0-18 9-18 18v82c-5 173 136 309 304 309z m0 41c-100 0-182 82-182 186s82 182 182 182 186-82 186-182-86-186-186-186z m0 41c77 0 146 64 146 145s-69 141-146 141-145-63-145-141 68-145 145-145z m268-450v59c0 145-118 268-268 268s-268-118-268-268v-59h536z" horiz-adv-x="1000" />

<glyph glyph-name="t-ser-a" unicode="&#xe8be;" d="M500-18c91 0 182 13 277 36 9 0 19 9 19 18v46c0 36-23 73-60 82l-86 27c-50 18-86 68-86 123v9l36 36c5 5 9 9 9 14l37 77h13c9 0 18 9 18 18l0 37c0 9-9 18-18 18h-23v100c0 54-45 95-95 95h-77c-55 0-100-41-100-95v-96h-18c-10 0-19-9-19-18l0-36c0-9 9-18 19-18h13l37-78c4-4 4-9 9-13l36-37v-9c0-54-36-104-86-122l-87-28c-36-13-59-45-59-82v-45c0-9 9-18 18-18 91-32 182-41 273-41z m159 245l87-27c50-18 86-68 86-123v-45c0-27-23-55-50-59-96-19-186-32-282-32s-186 13-282 36c-27 5-50 28-50 59v46c0 54 37 104 87 123l86 27c32 9 59 41 59 77l-23 23c-9 9-13 18-18 27l-27 50c-27 5-46 32-46 59l0 37c0 27 19 45 41 54v64c0 77 59 136 137 136h77c77 0 136-59 136-136v-64c23-9 41-32 41-54l0-37c0-27-18-50-45-59l-27-54c-5-9-10-19-19-28l-27-22c0-37 23-69 59-78z" horiz-adv-x="1000" />

<glyph glyph-name="t-ser-c" unicode="&#xe8bf;" d="M791-18c9 0 18 9 18 18v46c0 40-27 77-63 86l-91 32c-55 18-91 68-91 127v9l36 36c5 5 9 14 14 19l22 54c19 41 23 91 19 137l-9 72c0 55-46 100-105 100h-82c-54 0-104-45-104-104l-5-64c-4-45 0-95 18-136l23-55c5-9 9-13 14-23l36-36v-9c0-59-36-109-91-127l-91-32c-36-14-63-50-63-86v-46c0-9 9-18 18-18l577 0z m-127 223l91-32c54-18 91-68 91-127v-46c0-32-23-59-55-59h-582l-4 0c-32 4-55 32-55 59v46c0 59 36 109 91 127l91 32c36 13 59 41 64 77l-23 23c-9 9-18 22-23 36l-18 55c-23 50-32 104-23 159l9 63c0 78 64 141 141 141h82c77 0 141-63 141-141l9-68c5-54 0-104-23-154l-22-55c-5-14-14-23-23-32l-23-23c5-40 32-72 64-81z" horiz-adv-x="1000" />

<glyph glyph-name="t-ser-male-add" unicode="&#xe8c0;" d="M423 759c145 0 232-63 232-195 0-5 0-9 0-18 0 0 0 0 0-5 0 0 0-5 0-5-5-109-41-200-105-245 0 0 5 0 5-5 109-45 177-145 177-254v-73c0-9-9-18-18-18h-582c-9 0-18 9-18 18v73c0 109 68 209 177 254l9 5c-73 50-109 141-109 250 0 0 0 5 0 5l0 4c0 5 0 9 0 18-5 128 86 191 232 191z m-87-491c0 0-4 0 0 0l-31-13c-96-41-155-123-155-219v-54h546v54c0 96-60 178-155 219-9 4-18 9-32 13 0 0 0 0 0 0-27-9-54-13-86-13-32 0-64 4-87 13z m-36 309c-14-22-41-45-73-50 9-141 78-236 196-236 118 0 182 95 195 232l-182 0c-54 4-100 23-136 54z m123 141c-123 0-196-45-196-150 28 5 46 28 46 55 0 18 27 27 36 9 23-41 68-68 123-68l186 0 0 0c0 104-72 154-195 154z m391 23v-59h59c27 0 27-41 0-41h-59v-59c0-27-41-27-41 0v59h-59c-28 0-28 41 0 41h59v59c0 23 41 23 41 0z" horiz-adv-x="1000" />

<glyph glyph-name="t-ser-male-reduce" unicode="&#xe8c1;" d="M423 759c145 0 232-63 232-195 0-5 0-9 0-18 0 0 0 0 0-5 0 0 0-5 0-5-5-109-41-200-105-245 0 0 5 0 5-5 109-45 177-145 177-254v-73c0-9-9-18-18-18h-582c-9 0-18 9-18 18v73c0 109 68 209 177 254l9 5c-73 50-109 141-109 250 0 0 0 5 0 5l0 4c0 5 0 9 0 18-5 128 86 191 232 191z m-87-491c0 0-4 0 0 0l-31-13c-96-41-155-123-155-219v-54h546v54c0 96-60 178-155 219-9 4-18 9-32 13 0 0 0 0 0 0-27-9-54-13-86-13-32 0-64 4-87 13z m-36 309c-14-22-41-45-73-50 9-141 78-236 196-236 118 0 182 95 195 232l-182 0c-54 4-100 23-136 54z m123 141c-123 0-196-45-196-150 28 5 46 28 46 55 0 18 27 27 36 9 23-41 68-68 123-68l186 0c0 0 0 0 0 0 0 104-72 154-195 154z m445-36c28 0 28-41 0-41h-154c-28 0-28 41 0 41h154z" horiz-adv-x="1000" />

<glyph glyph-name="t-ser-male" unicode="&#xe8c2;" d="M500 759c146 0 232-63 232-195 0-5 0-9 0-18 0 0 0 0 0-5 0 0 0-5 0-5-5-109-41-200-105-245 0 0 5 0 5-5 109-45 177-145 177-254v-73c0-9-9-18-18-18h-582c-9 0-18 9-18 18v73c0 109 68 209 177 254l9 5c-72 50-104 141-109 250 0 0 0 5 0 5l0 4c0 5 0 9 0 18 0 128 87 191 232 191z m-86-491c0 0 0 0 0 0l-32-13c-96-41-155-128-155-219v-54h546v54c0 96-59 178-155 219-9 4-18 9-32 13 0 0 0 0 0 0-27-9-54-13-86-13-32 0-59 4-86 13z m-32 309c-18-22-41-45-77-50 9-141 77-236 195-236 118 0 182 95 196 232l-182 0c-55 4-100 23-132 54z m118 141c-123 0-195-50-195-154 27 9 45 27 45 54 0 18 27 28 36 9 23-41 69-68 123-68l187 0c0 0 0 0 0 0 0 109-73 159-196 159z" horiz-adv-x="1000" />

<glyph glyph-name="t-settting" unicode="&#xe8c3;" d="M559 759c9 0 18-9 23-18l18-77c18-5 36-14 50-23l68 45c9 5 23 5 28-4l86-86c9-10 9-19 4-28l-45-68c9-18 14-32 23-50l77-18c9 0 18-14 18-23v-123c0-9-9-18-18-22l-77-18c-5-19-14-37-23-50l45-69c5-9 5-22-4-27l-86-86c-10-9-19-9-28-5l-68 46c-18-9-32-14-50-23l-18-78c0-9-14-18-23-18h-118c-9 0-18 9-23 18l-18 78c-18 4-36 14-50 23l-68-46c-9-4-23-4-27 5l-87 86c-9 9-9 18-4 27l45 69c-9 18-13 31-23 50l-77 18c-9 0-18 13-18 22v123c0 9 9 18 18 23l77 18c5 18 14 36 23 50l-45 68c-5 9-5 18 4 28l87 86c9 9 18 9 27 4l68-45c18 9 32 14 50 23l18 77c0 9 9 18 23 18h118z m-18-45h-86l-14-73c0-9-9-18-14-18-22-5-45-14-63-27-9-5-18-5-23 0l-68 40-59-59 41-63c4-9 4-18 0-23-14-23-23-45-28-68 0-9-9-14-18-18l-73-14v-86l73-14c9 0 14-9 18-18 5-23 14-46 28-64 4-9 4-18 0-23l-41-63 59-59 63 41c10 4 19 4 23 0 23-14 41-23 64-28 9 0 13-9 18-18l14-73h86l14 73c0 9 9 14 18 18 23 5 45 14 63 28 10 4 19 4 23 0l64-41 59 59-41 63c-5 10-5 19 0 23 14 23 23 41 27 64 0 9 9 13 18 18l73 14v86l-73 14c-9 0-13 9-18 18-4 23-13 45-27 63-5 10-5 19 0 23l45 68-59 59-63-40c-9-5-18-5-23 0-23 13-41 22-64 27-9 0-13 9-18 18l-18 73z m-41-182c100 0 182-82 182-182s-82-182-182-182-182 82-182 182 82 182 182 182z m0-46c-77 0-136-59-136-136s59-136 136-136 136 59 136 136-59 136-136 136z" horiz-adv-x="1000" />

<glyph glyph-name="t-setttings" unicode="&#xe8c4;" d="M559 759c9 0 18-9 23-18l18-77c18-5 36-14 50-23l68 45c9 5 23 5 28-4l86-86c9-10 9-19 4-28l-45-68c9-18 14-32 23-50l77-18c9 0 18-14 18-23v-123c0-9-9-18-18-22l-77-18c-5-19-14-37-23-50l45-69c5-9 5-22-4-27l-86-86c-10-9-19-9-28-5l-68 46c-18-9-32-14-50-23l-18-78c0-9-14-18-23-18h-118c-9 0-18 9-23 18l-18 78c-18 4-36 14-50 23l-68-46c-9-4-23-4-27 5l-87 86c-9 9-9 18-4 27l45 69c-9 18-13 31-23 50l-77 18c-9 0-18 13-18 22v123c0 9 9 18 18 23l77 18c5 18 14 36 23 50l-45 68c-5 9-5 18 4 28l87 86c9 9 18 9 27 4l68-45c18 9 32 14 50 23l18 77c0 9 9 18 23 18h118z m-18-45h-86l-14-73c0-9-9-18-14-18-22-5-45-14-63-27-9-5-18-5-23 0l-68 40-59-59 41-63c4-9 4-18 0-23-14-23-23-45-28-68 0-9-9-14-18-18l-73-14v-86l73-14c9 0 14-9 18-18 5-23 14-46 28-64 4-9 4-18 0-23l-41-63 59-59 63 41c10 4 19 4 23 0 23-14 41-23 64-28 9 0 13-9 18-18l14-73h86l14 73c0 9 9 14 18 18 23 5 45 14 63 28 10 4 19 4 23 0l64-41 59 59-41 63c-5 10-5 19 0 23 14 23 23 41 27 64 0 9 9 13 18 18l73 14v86l-73 14c-9 0-13 9-18 18-4 23-13 45-27 63-5 10-5 19 0 23l45 68-59 59-63-40c-9-5-18-5-23 0-23 13-41 22-64 27-9 0-13 9-18 18l-18 73z m-41-182c100 0 182-82 182-182s-82-182-182-182-182 82-182 182 82 182 182 182z m0-46c-77 0-136-59-136-136s59-136 136-136 136 59 136 136-59 136-136 136z" horiz-adv-x="1000" />

<glyph glyph-name="t-share" unicode="&#xe8c5;" d="M755 759c77 0 136-59 136-136s-59-137-136-137c-50 0-96 28-119 73l-272-132c13-22 22-45 22-72 0-28-9-50-18-69l268-136c23 41 69 68 119 68 77 0 136-59 136-136s-59-137-136-137c-78 0-137 60-137 137 0 9 0 23 5 32l-282 141c-23-23-55-37-91-37-77 0-136 59-136 137s59 136 136 136c32 0 64-14 86-32l287 141c0 9-5 18-5 27 0 73 59 132 137 132z m0-586c-55 0-96-46-96-96s46-95 96-95c54 0 95 45 95 95s-41 96-95 96z m-509 273c-55 0-96-46-96-96s46-95 96-95 95 45 95 95-41 96-95 96z m509 272c-55 0-96-45-96-95s46-96 96-96c54 0 95 46 95 96s-41 95-95 95z" horiz-adv-x="1000" />

<glyph glyph-name="t-sign-in" unicode="&#xe8c6;" d="M677 759c87 0 155-59 155-136v-546c0-77-68-136-155-136h-236c-86 0-155 59-155 136v78c0 22 37 27 37 4l0-4v-78c0-54 50-95 118-95h232c63 0 118 45 118 95v546c0 54-50 95-118 95h-232c-64 0-118-45-118-95v-77c0-14-5-19-18-19-9 0-19 5-19 19v77c0 77 69 136 155 136h236z m-231-241c9 9 18 9 27 0l0 0 154-154c9-9 9-18 0-28l0 0-154-154c-9-9-18-9-27 0-10 9-10 18 0 27l0 0 122 123h-382c-9 0-18 9-18 18 0 9 9 18 18 18l0 0h382l-122 123c-5 9-5 23 0 27z" horiz-adv-x="1000" />

<glyph glyph-name="t-sign-out" unicode="&#xe8c7;" d="M500 759c86 0 155-59 155-136v-77c0-10-9-19-19-19-9 0-18 9-18 19v77c0 54-50 95-118 95h-195c-64 0-119-45-119-95v-546c0-54 50-95 119-95h195c64 0 118 45 118 95v78c0 27 41 27 41 0v-78c0-77-68-136-154-136h-200c-87 0-155 59-155 136v546c0 77 68 136 155 136h195z m164-241c9 9 18 9 27 0l0 0 155-154c9-9 9-18 0-28l0 0-155-154c-9-9-18-9-27 0-9 9-9 18 0 27l0 0 122 123h-381c-9 0-19 9-19 18 0 9 10 18 19 18l0 0h381l-122 123c-9 9-9 23 0 27z" horiz-adv-x="1000" />

<glyph glyph-name="t-tab-window-approve" unicode="&#xe8c8;" d="M255 718v-82h491v82h40v-82h64c32 0 59-27 59-63v-59h-41v59c0 9-9 23-18 23h-695c-9 0-23-10-23-23v-532c0-9 9-23 23-23h695c9 0 18 9 18 23v391h-695v41h736v-432c0-32-27-64-59-64h-695c-32 0-64 28-64 64v532c0 32 27 63 64 63h59v82h41z m341-368l27-27-132-168c-9-9-23-9-27 0l0 0-82 81 27 28 68-68 119 154z" horiz-adv-x="1000" />

<glyph glyph-name="t-tab-window" unicode="&#xe8c9;" d="M746 718h40v-82h64c32 0 59-27 59-63v-59h-41v59c0 9-9 23-18 23h-695c-9 0-23-10-23-23v-532c0-9 9-23 23-23h695c9 0 18 9 18 23v391h-695v41h736v-432c0-32-27-64-59-64h-695c-32 0-64 28-64 64v532c0 32 27 63 64 63h59v82h41v-82h491v82z m-223-368v-104h100v-41h-100v-105h-41v105h-105v41h100v104h46z" horiz-adv-x="1000" />

<glyph glyph-name="t-target" unicode="&#xe8ca;" d="M523 759v-86c159-9 291-141 300-300h86v-41h-86c-9-159-141-291-300-300v-91h-41v86c-164 9-296 141-305 300h-86v41h86c9 164 141 296 300 305v86h46z m-23-127c-154 0-282-127-282-282s128-282 282-282 282 128 282 282-127 282-282 282z m0-132c82 0 150-68 150-150 0-82-68-150-150-150-82 0-150 68-150 150 0 82 68 150 150 150z m0-41c-59 0-109-50-109-109s50-109 109-109 109 50 109 109-50 109-109 109z" horiz-adv-x="1000" />

<glyph glyph-name="t-telephone-call-ringing" unicode="&#xe8cb;" d="M250 746l164-164c13-14 4-41-23-118-14-32-14-59 5-78l140-140c14-14 46-19 73-5 77 32 105 41 123 23l164-164c18-18 13-50-10-73-113-113-295-113-409 0l-304 309c-114 114-114 296 0 405 23 18 59 27 77 5z m-45-32c-96-96-96-255 0-355l304-309c96-96 255-96 350 0 9 9 9 18 9 18l-159 159c-4 0-9 0-13-4-14-5-37-14-69-23-45-23-91-18-122 14l-141 145c-28 27-32 73-14 118 14 32 23 55 27 69 0 4 5 9 5 13l0 0-159 159c-5 5-9 0-18-4z m336-200c68 0 123-55 123-123h-50c0 41-32 73-73 73v50z m0 122c136 0 245-109 245-245h-45c0 109-91 200-200 200v45z m0 123c205 0 368-163 368-368h-45c0 177-146 323-323 323v45z" horiz-adv-x="1000" />

<glyph glyph-name="t-telephone-call" unicode="&#xe8cc;" d="M396 386l140-140c14-14 46-19 73-5 77 32 105 41 123 23l164-164c18-18 13-50-10-73-113-113-295-113-409 0l-304 309c-114 114-114 296 0 405 23 18 59 27 77 5l164-164c13-14 4-41-23-118-14-32-14-64 5-78z m313-154c0 0 5 0 0 0 5 0 5 0 0 0l0 0z m-13-5c-14-4-37-13-69-22-45-23-91-19-122 13l-141 141c-28 27-32 73-14 118 14 32 23 55 27 69 0 9 5 13 5 18 0 0 0 0 4-5l-163 159c0 0-9 0-18-9-96-95-96-254 0-354l304-309c96-96 255-96 350 0 9 9 9 18 9 18l-159 159c-4 9-9 9-13 4z" horiz-adv-x="1000" />

<glyph glyph-name="t-trash-bin-1" unicode="&#xe8cd;" d="M273 577l41-568c0-14 9-23 22-23h332c14 0 23 9 23 23l36 568h46l-41-572c0-37-32-64-68-64h-328c-36 0-68 27-68 64l-41 572h46z m282 182c27 0 50-13 59-36l32-55h218v-45h-250l-41 77c0 9-9 14-18 14h-109c-10 0-19-5-19-14l-41-77h-250v45h223l27 55c10 23 32 36 60 36h109z" horiz-adv-x="1000" />

<glyph glyph-name="t-trash-bin-2" unicode="&#xe8ce;" d="M259 600l37-568c0-14 9-23 22-23h332c14 0 23 9 23 23l41 568h45l-41-573c0-36-32-63-68-63h-332c-36 0-68 27-68 63l-36 573h45z m282 182c27 0 50-14 59-36l27-55h219v-45h-728v45h223l27 55c14 22 37 36 59 36h114z m0-46h-109c-9 0-18-4-23-13l-13-32h181l-18 32c0 9-9 13-18 13z" horiz-adv-x="1000" />

<glyph glyph-name="t-unlike" unicode="&#xe8cf;" d="M896 355c18-14 27-37 27-64 0-45-37-82-82-82h-127c0 0-5 0-5 0-9-4-18-13-13-27l4-9c14-46 18-91 5-137l-9-41c-10-45-50-77-96-77h-18c-32 0-64 27-64 59v119l-4 9c-23 68-59 127-109 177l-14 0 0 41 27 0 5-5c54-54 100-122 123-200l4-13 0-5v-114c0-9 9-18 18-18h18c28 0 50 18 55 46l9 41c9 36 9 77-4 113l-5 9c-9 32 5 69 41 78 4 0 14 4 18 4h127c23 0 41 18 41 41 0 23-18 41-41 41 37-5 55 0 69 14l0 0z m-605 391c32 0 59-28 59-64v-368c0-32-27-59-59-59h-123c-32 0-63 27-63 59v141h41v-141c0-9 9-18 22-18h123c9 0 18 9 18 18v368c0 9-9 23-18 23h-123c-9 0-22-9-22-23v-96h-41v96c0 32 27 64 63 64h123z m605-269c18-13 27-36 27-63 0-23-9-46-27-64l-5 5c-14 9-32 18-50 18l0 0 0 0c23 0 41 18 41 41 0 22-18 41-41 41l9 0c18 4 36 13 46 22l0 0z m0 123c18-14 27-36 27-59s-9-45-27-64l-5 5c-14 9-32 18-50 18l0 0 5 0c18 5 36 18 36 41 0 23-18 41-41 41l9 0c18 0 36 9 46 18l0 0z m-55 146c45 0 82-37 82-82 0-23-9-46-27-59l-5 4c-14 5-32 14-50 14l0 0 5 0c18 4 36 18 36 41 0 22-18 41-41 41h-345l-105-41v41l95 41 5 0h350z" horiz-adv-x="1000" />

<glyph glyph-name="t-video-stream-player" unicode="&#xe8d0;" d="M618 55c14-23-22-46-36-23l-82 154h46l72-131z m-482 0c-4-9-4-23 10-28 9-4 22-4 27 9l86 155h-45l-78-136z m773 604v-409c0-9-9-23-23-23h-81c-5 0-9 0-14 5l-77 77h-55v-18c0-32-27-64-59-64h-450c-32 0-59 28-59 64v323c0 32 27 63 59 63h450c32 0 59-27 59-63v-18h55l77 77c5 4 9 4 14 4h81c14 0 23-9 23-18z m-41-23h-54l-78-77c-4-4-9-4-13-4h-105v59c0 9-9 22-22 22h-446c-9 0-18-9-18-22v-328c0-9 9-22 18-22h450c9 0 23 9 23 22v228h41v-164h63c5 0 9 0 14-4l77-78h55v368z m-613-40c-23 0-41-19-41-41s18-41 41-41c22 0 41 18 41 41s-19 41-41 41z" horiz-adv-x="1000" />

<glyph glyph-name="t-video-thin" unicode="&#xe8d1;" d="M577 714c32 0 59-28 59-59v-19h50l73 73c5 5 9 5 14 5h118c9 0 18-9 18-18v-469c0-9-9-18-18-18h-118c-5 0-9 0-14 5l-73 72h-50v-18c0-32-27-59-59-59l-86 0 105-204c13-23-23-41-37-19l-109 223h-173l-109-223c-4-9-18-13-27-9-9 5-14 18-9 28l104 204-86 0c-32 0-59 27-59 59v387c0 31 27 59 59 59h427z m0-41h-427c-14 0-18-5-18-18v-391c0-9 9-18 18-18h427c9 0 19 9 19 18v391c0 13-5 18-19 18z m291 0h-91l-72-73c-5-4-9-4-14-4h-55v-273h60c4 0 9 0 13-5l73-72h91v427z m-659-37c23 0 41-18 41-40-4-19-23-37-41-37-23 0-41 18-41 37 0 22 18 40 41 40z" horiz-adv-x="1000" />

<glyph glyph-name="t-write" unicode="&#xe8d2;" d="M823 741l68-68c27-27 27-68 0-91l-159-159-32 32 73 63-105 105-482-487 100-100 355 355 32-32-368-368-28-5-4-4 0 0-182-46 45 182 0 0 0 9 10 28 581 586c28 23 69 23 96 0z m-650-655l-23-86 86 23-63 63z m586 623l-54-54 100-100 54 54c9 9 9 23 0 32l-68 68c-9 9-23 9-32 0z" horiz-adv-x="1000" />

<glyph glyph-name="time" unicode="&#xe8d3;" d="M623 309a41 41 0 0 0-41-41h-123a41 41 0 0 0-41 41v164a41 41 0 0 0 82 0v-123h82a41 41 0 0 0 41-41z m286 41a409 409 0 1 0-409 409 409 409 0 0 0 409-409z m-82 0a327 327 0 1 1-327-327 328 328 0 0 1 327 327z" horiz-adv-x="1000" />

<glyph glyph-name="twitter" unicode="&#xe8d4;" d="M909 604a340 340 0 0 0-96-27 168 168 0 0 1 73 91 342 342 0 0 0-106-41 168 168 0 0 1-290-114 176 176 0 0 1 4-38 476 476 0 0 0-346 177 171 171 0 0 1-23-85 168 168 0 0 1 75-139 167 167 0 0 0-76 21v-3a169 169 0 0 1 136-164 179 179 0 0 0-45-6 175 175 0 0 0-33 3 168 168 0 0 1 157-116 338 338 0 0 0-208-72 386 386 0 0 0-40 2 473 473 0 0 1 257-75 475 475 0 0 1 478 477l0 22a332 332 0 0 1 83 87z" horiz-adv-x="1000" />

</font>
</defs>
</svg>
