<svg width="255" height="186" viewBox="0 0 255 186" fill="none" xmlns="http://www.w3.org/2000/svg">
<g clip-path="url(#clip0_947_68126)">
<path d="M156.63 22.65H22.2401C14.7125 22.65 8.61011 28.7524 8.61011 36.28V130.57C8.61011 138.098 14.7125 144.2 22.2401 144.2H156.63C164.158 144.2 170.26 138.098 170.26 130.57V36.28C170.26 28.7524 164.158 22.65 156.63 22.65Z" fill="white"/>
<path d="M153.36 144.19H22.5501C14.1501 144.19 7.31006 137.35 7.31006 128.95V36.58C7.31006 28.18 14.1501 21.34 22.5501 21.34H153.36C161.76 21.34 168.6 28.18 168.6 36.58V128.95C168.6 137.35 161.76 144.19 153.36 144.19ZM22.5501 22.65C14.8701 22.65 8.61006 28.9 8.61006 36.59V128.96C8.61006 132.68 10.0601 136.18 12.6901 138.81C15.3201 141.44 18.8201 142.89 22.5401 142.89H153.35C161.03 142.89 167.29 136.64 167.29 128.95V36.58C167.29 28.9 161.04 22.64 153.35 22.64H22.5501V22.65Z" fill="#101C39"/>
<path d="M193.823 66.1514L195.506 67.8343L197.189 66.1514L195.506 64.4685L193.823 66.1514Z" fill="#45788F"/>
<path d="M232.013 82.4014L237.38 87.7683L242.747 82.4014L237.38 77.0344L232.013 82.4014Z" fill="#45788F"/>
<path d="M217.062 36.4075L220.739 40.0845L224.416 36.4075L220.739 32.7306L217.062 36.4075Z" fill="#45788F"/>
<path d="M27.4099 68.25C26.2499 68.25 25.0999 67.81 24.2199 66.93C22.4599 65.17 22.4599 62.3 24.2199 60.54C25.9799 58.78 28.8499 58.78 30.6099 60.54C32.3699 62.3 32.3699 65.17 30.6099 66.93C29.7299 67.81 28.5699 68.25 27.4199 68.25H27.4099ZM27.4099 60.52C26.5899 60.52 25.7599 60.83 25.1399 61.46C24.5199 62.09 24.1999 62.87 24.1999 63.73C24.1999 64.59 24.5299 65.4 25.1399 66C26.3899 67.25 28.4299 67.25 29.6899 66C30.2999 65.39 30.6299 64.59 30.6299 63.73C30.6299 62.87 30.2999 62.06 29.6899 61.46C29.0599 60.83 28.2399 60.52 27.4199 60.52H27.4099Z" fill="#101C39"/>
<path d="M32.8499 69.82C32.6799 69.82 32.5199 69.76 32.3899 69.63L31.0999 68.34C30.8499 68.09 30.8499 67.67 31.0999 67.42C31.3499 67.17 31.7699 67.17 32.0199 67.42L33.3099 68.71C33.5599 68.96 33.5599 69.38 33.3099 69.63C33.1799 69.76 33.0199 69.82 32.8499 69.82Z" fill="#101C39"/>
<path d="M26.9301 162.58L14.8101 184.96L45.6901 185.35L26.9301 162.58Z" fill="#160F29"/>
<path d="M117.81 185.35H42.4301C37.9801 185.35 34.0201 182.55 32.5301 178.36L18.1401 137.77C17.3301 135.48 19.0201 133.08 21.4501 133.08H96.8301C101.28 133.08 105.24 135.88 106.73 140.07L121.12 180.66C121.93 182.95 120.24 185.35 117.81 185.35Z" fill="#160F29"/>
<path d="M121.07 185.35H45.6901C41.2401 185.35 37.2801 182.55 35.7901 178.36L21.4001 137.77C20.5901 135.48 22.2801 133.08 24.7101 133.08H100.09C104.54 133.08 108.5 135.88 109.99 140.07L124.38 180.66C125.19 182.95 123.5 185.35 121.07 185.35Z" fill="#847D8A"/>
<path d="M121.07 182.63C121.43 182.63 121.63 182.42 121.72 182.29C121.81 182.16 121.94 181.9 121.82 181.57L107.43 140.98C106.33 137.88 103.38 135.8 100.1 135.8H24.71C24.35 135.8 24.15 136.01 24.06 136.14C23.97 136.27 23.84 136.53 23.96 136.86L38.35 177.45C39.45 180.55 42.4 182.63 45.68 182.63H121.06H121.07Z" fill="white"/>
<path d="M66.6001 134.48C66.6001 134.83 66.8801 135.11 67.2301 135.11C67.5801 135.11 67.8601 134.83 67.8601 134.48C67.8601 134.13 67.5801 133.85 67.2301 133.85C66.8801 133.85 66.6001 134.13 66.6001 134.48Z" fill="#160F29"/>
<path d="M37.7901 149.42H66.8901L64.6901 142.83H35.5801L37.7901 149.42Z" fill="#45788F"/>
<path d="M67.06 156.51H39.86C39.5 156.51 39.21 156.22 39.21 155.86C39.21 155.5 39.5 155.21 39.86 155.21H67.06C67.42 155.21 67.71 155.5 67.71 155.86C67.71 156.22 67.42 156.51 67.06 156.51Z" fill="#101C39"/>
<path d="M69.9801 164.83H42.7801C42.4201 164.83 42.1301 164.54 42.1301 164.18C42.1301 163.82 42.4201 163.53 42.7801 163.53H69.9801C70.3401 163.53 70.6301 163.82 70.6301 164.18C70.6301 164.54 70.3401 164.83 69.9801 164.83Z" fill="#101C39"/>
<path d="M55.4701 173.15H42.7801C42.4201 173.15 42.1301 172.86 42.1301 172.5C42.1301 172.14 42.4201 171.85 42.7801 171.85H55.4701C55.8301 171.85 56.1201 172.14 56.1201 172.5C56.1201 172.86 55.8301 173.15 55.4701 173.15Z" fill="#101C39"/>
<path d="M70.46 36.55H42.87C40.7603 36.55 39.05 38.2603 39.05 40.37C39.05 42.4797 40.7603 44.19 42.87 44.19H70.46C72.5698 44.19 74.28 42.4797 74.28 40.37C74.28 38.2603 72.5698 36.55 70.46 36.55Z" fill="#160F29"/>
<path d="M89.89 60.08H42.87C40.7603 60.08 39.05 61.7903 39.05 63.9C39.05 66.0097 40.7603 67.72 42.87 67.72H89.89C91.9998 67.72 93.71 66.0097 93.71 63.9C93.71 61.7903 91.9998 60.08 89.89 60.08Z" fill="#160F29"/>
<path d="M27.56 88.35C26.4 88.35 25.25 87.91 24.37 87.03C22.61 85.27 22.61 82.4 24.37 80.64C26.13 78.88 29 78.88 30.76 80.64C31.61 81.49 32.08 82.63 32.08 83.83C32.08 85.03 31.61 86.17 30.76 87.02C29.91 87.87 28.72 88.34 27.57 88.34L27.56 88.35ZM27.56 80.62C26.74 80.62 25.91 80.93 25.29 81.56C24.67 82.19 24.35 82.97 24.35 83.83C24.35 84.69 24.68 85.5 25.29 86.1C26.54 87.35 28.58 87.35 29.84 86.1C30.45 85.49 30.78 84.69 30.78 83.83C30.78 82.97 30.45 82.16 29.84 81.56C29.21 80.93 28.39 80.62 27.57 80.62H27.56Z" fill="#101C39"/>
<path d="M32.99 89.92C32.82 89.92 32.66 89.86 32.53 89.73L31.24 88.44C30.99 88.19 30.99 87.77 31.24 87.52C31.49 87.27 31.91 87.27 32.16 87.52L33.45 88.81C33.7 89.06 33.7 89.48 33.45 89.73C33.32 89.86 33.16 89.92 32.99 89.92Z" fill="#101C39"/>
<path d="M75.8999 80.17H43.0099C40.9002 80.17 39.1899 81.8803 39.1899 83.99C39.1899 86.0997 40.9002 87.81 43.0099 87.81H75.8999C78.0097 87.81 79.7199 86.0997 79.7199 83.99C79.7199 81.8803 78.0097 80.17 75.8999 80.17Z" fill="#160F29"/>
<path d="M93.1202 87.82H116.42C118.53 87.82 120.24 86.1097 120.24 84C120.24 81.8903 118.53 80.18 116.42 80.18H93.1202C91.0105 80.18 89.3002 81.8903 89.3002 84C89.3002 86.1097 91.0105 87.82 93.1202 87.82Z" fill="#160F29"/>
<path d="M27.6999 108.44C26.4899 108.44 25.3599 107.97 24.5099 107.12C23.6599 106.27 23.1899 105.13 23.1899 103.93C23.1899 102.73 23.6599 101.59 24.5099 100.74C25.3599 99.89 26.4999 99.42 27.6999 99.42C28.8999 99.42 30.0399 99.89 30.8899 100.74C31.7399 101.59 32.2099 102.73 32.2099 103.93C32.2099 105.13 31.7399 106.27 30.8899 107.12C30.0399 107.97 28.8999 108.44 27.6999 108.44ZM27.6999 100.71C26.8399 100.71 26.0299 101.04 25.4299 101.65C24.8199 102.26 24.4899 103.06 24.4899 103.92C24.4899 104.78 24.8199 105.59 25.4299 106.19C26.0399 106.8 26.8399 107.13 27.6999 107.13C28.5599 107.13 29.3699 106.8 29.9699 106.19C30.5699 105.58 30.9099 104.78 30.9099 103.92C30.9099 103.06 30.5799 102.25 29.9699 101.65C29.3599 101.04 28.5599 100.71 27.6999 100.71Z" fill="#101C39"/>
<path d="M33.1299 110.01C32.9599 110.01 32.7999 109.95 32.6699 109.82L31.3799 108.53C31.1299 108.28 31.1299 107.86 31.3799 107.61C31.6299 107.36 32.0499 107.36 32.2999 107.61L33.5899 108.9C33.8399 109.15 33.8399 109.57 33.5899 109.82C33.4599 109.95 33.2999 110.01 33.1299 110.01Z" fill="#101C39"/>
<path d="M103.15 100.27H43.1501C41.0403 100.27 39.3301 101.98 39.3301 104.09C39.3301 106.2 41.0403 107.91 43.1501 107.91H103.15C105.26 107.91 106.97 106.2 106.97 104.09C106.97 101.98 105.26 100.27 103.15 100.27Z" fill="#160F29"/>
<path d="M27.8401 128.54C26.6301 128.54 25.5001 128.07 24.6501 127.22C23.8001 126.37 23.3301 125.23 23.3301 124.03C23.3301 122.83 23.8001 121.69 24.6501 120.84C25.5001 119.99 26.6401 119.52 27.8401 119.52C29.0401 119.52 30.1801 119.99 31.0301 120.84C31.8801 121.69 32.3501 122.83 32.3501 124.03C32.3501 125.23 31.8801 126.37 31.0301 127.22C30.1801 128.07 29.0401 128.54 27.8401 128.54ZM27.8401 120.81C26.9801 120.81 26.1701 121.14 25.5701 121.75C24.9601 122.36 24.6301 123.16 24.6301 124.02C24.6301 124.88 24.9601 125.69 25.5701 126.29C26.1801 126.9 26.9801 127.23 27.8401 127.23C28.7001 127.23 29.5101 126.9 30.1101 126.29C30.7201 125.68 31.0501 124.88 31.0501 124.02C31.0501 123.16 30.7201 122.35 30.1101 121.75C29.5001 121.14 28.7001 120.81 27.8401 120.81Z" fill="#101C39"/>
<path d="M33.28 130.11C33.11 130.11 32.95 130.05 32.82 129.92L31.53 128.63C31.28 128.38 31.28 127.96 31.53 127.71C31.78 127.46 32.2 127.46 32.45 127.71L33.74 129C33.99 129.25 33.99 129.67 33.74 129.92C33.61 130.05 33.45 130.11 33.28 130.11Z" fill="#101C39"/>
<path d="M70.89 120.36H43.3C41.1903 120.36 39.48 122.07 39.48 124.18C39.48 126.29 41.1903 128 43.3 128H70.89C72.9997 128 74.71 126.29 74.71 124.18C74.71 122.07 72.9997 120.36 70.89 120.36Z" fill="#160F29"/>
<path d="M97.61 36.55H89.81C87.7003 36.55 85.99 38.2603 85.99 40.37C85.99 42.4797 87.7003 44.19 89.81 44.19H97.61C99.7197 44.19 101.43 42.4797 101.43 40.37C101.43 38.2603 99.7197 36.55 97.61 36.55Z" fill="#160F29"/>
<path d="M150.86 55.62L157.31 82.4H184L169.94 45.4L150.86 55.62Z" fill="white"/>
<path d="M184.94 83.06H156.79L150.1 55.29L170.28 44.48L184.94 83.06ZM157.82 81.76H183.06L169.6 46.33L151.61 55.97L157.82 81.77V81.76Z" fill="#101C39"/>
<path d="M204.31 121.63C215.14 121.63 223.92 112.85 223.92 102.02C223.92 91.1897 215.14 82.41 204.31 82.41C193.479 82.41 184.7 91.1897 184.7 102.02C184.7 112.85 193.479 121.63 204.31 121.63Z" fill="#45788F"/>
<path d="M221.93 93.39L240.75 132.56L206.2 147.35L187.29 111.77L221.93 93.39Z" fill="#45788F"/>
<path d="M206.2 147.35L212.01 159.44L200.29 184.96H225.85L241.27 168.23C247.86 159.35 248.73 147.47 243.51 137.72L240.75 132.56L206.2 147.35Z" fill="white"/>
<path d="M226.13 185.62H199.27L211.28 159.46L205.31 147.03L241.04 131.74L244.09 137.43C249.4 147.35 248.5 159.6 241.8 168.63L241.76 168.68L226.14 185.62H226.13ZM201.3 184.32H225.56L240.77 167.83C247.15 159.2 248.01 147.51 242.94 138.05L240.46 133.41L207.08 147.7L212.73 159.46L201.31 184.33L201.3 184.32Z" fill="#101C39"/>
<path d="M212.01 83.97L184.7 73.19L157.48 75.11L136.65 86.12V185.35H210.51L212.01 83.97Z" fill="#45788F"/>
<path d="M144.2 123.84C155.03 123.84 163.81 115.06 163.81 104.23C163.81 93.3997 155.03 84.62 144.2 84.62C133.37 84.62 124.59 93.3997 124.59 104.23C124.59 115.06 133.37 123.84 144.2 123.84Z" fill="#45788F"/>
<path d="M125.16 99.53L117.76 125.25L150.86 136.52L161.96 112.4L125.16 99.53Z" fill="#45788F"/>
<path d="M117.76 125.25L111.37 150.18L92.0699 135.17C88.5399 132.42 86.5099 128.17 86.5999 123.69L86.9499 106.45C86.9499 106.45 83.3299 104.23 82.4799 108.65C81.5199 113.62 80.9199 116.1 80.9199 116.1L64.7399 96.23C64.1599 95.52 63.3399 95.03 62.4399 94.91C61.2699 94.76 60.0699 95.23 60.9899 98.31C61.0799 98.6 61.1999 98.88 61.3599 99.14L67.7899 109.85C67.7899 109.85 64.5999 110.7 65.2299 114.46C65.2299 114.46 63.0299 117.09 63.7399 119.36C63.7399 119.36 61.6799 122.63 62.7499 124.19C62.7499 124.19 65.3799 135.34 72.1199 138.89L104.6 176.29C113.81 186.89 130.94 184.13 136.36 171.18L150.86 136.52L117.77 125.25H117.76Z" fill="white"/>
<path d="M118.84 183.47C113.22 183.47 107.88 181.06 104.11 176.72L71.6999 139.41C65.1399 135.86 62.4399 125.69 62.1299 124.45C61.1399 122.8 62.5299 120.13 63.0299 119.26C62.5599 117.17 63.9999 114.99 64.5399 114.28C64.2099 111.64 65.6099 110.17 66.8299 109.53L60.7899 99.47C60.5999 99.16 60.4599 98.83 60.3499 98.49C59.8299 96.78 59.8799 95.6 60.4799 94.88C60.7899 94.52 61.3899 94.11 62.4999 94.25C63.5499 94.38 64.5199 94.93 65.2299 95.8L80.5699 114.63C80.8399 113.42 81.2799 111.37 81.8299 108.5C82.1299 106.93 82.7999 105.9 83.8199 105.45C85.4199 104.74 87.1999 105.82 87.2799 105.86L87.5999 106.06L87.2399 123.67C87.1499 127.92 89.0999 132.01 92.4599 134.62L110.98 149.02L117.3 124.37L151.72 136.09L136.95 171.4C134.32 177.69 128.73 182.09 121.99 183.18C120.93 183.35 119.88 183.43 118.83 183.43L118.84 183.47ZM62.0699 95.55C61.8399 95.55 61.6099 95.59 61.4899 95.74C61.3599 95.9 61.0999 96.44 61.6099 98.13C61.6799 98.37 61.7799 98.6 61.9099 98.82L68.7799 110.27L67.9399 110.49C67.6799 110.56 65.3399 111.31 65.8599 114.37L65.9099 114.67L65.7199 114.9C65.7199 114.9 63.7599 117.29 64.3499 119.19L64.4399 119.48L64.2799 119.73C63.5699 120.85 62.6699 122.97 63.2699 123.84L63.3399 123.94L63.3699 124.06C63.3999 124.17 66.0099 134.96 72.4099 138.33L72.5199 138.39L72.5999 138.48L105.08 175.88C109.25 180.69 115.5 182.95 121.78 181.94C128.07 180.93 133.28 176.82 135.74 170.95L149.97 136.93L118.2 126.12L111.74 151.33L91.6499 135.71C87.9699 132.85 85.8299 128.36 85.9299 123.7L86.2699 106.87C85.8299 106.67 85.0099 106.4 84.3299 106.7C83.7299 106.97 83.3099 107.67 83.0899 108.8C82.1399 113.73 81.5299 116.26 81.5199 116.29L81.2099 117.56L64.1999 96.68C63.6999 96.07 63.0399 95.69 62.3199 95.6C62.2299 95.59 62.1399 95.58 62.0399 95.58L62.0699 95.55Z" fill="#101C39"/>
<path d="M70.1999 114.34C69.9799 114.34 69.7699 114.23 69.6499 114.03L66.8499 109.55C66.6599 109.25 66.7499 108.84 67.0599 108.65C67.3699 108.46 67.7699 108.55 67.9599 108.86L70.7599 113.34C70.9499 113.64 70.8599 114.05 70.5499 114.24C70.4399 114.31 70.3199 114.34 70.2099 114.34H70.1999Z" fill="#101C39"/>
<path d="M67.39 119.45C67.15 119.45 66.92 119.32 66.81 119.09L64.64 114.76C64.48 114.44 64.61 114.05 64.93 113.89C65.25 113.73 65.64 113.86 65.8 114.18L67.97 118.51C68.13 118.83 68 119.22 67.68 119.38C67.59 119.43 67.49 119.45 67.39 119.45Z" fill="#101C39"/>
<path d="M66.3099 125.56C66.0599 125.56 65.8299 125.42 65.7199 125.18L63.1499 119.64C62.9999 119.31 63.1399 118.93 63.4699 118.77C63.7999 118.62 64.1799 118.76 64.3399 119.09L66.9099 124.63C67.0599 124.96 66.9199 125.34 66.5899 125.5C66.4999 125.54 66.4099 125.56 66.3199 125.56H66.3099Z" fill="#101C39"/>
<path d="M109.88 156.58C109.83 156.58 109.77 156.58 109.72 156.56C109.37 156.47 109.16 156.11 109.25 155.77L111.75 146.07C111.84 145.72 112.2 145.51 112.54 145.6C112.89 145.69 113.1 146.05 113.01 146.39L110.51 156.09C110.43 156.38 110.17 156.58 109.88 156.58Z" fill="#101C39"/>
<path d="M132.05 41.86C132.62 39.31 135.93 37.06 136.85 34.86C138.16 31.74 139.7 29.05 141.04 26.96C143.12 23.74 146.14 21.22 149.69 19.78C180.63 7.28998 171.78 50.96 171.78 50.96L158.86 66.28C150.04 72.21 137.98 67.74 134.91 57.57C133.5 52.9 133.45 48.3 134.15 44.03C134.26 43.35 131.9 42.53 132.05 41.86Z" fill="white"/>
<path d="M150.2 69.59C148.34 69.59 146.46 69.27 144.63 68.61C139.6 66.81 135.83 62.85 134.29 57.75C132.99 53.44 132.72 48.83 133.49 44.05C133.35 43.9 132.97 43.64 132.73 43.48C132 42.99 131.25 42.49 131.42 41.72C131.78 40.12 133.02 38.72 134.22 37.36C135.08 36.39 135.9 35.47 136.26 34.61C137.4 31.9 138.83 29.21 140.51 26.61C142.68 23.24 145.78 20.67 149.47 19.18C157.34 16 163.41 16.13 167.54 19.56C171.58 22.92 173.63 29.27 173.63 38.43C173.63 45.17 172.46 51.03 172.45 51.09C172.38 51.44 172.03 51.67 171.68 51.6C171.33 51.53 171.1 51.18 171.17 50.83C171.22 50.6 175.67 28 166.71 20.56C162.98 17.46 157.35 17.41 149.96 20.39C146.53 21.78 143.64 24.17 141.61 27.32C139.98 29.86 138.58 32.48 137.47 35.13C137.02 36.19 136.14 37.18 135.21 38.24C134.16 39.43 133.08 40.65 132.74 41.87C132.89 42.02 133.24 42.26 133.47 42.41C134.19 42.89 134.93 43.39 134.81 44.14C134.05 48.77 134.3 53.23 135.55 57.38C136.97 62.09 140.44 65.74 145.08 67.39C149.63 69.02 154.53 68.41 158.51 65.74C158.81 65.54 159.21 65.62 159.41 65.92C159.61 66.22 159.53 66.62 159.23 66.82C156.5 68.65 153.38 69.59 150.2 69.59Z" fill="#101C39"/>
<path d="M240.75 133.22C240.51 133.22 240.27 133.08 240.16 132.85L233.4 118.79C233.24 118.47 233.38 118.08 233.7 117.92C234.02 117.76 234.41 117.9 234.57 118.22L241.33 132.28C241.49 132.6 241.35 132.99 241.03 133.15C240.94 133.19 240.84 133.21 240.75 133.21V133.22Z" fill="#101C39"/>
<path d="M210.51 185.62C210.15 185.62 209.86 185.33 209.86 184.97V114.48C209.86 114.12 210.15 113.83 210.51 113.83C210.87 113.83 211.16 114.12 211.16 114.48V184.97C211.16 185.33 210.87 185.62 210.51 185.62Z" fill="#101C39"/>
<path d="M150.86 137.17C150.77 137.17 150.68 137.15 150.59 137.11C150.26 136.96 150.12 136.57 150.27 136.25L155.62 124.64C155.77 124.31 156.16 124.17 156.48 124.32C156.81 124.47 156.95 124.86 156.8 125.18L151.45 136.79C151.34 137.03 151.1 137.17 150.86 137.17Z" fill="#101C39"/>
<path d="M117.76 125.91C117.7 125.91 117.64 125.91 117.58 125.88C117.23 125.78 117.03 125.42 117.13 125.07L119.61 116.45C119.71 116.1 120.07 115.9 120.42 116C120.77 116.1 120.97 116.46 120.87 116.81L118.39 125.43C118.31 125.72 118.05 125.9 117.76 125.9V125.91Z" fill="#101C39"/>
<path d="M137.09 55.19C136.13 55.19 135.05 55 133.84 54.53C133.51 54.4 133.34 54.02 133.47 53.69C133.6 53.36 133.98 53.19 134.31 53.32C139.29 55.27 141.62 51.62 141.71 51.46C141.9 51.15 142.3 51.06 142.61 51.25C142.92 51.44 143.01 51.84 142.83 52.14C142.81 52.18 140.92 55.2 137.08 55.2L137.09 55.19Z" fill="#101C39"/>
<path d="M143.54 38.2C143.28 38.2 143.04 38.05 142.94 37.79C141.31 33.81 137.9 34.47 137.75 34.5C137.4 34.57 137.05 34.35 136.98 34C136.9 33.65 137.13 33.3 137.48 33.23C137.53 33.23 142.1 32.28 144.15 37.3C144.29 37.63 144.13 38.01 143.79 38.15C143.71 38.18 143.63 38.2 143.54 38.2Z" fill="#101C39"/>
<path d="M138.21 39.14C137.89 40.35 138.02 41.44 138.51 41.57C139 41.7 139.65 40.82 139.97 39.61C140.29 38.4 140.16 37.31 139.67 37.18C139.18 37.05 138.53 37.93 138.21 39.14Z" fill="#160F29"/>
<path d="M187.25 28.27C187.48 25.42 187.39 22.36 185.78 20C184.17 17.64 180.52 16.51 178.37 18.39C177.09 15.43 176.74 12.29 174.19 9.99002C172.08 8.08002 168.8 7.30002 166.29 8.65002C165.88 8.87002 165.48 9.14002 165.02 9.16002C164.64 9.17002 164.28 9.00002 163.93 8.83002C161.6 7.69002 159.16 6.63002 156.58 6.44002C153.99 6.25002 151.2 7.10002 149.64 9.17002C146.15 7.45002 141.82 7.56002 138.43 9.45002C135.03 11.34 132.65 14.95 132.27 18.82C131.74 24.16 136.07 33.5 142.53 30.27C143.96 29.56 145.3 28.61 146.87 28.31C149.49 27.81 152.15 29.28 153.87 31.32C155.59 33.36 156.56 35.9 157.62 38.34C159.17 41.91 161.68 45.26 163.03 48.86C164.21 51.99 165.26 54.4 168.26 56.34C172.79 59.26 174.51 57.87 177.45 53.98C183.05 46.56 186.52 37.54 187.25 28.27Z" fill="#160F29"/>
<path d="M187.9 28.27C188.11 25.62 188.05 22.8 186.78 20.4C185.71 18.38 183.65 16.97 181.36 16.81C180.1 16.72 178.87 17.11 177.91 17.93L178.93 18.06C178.01 15.9 177.55 13.54 176.3 11.53C175.05 9.52 172.98 7.95 170.61 7.48C169.46 7.25 168.26 7.26 167.14 7.6C166.55 7.78 166.03 8.06 165.49 8.34C165.26 8.46 165.05 8.53 164.8 8.47C164.46 8.39 164.15 8.2 163.84 8.05C161.39 6.87 158.77 5.79 156.01 5.75C153.25 5.71 150.72 6.7 149.08 8.83L149.97 8.6C145.88 6.61 140.76 6.9 137.02 9.56C133.75 11.88 131.52 15.82 131.57 19.87C131.61 22.99 132.74 26.26 134.68 28.71C135.59 29.86 136.78 30.84 138.19 31.31C139.71 31.81 141.32 31.57 142.75 30.89C143.77 30.4 144.73 29.76 145.78 29.32C146.76 28.92 147.81 28.75 148.85 28.94C150.96 29.34 152.74 30.77 153.96 32.49C155.35 34.45 156.18 36.7 157.15 38.88C158.12 41.06 159.46 43.2 160.64 45.35C161.21 46.39 161.77 47.46 162.22 48.56C162.62 49.54 162.97 50.53 163.4 51.49C164.2 53.25 165.29 54.86 166.81 56.08C167.67 56.77 168.62 57.38 169.62 57.85C170.42 58.22 171.26 58.51 172.15 58.55C173.75 58.62 175.08 57.71 176.14 56.6C177.64 55.04 178.9 53.19 180.07 51.38C181.34 49.41 182.47 47.35 183.45 45.23C185.42 40.96 186.81 36.42 187.51 31.77C187.68 30.61 187.82 29.44 187.91 28.27C187.94 27.92 187.59 27.62 187.26 27.62C186.88 27.62 186.64 27.92 186.61 28.27C186.25 32.79 185.22 37.25 183.62 41.49C182.02 45.73 179.83 49.71 177.13 53.34C176.56 54.11 175.98 54.87 175.33 55.57C174.81 56.13 174.34 56.57 173.69 56.92C173.62 56.96 173.56 56.99 173.49 57.02C173.37 57.07 173.44 57.04 173.47 57.02C173.43 57.04 173.39 57.05 173.35 57.07C173.19 57.13 173.03 57.17 172.87 57.21C172.83 57.21 172.67 57.25 172.71 57.24C172.76 57.24 172.58 57.25 172.54 57.25C172.36 57.26 172.19 57.25 172.01 57.25C171.76 57.23 171.34 57.13 171 57.02C170.59 56.88 170.19 56.7 169.81 56.5C168.09 55.6 166.58 54.38 165.53 52.73C164.48 51.08 163.92 49.18 163.12 47.39C162.16 45.22 160.89 43.2 159.74 41.13C159.17 40.1 158.62 39.05 158.16 37.97C157.7 36.89 157.27 35.85 156.77 34.82C155.81 32.8 154.62 30.83 152.83 29.44C151.04 28.05 148.94 27.29 146.74 27.68C145.61 27.88 144.57 28.43 143.57 28.97C142.75 29.42 141.97 29.89 141.08 30.13C140.69 30.23 140.48 30.27 140.12 30.28C139.97 30.28 139.81 30.28 139.66 30.28C139.45 30.27 139.37 30.26 139.25 30.24C138.93 30.18 138.63 30.1 138.32 29.98C138.28 29.97 138.24 29.95 138.2 29.93C138.29 29.97 138.2 29.93 138.18 29.92C138.11 29.89 138.04 29.86 137.98 29.82C137.82 29.74 137.67 29.66 137.53 29.57C136.4 28.88 135.5 27.78 134.8 26.59C134.03 25.27 133.51 23.89 133.18 22.38C133.02 21.64 132.93 21.08 132.89 20.34C132.85 19.6 132.89 18.92 133 18.21C133.32 16.29 134.14 14.46 135.34 12.93C137.93 9.64001 142.2 8.03 146.33 8.76C147.36 8.94 148.37 9.26 149.31 9.72C149.66 9.89 149.97 9.78 150.2 9.49C151.46 7.85 153.62 7.12 155.62 7.06C158.16 6.99 160.61 7.95001 162.86 9.02C163.48 9.31 164.11 9.71 164.8 9.79C165.49 9.87 166.05 9.52 166.63 9.21C167.54 8.73 168.57 8.57 169.59 8.64C171.72 8.8 173.71 10.03 174.92 11.76C176.37 13.84 176.84 16.41 177.82 18.71C178 19.13 178.56 19.08 178.84 18.84C180.22 17.66 182.25 18 183.7 18.9C185.51 20.02 186.33 22.11 186.58 24.15C186.75 25.51 186.7 26.89 186.6 28.25C186.57 28.6 186.92 28.9 187.25 28.9C187.63 28.9 187.87 28.6 187.9 28.25V28.27Z" fill="#160F29"/>
<path d="M156.2 38.32C156.2 38.32 161.32 29.8 164.4 33.63C167.49 37.46 167.92 46.41 164.4 47.69C160.88 48.97 156.2 46.84 156.2 46.84V38.32Z" fill="white"/>
<path d="M161.84 48.75C158.87 48.75 156.08 47.5 155.93 47.43C155.6 47.28 155.46 46.9 155.61 46.57C155.76 46.24 156.14 46.1 156.47 46.25C156.51 46.27 160.96 48.25 164.18 47.08C165.14 46.73 165.64 45.61 165.89 44.73C166.8 41.48 165.87 36.49 163.9 34.05C163.46 33.5 162.99 33.27 162.43 33.31C160.34 33.45 157.63 37.23 156.76 38.67C156.57 38.98 156.17 39.08 155.87 38.89C155.56 38.7 155.46 38.3 155.65 38C156 37.41 159.2 32.23 162.35 32.01C163.33 31.94 164.22 32.37 164.92 33.24C167.15 36.01 168.17 41.44 167.15 45.09C166.68 46.77 165.81 47.89 164.63 48.32C163.74 48.64 162.79 48.77 161.85 48.77L161.84 48.75Z" fill="#101C39"/>
<path d="M158.99 43.17C158.81 43.17 158.62 43.17 158.43 43.14C158.07 43.11 157.81 42.79 157.84 42.43C157.87 42.07 158.19 41.81 158.55 41.84C161.15 42.09 162.78 39.99 162.8 39.97C163.02 39.68 163.43 39.63 163.71 39.85C164 40.07 164.05 40.48 163.83 40.76C163.75 40.86 161.95 43.17 158.98 43.17H158.99Z" fill="#101C39"/>
<path d="M201.94 0H235.51C241.64 0 246.6 4.97 246.6 11.09C246.6 17.22 241.63 22.18 235.51 22.18H210.91C202.96 30 196.56 28.25 196.56 28.25C199.83 26.67 201.38 24.29 202.1 22.18H201.94C195.81 22.18 190.85 17.21 190.85 11.09C190.85 4.96 195.82 0 201.94 0Z" fill="#160F29"/>
<path d="M203.11 9.45998H234.34C235.72 9.45998 236.83 8.34998 236.83 6.96998C236.83 5.58998 235.72 4.47998 234.34 4.47998H203.11C201.73 4.47998 200.62 5.58998 200.62 6.96998C200.62 8.34998 201.73 9.45998 203.11 9.45998Z" fill="white"/>
<path d="M203.11 17.59L217.57 17.59C218.945 17.59 220.06 16.4752 220.06 15.1C220.06 13.7248 218.945 12.61 217.57 12.61L203.11 12.61C201.735 12.61 200.62 13.7248 200.62 15.1C200.62 16.4752 201.735 17.59 203.11 17.59Z" fill="white"/>
<path d="M254.17 186H0.65C0.29 186 0 185.71 0 185.35C0 184.99 0.29 184.7 0.65 184.7H254.17C254.53 184.7 254.82 184.99 254.82 185.35C254.82 185.71 254.53 186 254.17 186Z" fill="#101C39"/>
</g>
<defs>
<clipPath id="clip0_947_68126">
<rect width="254.83" height="186" fill="white"/>
</clipPath>
</defs>
</svg>
