<svg width="521" height="519" viewBox="0 0 521 519" fill="none" xmlns="http://www.w3.org/2000/svg">
<path opacity="0.1" d="M260.54 303.843C255.699 311.115 245.858 313.092 238.557 308.191C231.256 303.369 229.272 293.489 234.192 286.296C239.906 277.838 249.588 272.226 260.619 272.226C278.158 272.226 292.363 286.375 292.363 303.843C292.363 310.325 290.379 316.332 287.046 321.391C291.887 314.119 289.982 304.318 282.602 299.496C275.301 294.674 265.46 296.65 260.619 303.843H260.54ZM348.55 186.859L362.121 216.184H334.9V216.026L348.471 186.859H348.55ZM355.455 194.131C365.533 192.787 375.056 190.653 383.945 188.045C383.548 191.048 381.564 197.767 372.438 200.929C368.39 202.352 364.025 203.063 359.74 203.3L355.375 194.131H355.455ZM365.454 215.394L361.168 206.304C365.375 205.988 369.581 205.276 373.549 203.932C374.104 203.774 374.58 203.537 375.136 203.3C373.628 209.307 370.454 213.339 365.454 215.394ZM303.474 266.535C303.474 266.535 303.95 265.823 303.95 265.428C303.95 265.033 303.791 264.638 303.474 264.322C303.156 264.005 302.839 263.847 302.442 263.847C302.283 263.847 302.124 263.847 301.966 263.847C301.728 263.847 301.49 264.005 301.331 264.243L286.49 279.34C285.459 278.233 284.268 277.127 283.078 276.178L296.331 258.472C298.236 255.943 301.013 254.046 303.87 254.046C306.965 254.046 309.822 255.39 311.965 258.314C314.425 261.634 316.409 264.164 318.631 266.061C313.87 269.38 301.966 277.68 291.093 285.268C290.22 283.845 289.268 282.502 288.236 281.237L303.553 266.456L303.474 266.535ZM285.697 253.097C285.697 253.097 285.856 252.623 285.856 252.386C285.856 252.228 285.856 252.07 285.776 251.912C285.617 251.517 285.379 251.2 284.983 251.042C284.586 250.884 284.189 250.884 283.792 251.042C283.395 251.121 283.078 251.438 282.919 251.754L273.555 270.803C272.047 270.171 270.46 269.697 268.793 269.301C272.682 256.654 276.888 242.822 278.554 237.289C281.094 238.87 284.11 239.976 287.998 241.241C291.411 242.427 293.554 244.64 294.585 247.564C295.458 250.331 294.585 253.493 292.681 256.022L279.904 274.123C278.634 273.254 277.205 272.542 275.856 271.831L285.618 253.177L285.697 253.097ZM235.303 251.912C235.303 251.912 235.224 252.228 235.224 252.386C235.224 252.623 235.224 252.86 235.382 253.097L245.144 271.752C243.715 272.463 242.366 273.174 241.096 274.044L228.319 255.943C226.415 253.335 225.542 250.173 226.415 247.485C227.367 244.561 229.51 242.268 233.002 241.162C236.89 239.897 239.906 238.791 242.446 237.21C244.112 242.743 248.398 256.575 252.207 269.222C250.62 269.618 249.032 270.092 247.445 270.724L238.081 251.675C238.081 251.675 237.605 251.042 237.208 250.963C236.811 250.805 236.414 250.805 236.017 250.963C235.621 251.121 235.382 251.438 235.303 251.833V251.912ZM217.606 264.401C217.606 264.401 217.13 265.112 217.13 265.507C217.13 265.903 217.288 266.298 217.606 266.614L232.922 281.395C231.891 282.66 230.938 284.004 230.065 285.426C219.193 277.838 207.289 269.539 202.527 266.219C204.829 264.243 206.813 261.792 209.194 258.472C211.336 255.548 214.114 254.204 217.288 254.204C220.145 254.204 222.923 256.022 224.828 258.631L238.081 276.336C236.89 277.285 235.7 278.391 234.668 279.498L219.828 264.401C219.828 264.401 219.431 264.085 219.193 264.005C219.034 264.005 218.876 263.926 218.717 264.005C218.32 264.005 217.923 264.164 217.685 264.48L217.606 264.401ZM338.471 201.087C335.853 200.375 333.551 199.664 331.726 198.953C334.583 197.056 337.757 195.949 341.09 195.633L338.471 201.166V201.087ZM337.202 203.853L333.948 210.809C329.901 208.754 326.647 206.778 324.821 205.592C324.98 205.355 325.139 205.197 325.298 204.96C326.409 203.458 327.678 202.193 329.028 201.008C331.012 201.877 333.869 202.905 337.202 203.774V203.853ZM342.757 192.076C335.773 192.076 328.075 195 322.282 202.747C316.171 210.888 306.092 216.263 296.569 217.133C295.538 213.971 294.426 210.809 293.474 207.726C299.029 207.173 309.822 204.723 318.711 195.317C324.187 189.467 331.329 184.567 341.566 184.646C343.154 184.646 344.741 184.646 346.328 184.646L342.757 192.155V192.076ZM299.267 250.963C299.267 250.963 299.267 250.489 299.267 250.331C299.267 248.987 299.029 247.723 298.633 246.537C298.633 246.458 298.633 246.379 298.633 246.3C299.188 245.588 299.823 244.64 300.299 243.533C300.934 245.984 301.41 248.276 301.728 250.252C301.093 250.331 300.537 250.489 299.902 250.726C299.664 250.726 299.506 250.884 299.267 250.963ZM295.855 228.831C297.204 232.862 298.395 236.656 299.426 240.213C298.871 241.636 298.156 242.901 297.442 243.77C295.934 241.241 293.554 239.265 290.538 238.079C291.093 237.684 294.506 234.759 295.855 228.831ZM290.776 213.497C291.728 216.263 292.601 219.03 293.554 221.796V221.954C293.871 222.824 294.188 223.693 294.506 224.642C294.347 230.57 291.173 234.522 289.903 235.313C288.633 234.522 285.538 230.649 285.3 224.8C286.887 223.219 289.744 219.662 290.776 213.497ZM281.332 234.522C282.364 233.416 283.395 231.835 284.11 229.78C285.141 233.732 287.125 236.182 288.316 237.368C285.459 236.419 283.237 235.629 281.332 234.522ZM286.411 199.822C287.522 203.379 288.713 207.094 289.903 210.809C289.586 211.125 289.347 211.362 289.109 211.521C287.919 210.809 284.983 207.41 284.348 202.114C284.745 201.798 285.538 201.008 286.411 199.822ZM288.474 214.445C287.125 219.267 284.665 222.191 283.554 222.903C282.364 222.112 279.507 218.714 278.793 213.26C279.665 212.469 281.888 210.256 283.237 206.225C284.903 211.837 288.316 214.287 288.554 214.445H288.474ZM277.682 194.21C278.872 198.399 281.094 200.85 282.126 201.877C281.491 206.778 278.793 210.019 277.682 210.73C276.57 210.019 273.872 206.778 273.237 201.877C274.348 200.85 276.491 198.399 277.682 194.21ZM271.968 183.144C273.158 187.333 275.301 189.784 276.412 190.732C275.697 195.633 273.079 198.715 271.968 199.506C270.857 198.795 268.238 195.633 267.523 190.732C268.634 189.705 270.777 187.254 271.968 183.144ZM266.254 194.21C267.444 198.399 269.666 200.85 270.698 201.877C270.063 206.778 267.365 210.019 266.254 210.73C265.063 210.019 262.444 206.778 261.809 201.877C262.921 200.85 265.063 198.399 266.254 194.21ZM260.54 183.144C261.73 187.333 263.873 189.784 264.984 190.732C264.27 195.633 261.651 198.715 260.54 199.506C259.429 198.795 256.81 195.633 256.096 190.732C257.207 189.705 259.349 187.254 260.54 183.144ZM254.826 194.21C256.016 198.399 258.238 200.85 259.27 201.877C258.635 206.778 255.937 210.019 254.826 210.73C253.715 210.019 251.016 206.778 250.382 201.877C251.493 200.85 253.635 198.399 254.826 194.21ZM249.112 183.144C250.302 187.333 252.445 189.784 253.556 190.732C252.842 195.633 250.223 198.715 249.112 199.506C248.001 198.795 245.382 195.633 244.668 190.732C245.779 189.705 247.921 187.254 249.112 183.144ZM243.398 194.21C244.588 198.399 246.81 200.85 247.842 201.877C247.207 206.778 244.509 210.019 243.398 210.73C242.287 210.019 239.589 206.778 238.954 201.877C240.065 200.85 242.207 198.399 243.398 194.21ZM242.366 213.26C241.652 218.793 238.795 222.112 237.605 222.903C236.494 222.191 233.954 219.188 232.684 214.445C232.684 214.445 236.335 211.837 238.001 206.225C239.35 210.177 241.493 212.469 242.446 213.26H242.366ZM222.447 246.537C222.05 247.723 221.891 248.987 221.891 250.331C221.891 250.568 221.891 250.805 221.891 250.963C221.653 250.884 221.494 250.805 221.256 250.726C220.701 250.568 220.066 250.41 219.431 250.252C219.748 248.197 220.225 245.984 220.86 243.533C221.415 244.64 221.971 245.588 222.526 246.3C222.526 246.379 222.526 246.458 222.526 246.537H222.447ZM223.717 243.849C223.002 242.901 222.288 241.715 221.733 240.292C222.764 236.735 223.955 232.862 225.304 228.91C226.653 234.917 230.065 237.763 230.621 238.158C227.685 239.344 225.224 241.399 223.717 243.849ZM230.462 213.497C231.494 219.662 234.351 223.219 235.938 224.8C235.7 230.649 232.605 234.443 231.335 235.313C230.065 234.443 226.891 230.57 226.732 224.642C227.05 223.772 227.288 222.903 227.605 221.954V221.796C228.558 219.03 229.51 216.263 230.462 213.497ZM232.922 237.289C234.113 236.103 236.017 233.653 237.128 229.701C237.843 231.756 238.874 233.337 239.906 234.443C238.001 235.471 235.779 236.34 232.922 237.289ZM234.827 199.822C235.7 201.008 236.494 201.798 236.89 202.114C236.255 207.41 233.319 210.809 232.129 211.521C231.891 211.362 231.653 211.125 231.335 210.809C232.526 207.094 233.716 203.379 234.827 199.822ZM202.527 195.317C211.416 204.723 222.129 207.094 227.764 207.726C226.732 210.809 225.701 213.971 224.669 217.133C215.146 216.184 205.067 210.809 198.956 202.747C193.163 195.079 185.465 192.155 178.481 192.076L174.91 184.567C176.497 184.567 178.084 184.646 179.672 184.567C189.909 184.567 197.051 189.388 202.527 195.238V195.317ZM180.148 195.633C183.481 195.949 186.655 197.135 189.512 198.953C187.687 199.664 185.386 200.454 182.767 201.087L180.148 195.554V195.633ZM187.37 210.809L184.116 203.853C187.449 202.984 190.306 201.956 192.369 201.087C193.718 202.272 194.909 203.537 196.099 205.039C196.258 205.276 196.417 205.434 196.575 205.671C194.829 206.857 191.496 208.833 187.449 210.888L187.37 210.809ZM189.988 218.081C190.544 217.607 190.385 217.212 190.227 216.816L188.639 213.576C193.163 211.283 196.655 209.07 198.401 207.885C199.75 209.307 201.099 210.651 202.527 211.837C199.035 216.026 187.925 227.645 173.561 227.487C165.387 227.408 161.181 223.377 159.117 220.452C162.292 222.033 166.974 223.693 172.609 223.693C181.576 223.693 188.084 219.583 189.909 218.002L189.988 218.081ZM173.878 230.57C189.909 230.57 201.496 218.002 204.988 213.655C206.495 214.761 208.162 215.71 209.828 216.579C207.844 220.373 200.067 233.337 187.131 235.471C179.354 236.735 175.465 232.783 173.878 230.57ZM190.306 237.921C203.48 234.364 210.781 221.48 212.527 217.844C214.352 218.555 216.257 219.188 218.161 219.662C216.733 224.009 212.527 234.601 204.988 238.949C198.004 242.98 192.766 240.134 190.227 238L190.306 237.921ZM221.177 220.215C221.971 220.294 222.685 220.452 223.478 220.532C221.098 227.566 218.796 234.443 217.209 240.45C212.765 244.086 207.606 243.059 205.226 242.268C205.702 242.031 206.178 241.794 206.733 241.478C215.542 236.498 219.828 224.642 221.256 220.215H221.177ZM243.557 217.528C245.382 222.587 248.398 224.879 248.636 225.037L248.953 225.274C248.001 226.223 247.128 227.408 246.255 228.673C244.985 230.491 243.715 231.756 242.287 232.862C240.62 231.598 238.795 229.147 238.319 225.669C238.636 225.432 241.89 222.982 243.557 217.528ZM254.032 213.26C253.08 218.239 250.461 221.48 249.271 222.191C248.08 221.48 245.461 218.239 244.509 213.26C245.382 212.469 247.921 210.019 249.271 205.355C250.54 209.94 253.159 212.469 254.032 213.26ZM255.302 216.579C255.937 218.16 256.651 219.504 257.365 220.452C256.175 220.69 254.826 221.085 253.477 221.717C253.08 221.875 252.762 222.112 252.445 222.35C253.477 221.006 254.508 219.03 255.302 216.579ZM260.778 205.355C261.968 209.544 264.19 211.995 265.222 212.943C264.27 216.658 262.365 219.188 261.254 220.215C261.095 220.215 260.936 220.215 260.778 220.215C260.619 220.215 260.46 220.215 260.302 220.215C259.111 219.188 257.286 216.658 256.254 212.943C257.365 211.916 259.508 209.465 260.698 205.355H260.778ZM266.254 216.579C267.047 219.109 268.079 221.006 269.111 222.35C268.793 222.112 268.396 221.954 268.079 221.717C266.73 221.006 265.46 220.69 264.19 220.452C264.904 219.425 265.619 218.16 266.254 216.579ZM277.047 213.26C276.094 218.239 273.475 221.48 272.285 222.191C271.095 221.48 268.476 218.239 267.523 213.26C268.396 212.469 270.936 210.019 272.285 205.355C273.634 209.94 276.174 212.469 277.047 213.26ZM277.92 217.528C279.586 222.982 282.84 225.432 283.157 225.669C282.681 229.147 280.856 231.598 279.189 232.862C277.84 231.756 276.57 230.412 275.221 228.673C274.348 227.408 273.396 226.223 272.523 225.274L272.841 225.037C272.841 225.037 276.094 222.587 277.92 217.528ZM304.267 240.45C302.68 234.443 300.379 227.566 297.998 220.532C298.791 220.452 299.506 220.373 300.299 220.215C301.648 224.563 306.013 236.419 314.822 241.478C315.298 241.794 315.774 242.031 316.33 242.268C313.949 243.059 308.791 244.166 304.346 240.45H304.267ZM316.409 238.87C308.949 234.601 304.743 223.93 303.235 219.583C305.219 219.109 307.124 218.555 308.87 217.765C310.695 221.401 317.917 234.285 331.091 237.842C328.551 239.976 323.314 242.822 316.33 238.791L316.409 238.87ZM334.345 235.471C321.488 233.337 313.711 220.373 311.648 216.579C313.314 215.71 314.981 214.761 316.489 213.655C319.98 218.002 331.567 230.57 347.598 230.57C346.011 232.783 342.122 236.814 334.345 235.471ZM347.836 227.487C333.472 227.645 322.361 216.026 318.869 211.837C320.298 210.651 321.647 209.307 322.996 207.885C324.742 209.07 328.234 211.283 332.758 213.576L331.17 216.816C331.17 216.816 330.853 217.528 331.408 218.081C333.234 219.583 339.741 223.772 348.709 223.772C354.264 223.772 359.026 222.112 362.2 220.532C360.216 223.456 356.01 227.487 347.757 227.566L347.836 227.487ZM285.856 179.034C285.856 179.034 285.776 178.48 285.697 178.243H346.725V180.298C346.725 180.298 299.347 184.092 287.125 185.199C286.57 182.986 286.173 180.931 285.856 179.113V179.034ZM282.681 185.278C283.475 188.835 284.586 192.787 285.776 196.977C284.983 198.241 284.189 199.111 283.634 199.427C282.522 198.715 279.904 195.554 279.189 190.653C280.062 189.863 281.57 188.124 282.602 185.278H282.681ZM224.748 148.049C225.383 147.258 226.335 146.705 227.764 146.31C230.938 145.44 235.541 145.045 238.874 145.361H239.985C241.652 145.519 246.175 148.128 248.953 152.396C248.953 152.396 258.714 150.578 265.381 144.096C265.381 144.096 253.08 145.361 242.842 143.938C242.684 143.938 242.287 143.78 242.525 143.306C242.525 143.306 242.525 143.227 242.684 143.069C243.477 141.883 244.747 140.302 248.556 139.117C250.382 138.563 253.159 138.168 256.492 138.01C259.984 137.852 264.031 138.01 268.634 138.247C275.539 138.721 280.697 138.168 284.348 137.299C283.316 140.065 281.332 143.306 277.84 145.677L276.57 146.547L275.221 147.495L275.856 148.997L276.412 150.341C277.523 153.186 278.316 158.719 279.269 165.201V165.912C279.904 169.944 280.618 174.765 281.411 179.745C281.411 179.824 281.411 179.903 281.411 179.982C281.173 184.567 278.872 187.491 277.761 188.203C276.412 187.333 273.237 183.302 273.158 177.137H270.936C270.936 183.302 267.682 187.333 266.333 188.203C264.984 187.333 261.809 183.302 261.73 177.137H259.508C259.508 183.302 256.254 187.333 254.905 188.203C253.556 187.333 250.382 183.302 250.302 177.137H248.08C248.08 183.302 244.826 187.333 243.477 188.203C242.366 187.491 240.223 184.725 239.906 180.377C240.62 177.532 241.573 174.212 241.652 174.054C242.763 170.418 243.318 167.098 243.318 166.94C243.715 164.332 243.319 162.197 242.049 160.696C240.779 159.115 238.716 158.245 236.017 158.166C235.462 158.166 234.43 158.166 233.795 158.166C232.764 158.166 228.081 158.245 226.732 161.091C225.78 159.747 225.066 158.245 224.51 156.664C223.955 155.004 223.637 153.265 223.717 151.685C223.717 150.025 224.034 148.839 224.669 147.97L224.748 148.049ZM238.954 185.278C239.985 188.124 241.493 189.863 242.366 190.653C241.652 195.475 239.033 198.636 237.922 199.427C237.366 199.111 236.573 198.241 235.779 196.977C237.049 192.787 238.081 188.835 238.874 185.278H238.954ZM234.51 185.278C221.733 184.171 174.91 180.377 174.91 180.377V178.322H236.097C235.779 179.508 235.462 180.694 235.303 181.721C235.065 182.828 234.827 184.013 234.51 185.199V185.278ZM172.847 187.017L186.338 216.184V216.342H159.197L172.767 187.017H172.847ZM147.848 204.011C151.816 205.355 156.022 206.146 160.228 206.383L155.943 215.473C150.943 213.418 147.769 209.307 146.261 203.379C146.737 203.616 147.293 203.774 147.848 204.011ZM137.452 188.203C146.42 190.811 155.943 192.945 165.942 194.289L161.657 203.458C157.371 203.221 153.007 202.51 148.959 201.087C139.833 197.925 137.849 191.127 137.452 188.203ZM65.7896 145.44C61.5835 141.409 61.1074 136.508 61.9804 133.9C87.3756 159.668 130.786 181.563 170.704 184.409L167.529 191.127C114.596 184.725 77.4556 156.664 65.7896 145.44ZM134.119 187.175C134.278 189.072 135.071 194.526 139.674 199.032C118.564 196.423 89.6771 186.464 73.9637 172.71C64.2024 164.173 65.3135 155.637 66.9007 151.21C77.9318 161.012 101.899 177.137 134.119 187.096V187.175ZM74.9954 178.164C93.1689 192.155 122.453 200.771 142.848 202.431C143.563 205.988 144.912 209.782 147.451 212.864C129.04 214.287 104.359 211.362 86.582 199.506C75.1542 191.839 74.5193 182.67 75.0748 178.164H74.9954ZM89.8358 205.75C108.644 215.947 132.69 217.528 150.229 215.71C151.499 216.737 153.007 217.607 154.752 218.318C154.991 219.03 156.26 222.191 159.435 225.195C152.53 227.329 129.04 233.258 106.74 224.8C97.375 221.243 90.7881 214.919 89.8358 205.75ZM115.866 231.202C139.118 236.024 159.832 228.515 162.371 227.487C164.434 228.752 167.053 229.859 170.228 230.333C170.386 230.649 171.339 232.704 173.481 234.68C169.513 236.973 155.705 244.087 138.88 243.454C127.056 242.98 119.278 238.949 115.787 231.202H115.866ZM141.896 247.09C158.086 246.774 171.894 239.581 176.259 236.656C178.799 238.158 182.29 239.186 186.814 238.633C187.29 239.186 188.084 239.897 189.115 240.688C185.624 244.087 176.259 251.912 163.165 254.204C153.324 255.943 146.578 253.572 141.896 247.09ZM171.418 262.662C167.926 262.187 164.673 260.211 162.768 257.998C178.084 255.943 188.401 246.3 191.972 242.427C194.512 243.691 197.845 244.482 201.734 243.533C202.21 244.087 203.162 244.64 204.353 245.035C200.781 249.936 188.481 264.717 171.418 262.583V262.662ZM207.765 245.984C210.384 246.379 213.4 246.142 216.336 244.798C215.86 246.774 215.542 248.592 215.304 250.252C211.892 250.884 208.717 253.018 206.416 256.18C201.892 262.346 199.512 265.033 193.48 267.009C193.48 267.009 193.401 267.009 193.322 267.009C189.83 266.772 187.131 265.744 185.306 264.796C197.29 260.607 205.384 249.461 207.765 245.905V245.984ZM187.687 292.145C183.005 285.821 183.798 282.502 184.83 279.34C185.862 276.178 187.211 273.095 194.75 270.645C197.051 269.934 198.877 269.064 200.543 267.958C204.908 270.961 217.685 279.656 229.272 287.56C228.557 288.904 227.923 290.248 227.446 291.671L198.877 282.106C198.004 281.79 197.051 282.265 196.813 283.134C196.496 284.004 197.051 284.952 197.845 285.189L226.573 294.121C226.177 295.544 225.859 297.046 225.621 298.548C211.654 298.152 196.179 297.757 190.861 297.599C190.147 295.781 189.115 293.963 187.766 292.066L187.687 292.145ZM192.528 310.72C192.528 306.61 192.369 303.448 191.734 300.524C197.607 300.603 212.051 300.919 225.383 301.156C225.383 302.104 225.304 303.053 225.304 304.001C225.304 304.713 225.304 305.424 225.304 306.057L204.194 309.06C203.797 309.06 203.4 309.376 203.162 309.693C202.924 310.009 202.765 310.404 202.845 310.878C202.845 311.274 203.083 311.59 203.48 311.827C203.638 311.906 203.797 311.985 203.956 312.064C204.194 312.143 204.432 312.143 204.67 312.064L225.542 308.586C225.78 310.167 226.018 311.669 226.415 313.171L205.226 319.652C202.21 320.601 198.877 320.522 196.496 318.862C193.956 317.044 192.528 314.277 192.449 310.72H192.528ZM201.654 338.623C199.512 335.698 199.115 332.615 200.067 329.691C200.94 327.003 203.559 324.948 206.654 323.92L227.605 316.807C228.161 318.229 228.796 319.652 229.589 320.996L210.622 330.402C210.622 330.402 210.225 330.639 210.067 330.876C209.987 331.034 209.908 331.192 209.828 331.351C209.67 331.746 209.749 332.141 209.908 332.536C210.067 332.931 210.463 333.169 210.86 333.327C211.257 333.485 211.654 333.406 212.051 333.248L230.938 323.288C231.811 324.711 232.843 325.976 233.875 327.24C223.24 335.224 211.733 343.919 207.051 347.396C205.86 344.63 204.115 342.021 201.734 338.702L201.654 338.623ZM208.717 356.407C208.717 354.036 208.479 351.981 208.003 350.084C212.209 346.843 224.51 337.437 235.621 328.9C236.652 330.007 237.843 330.955 239.033 331.904L221.018 356.012C220.463 356.724 220.621 357.751 221.415 358.304C222.129 358.858 223.161 358.7 223.717 357.909L241.176 333.406C242.446 334.275 243.715 334.987 245.064 335.698C240.382 348.819 235.224 363.363 233.398 368.343C231.414 368.422 229.43 368.817 227.129 369.608C219.59 372.058 216.653 370.319 214.035 368.343C211.336 366.367 208.797 364.154 208.797 356.328L208.717 356.407ZM246.255 370.872C242.366 369.608 239.271 368.738 236.255 368.501C238.16 362.968 242.922 349.373 247.207 336.805C248.715 337.437 250.302 337.99 251.889 338.385L248.239 359.332C248.239 359.727 248.239 360.122 248.556 360.439C248.794 360.755 249.112 360.992 249.588 361.071C249.985 361.071 250.382 361.071 250.699 360.834C250.858 360.755 250.937 360.597 251.096 360.439C251.255 360.281 251.334 360.043 251.334 359.806L254.429 338.939C255.937 339.176 257.524 339.413 259.111 339.492L258.794 361.545C258.794 364.707 257.603 367.869 255.302 369.529C252.762 371.347 249.747 371.9 246.255 370.793V370.872ZM262.286 268.432L262.603 238.395C262.603 237.526 261.889 236.735 260.936 236.735C259.984 236.735 259.27 237.447 259.27 238.395L259.587 268.432C258.079 268.432 256.572 268.669 255.064 268.906C251.096 255.548 246.731 240.767 245.223 235.629C246.731 234.443 248.159 232.862 249.588 230.965C254.191 224.563 257.603 224.247 260.936 224.247C264.27 224.247 267.603 224.563 272.285 230.965C273.713 232.941 275.142 234.443 276.65 235.629C275.142 240.688 270.777 255.469 266.809 268.906C265.301 268.669 263.793 268.511 262.286 268.432ZM263.159 361.545L262.841 339.492C264.428 339.492 265.936 339.255 267.444 338.939L270.539 359.806C270.539 359.806 270.698 360.281 270.777 360.439C270.857 360.597 271.015 360.676 271.174 360.834C271.491 361.071 271.888 361.15 272.285 361.071C272.682 361.071 272.999 360.755 273.317 360.439C273.555 360.122 273.634 359.727 273.555 359.332L269.904 338.385C271.491 337.99 273.079 337.437 274.586 336.805C278.951 349.293 283.634 362.968 285.538 368.501C282.522 368.738 279.507 369.608 275.539 370.872C272.047 371.979 269.031 371.426 266.492 369.608C264.19 367.948 263 364.786 263 361.624L263.159 361.545ZM288.633 368.422C286.887 363.442 281.65 348.898 276.967 335.777C278.316 335.066 279.665 334.354 280.856 333.485L298.315 357.988C298.871 358.7 299.902 358.858 300.617 358.383C301.331 357.83 301.49 356.803 301.013 356.091L282.999 331.983C284.189 331.034 285.3 330.007 286.411 328.979C297.522 337.516 309.743 346.922 314.028 350.163C313.552 352.06 313.314 354.115 313.314 356.486C313.314 364.391 310.775 366.604 308.076 368.501C305.378 370.477 302.442 372.137 294.982 369.766C292.681 369.054 290.697 368.659 288.713 368.501L288.633 368.422ZM314.981 347.317C310.299 343.839 298.712 335.066 288.157 327.161C289.268 325.897 290.22 324.632 291.093 323.209L309.981 333.169C309.981 333.169 310.775 333.406 311.172 333.248C311.568 333.09 311.886 332.852 312.124 332.457C312.283 332.062 312.362 331.667 312.203 331.272C312.203 331.113 312.044 330.955 311.965 330.797C311.806 330.56 311.648 330.402 311.41 330.323L292.442 320.917C293.157 319.573 293.871 318.15 294.426 316.728L315.457 323.841C318.473 324.869 321.092 326.845 322.044 329.612C322.996 332.536 322.599 335.619 320.457 338.544C317.997 341.863 316.251 344.551 315.06 347.238L314.981 347.317ZM325.377 318.862C322.996 320.522 319.742 320.68 316.647 319.652L295.458 313.092C295.855 311.59 296.172 310.088 296.331 308.507L317.203 311.985C317.203 311.985 317.679 311.985 317.917 311.985C318.076 311.985 318.235 311.906 318.393 311.748C318.711 311.511 318.949 311.194 319.028 310.799C319.028 310.404 319.028 310.009 318.711 309.614C318.473 309.297 318.155 309.06 317.679 308.981L296.569 305.978C296.569 305.266 296.569 304.634 296.569 303.922C296.569 302.974 296.569 302.025 296.49 301.077C309.822 300.84 324.266 300.603 330.139 300.445C329.424 303.369 329.345 306.531 329.345 310.641C329.345 314.277 327.837 316.965 325.298 318.783L325.377 318.862ZM331.091 297.678C325.774 297.836 310.299 298.231 296.331 298.627C296.093 297.125 295.776 295.623 295.379 294.2L324.107 285.268C324.98 285.031 325.456 284.083 325.139 283.213C324.821 282.344 323.948 281.869 323.076 282.185L294.506 291.75C293.95 290.327 293.395 288.983 292.681 287.639C304.267 279.735 316.965 271.04 321.409 268.037C323.076 269.064 324.901 269.934 327.202 270.724C334.741 273.175 336.091 276.257 337.122 279.419C338.154 282.581 338.868 285.901 334.265 292.224C332.837 294.2 331.805 295.939 331.091 297.757V297.678ZM315.457 256.18C313.156 253.018 309.981 250.963 306.489 250.252C306.251 248.592 305.934 246.774 305.537 244.798C308.473 246.142 311.489 246.3 314.108 245.984C316.409 249.541 324.504 260.686 336.567 264.875C334.741 265.823 332.043 266.851 328.551 267.088C328.551 267.088 328.472 267.088 328.393 267.088C322.361 265.191 319.98 262.425 315.457 256.259V256.18ZM317.52 245.035C318.711 244.561 319.663 244.007 320.139 243.533C324.107 244.403 327.361 243.612 329.98 242.427C333.551 246.3 343.868 255.943 359.184 257.998C357.2 260.132 354.026 262.187 350.534 262.662C333.472 264.796 321.171 250.015 317.6 245.114L317.52 245.035ZM358.708 254.125C345.614 251.833 336.329 244.007 332.758 240.609C333.789 239.818 334.503 239.107 335.059 238.553C339.582 239.107 343.074 238.079 345.614 236.577C349.979 239.423 363.787 246.695 379.977 247.011C375.295 253.493 368.549 255.864 358.708 254.125ZM382.913 243.375C366.089 244.007 352.359 236.894 348.391 234.601C350.534 232.625 351.487 230.57 351.645 230.254C354.82 229.78 357.439 228.752 359.502 227.408C362.041 228.436 382.754 235.945 406.007 231.123C402.515 238.87 394.738 242.901 382.913 243.375ZM415.133 224.721C392.833 233.178 369.343 227.25 362.438 225.116C365.533 222.191 366.882 218.951 367.12 218.239C368.866 217.528 370.374 216.658 371.644 215.631C389.103 217.449 413.229 215.789 432.037 205.671C431.085 214.84 424.498 221.164 415.133 224.721ZM435.37 199.427C417.594 211.362 392.833 214.208 374.501 212.785C377.04 209.703 378.39 205.908 379.025 202.352C399.341 200.613 428.704 191.997 446.878 178.085C447.433 182.67 446.878 191.76 435.37 199.427ZM447.909 172.631C432.196 186.385 403.309 196.423 382.199 198.953C386.802 194.447 387.595 188.993 387.754 187.096C419.974 177.137 443.941 161.012 454.972 151.21C456.56 155.637 457.671 164.173 447.909 172.71V172.631ZM351.248 184.251C391.167 181.405 434.577 159.51 459.972 133.742C460.845 136.35 460.369 141.251 456.163 145.282C444.576 156.506 407.435 184.567 354.502 190.969L351.328 184.251H351.248ZM295.061 59.1246L300.537 37.9409L313.79 41.3398L312.6 45.7662L304.823 43.7901L300.934 58.7294L312.203 61.654L317.362 41.814L322.52 43.1578L319.98 53.0382L323.076 53.8287L325.615 43.9482L330.773 45.292L321.409 81.4939L316.251 80.1502L321.885 58.3341L318.79 57.5437L313.155 79.3597L307.997 78.016L311.092 66.0804L297.045 62.4444C295.538 62.0492 294.585 60.5474 294.982 59.1246H295.061ZM402.198 98.1721C403.626 96.5122 404.102 94.457 403.706 92.481L406.245 94.6151L409.181 91.1372L403.15 86.0784L405.293 83.549L401.007 79.834L398.785 82.4424L392.833 77.3046L389.897 80.7825L392.436 82.9167C390.373 82.8376 388.468 83.6281 386.961 85.288C383.945 88.845 384.659 94.299 389.103 98.1721C393.627 101.966 399.182 101.729 402.198 98.1721ZM391.405 89.003C392.833 87.3431 395.214 86.9479 397.198 88.6869C399.261 90.3468 399.261 92.7181 397.754 94.457C396.325 96.196 393.944 96.5122 391.96 94.8523C389.976 93.1133 389.897 90.742 391.405 89.003ZM400.452 107.262L412.753 92.7971L417.117 96.4331L412.435 101.887L415.927 104.812L412.832 108.369L409.34 105.444L404.737 110.819L400.372 107.183L400.452 107.262ZM395.928 112.558L379.659 98.8044L382.754 95.2475L403.309 112.637L392.833 124.889L388.468 121.253L395.928 112.558ZM260.54 0C116.66 0 0 116.194 0 259.5C0 402.806 116.66 519 260.54 519C404.42 519 521 402.806 521 259.5C521 116.194 404.42 0 260.54 0ZM260.54 516.392C118.088 516.392 2.61889 401.383 2.61889 259.5C2.61889 117.617 118.088 2.60844 260.54 2.60844C402.991 2.60844 518.381 117.617 518.381 259.5C518.381 401.383 402.912 516.392 260.54 516.392ZM260.54 7.82531C120.945 7.82531 7.7773 120.462 7.7773 259.5C7.7773 398.538 120.945 511.175 260.54 511.175C400.134 511.175 513.223 398.538 513.223 259.5C513.223 120.462 400.055 7.82531 260.54 7.82531ZM260.54 504.693C124.516 504.693 14.3642 394.902 14.3642 259.5C14.3642 124.098 124.516 14.3069 260.54 14.3069C396.563 14.3069 506.715 124.098 506.715 259.5C506.715 394.902 396.484 504.693 260.54 504.693ZM248.794 88.0545C248.794 86.7898 249.747 85.6832 251.016 85.6042C252.286 85.6042 253.397 86.5527 253.477 87.8174C253.477 89.0821 252.524 90.1887 251.255 90.2677C249.985 90.2677 248.874 89.3192 248.794 88.0545ZM258.159 87.6593C258.159 86.3946 259.191 85.288 260.54 85.288C261.889 85.288 262.92 86.3156 262.92 87.6593C262.92 89.003 261.889 90.0306 260.54 90.0306C259.191 90.0306 258.159 89.003 258.159 87.6593ZM239.509 88.924C239.35 87.6593 240.303 86.4736 241.573 86.3156C242.842 86.1575 244.033 87.106 244.191 88.3707C244.35 89.6354 243.398 90.821 242.128 90.9791C240.858 91.1372 239.668 90.1887 239.509 88.924ZM230.303 90.2677C230.065 89.003 230.938 87.7383 232.287 87.5803C233.557 87.3431 234.827 88.2126 234.986 89.4773C235.224 90.742 234.351 91.9277 233.002 92.1648C231.732 92.4019 230.542 91.5324 230.303 90.2677ZM223.955 93.9037C222.685 94.1409 221.415 93.3504 221.177 92.0857C220.86 90.821 221.733 89.5564 223.002 89.3192C224.272 89.0821 225.542 89.8725 225.78 91.1372C226.097 92.4019 225.224 93.6666 223.955 93.9037ZM213.796 91.6115C215.066 91.2953 216.336 92.0067 216.653 93.2714C216.971 94.5361 216.257 95.8008 214.987 96.196C213.717 96.5122 212.447 95.8008 212.051 94.5361C211.733 93.2714 212.447 92.0067 213.717 91.6115H213.796ZM204.749 94.378C206.019 93.9828 207.289 94.6151 207.765 95.8798C208.162 97.1445 207.527 98.4092 206.257 98.8835C205.067 99.2787 203.718 98.6464 203.242 97.3817C202.845 96.117 203.48 94.8523 204.749 94.378ZM198.956 98.9625C199.432 100.148 198.877 101.492 197.607 102.045C196.417 102.519 194.988 101.966 194.512 100.701C194.036 99.5158 194.591 98.1721 195.861 97.6188C197.051 97.1445 198.401 97.6978 198.956 98.9625ZM186.02 104.496C185.465 103.31 186.02 101.887 187.211 101.413C188.401 100.86 189.75 101.413 190.306 102.519C190.861 103.705 190.306 105.128 189.195 105.602C188.004 106.155 186.576 105.602 186.1 104.496H186.02ZM177.688 108.764C177.053 107.578 177.529 106.235 178.64 105.602C179.751 104.97 181.179 105.444 181.814 106.551C182.449 107.736 181.973 109.08 180.862 109.712C179.751 110.345 178.322 109.871 177.688 108.764ZM169.593 113.428C168.958 112.321 169.275 110.898 170.386 110.187C171.497 109.554 172.926 109.871 173.64 110.977C174.275 112.084 173.958 113.507 172.847 114.218C171.736 114.85 170.307 114.534 169.593 113.428ZM161.816 118.565C161.101 117.459 161.339 116.036 162.45 115.325C163.561 114.613 164.99 114.85 165.704 115.957C166.418 117.063 166.18 118.486 165.069 119.198C163.958 119.909 162.53 119.672 161.816 118.565ZM154.276 124.098C153.483 123.071 153.721 121.569 154.752 120.779C155.784 119.988 157.292 120.225 158.086 121.253C158.879 122.28 158.641 123.782 157.609 124.573C156.578 125.363 155.07 125.126 154.276 124.098ZM147.055 130.027C146.182 129.078 146.34 127.576 147.293 126.707C148.324 125.837 149.753 125.995 150.626 126.944C151.499 127.892 151.34 129.394 150.388 130.264C149.356 131.133 147.927 130.975 147.055 130.027ZM143.642 133.109C144.515 134.058 144.515 135.56 143.563 136.429C142.61 137.299 141.103 137.299 140.23 136.35C139.357 135.402 139.357 133.9 140.309 133.03C141.261 132.161 142.769 132.161 143.642 133.109ZM136.976 139.591C137.928 140.46 137.928 141.962 137.055 142.911C136.182 143.859 134.674 143.859 133.722 142.99C132.77 142.12 132.77 140.618 133.643 139.67C134.516 138.721 136.023 138.721 136.976 139.591ZM130.627 146.389C131.659 147.258 131.738 148.681 130.865 149.708C129.992 150.736 128.564 150.815 127.532 149.946C126.5 149.076 126.421 147.653 127.294 146.626C128.167 145.598 129.595 145.519 130.627 146.389ZM124.675 153.582C125.707 154.372 125.945 155.874 125.151 156.901C124.358 157.929 122.85 158.166 121.818 157.376C120.786 156.585 120.628 155.083 121.342 154.056C122.135 153.028 123.643 152.791 124.675 153.582ZM267.444 87.8174C267.444 86.5527 268.634 85.5251 269.904 85.6042C271.174 85.6042 272.206 86.7898 272.126 88.0545C272.126 89.3192 270.936 90.3468 269.666 90.2677C268.396 90.2677 267.365 89.0821 267.444 87.8174ZM276.729 88.4497C276.888 87.185 277.999 86.2365 279.348 86.3946C280.618 86.5527 281.57 87.6593 281.411 89.003C281.253 90.2677 280.142 91.2163 278.793 91.0582C277.523 90.9001 276.57 89.7935 276.729 88.4497ZM286.014 89.5564C286.252 88.2916 287.443 87.4222 288.713 87.6593C289.982 87.8964 290.855 89.0821 290.617 90.3468C290.379 91.6115 289.189 92.481 287.919 92.2438C286.649 92.0067 285.776 90.821 286.014 89.5564ZM297.998 89.3983C299.267 89.7144 300.061 90.9001 299.823 92.1648C299.506 93.4295 298.315 94.2199 297.045 93.9828C295.776 93.6666 294.982 92.481 295.22 91.2163C295.458 89.9516 296.728 89.1611 297.998 89.3983ZM307.203 91.6905C308.473 92.0067 309.187 93.3504 308.87 94.6151C308.553 95.8798 307.203 96.5912 305.934 96.2751C304.664 95.9589 303.95 94.6151 304.267 93.4295C304.585 92.1648 305.934 91.4534 307.203 91.7696V91.6905ZM316.251 94.457C317.52 94.8523 318.155 96.196 317.758 97.4607C317.362 98.6464 316.012 99.3577 314.743 98.9625C313.473 98.5673 312.838 97.2236 313.235 95.9589C313.632 94.6942 314.981 94.0618 316.251 94.457ZM325.139 97.6978C326.329 98.1721 326.964 99.5158 326.488 100.781C326.012 101.966 324.663 102.599 323.393 102.124C322.203 101.65 321.568 100.306 322.044 99.0416C322.52 97.8559 323.869 97.2236 325.139 97.6978ZM331.885 105.681C330.694 105.128 330.218 103.784 330.773 102.599C331.329 101.413 332.678 100.939 333.869 101.492C335.059 102.045 335.535 103.389 334.98 104.575C334.424 105.76 333.075 106.235 331.885 105.681ZM340.138 109.792C339.027 109.159 338.551 107.736 339.186 106.63C339.821 105.444 341.249 105.049 342.36 105.681C343.471 106.314 343.947 107.736 343.312 108.843C342.677 109.95 341.249 110.424 340.138 109.792ZM348.153 114.297C347.042 113.665 346.646 112.163 347.36 111.056C347.995 109.95 349.503 109.554 350.614 110.266C351.725 110.898 352.121 112.4 351.407 113.507C350.772 114.613 349.264 115.008 348.153 114.297ZM355.931 119.198C354.82 118.486 354.582 116.984 355.296 115.957C356.01 114.85 357.518 114.613 358.55 115.325C359.661 116.036 359.899 117.538 359.184 118.565C358.47 119.672 356.962 119.909 355.931 119.198ZM363.391 124.573C362.359 123.782 362.121 122.28 362.914 121.253C363.708 120.225 365.137 120.067 366.248 120.779C367.279 121.569 367.517 123.071 366.724 124.098C365.93 125.126 364.422 125.363 363.391 124.573ZM370.533 130.343C369.501 129.473 369.422 128.051 370.295 127.023C371.089 126.074 372.596 125.916 373.628 126.786C374.66 127.655 374.739 129.078 373.866 130.106C372.993 131.133 371.565 131.212 370.533 130.422V130.343ZM377.358 136.429C376.406 135.56 376.406 134.058 377.279 133.109C378.152 132.161 379.659 132.161 380.612 133.03C381.564 133.9 381.643 135.402 380.691 136.35C379.818 137.299 378.31 137.299 377.358 136.429ZM387.278 139.67C388.151 140.618 388.151 142.12 387.199 142.99C386.246 143.859 384.738 143.859 383.865 142.911C382.993 141.962 382.993 140.46 383.945 139.591C384.897 138.721 386.405 138.721 387.278 139.67ZM393.627 146.705C394.5 147.653 394.341 149.155 393.389 150.025C392.436 150.894 390.929 150.736 390.056 149.788C389.183 148.839 389.341 147.337 390.294 146.468C391.246 145.598 392.754 145.756 393.627 146.705ZM399.579 154.056C400.372 155.083 400.134 156.585 399.103 157.376C398.071 158.166 396.563 157.929 395.77 156.901C394.976 155.874 395.214 154.372 396.246 153.582C397.277 152.791 398.706 152.949 399.499 154.056H399.579ZM215.542 56.8323L211.098 39.917L216.495 38.4942L217.844 43.7901L222.288 42.6045L223.478 47.0309L219.034 48.2166L220.86 55.3305L215.542 56.7533V56.8323ZM224.034 67.5822L204.432 72.641L204.988 74.7752L224.986 69.5583L226.177 73.9848L203.559 79.834C202.051 80.2292 200.543 79.3597 200.147 77.8579L198.004 69.7164L217.606 64.6576L217.13 62.7606L197.528 67.8194L196.337 63.3929L221.336 56.9114L224.113 67.5032L224.034 67.5822ZM187.687 47.189L194.988 45.292L194.274 42.4464L199.829 41.0236L200.543 43.8692L207.844 41.9721L208.956 46.2405L202.21 47.9794C205.702 53.4334 212.209 53.5915 212.209 53.5915L211.257 58.018C206.178 57.7018 202.686 56.2 200.226 53.9077C199.194 57.1485 196.893 60.1521 192.607 62.9187L189.592 59.5198C189.592 59.5198 195.226 56.279 195.623 49.7974L188.877 51.5364L187.766 47.268L187.687 47.189ZM119.517 87.9755L123.723 84.4185L121.818 82.2053L126.024 78.6483L138.007 92.6391L133.801 96.196L131.421 93.4295L127.214 96.9865L124.358 93.6666L128.564 90.1096L126.659 87.8964L122.453 91.4534L119.596 88.0545L119.517 87.9755ZM127.77 99.832C122.373 104.417 121.739 111.135 125.548 115.562C129.357 119.988 136.103 120.462 141.499 115.878C146.896 111.293 147.531 104.496 143.721 100.069C139.991 95.6427 133.166 95.2475 127.77 99.832ZM138.404 112.242C135.389 114.771 131.976 114.297 129.833 111.926C127.77 109.475 127.849 105.997 130.865 103.468C133.881 100.86 137.293 101.334 139.436 103.784C141.499 106.235 141.42 109.712 138.404 112.242ZM106.025 102.203L103.01 98.7254L115.072 88.5288C115.945 87.8174 117.294 87.8964 118.009 88.7659C121.421 92.7181 124.437 101.492 115.231 112.795L111.501 110.345C117.691 102.44 115.945 96.9074 114.834 94.8523L106.105 102.282L106.025 102.203ZM260.619 441.142L261.651 440.431C262.524 439.877 281.729 426.835 305.616 439.561L308.949 441.379L306.886 425.966C317.996 433.554 332.757 429.997 340.614 425.096C340.614 425.096 341.328 424.464 341.249 423.832C341.17 423.12 341.09 422.33 336.329 419.642C337.837 419.247 339.821 418.694 342.043 417.587C342.281 417.508 342.519 417.429 342.836 417.271C346.487 415.453 351.248 412.37 351.328 410.236C351.328 409.604 351.01 409.05 350.455 408.734C349.026 408.023 347.042 407.47 345.455 407.074C346.249 406.442 347.042 405.81 347.757 405.256C361.645 412.37 376.723 404.15 383.389 396.641C383.389 396.641 383.945 395.771 383.707 395.218C383.469 394.585 383.151 393.874 377.834 392.609C379.183 391.819 380.85 390.633 382.754 389.052C382.993 388.894 383.151 388.736 383.389 388.499C386.484 385.812 390.135 381.464 389.579 379.409C389.421 378.777 388.945 378.381 388.389 378.223C386.802 377.907 384.738 377.907 383.072 377.986C383.707 377.117 384.262 376.326 384.738 375.536C400.134 378.619 412.276 366.604 416.641 357.514C416.641 357.514 416.959 356.565 416.562 356.012C416.165 355.538 415.61 354.906 410.134 355.143C411.245 354.036 412.594 352.455 413.943 350.4C414.102 350.163 414.26 349.926 414.419 349.689C416.562 346.211 418.943 341.073 417.832 339.255C417.514 338.702 416.959 338.385 416.324 338.465C414.737 338.623 412.753 339.176 411.165 339.729C411.562 338.781 411.88 337.832 412.118 336.963C427.752 335.619 436.085 320.68 437.751 310.72C437.751 310.72 437.751 309.772 437.275 309.376C436.719 308.981 436.085 308.507 430.847 310.325C431.64 308.902 432.434 307.005 433.148 304.634C433.307 304.397 433.307 304.16 433.386 303.922C434.577 299.891 435.37 294.279 433.783 292.856C433.386 292.461 432.751 292.303 432.196 292.54C430.609 293.093 428.942 294.2 427.593 295.149C427.672 294.121 427.752 293.093 427.672 292.145C442.275 286.691 446.243 270.013 445.052 259.974C445.052 259.974 444.814 259.026 444.259 258.789C443.624 258.631 442.83 258.314 438.307 261.476C438.624 259.895 438.941 257.919 439.021 255.39V254.599C439.021 250.489 438.227 244.877 436.323 243.928C435.767 243.612 435.132 243.691 434.656 244.007C433.386 245.035 431.958 246.537 430.926 247.802C428.942 237.605 424.736 232.862 424.577 232.625L423.625 231.677L422.752 232.625C422.752 232.625 418.387 237.605 416.403 247.802C415.292 246.537 413.943 245.035 412.673 244.007C412.118 243.691 411.562 243.612 411.007 243.928C409.102 244.877 408.308 250.489 408.308 254.599V255.39C408.388 257.919 408.705 259.895 408.943 261.476C404.499 258.314 403.626 258.551 403.071 258.789C402.356 259.184 402.198 259.974 402.198 259.974C401.404 267.404 403.309 278.391 410.292 285.901C410.054 285.821 409.737 285.821 409.419 285.901C407.356 286.296 405.055 291.513 403.944 295.465C403.864 295.702 403.785 295.939 403.706 296.176C403.071 298.627 402.833 300.603 402.674 302.184C399.182 297.994 398.388 297.915 397.754 298.073C396.881 298.152 396.563 298.943 396.563 298.943C393.706 305.82 392.516 316.965 397.119 326.134C396.881 325.976 396.642 325.897 396.325 325.818C394.182 325.659 390.532 330.007 388.389 333.485C388.23 333.722 388.072 333.959 387.913 334.196C386.643 336.33 385.849 338.148 385.294 339.65C383.151 334.591 382.358 334.354 381.723 334.275C380.85 334.196 380.374 334.828 380.374 334.828C375.691 340.678 371.406 351.032 373.311 361.071C373.152 360.834 372.914 360.676 372.676 360.597C370.692 359.806 365.93 362.968 362.835 365.735C362.676 365.972 362.438 366.13 362.28 366.288C360.454 368.027 359.184 369.529 358.232 370.793C357.518 365.418 356.804 364.944 356.248 364.707C355.455 364.391 354.82 364.865 354.82 364.865C348.709 369.133 341.805 377.907 340.773 388.025C340.614 387.788 340.455 387.63 340.217 387.471C338.551 386.207 333.154 387.946 329.424 389.764C329.186 389.764 328.948 390.001 328.71 390.159C326.488 391.266 324.821 392.372 323.552 393.321C324.345 387.946 323.79 387.313 323.314 386.918C322.679 386.444 321.885 386.681 321.885 386.681C315.774 388.815 307.997 394.032 303.712 401.699L302.521 393.005L301.807 392.53C282.919 380.358 265.063 390.001 260.619 392.846C256.095 390.001 238.239 380.358 219.352 392.53L218.637 393.005L217.526 401.62C213.082 394.032 205.384 388.894 199.274 386.681C199.274 386.681 198.48 386.444 197.845 386.918C197.369 387.313 196.813 387.946 197.686 393.321C196.417 392.372 194.75 391.266 192.528 390.159C192.29 390.001 191.972 389.843 191.734 389.764C188.004 387.946 182.608 386.207 180.941 387.471C180.703 387.63 180.545 387.946 180.465 388.183C179.513 377.986 172.45 369.212 166.418 364.865C166.418 364.865 165.704 364.391 164.911 364.707C164.355 364.944 163.641 365.418 163.006 370.793C162.054 369.529 160.704 368.027 158.879 366.288C158.72 366.13 158.482 365.972 158.324 365.735C155.229 362.968 150.546 359.806 148.483 360.597C148.245 360.597 148.007 360.834 147.848 361.071C149.753 351.032 145.467 340.678 140.864 334.828C140.864 334.828 140.309 334.196 139.515 334.275C138.88 334.354 138.007 334.591 135.944 339.65C135.309 338.148 134.516 336.33 133.246 334.196C133.087 333.959 132.928 333.722 132.849 333.485C130.627 330.007 126.976 325.659 124.834 325.818C124.516 325.897 124.199 325.976 124.04 326.134C128.643 316.965 127.453 305.82 124.596 298.943C124.596 298.943 124.278 298.152 123.485 298.073C122.85 297.915 121.977 297.994 118.564 302.184C118.405 300.603 118.088 298.627 117.453 296.176C117.453 295.939 117.374 295.702 117.294 295.465C116.104 291.513 113.803 286.296 111.739 285.901C111.422 285.821 111.104 285.822 110.866 285.98C117.85 278.47 119.755 267.404 118.961 259.974C118.961 259.974 118.802 259.184 118.088 258.789C117.533 258.551 116.66 258.314 112.215 261.476C112.533 259.895 112.771 257.919 112.85 255.39V254.599C112.85 250.489 112.136 244.877 110.231 243.928C109.676 243.612 109.041 243.691 108.565 244.007C107.216 245.035 105.867 246.537 104.835 247.802C102.772 237.605 98.6448 232.862 98.4067 232.625L97.5337 231.677L96.6608 232.625C96.6608 232.625 92.2166 237.605 90.2326 247.802C89.2009 246.537 87.8518 245.035 86.5027 244.007C86.0265 243.691 85.3916 243.612 84.8361 243.928C82.9314 244.877 82.1379 250.489 82.1379 254.599C82.1379 254.915 82.1378 255.153 82.2172 255.39C82.2172 257.919 82.5346 259.895 82.8521 261.476C78.3286 258.314 77.535 258.631 76.9794 258.789C76.3446 259.026 76.1065 259.974 76.1065 259.974C74.9161 270.013 78.8047 286.691 93.4864 292.145C93.4864 293.093 93.5657 294.121 93.6451 295.149C92.296 294.2 90.55 293.093 89.0422 292.54C88.4073 292.303 87.8518 292.54 87.3756 292.856C85.7884 294.279 86.582 299.891 87.7724 303.922C87.8518 304.16 87.9311 304.397 88.0105 304.634C88.7248 307.005 89.5977 308.902 90.312 310.325C85.1535 308.507 84.4393 308.981 83.8838 309.376C83.4076 309.772 83.4076 310.72 83.4076 310.72C85.0742 320.68 93.4864 335.619 109.041 336.963C109.279 337.832 109.596 338.781 109.993 339.729C108.485 339.176 106.501 338.623 104.835 338.465C104.2 338.465 103.644 338.702 103.327 339.255C102.295 341.073 104.597 346.211 106.819 349.689C106.978 349.926 107.057 350.163 107.216 350.4C108.644 352.455 109.914 354.036 111.025 355.143C105.549 354.906 104.994 355.538 104.597 356.012C104.2 356.565 104.517 357.514 104.517 357.514C108.882 366.604 121.104 378.619 136.42 375.536C136.896 376.326 137.452 377.117 138.087 377.986C136.5 377.986 134.436 377.986 132.849 378.223C132.214 378.381 131.738 378.777 131.579 379.409C131.024 381.464 134.754 385.812 137.849 388.499C138.007 388.736 138.246 388.894 138.404 389.052C140.309 390.633 141.975 391.819 143.404 392.609C138.087 393.874 137.69 394.585 137.452 395.218C137.214 395.771 137.769 396.641 137.769 396.641C144.515 404.15 159.593 412.37 173.481 405.256C174.196 405.889 174.989 406.442 175.783 407.074C174.116 407.47 172.132 408.023 170.704 408.734C170.148 409.05 169.831 409.604 169.91 410.236C169.91 412.37 174.672 415.453 178.402 417.271C178.64 417.429 178.878 417.508 179.116 417.587C181.418 418.694 183.322 419.247 184.83 419.642C180.068 422.33 179.989 423.12 179.91 423.832C179.91 424.464 180.545 425.096 180.545 425.096C188.401 429.997 203.083 433.554 214.273 425.966L212.209 441.379L215.542 439.561C239.43 426.835 258.635 439.877 259.508 440.431L260.619 441.142ZM404.499 263.373C404.499 262.741 404.499 262.187 404.499 261.555C405.848 262.267 408.229 263.926 410.134 265.349L413.467 267.879L412.038 264.005C412.038 264.005 410.848 260.686 410.689 255.311V254.441C410.689 250.647 411.324 247.881 411.8 246.616C413.864 248.434 416.006 251.438 416.006 251.438L417.752 253.967L418.228 250.884C419.34 242.585 422.117 237.684 423.546 235.55C424.974 237.684 427.752 242.585 428.942 250.884L429.339 253.967L431.164 251.438C431.164 251.438 433.307 248.434 435.291 246.616C435.846 247.881 436.481 250.647 436.481 254.441V255.311C436.323 260.686 435.132 263.926 435.132 264.005L433.704 267.879L437.037 265.349C438.941 263.926 441.322 262.267 442.671 261.555C442.671 262.187 442.751 262.741 442.751 263.373C442.751 272.384 438.862 284.794 427.593 289.537C427.434 283.845 426.244 280.368 425.768 279.261C428.466 278.233 433.466 275.941 436.958 271.752C437.354 271.277 437.275 270.487 436.799 270.092C436.243 269.618 435.45 269.697 435.053 270.171C431.878 273.965 427.196 276.02 424.815 276.969V264.085C426.641 263.373 431.164 261.476 434.418 257.366C434.815 256.892 434.735 256.101 434.18 255.706C433.624 255.232 432.91 255.311 432.434 255.864C430.053 258.947 426.72 260.607 424.815 261.397V246.221C424.815 245.509 424.26 244.956 423.546 244.956C422.911 244.956 422.355 245.509 422.355 246.221V261.397C420.451 260.607 417.117 258.947 414.657 255.864C414.26 255.311 413.467 255.232 412.991 255.706C412.435 256.101 412.356 256.892 412.753 257.366C416.006 261.476 420.451 263.373 422.355 264.085V276.969C419.974 276.02 415.292 273.965 412.118 270.171C411.642 269.697 410.927 269.618 410.372 270.092C409.816 270.487 409.816 271.277 410.213 271.752C414.102 276.415 419.895 278.708 422.197 279.498C420.609 280.842 418.149 283.371 415.689 287.402C407.436 281.711 404.42 271.277 404.42 263.373H404.499ZM414.499 289.457C414.102 290.011 413.864 290.564 413.546 291.117C412.991 289.853 412.276 288.272 411.404 287.086C412.356 287.956 413.388 288.825 414.499 289.457ZM397.833 302.816C397.992 302.263 398.23 301.709 398.388 301.077C399.499 302.184 401.325 304.397 402.753 306.294L405.293 309.693L404.975 305.503C404.975 305.503 404.737 301.946 406.086 296.809C406.166 296.571 406.245 296.255 406.324 296.018C407.356 292.303 408.785 289.774 409.578 288.746C411.007 291.038 412.276 294.516 412.276 294.516L413.229 297.441L414.499 294.674C415.133 293.252 415.848 291.908 416.483 290.722C416.959 289.932 417.355 289.22 417.752 288.588C419.498 285.901 421.165 284.004 422.435 282.739C422.99 282.185 423.546 281.711 423.942 281.395C424.26 282.344 424.657 283.766 424.895 285.742C425.133 287.086 425.292 288.588 425.292 290.406C425.292 291.196 425.292 292.066 425.212 293.014C425.133 294.437 425.053 295.939 424.815 297.599L424.419 300.682L426.799 298.706C426.799 298.706 429.736 296.413 432.196 295.228C432.275 296.571 432.196 299.417 431.085 303.053C431.005 303.369 430.926 303.606 430.847 303.922C429.26 308.981 427.196 311.827 427.196 311.827L424.657 315.226L428.625 313.724C430.847 312.854 433.545 311.906 435.053 311.59C434.894 312.222 434.815 312.775 434.656 313.408C432.196 322.103 424.974 332.694 412.911 334.275C414.26 328.9 414.022 325.264 413.943 323.92C416.879 323.683 422.276 322.893 426.72 319.81C427.276 319.494 427.434 318.704 427.037 318.15C426.72 317.597 425.926 317.439 425.371 317.834C421.324 320.522 416.244 321.312 413.626 321.47L417.197 309.06C419.181 308.981 424.022 308.349 428.307 305.345C428.863 304.95 428.942 304.16 428.545 303.606C428.149 303.053 427.434 302.895 426.879 303.29C423.704 305.582 420.054 306.294 417.99 306.531L421.879 292.935L422.197 291.908C422.355 291.276 421.958 290.564 421.324 290.406C420.689 290.248 419.974 290.564 419.816 291.275L419.578 292.145L415.61 305.899C413.943 304.555 411.245 302.025 409.737 298.468C409.499 297.836 408.785 297.52 408.15 297.757C407.515 297.994 407.277 298.706 407.515 299.338C409.499 304.16 413.229 307.242 414.895 308.428L411.324 320.838C409.261 319.257 405.293 315.937 403.309 311.511C403.071 310.878 402.277 310.641 401.722 310.878C401.087 311.194 400.769 311.906 401.087 312.459C403.547 317.992 408.547 321.865 410.451 323.209C408.626 324.079 405.531 325.738 401.96 328.9C395.611 321.154 395.69 310.404 397.833 302.816ZM400.134 330.639C400.134 330.639 399.261 331.509 398.785 331.983C398.626 330.639 398.388 328.979 397.912 327.636C398.626 328.663 399.341 329.691 400.134 330.639ZM380.453 338.939C380.77 338.385 381.167 337.911 381.485 337.437C382.278 338.781 383.389 341.31 384.262 343.602L385.691 347.555L386.564 343.444C386.564 343.444 387.357 339.966 390.056 335.382C390.214 335.145 390.373 334.908 390.532 334.67C392.595 331.43 394.579 329.375 395.69 328.663C396.404 331.272 396.643 334.908 396.643 334.908L396.801 337.99L398.785 335.619C399.817 334.433 400.849 333.327 401.801 332.457C402.356 331.746 402.991 331.193 403.547 330.718C405.928 328.663 408.07 327.24 409.658 326.371C410.372 325.976 411.007 325.659 411.562 325.422C411.562 326.371 411.562 327.715 411.324 329.454C411.165 330.876 410.848 332.615 410.372 334.512C410.134 335.303 409.896 336.172 409.578 337.042C409.181 338.385 408.626 339.808 407.912 341.31L406.642 344.156L409.499 342.97C409.499 342.97 412.911 341.547 415.61 341.073C415.372 342.338 414.419 345.025 412.356 348.345C412.197 348.582 412.038 348.819 411.88 349.056C408.943 353.483 406.166 355.617 406.166 355.617L402.833 358.225L407.039 357.83C409.419 357.593 412.276 357.514 413.784 357.593C413.546 358.067 413.229 358.621 412.911 359.174C408.15 366.841 398.15 375.299 386.088 373.323C389.103 368.343 389.818 364.707 390.056 363.521C392.833 364.154 398.388 364.865 403.547 363.205C404.182 362.968 404.499 362.336 404.34 361.703C404.102 361.071 403.388 360.676 402.753 360.913C398.071 362.415 392.992 361.703 390.532 361.15L397.357 350.242C399.341 350.637 404.102 351.428 409.023 349.689C409.658 349.452 410.054 348.74 409.816 348.108C409.578 347.475 408.864 347.159 408.229 347.396C404.578 348.661 400.849 348.345 398.785 348.029L406.324 336.014L406.88 335.145C407.277 334.512 407.118 333.801 406.483 333.406C405.928 333.09 405.213 333.248 404.817 333.801L404.34 334.591L396.722 346.685C395.531 345.025 393.627 341.863 393.151 337.99C393.071 337.279 392.516 336.805 391.801 336.884C391.167 336.884 390.69 337.595 390.69 338.227C391.325 343.365 394.103 347.396 395.293 348.977L388.389 359.885C386.881 357.83 384.024 353.562 383.31 348.74C383.231 348.108 382.596 347.634 381.961 347.713C381.247 347.792 380.77 348.424 380.929 349.056C381.723 354.985 385.373 360.043 386.961 361.94C384.977 362.257 381.485 363.047 377.199 365.181C373.152 356.012 376.168 345.578 380.453 338.939ZM373.707 362.81C374.025 363.996 374.422 365.181 374.977 366.367C374.422 366.604 373.866 366.92 373.311 367.236C373.549 365.893 373.707 364.233 373.707 362.81ZM353.709 368.817C354.264 368.343 354.74 368.027 355.216 367.632C355.534 369.133 355.931 371.9 356.089 374.35L356.407 378.54L358.391 374.825C358.391 374.825 360.057 371.742 363.946 368.106C364.184 367.869 364.422 367.632 364.581 367.473C367.517 364.944 369.977 363.521 371.247 363.126C371.247 365.814 370.454 369.371 370.374 369.371L369.739 372.453L372.279 370.714C373.549 369.845 374.818 369.054 376.009 368.501C376.802 368.027 377.517 367.632 378.231 367.315C381.088 365.893 383.548 365.181 385.373 364.786C386.167 364.628 386.802 364.47 387.357 364.391C387.119 365.339 386.722 366.604 386.088 368.185C386.088 368.185 386.008 368.264 386.008 368.343L383.31 372.611C383.31 372.611 383.548 372.769 383.707 372.769C383.31 373.481 382.834 374.192 382.278 374.983C381.485 376.168 380.532 377.354 379.501 378.619L377.437 380.99L380.532 380.674C380.532 380.674 384.183 380.279 386.881 380.516C386.326 381.701 384.738 384.073 381.802 386.602C381.643 386.839 381.405 386.997 381.167 387.155C377.12 390.633 373.866 391.977 373.787 391.977L369.898 393.479L374.025 394.269C376.485 394.744 379.183 395.376 380.612 395.929C380.215 396.324 379.818 396.799 379.342 397.194C372.676 403.201 360.772 408.576 349.741 403.517C353.947 399.486 355.693 396.166 356.169 395.139C358.788 396.482 363.787 398.696 369.184 398.538C369.898 398.459 370.374 397.905 370.374 397.273C370.374 396.562 369.819 396.008 369.104 396.087C364.184 396.245 359.502 394.19 357.2 393.005L366.882 384.389C368.628 385.258 373.072 387.313 378.231 386.997C378.945 386.997 379.421 386.365 379.421 385.733C379.342 385.021 378.786 384.547 378.072 384.547C374.184 384.784 370.692 383.519 368.866 382.571L379.421 373.165L380.215 372.453C380.77 371.979 380.77 371.189 380.215 370.714C379.818 370.24 379.025 370.161 378.469 370.635L377.755 371.268L367.12 380.753C366.406 378.856 365.533 375.22 366.168 371.426C366.247 370.714 365.851 370.082 365.136 370.003C364.502 369.845 363.867 370.319 363.708 370.951C362.835 376.089 364.422 380.674 365.136 382.571L355.534 391.187C354.582 388.736 352.994 383.915 353.709 379.014C353.788 378.382 353.312 377.749 352.677 377.67C351.963 377.591 351.407 378.065 351.248 378.698C350.455 384.626 352.518 390.475 353.471 392.767C351.487 392.53 347.915 392.293 343.233 393.163C342.043 383.203 347.757 374.113 353.629 368.817H353.709ZM340.614 389.922C340.614 391.108 340.694 392.372 340.773 393.637C340.217 393.716 339.662 393.874 339.106 394.032C339.662 392.767 340.297 391.266 340.614 389.922ZM304.267 406.205C307.124 398.696 313.87 393.084 319.822 390.159C320.377 389.922 320.933 389.685 321.488 389.448C321.409 391.028 321.012 393.795 320.536 396.166L319.663 400.277L322.599 397.273C322.599 397.273 325.06 394.743 329.821 392.293C330.059 392.135 330.377 392.056 330.615 391.898C334.107 390.238 336.884 389.606 338.154 389.527C337.44 392.135 335.694 395.297 335.614 395.376L334.107 398.063L337.122 397.115C338.551 396.641 339.979 396.245 341.249 396.008C342.122 395.771 342.995 395.613 343.789 395.455C346.963 394.902 349.423 394.902 351.248 395.06C352.121 395.06 352.756 395.139 353.312 395.218C352.836 396.008 352.201 397.036 351.169 398.3C351.09 398.38 351.01 398.459 350.931 398.617C350.058 399.723 348.868 400.909 347.439 402.332C346.884 402.806 346.249 403.359 345.535 403.992C344.423 404.861 343.233 405.81 341.805 406.758L339.186 408.418L342.281 408.971C342.281 408.971 345.931 409.604 348.391 410.552C347.519 411.58 345.296 413.319 341.884 415.058C341.566 415.137 341.328 415.295 341.09 415.374C336.17 417.587 332.678 417.982 332.678 417.982L328.472 418.378L332.281 420.275C334.424 421.381 336.884 422.725 338.154 423.673C337.598 423.911 337.122 424.227 336.487 424.543C328.393 428.416 315.695 430.313 306.41 422.488L306.013 419.405L314.108 415.532C315.774 417.192 320.457 421.46 326.409 422.962C327.044 423.12 327.758 422.725 327.917 422.093C328.075 421.46 327.678 420.749 327.044 420.591C322.282 419.405 318.314 416.164 316.409 414.346L328.075 408.734C329.504 410.157 333.234 413.319 338.313 414.425C338.948 414.583 339.582 414.188 339.741 413.477C339.9 412.844 339.503 412.212 338.868 412.054C335.059 411.185 332.043 408.971 330.456 407.628L343.312 401.462L344.265 400.988C344.82 400.672 345.138 399.96 344.82 399.328C344.503 398.696 343.789 398.459 343.154 398.775L342.281 399.17L329.424 405.414C329.266 403.359 329.424 399.644 331.091 396.087C331.408 395.534 331.091 394.744 330.535 394.506C329.901 394.19 329.186 394.427 328.869 395.06C326.647 399.723 326.805 404.545 327.044 406.521L315.378 412.133C315.14 409.604 314.981 404.466 316.965 400.039C317.282 399.407 317.044 398.696 316.409 398.459C315.774 398.142 315.06 398.459 314.743 399.012C312.283 404.624 312.759 410.947 312.997 413.319L305.696 416.876L304.267 406.284V406.205ZM180.545 389.922C180.862 391.266 181.576 392.767 182.132 394.032C181.497 393.874 180.941 393.716 180.386 393.637C180.465 392.451 180.545 391.187 180.545 389.922ZM147.451 362.731C147.451 364.154 147.61 365.814 147.848 367.236C147.293 366.92 146.737 366.604 146.182 366.367C146.737 365.181 147.134 363.996 147.451 362.731ZM93.4864 289.537C82.2172 284.715 78.3286 272.384 78.3286 263.373C78.3286 262.741 78.4079 262.187 78.4873 261.555C79.8364 262.267 82.1378 263.926 84.1219 265.349L87.455 267.879L85.9471 264.005C85.9471 264.005 84.7567 260.686 84.598 255.311V254.441C84.598 250.647 85.3123 247.881 85.7884 246.616C87.7724 248.434 89.9152 251.438 89.9152 251.438L91.7404 253.967L92.1372 250.884C93.3276 242.585 96.1053 237.684 97.5337 235.55C98.9622 237.684 101.74 242.585 102.93 250.884L103.327 253.967L105.073 251.438C105.073 251.438 107.295 248.434 109.279 246.616C109.755 247.881 110.39 250.647 110.39 254.441V255.311C110.311 260.686 109.12 263.926 109.041 264.005L107.612 267.879L110.946 265.349C112.93 263.926 115.231 262.267 116.58 261.555C116.66 262.187 116.66 262.741 116.66 263.373C116.66 271.277 113.644 281.711 105.39 287.402C102.93 283.371 100.47 280.842 98.8829 279.498C101.264 278.708 106.978 276.415 110.866 271.752C111.342 271.277 111.263 270.487 110.708 270.092C110.231 269.618 109.438 269.697 109.041 270.171C105.867 273.965 101.184 276.02 98.7241 276.969V264.085C100.629 263.373 105.073 261.476 108.327 257.366C108.724 256.892 108.644 256.101 108.168 255.706C107.612 255.232 106.819 255.311 106.422 255.864C103.962 258.947 100.708 260.607 98.7241 261.397V246.221C98.7241 245.509 98.1686 244.956 97.5337 244.956C96.8195 244.956 96.264 245.509 96.264 246.221V261.397C94.3593 260.607 91.1056 258.947 88.6454 255.864C88.2486 255.311 87.455 255.232 86.8995 255.706C86.4233 256.101 86.2646 256.892 86.7407 257.366C89.9945 261.476 94.4387 263.373 96.264 264.085V276.969C93.8832 276.02 89.2009 273.965 86.0265 270.171C85.6297 269.697 84.8361 269.618 84.3599 270.092C83.8044 270.487 83.7251 271.277 84.2012 271.752C87.6931 275.941 92.7721 278.233 95.391 279.261C94.9148 280.368 93.6451 283.845 93.4864 289.537ZM109.755 287.086C108.962 288.272 108.168 289.853 107.612 291.117C107.295 290.564 107.057 290.011 106.74 289.537C107.851 288.746 108.803 287.956 109.755 287.086ZM113.009 297.757C112.374 297.52 111.66 297.836 111.422 298.468C109.914 302.025 107.216 304.555 105.549 305.899L101.581 292.145L101.343 291.275C101.184 290.564 100.47 290.248 99.8352 290.406C99.2003 290.564 98.8035 291.276 99.0416 291.908L99.359 292.935L103.248 306.531C101.184 306.294 97.5337 305.582 94.3593 303.29C93.8038 302.895 93.0102 303.053 92.6134 303.606C92.2166 304.16 92.3753 304.95 92.9308 305.345C97.1369 308.349 101.978 308.981 103.962 309.06L107.533 321.47C104.994 321.312 99.9145 320.522 95.7878 317.834C95.2323 317.439 94.518 317.597 94.1212 318.15C93.7244 318.704 93.8832 319.494 94.4387 319.81C98.9622 322.893 104.438 323.683 107.295 323.92C107.136 325.264 106.978 328.9 108.247 334.275C96.1053 332.694 89.0422 322.103 86.5027 313.408C86.3439 312.775 86.2646 312.222 86.1059 311.59C87.6137 311.906 90.312 312.854 92.6134 313.724L96.5021 315.226L94.0419 311.827C94.0419 311.827 91.9785 308.981 90.312 303.922C90.2326 303.606 90.1532 303.369 90.0739 303.053C89.0422 299.417 88.8835 296.571 89.0422 295.228C91.423 296.413 94.3593 298.706 94.3593 298.706L96.7401 300.682L96.3433 297.599C96.1053 295.939 95.9465 294.358 95.9465 292.935C95.8672 292.066 95.8672 291.196 95.8672 290.406C95.8672 288.588 96.0259 287.086 96.264 285.742C96.5021 283.766 96.8989 282.344 97.2163 281.395C97.6131 281.711 98.1686 282.185 98.7241 282.739C99.9939 284.004 101.66 285.901 103.406 288.588C103.883 289.22 104.279 290.011 104.756 290.801C105.39 291.987 106.025 293.252 106.66 294.674L107.93 297.441L108.962 294.516C108.962 294.516 110.152 291.038 111.58 288.746C112.374 289.774 113.803 292.303 114.914 296.018C114.993 296.255 115.072 296.571 115.072 296.809C116.421 301.946 116.183 305.424 116.183 305.503L115.945 309.693L118.405 306.294C119.913 304.397 121.659 302.184 122.77 301.077C123.008 301.709 123.167 302.263 123.405 302.816C125.627 310.404 125.548 321.233 119.199 328.979C115.628 325.738 112.533 324 110.708 323.209C112.612 321.865 117.612 317.992 120.151 312.459C120.389 311.906 120.072 311.194 119.517 310.878C118.882 310.641 118.167 310.878 117.85 311.511C115.866 315.937 111.977 319.257 109.914 320.838L106.343 308.428C107.93 307.242 111.66 304.16 113.644 299.338C113.961 298.706 113.644 297.994 113.009 297.757ZM123.246 327.636C122.77 328.979 122.532 330.639 122.373 331.983C121.897 331.509 121.421 331.034 121.024 330.639C121.818 329.691 122.532 328.663 123.246 327.636ZM108.247 359.174C107.93 358.621 107.692 358.067 107.374 357.593C108.882 357.514 111.739 357.593 114.199 357.83L118.326 358.225L114.993 355.617C114.993 355.617 112.215 353.483 109.279 349.056C109.12 348.819 108.962 348.582 108.803 348.345C106.74 345.025 105.867 342.338 105.628 341.073C108.247 341.547 111.66 342.891 111.66 342.97L114.596 344.156L113.326 341.31C112.612 339.808 112.057 338.385 111.66 337.042C111.342 336.172 111.104 335.303 110.866 334.512C110.39 332.694 110.073 331.113 109.914 329.77C109.676 327.794 109.676 326.45 109.676 325.422C110.152 325.659 110.787 325.897 111.501 326.371C113.088 327.24 115.231 328.584 117.612 330.718C118.247 331.272 118.802 331.825 119.437 332.457C120.389 333.406 121.342 334.433 122.373 335.619L124.358 337.99L124.516 334.908C124.516 334.908 124.754 331.272 125.548 328.663C126.58 329.375 128.643 331.43 130.706 334.67C130.706 334.908 130.944 335.145 131.103 335.382C133.881 339.966 134.595 343.365 134.595 343.444L135.468 347.555L136.976 343.602C137.769 341.31 138.96 338.781 139.674 337.437C140.071 337.911 140.388 338.385 140.785 338.939C144.991 345.578 148.007 356.012 143.959 365.181C139.595 363.047 136.182 362.257 134.198 361.94C135.785 360.043 139.436 354.985 140.309 349.056C140.388 348.424 139.912 347.792 139.198 347.713C138.563 347.634 137.928 348.108 137.849 348.74C137.214 353.562 134.357 357.83 132.77 359.885L125.865 348.977C127.135 347.396 129.913 343.365 130.468 338.227C130.548 337.595 130.071 336.963 129.357 336.884C128.722 336.805 128.087 337.279 128.008 337.99C127.611 341.863 125.707 345.025 124.516 346.685L116.818 334.591L116.342 333.801C116.025 333.248 115.231 333.09 114.676 333.406C114.12 333.801 113.961 334.512 114.279 335.145L114.834 336.014L122.373 348.029C120.389 348.345 116.66 348.661 112.93 347.396C112.295 347.159 111.581 347.475 111.422 348.108C111.184 348.74 111.501 349.452 112.136 349.689C117.056 351.428 121.897 350.637 123.802 350.242L130.706 361.15C128.167 361.703 123.088 362.415 118.405 360.913C117.771 360.676 117.056 361.071 116.898 361.703C116.66 362.336 116.977 362.968 117.691 363.205C122.85 364.865 128.326 364.154 131.103 363.521C131.341 364.707 132.055 368.343 135.071 373.323C123.008 375.299 113.088 366.841 108.247 359.174ZM141.817 397.194C141.341 396.799 140.944 396.324 140.547 395.929C141.975 395.376 144.753 394.744 147.134 394.269L151.261 393.479L147.372 391.977C147.372 391.977 144.118 390.633 139.991 387.155C139.753 386.997 139.595 386.839 139.357 386.602C136.5 384.073 134.833 381.701 134.278 380.516C136.976 380.279 140.626 380.674 140.626 380.674L143.721 380.99L141.737 378.619C140.626 377.354 139.753 376.168 138.88 374.983C138.404 374.192 137.928 373.481 137.452 372.769C136.42 371.109 135.706 369.608 135.15 368.343C135.15 368.264 135.071 368.185 135.071 368.185C134.436 366.604 134.039 365.339 133.801 364.391C134.357 364.47 134.992 364.628 135.785 364.786H135.865C137.69 365.181 140.071 365.893 142.928 367.315C143.642 367.632 144.356 368.027 145.15 368.501C146.34 369.054 147.531 369.845 148.88 370.714L151.499 372.453L150.784 369.371C150.784 369.371 149.991 365.814 149.991 363.126C151.181 363.521 153.721 364.944 156.578 367.473C156.816 367.632 156.975 367.869 157.213 368.106C161.101 371.742 162.768 374.825 162.768 374.825L164.752 378.54L165.069 374.35C165.307 371.9 165.625 369.133 166.022 367.632C166.498 368.027 166.974 368.343 167.45 368.817C173.323 374.113 179.037 383.203 177.846 393.163C173.085 392.293 169.593 392.53 167.609 392.767C168.561 390.475 170.704 384.626 169.831 378.698C169.752 378.065 169.117 377.591 168.402 377.67C167.768 377.749 167.291 378.382 167.371 379.014C168.085 383.915 166.498 388.736 165.545 391.187L155.943 382.571C156.657 380.674 158.244 376.089 157.371 370.951C157.213 370.319 156.578 369.845 155.943 370.003C155.308 370.003 154.832 370.714 154.911 371.426C155.625 375.22 154.673 378.856 153.959 380.753L143.325 371.268L142.61 370.635C142.055 370.161 141.341 370.24 140.864 370.714C140.388 371.189 140.468 371.979 140.944 372.453L141.737 373.165L152.372 382.571C150.467 383.519 146.975 384.784 143.087 384.547C142.372 384.547 141.817 385.021 141.817 385.733C141.737 386.365 142.293 386.997 142.928 386.997C148.166 387.313 152.53 385.258 154.276 384.389L163.958 393.005C161.657 394.19 156.975 396.245 152.054 396.087C151.419 396.008 150.784 396.562 150.784 397.273C150.784 397.905 151.34 398.459 151.975 398.538C157.451 398.696 162.45 396.482 164.99 395.139C165.545 396.166 167.291 399.486 171.497 403.438C160.387 408.576 148.642 403.28 141.817 397.194ZM215.463 416.876L208.162 413.319C208.479 410.947 208.956 404.624 206.416 399.012C206.099 398.459 205.384 398.142 204.829 398.459C204.194 398.696 203.876 399.407 204.194 400.039C206.178 404.466 206.019 409.604 205.781 412.133L194.115 406.521C194.353 404.545 194.591 399.723 192.29 395.06C191.972 394.427 191.258 394.19 190.703 394.506C190.068 394.744 189.83 395.534 190.068 396.087C191.814 399.644 191.893 403.359 191.734 405.414L178.878 399.17L178.005 398.775C177.37 398.459 176.656 398.775 176.338 399.328C176.1 399.96 176.338 400.672 176.973 400.988L177.846 401.383L190.703 407.628C189.115 408.971 186.179 411.185 182.37 412.054C181.656 412.212 181.259 412.844 181.418 413.477C181.576 414.188 182.211 414.583 182.846 414.425C188.004 413.319 191.655 410.157 193.083 408.734L204.749 414.346C202.845 416.164 198.956 419.405 194.195 420.591C193.56 420.749 193.083 421.46 193.322 422.093C193.48 422.725 194.115 423.12 194.75 422.962C200.781 421.46 205.464 417.192 207.051 415.532L215.146 419.405L214.749 422.488C205.464 430.313 192.766 428.416 184.671 424.543C184.116 424.227 183.56 423.911 183.005 423.673C184.274 422.725 186.735 421.381 188.957 420.275L192.687 418.378L188.481 417.982C188.481 417.982 184.989 417.587 180.148 415.374C179.83 415.295 179.592 415.137 179.354 415.058C175.862 413.319 173.64 411.58 172.767 410.552C175.307 409.604 178.878 408.971 178.878 408.971L181.973 408.418L179.434 406.758C178.084 405.81 176.815 404.94 175.704 403.992H175.624C174.91 403.359 174.275 402.806 173.72 402.253C173.799 402.253 173.958 402.174 174.116 402.016L170.228 398.617C170.228 398.617 170.069 398.459 170.069 398.38C168.958 397.115 168.323 396.008 167.847 395.218C168.402 395.139 169.037 395.06 169.91 395.06C171.736 394.902 174.196 394.902 177.37 395.455C178.164 395.613 178.957 395.771 179.83 396.008C181.179 396.245 182.608 396.641 184.116 397.115L187.052 398.063L185.544 395.376C185.544 395.376 183.798 392.135 183.005 389.527C184.354 389.606 187.131 390.238 190.544 391.898C190.861 392.056 191.099 392.135 191.338 392.293C196.099 394.743 198.559 397.194 198.559 397.273L201.496 400.277L200.623 396.166C200.147 393.795 199.75 391.028 199.67 389.448C200.226 389.685 200.781 389.922 201.416 390.159C207.368 393.084 213.955 398.538 216.892 406.047L215.463 416.876ZM258.635 435.451C252.207 432.21 236.255 426.045 216.971 434.661C217.209 432.763 217.923 427.863 218.637 422.172L218.876 420.749C218.955 419.958 219.034 419.405 219.114 418.694C219.51 415.532 219.987 412.37 220.383 409.288V408.971C221.336 401.936 222.129 396.087 222.209 395.376C239.192 384.863 254.984 393.716 258.635 396.087V398.617H262.524V396.087C266.174 393.716 281.967 384.863 298.95 395.376C299.109 396.087 299.902 402.016 300.775 409.129V409.288C301.172 412.37 301.648 415.611 302.045 418.694C302.124 419.405 302.204 420.037 302.283 420.749C302.363 421.223 302.442 421.618 302.442 422.014H302.521C303.235 427.784 303.95 432.763 304.188 434.661C284.903 425.966 268.873 432.21 262.524 435.53V427.942H258.635V435.451ZM234.748 402.174H238.795V425.096H234.192V407.39L230.303 410.552L228.002 407.549L234.748 402.174ZM251.255 401.778C246.017 401.778 243.636 405.019 243.636 409.999C243.636 414.267 246.017 416.955 250.302 416.955C252.286 416.955 253.715 416.322 254.746 414.663H254.826C254.746 418.14 253.397 421.855 249.35 421.855C247.842 421.855 246.572 421.46 245.382 420.907L244.747 424.622C246.334 425.175 247.921 425.491 249.588 425.491C257.048 425.491 259.032 418.615 259.032 412.449C259.032 407.074 257.683 401.778 251.255 401.778ZM251.255 413.556C249.032 413.556 248.159 411.501 248.159 409.288C248.159 407.232 249.032 405.177 251.175 405.177C253.477 405.177 254.35 407.074 254.35 409.208C254.35 411.501 253.556 413.556 251.255 413.556ZM271.095 405.731H260.857V402.174H275.697V405.968L267.523 425.096H262.524L271.095 405.731ZM285.379 416.955C287.284 416.955 288.713 416.322 289.824 414.663H289.903C289.744 418.14 288.395 421.855 284.427 421.855C282.84 421.855 281.57 421.46 280.38 420.907L279.745 424.622C281.332 425.175 282.919 425.491 284.665 425.491C292.046 425.491 294.109 418.615 294.109 412.449C294.109 407.074 292.681 401.778 286.252 401.778C281.094 401.778 278.634 405.019 278.634 409.999C278.634 414.267 281.015 416.955 285.379 416.955ZM286.252 405.177C288.554 405.177 289.506 407.074 289.506 409.208C289.506 411.501 288.633 413.556 286.411 413.556C284.189 413.556 283.237 411.501 283.237 409.288C283.237 407.232 284.11 405.177 286.252 405.177ZM48.7272 240.846L33.9662 251.438L34.1249 245.905L45.3147 237.684L42.3784 235.076H34.2043V230.728L59.4408 230.886V235.155H47.9336L59.3615 245.193L59.2027 250.568L48.7272 240.925V240.846ZM36.8232 274.439C39.1246 276.178 42.0609 277.048 45.5528 277.127C49.0446 277.127 52.0603 276.336 54.4411 274.676C57.3775 272.542 58.8853 269.539 58.9647 265.428C59.044 261.318 57.5362 258.156 54.5998 255.943C52.219 254.204 49.2827 253.335 45.8702 253.256C42.3784 253.256 39.442 254.046 37.1406 255.706C34.1249 257.682 32.6964 260.844 32.6171 265.112C32.5377 269.222 33.9662 272.305 36.8232 274.439ZM37.8548 259.658C39.6008 258.156 42.299 257.445 45.8702 257.524C49.4414 257.524 52.0603 258.314 53.8856 259.816C55.7109 261.318 56.0283 264.322 56.0283 265.349C56.0283 268.195 55.6315 268.985 53.8062 270.408C51.9016 271.831 49.2827 272.542 45.7909 272.463C42.2197 272.463 39.5214 271.594 37.7755 270.013C36.0296 268.59 35.7121 266.772 35.7121 265.112C35.7121 263.452 36.1089 261.081 37.8548 259.658ZM49.2033 300.682C49.5208 300.207 49.7589 299.496 49.9176 298.548C50.5525 299.338 51.2667 299.891 52.1397 300.207C53.3301 300.524 54.6792 300.445 56.3458 299.97C58.8853 299.18 60.4725 297.836 61.1867 295.86C61.6629 294.358 61.5835 292.461 60.9487 290.169L58.0123 279.656L33.7281 287.007L34.9185 291.513L45.3941 288.272L46.9813 293.726C47.2987 295.07 47.2193 296.176 46.7432 296.967C46.267 297.678 45.7115 298.31 44.3624 298.785C42.9339 299.259 41.7435 299.654 40.7118 300.049C39.204 300.603 38.2516 301.077 37.7755 301.551L39.1246 306.215L39.9976 305.978C40.1563 305.345 40.3944 304.95 40.7118 304.713C40.8705 304.476 41.3467 304.239 41.9816 304.001H42.0609L46.1083 302.5C47.6161 302.025 48.6478 301.393 49.2033 300.682ZM55.4728 285.11L57.2187 291.592C57.6155 292.856 57.4568 293.41 57.06 294.279C56.6632 295.386 56.9013 295.781 55.3934 296.255C54.3618 296.571 53.5682 296.176 52.4571 295.544C51.5842 295.07 51.108 293.805 50.6318 292.145L49.2827 287.086L55.4728 285.11ZM49.2033 331.43L42.1403 314.672L65.2341 304.001L72.2178 320.601L69.2021 322.023L64.0437 309.772L57.6155 312.854L62.2978 324L59.1234 325.185L54.4411 314.04L47.2193 317.439L52.4571 329.928L49.2827 331.43H49.2033ZM75.789 332.378L49.0446 336.014L51.0286 340.045L58.4885 338.939L61.901 346.132L56.4251 352.218L59.044 355.854L77.1382 335.066L75.789 332.378ZM65.0754 343.681L62.3772 337.832L71.5829 336.488L65.0754 343.681ZM112.136 395.297L91.5024 410.473L88.8835 406.6L96.9782 386.918L82.9314 397.51L80.0745 393.479L100.708 378.302L103.327 381.938L95.2323 402.016L109.596 391.582L112.136 395.376V395.297ZM121.104 403.755L96.1053 414.267L99.2797 417.903L106.66 414.663L111.422 420.354L107.533 427.705L110.469 430.866L123.008 405.968L121.104 403.755ZM113.406 416.639L109.835 412.686L117.771 409.288L113.406 416.639ZM138.722 426.677L132.849 421.381L118.961 438.376L115.707 435.214L129.595 418.219L123.961 413.319L126.659 410.315L141.42 423.673L138.722 426.677ZM151.419 427.705L137.531 449.758L133.722 447.228L147.61 425.096L151.419 427.626V427.705ZM164.593 435.846C161.26 433.712 157.927 433.317 154.594 434.819C151.975 436.004 149.673 438.138 147.848 441.221C146.023 444.304 145.071 447.307 145.229 450.232C145.309 453.947 147.134 456.951 150.546 459.164C153.88 461.377 157.133 461.772 160.308 460.35C163.006 459.164 165.228 457.03 167.133 453.947C168.958 450.864 169.831 447.782 169.752 444.778C169.593 440.984 167.926 438.059 164.593 435.846ZM163.561 451.576C162.847 452.761 161.895 453.947 160.943 454.896C157.689 458.295 152.689 457.662 150.15 453.789C148.324 451.023 149.435 446.517 151.181 443.592C153.007 440.51 154.991 438.85 157.133 438.059C159.911 436.953 162.768 438.376 164.514 440.668C165.149 441.458 165.545 442.328 165.784 443.276C166.339 446.043 164.99 449.125 163.561 451.576ZM194.909 449.837L185.147 474.182L181.338 472.443L178.481 451.023L171.815 468.412L167.926 466.752L177.688 442.328L181.338 443.988L184.513 466.12L191.258 448.256L194.909 449.837ZM206.416 450.706L192.211 474.657L196.099 475.526L200.226 468.333L208.083 470.072L209.194 478.372L213.162 479.162L209.194 451.339L206.416 450.706ZM201.734 464.697L206.733 456.635L208.321 466.12L201.734 464.697ZM222.129 478.293L233.954 480.111L233.478 483.668L217.765 481.375L221.256 455.212L225.066 455.686L222.129 478.293ZM263.635 456.793H253V483.272H257.127V471.89H263.238C266.016 471.89 268 471.179 269.19 469.993C270.46 468.807 271.095 466.91 271.095 464.302C271.095 461.693 270.46 459.875 269.269 458.69C268.079 457.425 266.174 456.793 263.635 456.793ZM266.73 467.147C265.619 468.175 263.952 468.254 262.524 468.254C262.444 468.254 257.127 468.175 257.127 468.175V460.587H263C264.508 460.508 266.254 460.666 267.127 462.089C268.158 463.59 268.238 465.962 266.73 467.147ZM286.252 454.975C282.364 455.37 279.507 457.188 277.682 460.429C276.253 463.116 275.697 466.278 276.015 469.835C276.332 473.471 277.364 476.396 279.189 478.688C281.411 481.533 284.586 482.798 288.633 482.403C292.522 482.087 295.299 480.269 297.045 477.107C298.474 474.498 299.029 471.416 298.712 467.701C298.395 464.065 297.363 461.061 295.538 458.769C293.236 455.844 290.141 454.579 286.252 454.975ZM293.395 474.815C292.204 477.028 290.3 478.767 287.84 478.767C285.697 478.767 283.554 477.897 282.205 476.158C280.777 474.34 280.142 471.969 279.983 469.598C279.745 466.989 279.904 464.381 281.253 462.168C282.761 459.638 284.983 458.216 287.919 458.611C289.586 458.769 290.617 459.638 291.728 460.903C293.474 462.958 294.347 465.25 294.585 467.938C294.744 470.467 294.585 472.68 293.395 474.815ZM321.568 470.072L322.282 473.866L306.727 476.791L302.204 450.785L306.251 449.995L310.06 472.206L321.568 469.993V470.072ZM324.821 445.252L332.44 470.467L328.234 471.969L320.615 446.754L324.821 445.331V445.252ZM354.026 453.71C354.344 457.82 353.471 460.903 351.328 463.037C350.058 464.381 348.312 465.25 346.169 465.804C343.312 466.436 340.694 465.962 338.392 464.302C335.694 462.405 333.869 459.164 332.916 454.659C332.043 450.627 332.281 447.228 333.472 444.462C334.821 441.537 337.281 439.64 340.773 438.771C343.789 438.059 346.249 438.297 348.153 439.561C349.82 440.668 351.09 442.486 351.883 445.015L348.153 445.806C348.153 445.806 346.884 443.83 346.725 443.672C346.09 443.039 345.376 442.644 344.503 442.407C342.916 442.012 341.011 442.17 339.741 443.197C338.868 443.909 338.075 445.015 337.598 446.043C336.646 448.019 336.408 450.311 336.646 452.445C336.964 456.002 338.71 460.192 342.281 461.377C343.233 461.693 344.503 461.772 345.455 461.614C347.042 461.219 348.233 460.429 349.185 459.243C350.296 457.662 350.455 457.109 350.375 454.421L354.026 453.552V453.71ZM378.866 446.833L380.374 450.074L364.581 458.057L353.629 434.265L369.263 426.361L370.771 429.681L358.946 435.688L361.883 442.091L372.596 436.716L374.263 440.115L363.311 445.648L366.644 452.841L378.866 446.754V446.833ZM406.245 421.46C407.832 423.832 408.388 426.045 408.07 428.1C407.674 430.392 405.293 433.238 402.674 435.214C399.976 437.19 397.595 437.901 395.452 437.427C393.627 436.953 391.96 435.609 390.452 433.317L380.532 418.457L384.104 416.006L393.627 429.76C394.817 431.499 396.008 432.447 397.277 432.684C398.547 432.842 399.023 432.922 400.769 431.657C402.436 430.471 403.388 429.207 403.706 427.863C404.023 426.361 403.626 424.701 402.356 422.883L393.071 409.367L396.484 406.679L406.324 421.46H406.245ZM414.26 390.238L430.688 410.315L427.037 413.714L408.705 406.995L420.054 419.958L416.483 422.962L400.055 402.885L403.15 400.356L423.308 407.549L410.451 393.4L414.181 390.159L414.26 390.238ZM420.292 382.018L438.386 400.514L435.053 403.913L416.959 385.495L420.292 382.097V382.018ZM433.862 359.727L451.004 382.018L449.417 384.626L422.831 378.065L425.45 374.034L443.227 378.54L431.64 363.6L433.942 359.727H433.862ZM463.94 352.613L466.876 354.431L457.671 370.003L436.243 356.091L445.37 340.678L448.703 342.496L441.56 354.036L447.274 358.067L453.702 347.634L456.639 349.531L450.131 359.964L456.639 364.312L463.861 352.613H463.94ZM473.146 326.924C473.146 326.924 472.432 326.845 471.717 326.687H471.638L467.67 325.106C466.162 324.553 464.972 324.395 464.099 324.553C463.543 324.711 462.988 325.106 462.273 325.738H462.194C462.273 324.79 462.035 323.841 461.48 323.051C460.766 322.023 459.655 321.154 457.988 320.522C455.607 319.494 453.544 319.494 451.877 320.601C450.607 321.47 449.496 322.972 448.703 325.185L444.735 335.382L468.146 345.262L469.654 341.389L459.893 337.279L462.035 331.509C462.591 330.244 463.226 329.375 464.099 329.137C464.892 328.821 466.003 328.979 467.352 329.454C468.702 330.007 469.257 330.244 470.368 330.56C471.797 331.034 472.908 331.351 473.543 331.351L475.288 326.687L474.416 326.371C474.019 326.766 473.543 326.924 473.146 326.924ZM458.385 330.797L456.401 335.777L449.338 332.773L451.639 327.003C452.115 325.738 452.75 324.869 453.544 324.395C454.575 323.841 455.131 323.604 456.639 324.237C458.226 324.948 458.702 325.659 458.94 326.924C459.178 327.952 459.02 329.216 458.385 330.797ZM481.558 304.397C482.828 308.349 480.844 314.593 477.749 317.123C475.447 319.02 472.59 318.941 469.892 318.229C470.289 316.965 470.765 315.226 471.003 313.882C473.066 314.435 475.606 314.514 477.034 312.538C478.225 311.036 479.098 308.665 478.304 306.768C477.352 304.476 474.733 304.397 472.908 305.424C471.4 306.215 470.209 307.638 469.098 308.981C467.114 311.432 465.289 312.459 464.337 313.092C462.988 313.961 461.4 314.119 459.575 313.408C457.671 312.775 456.401 311.59 455.686 309.851C455.052 308.033 455.131 305.74 455.925 303.053C456.956 299.812 458.464 297.757 460.448 296.888C461.877 296.255 463.623 296.255 465.607 296.888C465.607 296.888 464.257 300.682 464.257 300.761C464.257 300.603 463.067 300.603 462.908 300.682C462.035 300.84 461.4 301.393 460.845 301.946C458.464 304.318 459.655 311.036 463.702 308.744C464.495 308.27 465.051 307.875 466.876 305.582C468.781 303.211 471.241 300.682 474.257 300.286C477.193 299.812 480.606 301.551 481.558 304.634V304.397ZM458.543 282.897L483.225 288.588L482.193 293.252L457.512 287.56L458.543 282.897ZM464.813 268.037L485.764 270.487L485.129 275.467L464.495 272.937L463.622 280.526L459.416 280.13L461.559 259.816L465.765 260.211L464.892 267.958L464.813 268.037ZM475.288 250.41L460.21 258.789V253.967L470.447 248.118L460.686 240.292L460.845 235.076L475.447 245.509L485.923 245.825L485.685 250.726L475.368 250.489L475.288 250.41ZM91.7404 363.837L71.0274 379.014L68.4085 375.141L76.5033 355.459L62.4565 366.051L59.5995 362.019L80.3126 346.843L82.9314 350.479L74.8367 370.556L89.2009 360.122L91.7404 363.917V363.837Z" fill="#191D31" fill-opacity="0.4"/>
</svg>
