<svg width="1920" height="1080" viewBox="0 0 1920 1080" fill="none" xmlns="http://www.w3.org/2000/svg">
<g clip-path="url(#clip0_938_2133)">
<rect width="1920" height="1080" fill="#F2F3FA"/>
<rect width="1920" height="1080" fill="url(#paint0_linear_938_2133)" fill-opacity="0.65"/>
<g opacity="0.5">
<g filter="url(#filter0_f_938_2133)">
<ellipse cx="377" cy="745.783" rx="175" ry="167.5" fill="#437FEF"/>
</g>
<g filter="url(#filter1_f_938_2133)">
<ellipse cx="1337.4" cy="812.689" rx="262" ry="122" transform="rotate(-13.6558 1337.4 812.689)" fill="#437FEF"/>
</g>
<g filter="url(#filter2_f_938_2133)">
<ellipse cx="376.801" cy="500.945" rx="74.5" ry="233.5" transform="rotate(14.2821 376.801 500.945)" fill="#EFA043" fill-opacity="0.81"/>
</g>
<g filter="url(#filter3_f_938_2133)">
<ellipse cx="875.849" cy="323.096" rx="60.6596" ry="162.588" transform="rotate(101.593 875.849 323.096)" fill="#3D2A73" fill-opacity="0.81"/>
</g>
<g filter="url(#filter4_f_938_2133)">
<ellipse cx="246.639" cy="323.413" rx="60.6596" ry="99.4779" transform="rotate(101.593 246.639 323.413)" fill="#3D2A73" fill-opacity="0.81"/>
</g>
<g filter="url(#filter5_f_938_2133)">
<ellipse cx="672" cy="824.783" rx="230" ry="141.5" fill="#43D1EF"/>
</g>
<g filter="url(#filter6_f_938_2133)">
<ellipse cx="809.17" cy="547.409" rx="230" ry="70.4714" transform="rotate(-22.4899 809.17 547.409)" fill="#43D1EF" fill-opacity="0.58"/>
</g>
<g filter="url(#filter7_f_938_2133)">
<ellipse cx="901.5" cy="841.283" rx="152.5" ry="96" fill="#87E2FF"/>
</g>
<g filter="url(#filter8_f_938_2133)">
<ellipse cx="748.749" cy="467.568" rx="74.5" ry="233.5" transform="rotate(-90.1927 748.749 467.568)" fill="#FFEBD3"/>
</g>
<g filter="url(#filter9_f_938_2133)">
<ellipse cx="1209.89" cy="543.205" rx="85.5587" ry="259.93" transform="rotate(48.2466 1209.89 543.205)" fill="#80E8FF"/>
</g>
<g filter="url(#filter10_f_938_2133)">
<ellipse cx="1673.89" cy="446.205" rx="85.5587" ry="259.93" transform="rotate(65.1469 1673.89 446.205)" fill="#80E8FF"/>
</g>
</g>
<path d="M216.651 268.923C59.4863 274.794 -51.1976 375.463 -87 434.587V1189.89H1942V678.888C1815.52 690.01 1651.27 697.69 1463 678.888C1087.5 641.388 1002.5 537.388 772.5 466.388C538.185 394.056 579 255.388 216.651 268.923Z" fill="url(#paint1_radial_938_2133)" stroke="url(#paint2_radial_938_2133)"/>
<path d="M270.064 415.535C72.0106 406.169 -67.8343 522.075 -113 581.199V1190H1884V825.5C1724.44 836.622 1652 846 1437.5 763C1236.61 685.265 1250.5 531.441 802.555 531.441C493.197 531.441 517.632 427.243 270.064 415.535Z" fill="url(#paint3_linear_938_2133)" stroke="url(#paint4_radial_938_2133)"/>
<path d="M280.84 616.081C62.0551 630.768 -79.0079 762.92 -122.191 827.161L-55.5061 1432.3L2140.19 1190.34L2100.26 828.03C1926.05 858.418 1847.42 876.516 1602.49 820.005C1373.1 767.079 1371.52 612.497 879.008 666.772C538.869 704.254 554.322 597.722 280.84 616.081Z" fill="url(#paint5_linear_938_2133)" stroke="url(#paint6_radial_938_2133)"/>
</g>
<defs>
<filter id="filter0_f_938_2133" x="-98" y="278.283" width="950" height="935" filterUnits="userSpaceOnUse" color-interpolation-filters="sRGB">
<feFlood flood-opacity="0" result="BackgroundImageFix"/>
<feBlend mode="normal" in="SourceGraphic" in2="BackgroundImageFix" result="shape"/>
<feGaussianBlur stdDeviation="150" result="effect1_foregroundBlur_938_2133"/>
</filter>
<filter id="filter1_f_938_2133" x="781.156" y="378.944" width="1112.48" height="867.491" filterUnits="userSpaceOnUse" color-interpolation-filters="sRGB">
<feFlood flood-opacity="0" result="BackgroundImageFix"/>
<feBlend mode="normal" in="SourceGraphic" in2="BackgroundImageFix" result="shape"/>
<feGaussianBlur stdDeviation="150" result="effect1_foregroundBlur_938_2133"/>
</filter>
<filter id="filter2_f_938_2133" x="-15.564" y="-26.0956" width="784.729" height="1054.08" filterUnits="userSpaceOnUse" color-interpolation-filters="sRGB">
<feFlood flood-opacity="0" result="BackgroundImageFix"/>
<feBlend mode="normal" in="SourceGraphic" in2="BackgroundImageFix" result="shape"/>
<feGaussianBlur stdDeviation="150" result="effect1_foregroundBlur_938_2133"/>
</filter>
<filter id="filter3_f_938_2133" x="466.105" y="5.27045" width="819.489" height="635.651" filterUnits="userSpaceOnUse" color-interpolation-filters="sRGB">
<feFlood flood-opacity="0" result="BackgroundImageFix"/>
<feBlend mode="normal" in="SourceGraphic" in2="BackgroundImageFix" result="shape"/>
<feGaussianBlur stdDeviation="125" result="effect1_foregroundBlur_938_2133"/>
</filter>
<filter id="filter4_f_938_2133" x="-101.58" y="10.7014" width="696.437" height="625.424" filterUnits="userSpaceOnUse" color-interpolation-filters="sRGB">
<feFlood flood-opacity="0" result="BackgroundImageFix"/>
<feBlend mode="normal" in="SourceGraphic" in2="BackgroundImageFix" result="shape"/>
<feGaussianBlur stdDeviation="125" result="effect1_foregroundBlur_938_2133"/>
</filter>
<filter id="filter5_f_938_2133" x="142" y="383.283" width="1060" height="883" filterUnits="userSpaceOnUse" color-interpolation-filters="sRGB">
<feFlood flood-opacity="0" result="BackgroundImageFix"/>
<feBlend mode="normal" in="SourceGraphic" in2="BackgroundImageFix" result="shape"/>
<feGaussianBlur stdDeviation="150" result="effect1_foregroundBlur_938_2133"/>
</filter>
<filter id="filter6_f_938_2133" x="294.936" y="137.949" width="1028.47" height="818.92" filterUnits="userSpaceOnUse" color-interpolation-filters="sRGB">
<feFlood flood-opacity="0" result="BackgroundImageFix"/>
<feBlend mode="normal" in="SourceGraphic" in2="BackgroundImageFix" result="shape"/>
<feGaussianBlur stdDeviation="150" result="effect1_foregroundBlur_938_2133"/>
</filter>
<filter id="filter7_f_938_2133" x="449" y="445.283" width="905" height="792" filterUnits="userSpaceOnUse" color-interpolation-filters="sRGB">
<feFlood flood-opacity="0" result="BackgroundImageFix"/>
<feBlend mode="normal" in="SourceGraphic" in2="BackgroundImageFix" result="shape"/>
<feGaussianBlur stdDeviation="150" result="effect1_foregroundBlur_938_2133"/>
</filter>
<filter id="filter8_f_938_2133" x="215.25" y="93.0638" width="1067" height="749.008" filterUnits="userSpaceOnUse" color-interpolation-filters="sRGB">
<feFlood flood-opacity="0" result="BackgroundImageFix"/>
<feBlend mode="normal" in="SourceGraphic" in2="BackgroundImageFix" result="shape"/>
<feGaussianBlur stdDeviation="150" result="effect1_foregroundBlur_938_2133"/>
</filter>
<filter id="filter9_f_938_2133" x="707.726" y="58.6677" width="1004.32" height="969.075" filterUnits="userSpaceOnUse" color-interpolation-filters="sRGB">
<feFlood flood-opacity="0" result="BackgroundImageFix"/>
<feBlend mode="normal" in="SourceGraphic" in2="BackgroundImageFix" result="shape"/>
<feGaussianBlur stdDeviation="150" result="effect1_foregroundBlur_938_2133"/>
</filter>
<filter id="filter10_f_938_2133" x="1135.27" y="12.1719" width="1077.23" height="868.067" filterUnits="userSpaceOnUse" color-interpolation-filters="sRGB">
<feFlood flood-opacity="0" result="BackgroundImageFix"/>
<feBlend mode="normal" in="SourceGraphic" in2="BackgroundImageFix" result="shape"/>
<feGaussianBlur stdDeviation="150" result="effect1_foregroundBlur_938_2133"/>
</filter>
<linearGradient id="paint0_linear_938_2133" x1="960" y1="0" x2="960" y2="1080" gradientUnits="userSpaceOnUse">
<stop stop-color="white"/>
<stop offset="0.52731" stop-color="#7EA7CC" stop-opacity="0.458333"/>
<stop offset="1" stop-color="white" stop-opacity="0"/>
</linearGradient>
<radialGradient id="paint1_radial_938_2133" cx="0" cy="0" r="1" gradientUnits="userSpaceOnUse" gradientTransform="translate(928 268.388) rotate(133.352) scale(614.73 1255.93)">
<stop stop-color="white" stop-opacity="0.21"/>
<stop offset="1" stop-color="white" stop-opacity="0"/>
</radialGradient>
<radialGradient id="paint2_radial_938_2133" cx="0" cy="0" r="1" gradientUnits="userSpaceOnUse" gradientTransform="translate(704.896 318.888) rotate(90) scale(519 1060.1)">
<stop stop-color="white"/>
<stop offset="1" stop-color="white" stop-opacity="0"/>
</radialGradient>
<linearGradient id="paint3_linear_938_2133" x1="886" y1="470.5" x2="873.5" y2="969" gradientUnits="userSpaceOnUse">
<stop stop-color="white" stop-opacity="0.21"/>
<stop offset="1" stop-color="white" stop-opacity="0"/>
</linearGradient>
<radialGradient id="paint4_radial_938_2133" cx="0" cy="0" r="1" gradientUnits="userSpaceOnUse" gradientTransform="translate(886 465.5) rotate(90) scale(519 1337.35)">
<stop stop-color="white"/>
<stop offset="1" stop-color="white" stop-opacity="0"/>
</radialGradient>
<linearGradient id="paint5_linear_938_2133" x1="964.08" y1="596.086" x2="1007.46" y2="1092.88" gradientUnits="userSpaceOnUse">
<stop stop-color="white" stop-opacity="0.21"/>
<stop offset="1" stop-color="white" stop-opacity="0"/>
</linearGradient>
<radialGradient id="paint6_radial_938_2133" cx="0" cy="0" r="1" gradientUnits="userSpaceOnUse" gradientTransform="translate(963.532 591.117) rotate(83.7115) scale(519 1479.31)">
<stop stop-color="white"/>
<stop offset="1" stop-color="white" stop-opacity="0"/>
</radialGradient>
<clipPath id="clip0_938_2133">
<rect width="1920" height="1080" fill="white"/>
</clipPath>
</defs>
</svg>
