<svg width="151" height="38" viewBox="0 0 151 38" fill="none" xmlns="http://www.w3.org/2000/svg">
<g clip-path="url(#clip0_774_7442)">
<path d="M60.6686 6.22815V8.12091C60.6686 11.8312 59.0872 14.6038 55.9302 16.4329C53.5465 17.8278 50.5 18.5803 46.7907 18.6961V15.0495C50.064 14.9569 52.5698 14.3259 54.314 13.1567C55.75 12.1785 56.4709 11.0093 56.4709 9.65481H47.157V6.23394H60.6686V6.22815ZM65.8372 18.835C67.5407 20.2647 68.3895 22.0649 68.3895 24.2355C68.3895 26.4061 67.5407 28.1715 65.8372 29.607C64.25 30.9614 62.3954 31.6444 60.2733 31.6444C58.1512 31.6444 56.3082 30.9672 54.7384 29.607C53.0756 28.1773 52.2384 26.3829 52.2384 24.2355C52.2384 22.088 53.0698 20.2705 54.7384 18.835C56.3082 17.4979 58.157 16.8265 60.2733 16.8265C62.3895 16.8265 64.25 17.4979 65.8372 18.835ZM57.5465 21.5208C56.7151 22.2559 56.2965 23.1588 56.2965 24.2355C56.2965 25.3121 56.7151 26.1977 57.5465 26.9502C58.343 27.6679 59.2675 28.0268 60.3314 28.0268C61.3954 28.0268 62.3198 27.6679 63.1163 26.9502C63.9302 26.215 64.3372 25.3121 64.3372 24.2355C64.3372 23.1588 63.9302 22.2385 63.1163 21.5208C62.343 20.8262 61.4128 20.4731 60.3314 20.4731C59.25 20.4731 58.343 20.8204 57.5465 21.5208ZM65.2675 7.81414V6.23394H69.2675V17.7352H65.2675V15.8714H61.6628V12.6763H65.2675V11.0093H61.6628V7.81414H65.2675Z" fill="#0054A6"/>
<path d="M78.3198 7.13111V4.92578H82.4942V7.13111H87.8314V10.4941H82.6628C82.9477 11.1366 83.4884 11.6691 84.2791 12.1032C85.2035 12.6126 86.4767 12.9599 88.0814 13.1509V16.7686C86.436 16.7339 84.9186 16.3923 83.5407 15.7498C82.157 15.1073 81.1279 14.2681 80.4477 13.2319C79.7267 14.2681 78.6047 15.1189 77.0698 15.773C75.6337 16.4155 74.186 16.7454 72.7267 16.7628V13.1741C74.3547 12.9657 75.6047 12.6184 76.4767 12.1264C77.2326 11.6923 77.7442 11.1482 78.0116 10.4883H72.9593V7.12532H78.3256L78.3198 7.13111ZM91.4361 21.515H74.2907V18.152H95.4419V25.6709H78.2965V26.7707H95.4419V30.2495H76.25C75.5872 30.2495 75.1047 30.1105 74.8023 29.8269C74.4593 29.4854 74.2907 28.924 74.2907 28.131V22.5916H91.4361V21.515ZM95.436 13.1799V16.9133H91.4361V6.22814H95.436V9.64901H98.6744V13.1799H95.436Z" fill="#0054A6"/>
<path d="M103.145 21.5439H113.081V25.0748H101.047C100.384 25.0748 99.9012 24.9358 99.5988 24.6522C99.2791 24.3107 99.1163 23.7492 99.1163 22.9563V6.22815H110.442V9.75899H103.145V21.5439ZM117.767 17.278H116.122V30.3652H112.372V6.22815H116.122V13.6892H117.767V6.22815H121.599V30.3652H117.767V17.278Z" fill="#0054A6"/>
<path d="M138.395 10.4362C138.663 10.8125 138.86 11.2003 138.994 11.5939C139.163 12.0454 139.25 12.4968 139.25 12.9483C139.25 14.6848 138.57 16.1261 137.203 17.2722C135.936 18.3488 134.43 18.8813 132.692 18.8813C130.953 18.8813 129.407 18.343 128.122 17.2722C126.738 16.1203 126.052 14.679 126.052 12.9483C126.052 12.4968 126.116 12.0511 126.25 11.6228C126.401 11.2061 126.61 10.8125 126.872 10.4362H125.227V7.13111H130.564V4.92578H134.82V7.13111H140.07V10.4362H138.395ZM147.762 30.3594H143.762V23.5756H126.616V20.0447H147.767V30.3594H147.762ZM130.785 11.1713C130.256 11.6633 129.988 12.2653 129.988 12.9773C129.988 13.6545 130.256 14.2391 130.785 14.7311C131.297 15.2405 131.93 15.4952 132.686 15.4952C133.442 15.4952 134.029 15.2405 134.558 14.7311C135.087 14.2391 135.355 13.6545 135.355 12.9773C135.355 12.2595 135.087 11.6575 134.558 11.1713C134.029 10.7025 133.401 10.4652 132.686 10.4652C131.93 10.4652 131.297 10.7025 130.785 11.1713ZM147.762 13.5445V18.152H143.762V6.22814H147.762V10.0137H151V13.5445H147.762Z" fill="#0054A6"/>
<path d="M60.6686 6.22815V8.12091C60.6686 11.8312 59.0872 14.6038 55.9302 16.4329C53.5465 17.8278 50.5 18.5803 46.7907 18.6961V15.0495C50.064 14.9569 52.5698 14.3259 54.314 13.1567C55.75 12.1785 56.4709 11.0093 56.4709 9.65481H47.157V6.23394H60.6686V6.22815ZM65.8372 18.835C67.5407 20.2647 68.3895 22.0649 68.3895 24.2355C68.3895 26.4061 67.5407 28.1715 65.8372 29.607C64.25 30.9614 62.3954 31.6444 60.2733 31.6444C58.1512 31.6444 56.3082 30.9672 54.7384 29.607C53.0756 28.1773 52.2384 26.3829 52.2384 24.2355C52.2384 22.088 53.0698 20.2705 54.7384 18.835C56.3082 17.4979 58.157 16.8265 60.2733 16.8265C62.3895 16.8265 64.25 17.4979 65.8372 18.835ZM57.5465 21.5208C56.7151 22.2559 56.2965 23.1588 56.2965 24.2355C56.2965 25.3121 56.7151 26.1977 57.5465 26.9502C58.343 27.6679 59.2675 28.0268 60.3314 28.0268C61.3954 28.0268 62.3198 27.6679 63.1163 26.9502C63.9302 26.215 64.3372 25.3121 64.3372 24.2355C64.3372 23.1588 63.9302 22.2385 63.1163 21.5208C62.343 20.8262 61.4128 20.4731 60.3314 20.4731C59.25 20.4731 58.343 20.8204 57.5465 21.5208ZM65.2675 7.81414V6.23394H69.2675V17.7352H65.2675V15.8714H61.6628V12.6763H65.2675V11.0093H61.6628V7.81414H65.2675Z" fill="#0054A6"/>
<path d="M78.3198 7.13111V4.92578H82.4942V7.13111H87.8314V10.4941H82.6628C82.9477 11.1366 83.4884 11.6691 84.2791 12.1032C85.2035 12.6126 86.4767 12.9599 88.0814 13.1509V16.7686C86.436 16.7339 84.9186 16.3923 83.5407 15.7498C82.157 15.1073 81.1279 14.2681 80.4477 13.2319C79.7267 14.2681 78.6047 15.1189 77.0698 15.773C75.6337 16.4155 74.186 16.7454 72.7267 16.7628V13.1741C74.3547 12.9657 75.6047 12.6184 76.4767 12.1264C77.2326 11.6923 77.7442 11.1482 78.0116 10.4883H72.9593V7.12532H78.3256L78.3198 7.13111ZM91.4361 21.515H74.2907V18.152H95.4419V25.6709H78.2965V26.7707H95.4419V30.2495H76.25C75.5872 30.2495 75.1047 30.1105 74.8023 29.8269C74.4593 29.4854 74.2907 28.924 74.2907 28.131V22.5916H91.4361V21.515ZM95.436 13.1799V16.9133H91.4361V6.22814H95.436V9.64901H98.6744V13.1799H95.436Z" fill="#0054A6"/>
<path d="M103.145 21.5439H113.081V25.0748H101.047C100.384 25.0748 99.9012 24.9358 99.5988 24.6522C99.2791 24.3107 99.1163 23.7492 99.1163 22.9563V6.22815H110.442V9.75899H103.145V21.5439ZM117.767 17.278H116.122V30.3652H112.372V6.22815H116.122V13.6892H117.767V6.22815H121.599V30.3652H117.767V17.278Z" fill="#0054A6"/>
<path d="M138.395 10.4362C138.663 10.8125 138.86 11.2003 138.994 11.5939C139.163 12.0454 139.25 12.4968 139.25 12.9483C139.25 14.6848 138.57 16.1261 137.203 17.2722C135.936 18.3488 134.43 18.8813 132.692 18.8813C130.953 18.8813 129.407 18.343 128.122 17.2722C126.738 16.1203 126.052 14.679 126.052 12.9483C126.052 12.4968 126.116 12.0511 126.25 11.6228C126.401 11.2061 126.61 10.8125 126.872 10.4362H125.227V7.13111H130.564V4.92578H134.82V7.13111H140.07V10.4362H138.395ZM147.762 30.3594H143.762V23.5756H126.616V20.0447H147.767V30.3594H147.762ZM130.785 11.1713C130.256 11.6633 129.988 12.2653 129.988 12.9773C129.988 13.6545 130.256 14.2391 130.785 14.7311C131.297 15.2405 131.93 15.4952 132.686 15.4952C133.442 15.4952 134.029 15.2405 134.558 14.7311C135.087 14.2391 135.355 13.6545 135.355 12.9773C135.355 12.2595 135.087 11.6575 134.558 11.1713C134.029 10.7025 133.401 10.4652 132.686 10.4652C131.93 10.4652 131.297 10.7025 130.785 11.1713ZM147.762 13.5445V18.152H143.762V6.22814H147.762V10.0137H151V13.5445H147.762Z" fill="#0054A6"/>
<path d="M33.5639 10.9051C33.8953 10.552 33.9884 10.1816 33.9884 9.87478C33.9884 9.4696 33.8256 9.16861 33.8198 9.1744C33.1802 9.90951 30.1337 12.7979 25.6802 13.1857V12.7689C25.6802 12.7689 25.6686 12.74 25.6453 12.74H20.8546C20.8198 12.5142 20.7907 12.3001 20.7674 12.1091L20.7616 12.057C20.6918 11.5823 20.6337 11.1656 20.5465 10.9167C20.7558 10.7662 20.936 10.5578 21.0581 10.3147C21.1744 10.0832 21.2384 9.83426 21.2325 9.60273V9.55642L21.1918 9.57958C21.1337 9.61431 20.9709 9.67798 20.9709 9.67798C20.7442 9.75901 20.3372 9.85163 19.6918 9.80532C19.343 9.78217 19.0291 9.77059 18.7616 9.78217C18.4825 9.79374 18.2616 9.82847 18.0988 9.87478C17.9186 9.93266 17.7791 10.0021 17.6686 10.0947C17.5698 10.1758 17.5174 10.2568 17.4825 10.3089C17.2035 10.2915 16.843 10.3263 16.5814 10.3899C16.407 10.4362 16.2791 10.5173 16.186 10.633C16.0988 10.7546 16.0523 10.9051 16.0523 11.0961C16.0523 11.2119 16.0756 11.4029 16.1453 11.5997C16.2384 11.8602 16.3779 12.0685 16.5698 12.2306L16.6105 12.2653V12.2132C16.6105 12.2132 16.6628 11.9007 17.1105 11.8891C17.1512 11.8891 17.2267 11.8891 17.2616 11.8891C17.3605 11.8891 17.436 11.918 17.4709 11.9586C17.5058 11.9991 17.5116 12.0685 17.5 12.1611C17.5 12.1727 17.4593 12.3985 17.3837 12.6416C17.3837 12.6416 17.3721 12.6763 17.3605 12.7168H12.5232C12.5232 12.7168 12.4884 12.7226 12.4884 12.7458V13.1625C8.03487 12.7747 4.98836 9.88057 4.34883 9.15125C4.34883 9.15125 4.18604 9.44645 4.18604 9.85163C4.18604 10.1584 4.27324 10.5289 4.61045 10.8819C4.47673 11.2119 4.2965 12.0975 5.18604 12.8442C5.16859 12.9252 5.15697 13.0583 5.15697 13.1915C5.15697 13.6372 5.31976 14.2912 6.13952 14.8411C6.13952 14.8411 6.19766 14.8816 6.23255 14.9048C6.22092 15.0784 6.24417 16.3634 8.0872 16.8149C8.26743 17.3416 8.77906 18.0131 10.0232 18.0999C10.3721 18.6672 10.8779 18.9566 11.5639 18.9508C11.7267 19.2055 12.0465 19.4081 12.4302 19.5007C12.6802 19.5586 12.936 19.5643 13.186 19.518C13.2674 19.5817 13.4128 19.6627 13.5988 19.738C13.3779 19.9001 13.2674 20.0969 13.1918 20.3226C13.0698 20.6931 13.0698 21.0404 13.4593 21.5497C13.593 21.7292 13.6628 21.8854 13.7035 22.0591C13.7442 22.2327 13.75 22.4353 13.75 22.719C13.75 22.8984 13.7849 23.0662 13.8605 23.2225C13.936 23.373 14.0407 23.5062 14.1744 23.5988C14.25 23.6567 14.3372 23.6972 14.4302 23.7319C14.3721 23.8129 14.3314 23.8998 14.3023 23.9866C14.25 24.1429 14.2442 24.3107 14.2732 24.4728C14.3023 24.6407 14.3721 24.7969 14.4825 24.9416C14.6512 25.1732 14.7616 25.341 14.8372 25.5031C14.9128 25.671 14.9418 25.8388 14.9418 26.0588C14.9244 26.6955 15.1337 26.9791 15.4477 27.2049C15.7616 27.4306 16.0988 27.5406 16.7035 27.3322C16.9186 27.2627 17.0872 27.2396 17.2674 27.257C17.4477 27.2743 17.6395 27.3264 17.9128 27.419C18.0872 27.4769 18.2558 27.4943 18.4244 27.4711C18.593 27.448 18.75 27.3901 18.8837 27.2917C18.9593 27.2338 19.0291 27.1701 19.0872 27.0891C19.1453 27.1701 19.2151 27.2338 19.2907 27.2917C19.4244 27.3901 19.5814 27.448 19.75 27.4711C19.9186 27.4943 20.093 27.4711 20.2616 27.419C20.5349 27.3322 20.7267 27.2743 20.907 27.257C21.093 27.2396 21.2558 27.257 21.4709 27.3322C22.0756 27.5464 22.407 27.4364 22.7267 27.2049C23.0407 26.9791 23.25 26.6955 23.2325 26.0588C23.2325 25.833 23.2616 25.671 23.3372 25.5031C23.407 25.341 23.5232 25.1732 23.6918 24.9416C23.7965 24.7969 23.8663 24.6349 23.9011 24.4728C23.9302 24.3049 23.9244 24.1371 23.8721 23.9866C23.843 23.894 23.7965 23.8129 23.7384 23.7319C23.8314 23.703 23.9186 23.6567 23.9942 23.5988C24.1279 23.5062 24.2325 23.373 24.3081 23.2225C24.3837 23.072 24.4186 22.8984 24.4186 22.719C24.4186 22.4295 24.4244 22.2327 24.4651 22.0591C24.5058 21.8797 24.5814 21.7292 24.7093 21.5497C25.0988 21.0404 25.0988 20.6931 24.9767 20.3226C24.9011 20.0911 24.7907 19.8943 24.5698 19.738C24.7616 19.6627 24.907 19.5759 24.9825 19.518C25.2325 19.5643 25.4884 19.5586 25.7384 19.5007C26.1163 19.4081 26.436 19.2055 26.6046 18.9508C27.2907 18.9566 27.7965 18.6672 28.1453 18.0999C29.3895 18.0189 29.8953 17.3474 30.0814 16.8149C31.9302 16.3634 31.9535 15.0784 31.936 14.9048C31.9709 14.8816 32.0291 14.8411 32.0291 14.8411C32.8488 14.2912 33.0116 13.6314 33.0116 13.1915C33.0116 13.0583 33 12.931 32.9825 12.8442C33.8721 12.0975 33.6918 11.2119 33.5581 10.8819L33.5639 10.9051ZM16.7791 14.8758C16.4186 14.8411 15.6628 14.6906 15.0756 14.0713C14.9418 13.9266 14.7849 13.7819 14.6395 13.6719C14.9128 13.695 16.5 13.8397 17.0756 13.8918C16.9942 14.1986 16.8895 14.5285 16.7849 14.8758H16.7791ZM23.0988 14.0713C22.5116 14.6906 21.7558 14.8411 21.3953 14.8758C21.2849 14.5285 21.186 14.1928 21.1046 13.8918C21.6802 13.8397 23.2616 13.7008 23.5407 13.6719C23.3953 13.7819 23.2325 13.9266 23.0988 14.0713Z" fill="#A4681D"/>
<path d="M20.6977 21.926C20.1628 21.5729 19.4419 21.7176 19.0872 22.2443C18.7326 22.7769 18.0116 22.9216 17.4768 22.5627C16.9419 22.2096 16.7965 21.4861 17.157 20.9594C16.9128 21.3298 16.7675 21.7697 16.7675 22.2443C16.7675 23.5236 17.8082 24.5597 19.093 24.5597C19.9012 24.5597 20.6105 24.1487 21.0291 23.5293C21.3837 22.9968 21.2442 22.2791 20.7035 21.926H20.6977Z" fill="#17479E"/>
<path d="M19.0872 19.9291C18.2791 19.9291 17.5698 20.34 17.1512 20.9594C16.7965 21.4919 16.9419 22.2097 17.4709 22.5627C18.0058 22.9158 18.7268 22.7711 19.0814 22.2444C19.4361 21.7119 20.157 21.5672 20.6919 21.926C21.2268 22.2791 21.3721 22.9969 21.0175 23.5294C21.2616 23.1589 21.407 22.719 21.407 22.2444C21.407 20.9652 20.3663 19.9291 19.0814 19.9291H19.0872Z" fill="#ED1B2F"/>
<path d="M26.5291 15.831H24.5349L24.5407 15.8136L25.5349 13.6777L26.5291 15.831Z" fill="#FFCB05"/>
<path d="M27.2849 14.708C26.9884 14.8122 26.6686 14.8643 26.3547 14.8817L26.0407 14.2102C26.7791 14.1118 27.4768 13.9555 28.1279 13.7645C28.0988 13.9845 27.9535 14.4765 27.2849 14.708Z" fill="#FFCB05"/>
<path d="M27.4767 14.8816C27.3663 15.3215 27.1337 15.6167 26.7674 15.7672L26.4535 15.1015C26.7616 15.0784 27.0698 15.0263 27.3605 14.9279C27.4012 14.9163 27.436 14.899 27.4767 14.8816Z" fill="#FFCB05"/>
<path d="M22.2616 19.4312C22.2616 19.4022 22.25 19.3733 22.2267 19.3501C22.2035 19.327 22.1802 19.3154 22.1453 19.3154C22.1337 19.3154 22.1221 19.3154 22.1105 19.3154C22.093 19.3154 22.0756 19.327 22.064 19.3443L20.9767 20.4499C20.9012 20.3689 20.814 20.2878 20.7267 20.2184L21.6977 18.9218C21.8372 18.7366 22.0407 18.5977 22.25 18.5977C22.4767 18.5977 22.686 18.6961 22.843 18.9102C23.0233 19.1533 23.1686 19.3386 23.3314 19.4775C22.9826 19.7206 22.1105 20.3283 21.314 20.884C21.25 20.7798 21.1802 20.6814 21.1047 20.5888L22.2267 19.5064C22.2267 19.5064 22.2616 19.4543 22.2616 19.4254V19.4312Z" fill="#FFCB05"/>
<path d="M20.9361 18.4414C20.9361 18.4414 20.907 18.3893 20.8779 18.3778C20.8489 18.3662 20.8198 18.3662 20.7907 18.3778C20.7617 18.3836 20.7384 18.4067 20.7268 18.4299L20.0407 19.8248C19.9303 19.7785 19.814 19.7438 19.6919 19.7149C19.9768 18.7887 20.2849 17.7758 20.407 17.3706C20.5931 17.4864 20.814 17.5674 21.0989 17.66C21.3489 17.7468 21.5058 17.9089 21.5814 18.1231C21.6454 18.3257 21.5814 18.5572 21.4419 18.7424L20.5058 20.0679C20.4128 20.0043 20.3082 19.9522 20.2093 19.9001L20.9245 18.534C20.9245 18.534 20.9361 18.4993 20.9361 18.482C20.9361 18.4704 20.9361 18.4588 20.9303 18.4472L20.9361 18.4414Z" fill="#FFCB05"/>
<path d="M17.2442 18.5283L17.9593 19.8943C17.8547 19.9464 17.7559 19.9985 17.6628 20.0622L16.7268 18.7367C16.5872 18.5457 16.5233 18.3141 16.5872 18.1173C16.657 17.9032 16.814 17.7353 17.0698 17.6543C17.3547 17.5617 17.5756 17.4806 17.7617 17.3649C17.8838 17.77 18.1977 18.783 18.4768 19.7091C18.3605 19.7381 18.2442 19.7728 18.1279 19.8191L17.4419 18.4241C17.4419 18.4241 17.407 18.3778 17.3779 18.372C17.3489 18.3605 17.3198 18.3662 17.2907 18.372C17.2617 18.3836 17.2442 18.4068 17.2384 18.4357C17.2384 18.4473 17.2326 18.4589 17.2326 18.4704C17.2326 18.4878 17.2326 18.5052 17.2442 18.5225V18.5283Z" fill="#FFCB05"/>
<path d="M15.9419 19.5123L17.064 20.5947C16.9884 20.6873 16.9186 20.7857 16.8547 20.8899C16.0581 20.3342 15.1861 19.7264 14.8372 19.4833C15.0058 19.3386 15.1512 19.1592 15.3256 18.9161C15.4826 18.7019 15.6919 18.6035 15.9186 18.6035C16.1279 18.6035 16.3314 18.7366 16.4709 18.9277L17.4419 20.2242C17.3547 20.2995 17.2675 20.3747 17.1919 20.4558L16.1047 19.3502C16.1047 19.3502 16.0756 19.3271 16.0581 19.3213C16.0465 19.3213 16.0349 19.3155 16.0233 19.3213C15.9942 19.3213 15.9651 19.3328 15.9477 19.356C15.9244 19.3791 15.9128 19.4081 15.9128 19.437C15.9128 19.466 15.9244 19.4949 15.9477 19.5181L15.9419 19.5123Z" fill="#FFCB05"/>
<path d="M24.2965 14.5576C24.5058 14.4186 24.7384 14.3376 24.9826 14.3145L24.7907 14.7196C24.5988 14.6675 24.4302 14.6154 24.2965 14.5633V14.5576Z" fill="#FFCB05"/>
<path d="M24.6977 14.9105L24.4593 15.4199C24.1628 15.2694 23.9244 15.1247 23.7907 15.0379C23.8023 15.0205 23.814 15.0089 23.8256 14.9916C23.907 14.8816 24 14.789 24.0989 14.7021C24.2442 14.7716 24.4535 14.8411 24.6977 14.9047V14.9105Z" fill="#FFCB05"/>
<path d="M23.6105 14.8295C23.1628 15.4257 22.4244 15.8193 21.7267 15.883C21.6512 15.6514 21.5756 15.4199 21.5 15.1942C21.907 15.1536 22.6977 14.9742 23.3488 14.2854C23.75 13.8571 24.2733 13.4982 25.0233 13.504C25.1395 13.504 25.2558 13.504 25.3721 13.504L25.1105 14.0539C24.5988 14.0539 24.0349 14.268 23.6105 14.8353V14.8295Z" fill="#FFCB05"/>
<path d="M22.0989 18.3141C22.0524 18.3199 22.0117 18.3315 21.9652 18.3489C21.9477 18.3489 21.9361 18.3605 21.9186 18.3662C21.9186 18.3489 21.9186 18.3315 21.9186 18.3199C21.9186 18.2215 21.9012 18.1289 21.8721 18.0421C21.8721 18.0363 21.8721 18.0305 21.8721 18.0247C21.9128 17.9726 21.9593 17.9032 21.9942 17.8221C22.0407 18.0016 22.0756 18.1694 22.0989 18.3141Z" fill="#FFCB05"/>
<path d="M21.7907 17.8395C21.6803 17.6542 21.5058 17.5095 21.2849 17.4227C21.3256 17.3938 21.5814 17.1796 21.6744 16.7455C21.7733 17.0407 21.8605 17.3185 21.9361 17.579C21.8954 17.6832 21.8431 17.7758 21.7907 17.8395Z" fill="#FFCB05"/>
<path d="M20.8954 16.4503C21.0117 16.3345 21.221 16.074 21.2966 15.6226C21.3663 15.8251 21.4303 16.0277 21.5 16.2303V16.2419C21.5233 16.3056 21.5465 16.3692 21.5698 16.4387C21.5582 16.8728 21.3256 17.1622 21.2326 17.2201C21.1396 17.1622 20.9128 16.8786 20.8954 16.4503Z" fill="#FFCB05"/>
<path d="M21.1163 17.3648C20.907 17.2953 20.7442 17.2374 20.6047 17.1564C20.6803 17.0753 20.7558 16.9596 20.8082 16.8091C20.8837 17.0985 21.0291 17.2779 21.1163 17.3648Z" fill="#FFCB05"/>
<path d="M21.2325 15.4199C21.2325 15.4199 21.1918 15.4604 21.1744 15.472C21.0872 15.4199 20.8721 15.171 20.8256 14.7832C20.8546 14.7601 20.9128 14.7022 20.9767 14.6154C21.0581 14.8758 21.1453 15.1479 21.2325 15.4199Z" fill="#FFCB05"/>
<path d="M21.1337 15.6862C21.0349 16.0393 20.8547 16.2535 20.7733 16.3056C20.6861 16.2477 20.4768 15.9988 20.4244 15.5994C20.4942 15.5415 20.6512 15.3794 20.75 15.0842C20.8721 15.4952 21.1221 15.6746 21.1396 15.6862H21.1337Z" fill="#FFCB05"/>
<path d="M20.343 15.4142C20.2558 15.3563 20.064 15.1248 20.0175 14.7659C20.0989 14.6907 20.2558 14.5112 20.343 14.2045C20.4302 14.5112 20.593 14.6907 20.6686 14.7659C20.6221 15.1306 20.4244 15.3621 20.343 15.4142Z" fill="#FFCB05"/>
<path d="M19.9245 14.5922C19.8431 14.5401 19.6512 14.3086 19.5989 13.9497C19.6803 13.8745 19.8373 13.695 19.9245 13.394C20.0117 13.7008 20.1686 13.8803 20.25 13.9497C20.1977 14.3086 20.0059 14.5343 19.9245 14.5922Z" fill="#FFCB05"/>
<path d="M19.8314 14.7659C19.7849 15.1306 19.5872 15.3621 19.5058 15.4142C19.4186 15.3563 19.2267 15.1248 19.1802 14.7659C19.2616 14.6907 19.4186 14.5112 19.5058 14.2045C19.593 14.5112 19.7558 14.6907 19.8314 14.7659Z" fill="#FFCB05"/>
<path d="M19.0872 14.5922C19.0058 14.5401 18.814 14.3086 18.7617 13.9497C18.8431 13.8745 19 13.695 19.0872 13.394C19.1744 13.7008 19.3314 13.8803 19.4128 13.9497C19.3605 14.3086 19.1686 14.5343 19.0872 14.5922Z" fill="#FFCB05"/>
<path d="M18.9942 14.7659C18.9477 15.1306 18.75 15.3621 18.6686 15.4142C18.5814 15.3563 18.3895 15.1248 18.343 14.7659C18.4244 14.6907 18.5814 14.5112 18.6686 14.2045C18.7558 14.5112 18.9186 14.6907 18.9942 14.7659Z" fill="#FFCB05"/>
<path d="M18.25 14.5922C18.1686 14.5401 17.9768 14.3086 17.9244 13.9497C18.0058 13.8745 18.1628 13.695 18.25 13.394C18.3372 13.7008 18.4942 13.8803 18.5756 13.9497C18.5233 14.3086 18.3314 14.5343 18.25 14.5922Z" fill="#FFCB05"/>
<path d="M18.157 14.7659C18.1104 15.1306 17.9128 15.3621 17.8314 15.4142C17.7442 15.3563 17.5523 15.1248 17.5058 14.7659C17.5872 14.6907 17.7442 14.5112 17.8314 14.2045C17.9186 14.5112 18.0814 14.6907 18.157 14.7659Z" fill="#FFCB05"/>
<path d="M17.75 15.5994C17.6977 15.9988 17.4884 16.2477 17.4012 16.3056C17.3198 16.2535 17.1337 16.0335 17.0349 15.6862C17.0349 15.6862 17.3024 15.4952 17.4244 15.0842C17.5233 15.3736 17.6803 15.5415 17.75 15.5994Z" fill="#FFCB05"/>
<path d="M16.25 18.3604C16.25 18.3604 16.2209 18.3488 16.2035 18.343C16.1628 18.3314 16.1163 18.3199 16.0698 18.3083C16.093 18.1578 16.1279 17.9957 16.1744 17.8163C16.2151 17.8973 16.2558 17.9668 16.2965 18.0189C16.2965 18.0247 16.2965 18.0304 16.2965 18.0362C16.2674 18.1231 16.2558 18.2157 16.2558 18.3141C16.2558 18.3314 16.2558 18.3488 16.2558 18.3604H16.25Z" fill="#FFCB05"/>
<path d="M16.2384 17.579C16.314 17.3185 16.4012 17.0349 16.5 16.7455C16.5989 17.1854 16.8489 17.3938 16.8896 17.4227C16.6744 17.5095 16.4942 17.66 16.3838 17.8395C16.3314 17.77 16.2791 17.6832 16.2384 17.579Z" fill="#FFCB05"/>
<path d="M16.5989 16.4328C16.6221 16.3692 16.6396 16.3055 16.6628 16.236V16.2245C16.7326 16.0219 16.8024 15.8193 16.8721 15.6167C16.9477 16.0682 17.157 16.3287 17.2733 16.4444C17.2559 16.8728 17.0291 17.1506 16.9361 17.2143C16.8431 17.1506 16.6105 16.867 16.5989 16.4328Z" fill="#FFCB05"/>
<path d="M17.3605 16.8091C17.4128 16.9596 17.4884 17.0753 17.564 17.1564C17.4245 17.2316 17.2617 17.2953 17.0524 17.3648C17.1396 17.2779 17.2791 17.0985 17.3605 16.8091Z" fill="#FFCB05"/>
<path d="M16.9942 15.4779C16.9942 15.4779 16.9593 15.4489 16.936 15.4258C17.0232 15.1537 17.1105 14.8817 17.1918 14.6212C17.2558 14.708 17.3139 14.7659 17.343 14.7891C17.2965 15.1769 17.0872 15.4258 16.9942 15.4779Z" fill="#FFCB05"/>
<path d="M14.8256 14.2912C15.4768 14.98 16.2617 15.1537 16.6745 15.2C16.5989 15.4257 16.5233 15.6573 16.4477 15.8888C15.75 15.8193 15.0117 15.4257 14.564 14.8353C14.1396 14.2739 13.5756 14.0597 13.064 14.0539L12.8024 13.504C12.9186 13.504 13.0349 13.5098 13.1512 13.504C13.9012 13.504 14.4245 13.8571 14.8256 14.2854V14.2912Z" fill="#FFCB05"/>
<path d="M13.8721 14.5575C13.7384 14.6096 13.5698 14.6675 13.3779 14.7138L13.186 14.3086C13.4302 14.3317 13.6628 14.4186 13.8721 14.5517V14.5575Z" fill="#FFCB05"/>
<path d="M14.0756 14.708C14.1744 14.7948 14.2616 14.8874 14.3488 14.9974C14.3605 15.0148 14.3721 15.0264 14.3837 15.0437C14.2558 15.1306 14.0116 15.2753 13.7151 15.4258L13.4767 14.9164C13.7209 14.8527 13.9302 14.7775 14.0814 14.7138L14.0756 14.708Z" fill="#FFCB05"/>
<path d="M13.9245 15.8656L13.8082 15.6283C14.1396 15.4604 14.3954 15.2984 14.5233 15.2115C14.6221 15.3157 14.721 15.4141 14.8256 15.501C14.5698 15.8077 13.7559 16.6586 12.7035 16.647C12.1047 16.6413 11.7965 16.346 11.6454 16.1319C11.8779 16.2476 12.221 16.3692 12.6338 16.3692C13.2907 16.3692 13.7675 16.0682 13.9012 15.9524C13.9419 15.9177 13.9303 15.8888 13.9186 15.8598L13.9245 15.8656Z" fill="#FFCB05"/>
<path d="M15.0058 15.6342C15.1221 15.7152 15.2384 15.7846 15.3605 15.8483C15.2151 16.1262 14.6454 17.0754 13.6977 17.2317C13.1279 17.3243 12.843 17.0349 12.7267 16.8728C13.9012 16.8728 14.75 15.9525 15.0058 15.6342Z" fill="#FFCB05"/>
<path d="M15.5582 15.9409C15.6919 15.993 15.8314 16.0393 15.9709 16.074C15.8663 16.3924 15.5582 17.168 15.0058 17.4864C14.4942 17.7816 14.1105 17.5732 13.9244 17.4169C14.8896 17.1565 15.4244 16.213 15.5523 15.9467L15.5582 15.9409Z" fill="#FFCB05"/>
<path d="M15.1279 17.6715C15.7733 17.3069 16.0872 16.4386 16.1919 16.1145C16.25 16.1203 16.3023 16.1319 16.3605 16.1377C16.186 16.6528 16.0174 17.1564 15.9012 17.5963C15.5756 17.8626 15.1977 17.7873 15.0233 17.7294C15.0581 17.7121 15.093 17.6947 15.1337 17.6715H15.1279Z" fill="#FFCB05"/>
<path d="M17.7384 17.0406C17.6163 16.948 17.4826 16.7686 17.4477 16.5139C17.4709 16.4966 17.7093 16.3171 17.8314 15.9177C17.9651 16.2882 18.1861 16.456 18.2035 16.4676L18.2268 16.485C18.157 16.5544 18.093 16.6413 18.0291 16.7339C17.9361 16.867 17.843 16.9596 17.7384 17.0406Z" fill="#FFCB05"/>
<path d="M17.8954 15.6052C17.9593 15.5473 18.1454 15.3679 18.2442 15.0264C18.3372 15.3621 18.5291 15.5473 18.5931 15.6052C18.5233 15.9699 18.3256 16.2072 18.2442 16.2593C18.157 16.2014 17.9652 15.9699 17.8954 15.6052Z" fill="#FFCB05"/>
<path d="M18.686 15.8483C18.7326 15.964 18.7849 16.0624 18.8372 16.1319C18.75 16.1493 18.6512 16.1782 18.5523 16.2245C18.5233 16.2361 18.5 16.2534 18.4767 16.2708C18.5523 16.1724 18.6279 16.0277 18.686 15.8483Z" fill="#FFCB05"/>
<path d="M18.7558 15.5878C18.8372 15.5125 18.9942 15.3331 19.0814 15.0321C19.1686 15.3389 19.3314 15.5183 19.407 15.5878C19.3372 15.8598 19.1977 16.0451 19.1105 16.1203C19.0989 16.1203 19.0872 16.1203 19.0756 16.1203C19.064 16.1203 19.0523 16.1203 19.0407 16.1203C18.9535 16.0451 18.8198 15.8598 18.7442 15.5878H18.7558Z" fill="#FFCB05"/>
<path d="M19.4826 15.8483C19.5407 16.0335 19.6163 16.1724 19.6919 16.2708C19.6686 16.2534 19.6396 16.2419 19.6163 16.2245C19.5175 16.1724 19.4244 16.1493 19.3314 16.1319C19.3837 16.0566 19.4361 15.964 19.4826 15.8483Z" fill="#FFCB05"/>
<path d="M19.5756 15.6052C19.6396 15.5473 19.8256 15.3679 19.9245 15.0264C20.0233 15.3621 20.2093 15.5473 20.2733 15.6052C20.2035 15.9699 20.0117 16.2072 19.9245 16.2593C19.8373 16.2014 19.6454 15.9699 19.5756 15.6052Z" fill="#FFCB05"/>
<path d="M19.9709 16.4676C19.9709 16.4676 20.2093 16.2882 20.343 15.9177C20.4651 16.3171 20.7035 16.4966 20.7268 16.5139C20.6919 16.7686 20.5582 16.948 20.4361 17.0406C20.3314 16.9596 20.2442 16.8612 20.1454 16.7339C20.0814 16.6413 20.0116 16.5544 19.9477 16.485L19.9709 16.4676Z" fill="#FFCB05"/>
<path d="M21.8082 16.1377C21.8663 16.1319 21.9186 16.1261 21.9768 16.1145C22.0756 16.4329 22.3954 17.3011 23.0407 17.6715C23.0756 17.6947 23.1105 17.7121 23.1512 17.7294C22.9768 17.7873 22.5989 17.8683 22.2733 17.5963C22.157 17.1564 21.9884 16.6528 21.814 16.1377H21.8082Z" fill="#FFCB05"/>
<path d="M22.1977 16.074C22.3431 16.0393 22.4826 15.9988 22.6105 15.9409C22.7442 16.2072 23.2733 17.1507 24.2384 17.4111C24.0524 17.5674 23.6686 17.7758 23.157 17.4806C22.6105 17.168 22.3024 16.3866 22.1919 16.0683L22.1977 16.074Z" fill="#FFCB05"/>
<path d="M22.814 15.8483C22.9361 15.7846 23.0523 15.7152 23.1686 15.6342C23.4244 15.9525 24.2733 16.8728 25.4477 16.8728C25.3314 17.0349 25.0465 17.3301 24.4768 17.2317C23.5349 17.0754 22.9651 16.1262 22.814 15.8483Z" fill="#FFCB05"/>
<path d="M23.343 15.501C23.4477 15.4141 23.5523 15.3157 23.6454 15.2115C23.7733 15.2984 24.0291 15.4604 24.3605 15.6283L24.2442 15.8656C24.2442 15.8656 24.2209 15.9177 24.2616 15.9582C24.3954 16.0682 24.8721 16.375 25.5291 16.375C25.9361 16.375 26.2849 16.2534 26.5175 16.1377C26.3721 16.3518 26.064 16.647 25.4593 16.6528C24.407 16.6644 23.593 15.8135 23.3372 15.5067L23.343 15.501Z" fill="#FFCB05"/>
<path d="M25.3837 13.0468V13.1972C25.3837 13.1972 21.9128 13.4751 21.0174 13.5561C20.9767 13.394 20.9477 13.2436 20.9244 13.1104C20.9244 13.1104 20.9186 13.0699 20.9128 13.0525H25.3837V13.0468Z" fill="#FFCB05"/>
<path d="M20.9186 14.4128C20.8605 14.5054 20.8023 14.5691 20.7616 14.5923C20.6802 14.5402 20.4884 14.3086 20.436 13.9498C20.5 13.8919 20.6105 13.7645 20.686 13.5562C20.7442 13.8166 20.8256 14.106 20.9128 14.4128H20.9186Z" fill="#FFCB05"/>
<path d="M17.2733 11.5823C17.2326 11.5823 17.157 11.5823 17.1105 11.5823C17.0349 11.5823 16.6919 11.5881 16.593 11.7965C16.5233 11.6981 16.4709 11.5881 16.4302 11.4723C16.3895 11.3508 16.3663 11.2234 16.3721 11.1077C16.3721 10.9861 16.3954 10.8993 16.4419 10.8356C16.4884 10.7777 16.5581 10.7372 16.6628 10.7083C16.8954 10.6446 17.2326 10.6157 17.4826 10.6388H17.564C17.6861 10.6504 18.0174 10.8414 18.2209 11.154C18.2209 11.154 18.9361 11.0208 19.4244 10.552C19.4244 10.552 18.5233 10.6446 17.7733 10.5404C17.7616 10.5404 17.7326 10.5288 17.75 10.4941C17.75 10.4941 17.75 10.4883 17.7616 10.4767C17.8198 10.3899 17.9128 10.2742 18.1919 10.1873C18.3256 10.1468 18.5291 10.1179 18.7733 10.1063C19.0291 10.0947 19.3256 10.1063 19.6628 10.1237C20.1686 10.1584 20.5465 10.1179 20.814 10.0542C20.7384 10.2568 20.593 10.4941 20.3372 10.6678L20.2442 10.7314L20.1454 10.8009L20.1919 10.9109L20.2326 11.0093C20.314 11.2176 20.3721 11.6228 20.4419 12.0975V12.1496C20.4884 12.4448 20.5407 12.7978 20.5988 13.1625C20.5988 13.1683 20.5988 13.1741 20.5988 13.1799C20.5814 13.5156 20.4128 13.7298 20.3314 13.7818C20.2326 13.7182 20 13.4172 19.9942 12.9715H19.8314C19.8314 13.423 19.593 13.7182 19.4942 13.7818C19.3954 13.7182 19.1628 13.4172 19.157 12.9715H18.9942C18.9942 13.423 18.7558 13.7182 18.657 13.7818C18.5581 13.7182 18.3256 13.4172 18.3198 12.9715H18.157C18.157 13.423 17.9186 13.7182 17.8198 13.7818C17.7384 13.7298 17.5814 13.5272 17.5581 13.2088C17.6105 13.0004 17.6802 12.7573 17.6861 12.7457C17.7674 12.4795 17.8081 12.2364 17.8081 12.2248C17.8372 12.0338 17.8081 11.8775 17.7151 11.7675C17.6221 11.6518 17.4709 11.5881 17.2733 11.5823Z" fill="#FFCB05"/>
<path d="M17.7326 13.9498C17.6802 14.3028 17.4884 14.5344 17.407 14.5923C17.3663 14.5691 17.3081 14.5054 17.25 14.4128C17.343 14.106 17.4186 13.8166 17.4826 13.5562C17.5581 13.7645 17.6686 13.8919 17.7326 13.9498Z" fill="#FFCB05"/>
<path d="M12.7907 13.0468H17.2733C17.25 13.1336 17.2268 13.2205 17.2151 13.2957C17.1977 13.3767 17.1802 13.4636 17.157 13.5504C16.2209 13.4693 12.7907 13.1915 12.7907 13.1915V13.041V13.0468Z" fill="#FFCB05"/>
<path d="M12.6395 13.6777L13.6279 15.8136L13.6337 15.831H11.6395L12.6395 13.6777Z" fill="#FFCB05"/>
<path d="M10.8082 14.9222C11.0989 15.0206 11.407 15.0784 11.7151 15.0958L11.4012 15.7615C11.0349 15.611 10.8024 15.31 10.6919 14.8759C10.7268 14.8932 10.7675 14.9048 10.8082 14.9222Z" fill="#FFCB05"/>
<path d="M10.0407 13.7645C10.6977 13.9555 11.3954 14.1118 12.1279 14.2102L11.814 14.8817C11.5 14.8643 11.1802 14.8122 10.8837 14.708C10.2151 14.4765 10.0698 13.9787 10.0407 13.7645Z" fill="#FFCB05"/>
<path d="M4.51164 9.78796C6.37211 11.6749 9.54652 13.2783 12.4768 13.4867L12.2442 13.9787C8.36629 13.5098 5.64536 11.455 4.79071 10.6331C4.48257 10.3379 4.44769 9.97898 4.51164 9.78796Z" fill="#FFCB05"/>
<path d="M4.87789 11.0613C5.68603 11.7791 7.44185 12.9599 9.80231 13.6892C9.81394 13.8281 9.87208 14.2275 10.2093 14.5574C8.66278 14.3664 6.5465 13.6371 5.39533 12.63C4.68022 12.0048 4.76161 11.3855 4.87789 11.0555V11.0613Z" fill="#FFCB05"/>
<path d="M5.46512 13.0352C6.79652 14.0597 8.94187 14.6906 10.4361 14.8122C10.4884 15.0726 10.5872 15.3505 10.7733 15.5762C9.42442 15.6804 7.61628 15.4662 6.31396 14.598C5.47675 14.0365 5.43024 13.3651 5.47094 13.0352H5.46512Z" fill="#FFCB05"/>
<path d="M7.79654 16.4503C7.11049 16.1898 6.62793 15.7267 6.55817 15.0553C7.93607 15.802 9.6977 15.9177 10.9826 15.7846C11.0756 15.8599 11.1861 15.9235 11.314 15.9756C11.3314 16.0277 11.4244 16.2593 11.657 16.4792C11.1512 16.6355 9.43607 17.0696 7.79654 16.4503Z" fill="#FFCB05"/>
<path d="M10.1511 17.8105C9.28487 17.7757 8.7151 17.4805 8.45929 16.9133C10.1628 17.2664 11.6802 16.7165 11.8663 16.6412C12.0174 16.7338 12.2093 16.8149 12.4418 16.8496C12.4535 16.8728 12.5232 17.0175 12.6802 17.168C12.3895 17.3358 11.3779 17.8568 10.1453 17.8105H10.1511Z" fill="#FFCB05"/>
<path d="M10.3663 18.0825C11.5523 18.0594 12.5639 17.5326 12.8837 17.3185C13.0698 17.4285 13.3256 17.5037 13.657 17.4632C13.6919 17.5037 13.75 17.5558 13.8256 17.6137C13.5698 17.8626 12.8837 18.4356 11.9244 18.6035C11.2035 18.7308 10.7093 18.5572 10.3663 18.0825Z" fill="#FFCB05"/>
<path d="M12.5291 19.2229C12.2733 19.1882 12.0349 19.0434 11.8954 18.8814C13.0175 18.7309 13.7733 18.0189 14.0349 17.7411C14.221 17.8337 14.4652 17.8916 14.75 17.8221C14.7849 17.8626 14.8547 17.9032 14.9419 17.9321C14.6803 18.291 13.7791 19.3734 12.5291 19.2171V19.2229Z" fill="#FFCB05"/>
<path d="M13.5524 19.3849C14.4303 19.0781 15.0233 18.262 15.1977 18.0015C15.3896 18.0304 15.6105 18.0131 15.8256 17.9147C15.7907 18.0594 15.7675 18.1925 15.75 18.3141C15.5 18.3604 15.2675 18.5167 15.0989 18.7482C14.7675 19.1997 14.5931 19.3965 14.1512 19.5412C14.1512 19.5412 14.1454 19.5412 14.1396 19.5412C13.8838 19.5238 13.6861 19.4486 13.5524 19.3791V19.3849Z" fill="#FFCB05"/>
<path d="M13.7209 21.3819C13.3779 20.9189 13.436 20.6758 13.5116 20.4442C13.5872 20.2127 13.686 19.987 14.2384 19.8075C14.407 19.7554 14.5407 19.6918 14.6628 19.6107C14.9826 19.8307 15.9186 20.4674 16.7674 21.0462C16.7151 21.1446 16.6686 21.243 16.6337 21.3472L14.5407 20.6468C14.4767 20.6237 14.407 20.6584 14.3895 20.7221C14.3663 20.7857 14.407 20.8552 14.4651 20.8726L16.5698 21.5266C16.5407 21.6308 16.5174 21.7408 16.5 21.8508C15.4767 21.8218 14.343 21.7929 13.9535 21.7813C13.9012 21.6482 13.8256 21.5151 13.7209 21.3761V21.3819Z" fill="#FFCB05"/>
<path d="M14.3663 23.3384C14.1803 23.2052 14.0756 23.0026 14.0698 22.7422C14.0698 22.4412 14.0582 22.2096 14.0117 21.9955C14.4419 22.0013 15.5 22.0244 16.4768 22.0418C16.4768 22.1112 16.471 22.1807 16.471 22.2502C16.471 22.3023 16.471 22.3544 16.471 22.4007L14.9244 22.6206C14.8954 22.6206 14.8663 22.6438 14.8489 22.6669C14.8314 22.6901 14.8198 22.719 14.8256 22.7537C14.8256 22.7827 14.8431 22.8058 14.8721 22.8232C14.8838 22.829 14.8954 22.8348 14.907 22.8406C14.9244 22.8464 14.9419 22.8464 14.9593 22.8406L16.4884 22.5859C16.5058 22.7017 16.5233 22.8116 16.5524 22.9216L15 23.3962C14.7791 23.4657 14.5349 23.4599 14.3605 23.3384H14.3663Z" fill="#FFCB05"/>
<path d="M14.7384 24.7796C14.5814 24.5654 14.5523 24.3397 14.6221 24.1255C14.6861 23.9287 14.8779 23.7782 15.1047 23.703L16.6396 23.182C16.6803 23.2862 16.7268 23.3904 16.7849 23.4888L15.3954 24.1776C15.3954 24.1776 15.3663 24.195 15.3547 24.2123C15.3489 24.2239 15.343 24.2355 15.3372 24.247C15.3314 24.276 15.3314 24.3049 15.343 24.3339C15.3547 24.3628 15.3837 24.3802 15.4128 24.3918C15.4419 24.4033 15.4709 24.3975 15.5 24.386L16.8837 23.6566C16.9477 23.7608 17.0233 23.8534 17.0989 23.9461C16.3198 24.5307 15.4768 25.1674 15.1337 25.4221C15.0465 25.2195 14.9186 25.0285 14.7442 24.7854L14.7384 24.7796Z" fill="#FFCB05"/>
<path d="M17.0581 26.9676C16.9128 26.9734 16.7674 27.0023 16.5988 27.0602C16.0465 27.2396 15.8314 27.1123 15.6395 26.9734C15.4419 26.8287 15.2558 26.6666 15.2558 26.0935C15.2558 25.9199 15.2384 25.7694 15.2035 25.6305C15.5116 25.3932 16.4128 24.7044 17.2267 24.0792C17.3023 24.1603 17.3895 24.2297 17.4767 24.2992L16.157 26.0646C16.1163 26.1167 16.1279 26.1919 16.186 26.2325C16.2384 26.273 16.314 26.2556 16.3547 26.2035L17.6337 24.4092C17.7267 24.4728 17.8198 24.5249 17.9186 24.577C17.5756 25.5379 17.1977 26.6029 17.064 26.9676H17.0581Z" fill="#FFCB05"/>
<path d="M18.9244 26.464C18.9244 26.6955 18.8372 26.9271 18.6686 27.0486C18.4826 27.1817 18.2616 27.2223 18.0058 27.1412C17.7209 27.0486 17.4942 26.9849 17.2733 26.9676C17.4128 26.5624 17.7616 25.5668 18.0756 24.6465C18.186 24.6928 18.3023 24.7333 18.4186 24.7622L18.1512 26.2961C18.1512 26.3251 18.1512 26.354 18.1686 26.3772C18.186 26.4003 18.2151 26.4177 18.2442 26.4235C18.2733 26.4235 18.3023 26.4235 18.3256 26.4061C18.3372 26.4003 18.343 26.3888 18.3547 26.3772C18.3663 26.3656 18.3721 26.3482 18.3721 26.3309L18.5988 24.8028C18.7093 24.8201 18.8256 24.8375 18.936 24.8433L18.9128 26.4582L18.9244 26.464Z" fill="#FFCB05"/>
<path d="M19.0872 17.3243C19.0174 17.3243 18.9651 17.3764 18.9651 17.4459L18.9884 19.6454C18.8779 19.6454 18.7674 19.6628 18.657 19.6802C18.3663 18.7019 18.0465 17.6195 17.936 17.2433C18.0465 17.1565 18.1512 17.0407 18.2558 16.9018C18.593 16.4329 18.843 16.4098 19.0872 16.4098C19.3314 16.4098 19.5756 16.4329 19.9186 16.9018C20.0232 17.0465 20.1279 17.1565 20.2384 17.2433C20.1279 17.6138 19.8081 18.6962 19.5174 19.6802C19.407 19.6628 19.2965 19.6512 19.186 19.6454L19.2093 17.4459C19.2093 17.3822 19.157 17.3243 19.0872 17.3243Z" fill="#FFCB05"/>
<path d="M20.1628 27.147C19.907 27.2281 19.6861 27.1876 19.5 27.0544C19.3314 26.9329 19.2442 26.7013 19.2442 26.4698L19.2209 24.8549C19.3372 24.8549 19.4477 24.8375 19.5582 24.8144L19.7849 26.3425C19.7849 26.3425 19.7965 26.3772 19.8023 26.3888C19.8082 26.4004 19.8198 26.4061 19.8314 26.4177C19.8547 26.4351 19.8837 26.4409 19.9128 26.4351C19.9419 26.4351 19.9709 26.4119 19.9884 26.3888C20.0058 26.3656 20.0116 26.3367 20.0058 26.3077L19.7384 24.7738C19.8547 24.7449 19.9709 24.7044 20.0814 24.6581C20.4012 25.5726 20.7442 26.574 20.8837 26.9792C20.6628 26.9965 20.4419 27.0602 20.1512 27.1528L20.1628 27.147Z" fill="#FFCB05"/>
<path d="M22.9128 26.0877C22.9128 26.6665 22.7267 26.8286 22.5291 26.9675C22.3314 27.1122 22.1163 27.2338 21.5698 27.0543C21.4011 27.0022 21.2558 26.9733 21.1105 26.9617C20.9825 26.5971 20.5988 25.532 20.2558 24.5712C20.3546 24.5191 20.4535 24.467 20.5407 24.4033L21.8198 26.1977C21.8604 26.2498 21.936 26.2613 21.9884 26.2266C22.0407 26.1861 22.0523 26.1108 22.0174 26.0587L20.6977 24.2933C20.7849 24.2239 20.8663 24.1486 20.9477 24.0734C21.7616 24.6985 22.657 25.3873 22.9709 25.6246C22.936 25.7635 22.9186 25.914 22.9186 26.0877H22.9128Z" fill="#FFCB05"/>
<path d="M23.4302 24.7796C23.25 25.0227 23.1221 25.2195 23.0349 25.4163C22.6919 25.1616 21.843 24.5191 21.0698 23.9403C21.1512 23.8477 21.2209 23.7551 21.2849 23.6509L22.6686 24.3802C22.6686 24.3802 22.7267 24.3976 22.7558 24.386C22.7849 24.3744 22.8081 24.3571 22.8256 24.3281C22.8372 24.2992 22.843 24.2703 22.8314 24.2413C22.8314 24.2297 22.8198 24.2182 22.8139 24.2066C22.8023 24.1892 22.7907 24.1776 22.7732 24.1719L21.3837 23.483C21.436 23.3846 21.4884 23.2805 21.5291 23.1763L23.0698 23.6972C23.2907 23.7725 23.4826 23.9172 23.5523 24.1198C23.6221 24.3339 23.593 24.5597 23.436 24.7738L23.4302 24.7796Z" fill="#FFCB05"/>
<path d="M24.0988 22.7421C24.0988 23.0084 23.9884 23.2052 23.8023 23.3383C23.6337 23.4598 23.3895 23.4714 23.1628 23.3962L21.6105 22.9157C21.6395 22.8058 21.6628 22.6958 21.6744 22.58L23.2035 22.8347C23.2035 22.8347 23.2384 22.8347 23.2558 22.8347C23.2675 22.8347 23.2791 22.8289 23.2907 22.8173C23.314 22.8 23.3314 22.7768 23.3372 22.7479C23.3372 22.7189 23.3372 22.69 23.314 22.6611C23.2965 22.6379 23.2733 22.6205 23.2384 22.6148L21.6919 22.3948C21.6919 22.3427 21.6919 22.2906 21.6919 22.2443C21.6919 22.1748 21.6919 22.1054 21.6861 22.0359C22.657 22.0186 23.7209 22.0012 24.1512 21.9896C24.0988 22.2038 24.093 22.4353 24.093 22.7363L24.0988 22.7421Z" fill="#FFCB05"/>
<path d="M24.4477 21.3819C24.343 21.5266 24.2675 21.6539 24.2151 21.7871C23.8256 21.7986 22.6919 21.8276 21.6686 21.8565C21.6512 21.7465 21.6279 21.6366 21.5989 21.5324L23.7035 20.8783C23.7675 20.8609 23.8023 20.7915 23.7791 20.7278C23.7558 20.6641 23.6919 20.6294 23.6279 20.6526L21.5349 21.3529C21.4942 21.2487 21.4535 21.1503 21.4012 21.0519C22.25 20.4731 23.1803 19.8364 23.5058 19.6165C23.6279 19.6917 23.7616 19.7554 23.9303 19.8133C24.4826 19.9927 24.5814 20.2184 24.657 20.45C24.7326 20.6815 24.7849 20.9246 24.4477 21.3877V21.3819Z" fill="#FFCB05"/>
<path d="M24.0349 19.547C24.0349 19.547 24.0291 19.547 24.0233 19.547C23.5814 19.4081 23.407 19.2055 23.0756 18.754C22.907 18.5225 22.6745 18.372 22.4186 18.3199C22.4012 18.1984 22.3779 18.0652 22.3489 17.9205C22.564 18.0189 22.7849 18.0305 22.9768 18.0074C23.1454 18.2678 23.7384 19.084 24.6221 19.3908C24.4884 19.4602 24.2907 19.5355 24.0349 19.5528V19.547Z" fill="#FFCB05"/>
<path d="M25.6395 19.2228C24.3895 19.3791 23.4884 18.2967 23.2267 17.9378C23.314 17.9031 23.3837 17.8626 23.4186 17.8279C23.7035 17.8915 23.9477 17.8337 24.1395 17.7468C24.4012 18.0305 25.157 18.7366 26.2791 18.8871C26.1337 19.0434 25.9012 19.1939 25.6454 19.2286L25.6395 19.2228Z" fill="#FFCB05"/>
<path d="M26.2442 18.6035C25.2849 18.4356 24.6046 17.8626 24.343 17.6137C24.4186 17.5558 24.4709 17.5037 24.5116 17.4632C24.843 17.5037 25.0988 17.4285 25.2849 17.3185C25.6046 17.5269 26.6163 18.0594 27.8023 18.0825C27.4593 18.5572 26.9651 18.7308 26.2442 18.6035Z" fill="#FFCB05"/>
<path d="M28.0175 17.8105C26.7849 17.8568 25.7791 17.3358 25.4884 17.168C25.6454 17.0233 25.7151 16.8728 25.7268 16.8496C25.9593 16.8149 26.1512 16.7396 26.3024 16.6412C26.4884 16.7165 28.0058 17.2664 29.7093 16.9133C29.4535 17.4805 28.8838 17.7757 28.0175 17.8105Z" fill="#FFCB05"/>
<path d="M30.3779 16.4503C28.7442 17.0696 27.0233 16.6355 26.5175 16.4792C26.7442 16.265 26.843 16.0277 26.8605 15.9756C26.9884 15.9235 27.0989 15.8599 27.1919 15.7846C28.4768 15.9177 30.2384 15.7962 31.6163 15.0553C31.5465 15.7267 31.064 16.1898 30.3779 16.4503Z" fill="#FFCB05"/>
<path d="M31.8605 14.598C30.5582 15.472 28.7442 15.6804 27.4012 15.5762C27.5872 15.3505 27.6861 15.0726 27.7326 14.8122C29.221 14.6848 31.3721 14.0539 32.7035 13.0352C32.7442 13.3709 32.7035 14.0365 31.8605 14.598Z" fill="#FFCB05"/>
<path d="M32.7791 12.6358C31.6279 13.6429 29.5117 14.378 27.9651 14.5633C28.3024 14.2333 28.3605 13.8339 28.3721 13.695C30.7326 12.9657 32.4884 11.7849 33.2965 11.0671C33.4128 11.3913 33.4942 12.0164 32.7791 12.6415V12.6358Z" fill="#FFCB05"/>
<path d="M33.3779 10.6331C32.5291 11.455 29.8082 13.5098 25.9302 13.9787L25.6977 13.4867C28.6221 13.2783 31.8023 11.6749 33.6628 9.78796C33.7268 9.97898 33.6919 10.3379 33.3779 10.6331Z" fill="#FFCB05"/>
<path d="M21.5756 4.32384C21.5465 4.42803 21.6163 4.53801 21.7267 4.56695L22.7558 4.83321L22.5291 5.70724L22.907 5.80564L23.3198 4.20807L23.5465 4.26596L23.1337 5.86352L23.5116 5.96192L24.1977 3.31089L23.8198 3.21249L23.6337 3.93603L23.407 3.87814L23.593 3.15461L23.2151 3.05621L22.8372 4.50906L22.0116 4.2949L22.2965 3.20092L22.8663 3.34562L22.9535 3.02148L21.9826 2.77258L21.5814 4.32384H21.5756Z" fill="#A4681D"/>
<path d="M29.4244 7.1832C29.529 7.05586 29.5639 6.91116 29.5349 6.76066L29.7209 6.91694L29.936 6.66805L29.4942 6.2976L29.6511 6.11237L29.3314 5.84611L29.1744 6.03134L28.7325 5.66089L28.5174 5.90978L28.7035 6.06607C28.5523 6.06028 28.4128 6.11816 28.3023 6.23972C28.0814 6.50019 28.1279 6.89958 28.4593 7.17742C28.7907 7.45525 29.1977 7.43789 29.4128 7.17742L29.4244 7.1832ZM28.6337 6.51176C28.7383 6.38442 28.9128 6.36127 29.0581 6.48282C29.2035 6.61017 29.2093 6.78381 29.0988 6.90537C28.9942 7.03271 28.8197 7.05586 28.6686 6.93431C28.5232 6.80697 28.5232 6.63332 28.6279 6.51176H28.6337Z" fill="#A4681D"/>
<path d="M30.4302 7.68095L30.1744 7.46099L30.5174 7.0616L30.1977 6.78955L29.2965 7.84881L29.6163 8.11507L29.9477 7.72146L30.2093 7.94142L30.4302 7.68095Z" fill="#A4681D"/>
<path d="M27.9942 6.96899L27.7733 7.22947L28.9651 8.23663L28.4186 8.87912L28.7384 9.14538L29.5058 8.2482L27.9942 6.96899Z" fill="#A4681D"/>
<path d="M19.0872 0C8.54651 0 0 8.50876 0 19.0029C0 29.497 8.54651 38.0058 19.0872 38.0058C29.6279 38.0058 38.1744 29.497 38.1744 19.0029C38.1744 8.50876 29.6279 0 19.0872 0ZM19.0872 37.809C8.65116 37.809 0.19186 29.3871 0.19186 19.0029C0.19186 8.61874 8.65116 0.191013 19.0872 0.191013C29.5233 0.191013 37.9826 8.61295 37.9826 19.0029C37.9826 29.3928 29.5233 37.8148 19.0872 37.8148V37.809Z" fill="#A4681D"/>
<path d="M19.0872 0.567261C8.86046 0.567261 0.569763 8.82134 0.569763 19.0029C0.569763 29.1845 8.86046 37.4328 19.0814 37.4328C29.3023 37.4328 37.593 29.1787 37.593 19.0029C37.593 8.82712 29.3081 0.567261 19.0872 0.567261ZM19.0872 36.9523C9.1279 36.9523 1.05232 28.9124 1.05232 18.9971C1.05232 9.08181 9.12209 1.04769 19.0872 1.04769C29.0523 1.04769 37.1221 9.0876 37.1221 19.0029C37.1221 28.9182 29.0465 36.9581 19.0872 36.9581V36.9523Z" fill="#A4681D"/>
<path d="M18.5756 6.42501C18.5756 6.51762 18.5058 6.59866 18.4128 6.60445C18.3198 6.60445 18.2384 6.53499 18.2325 6.44238C18.2325 6.34976 18.3023 6.26873 18.3953 6.26294C18.4884 6.26294 18.5698 6.3324 18.5756 6.42501Z" fill="#A4681D"/>
<path d="M19.2558 6.41925C19.2558 6.51187 19.1802 6.5929 19.0814 6.5929C18.9826 6.5929 18.907 6.51765 18.907 6.41925C18.907 6.32085 18.9826 6.24561 19.0814 6.24561C19.1802 6.24561 19.2558 6.32085 19.2558 6.41925Z" fill="#A4681D"/>
<path d="M17.8895 6.47134C17.9011 6.56395 17.8314 6.65077 17.7384 6.66235C17.6453 6.67393 17.5581 6.60447 17.5465 6.51186C17.5349 6.41924 17.6046 6.33242 17.6977 6.32084C17.7907 6.30927 17.8779 6.37873 17.8895 6.47134Z" fill="#A4681D"/>
<path d="M17.2151 6.5523C17.2325 6.64491 17.1686 6.73752 17.0697 6.7491C16.9767 6.76647 16.8895 6.70279 16.8721 6.61018C16.8546 6.51757 16.9186 6.42496 17.0174 6.41338C17.1104 6.39602 17.2035 6.45969 17.2151 6.5523Z" fill="#A4681D"/>
<path d="M16.5407 6.67392C16.5639 6.76653 16.5 6.85915 16.407 6.87651C16.3139 6.89388 16.2209 6.83599 16.2035 6.74338C16.1802 6.65077 16.2442 6.55816 16.3372 6.54079C16.4302 6.52343 16.5232 6.58131 16.5407 6.67392Z" fill="#A4681D"/>
<path d="M15.8721 6.83016C15.8953 6.92277 15.843 7.01538 15.75 7.04432C15.657 7.06747 15.5639 7.01538 15.5349 6.92277C15.5116 6.83016 15.5639 6.73754 15.657 6.7086C15.75 6.68545 15.843 6.73754 15.8721 6.83016Z" fill="#A4681D"/>
<path d="M15.2151 7.02113C15.2442 7.10796 15.1977 7.20636 15.1047 7.24109C15.0174 7.27003 14.9186 7.22372 14.8837 7.13111C14.8547 7.0385 14.9012 6.94588 14.9942 6.91115C15.0872 6.88221 15.1802 6.92852 15.2151 7.02113Z" fill="#A4681D"/>
<path d="M14.5698 7.24695C14.6047 7.33378 14.564 7.43218 14.4709 7.4727C14.3837 7.50743 14.2791 7.46691 14.2442 7.3743C14.2093 7.28747 14.25 7.18328 14.343 7.14855C14.4302 7.11382 14.5291 7.15434 14.5698 7.24695Z" fill="#A4681D"/>
<path d="M13.9418 7.50733C13.9825 7.59416 13.9418 7.69834 13.8604 7.73307C13.7732 7.77359 13.6686 7.73307 13.6337 7.65204C13.593 7.56521 13.6337 7.46103 13.7151 7.4263C13.8023 7.38578 13.9011 7.4263 13.9418 7.50733Z" fill="#A4681D"/>
<path d="M13.3256 7.79674C13.3721 7.88357 13.3372 7.98197 13.2558 8.02827C13.1744 8.07458 13.0698 8.03985 13.0233 7.95881C12.9768 7.87199 13.0116 7.77359 13.093 7.72728C13.1744 7.68098 13.2791 7.71571 13.3256 7.79674Z" fill="#A4681D"/>
<path d="M12.7209 8.12677C12.7674 8.20781 12.7442 8.312 12.6628 8.36409C12.5814 8.4104 12.4767 8.38724 12.4244 8.30621C12.3779 8.22517 12.4011 8.12098 12.4825 8.06889C12.5639 8.02258 12.6686 8.04574 12.7209 8.12677Z" fill="#A4681D"/>
<path d="M12.1395 8.48559C12.1918 8.56663 12.1744 8.67081 12.093 8.72291C12.0116 8.775 11.907 8.75764 11.8546 8.6766C11.8023 8.59557 11.8198 8.49138 11.9011 8.43928C11.9825 8.38719 12.0872 8.40455 12.1395 8.48559Z" fill="#A4681D"/>
<path d="M11.5814 8.87338C11.6395 8.94863 11.6221 9.05861 11.5465 9.11649C11.4709 9.17437 11.3604 9.15701 11.3023 9.08176C11.2442 9.00651 11.2616 8.89654 11.3372 8.83865C11.4128 8.78077 11.5232 8.79814 11.5814 8.87338Z" fill="#A4681D"/>
<path d="M11.0407 9.29015C11.1047 9.3654 11.093 9.46959 11.0233 9.53326C10.9477 9.59693 10.843 9.58535 10.7791 9.51589C10.7151 9.44643 10.7267 9.33646 10.7965 9.27279C10.8721 9.20911 10.9767 9.22069 11.0407 9.29015Z" fill="#A4681D"/>
<path d="M10.5233 9.74168C10.5872 9.81114 10.5872 9.92112 10.5175 9.98479C10.4477 10.0485 10.3372 10.0485 10.2733 9.979C10.2093 9.90954 10.2093 9.79957 10.2791 9.7359C10.3489 9.67223 10.4593 9.67223 10.5233 9.74168Z" fill="#A4681D"/>
<path d="M10.0349 10.2162C10.1046 10.2799 10.1046 10.3899 10.0407 10.4594C9.97672 10.5288 9.86625 10.5288 9.79648 10.4651C9.72672 10.4015 9.72672 10.2915 9.79067 10.222C9.85462 10.1526 9.96509 10.1526 10.0349 10.2162Z" fill="#A4681D"/>
<path d="M9.56977 10.7141C9.64535 10.7777 9.65117 10.8819 9.58721 10.9572C9.52326 11.0324 9.41861 11.0382 9.34303 10.9745C9.26744 10.9109 9.26163 10.8067 9.32558 10.7314C9.38954 10.6562 9.49419 10.6504 9.56977 10.7141Z" fill="#A4681D"/>
<path d="M9.13372 11.2409C9.2093 11.2988 9.22674 11.4087 9.1686 11.484C9.11046 11.5592 9 11.5766 8.92441 11.5187C8.84883 11.4608 8.83721 11.3509 8.88953 11.2756C8.94767 11.2004 9.05814 11.183 9.13372 11.2409Z" fill="#A4681D"/>
<path d="M19.5988 6.42501C19.5988 6.51762 19.6686 6.59866 19.7616 6.60445C19.8546 6.60445 19.936 6.53499 19.9418 6.44238C19.9418 6.34976 19.8721 6.26873 19.779 6.26294C19.686 6.26294 19.6046 6.3324 19.5988 6.42501Z" fill="#A4681D"/>
<path d="M20.2791 6.47134C20.2675 6.56395 20.3372 6.65077 20.4303 6.66235C20.5233 6.67393 20.6105 6.60447 20.6221 6.51186C20.6338 6.41924 20.564 6.33242 20.471 6.32084C20.3779 6.30927 20.2907 6.37873 20.2791 6.47134Z" fill="#A4681D"/>
<path d="M20.9593 6.5523C20.9418 6.64491 21.0058 6.73752 21.1046 6.7491C21.1977 6.76647 21.2849 6.70279 21.3023 6.61018C21.3198 6.51757 21.2558 6.42496 21.1628 6.41338C21.0698 6.39602 20.9767 6.45969 20.9651 6.5523H20.9593Z" fill="#A4681D"/>
<path d="M21.6279 6.67392C21.6047 6.76653 21.6686 6.85915 21.7616 6.87651C21.8547 6.89966 21.9477 6.83599 21.9651 6.74338C21.9884 6.65077 21.9244 6.55816 21.8314 6.54079C21.7384 6.52343 21.6453 6.58131 21.6279 6.67392Z" fill="#A4681D"/>
<path d="M22.2965 6.83016C22.2733 6.92277 22.3256 7.01538 22.4186 7.04432C22.5116 7.06747 22.6047 7.01538 22.6337 6.92277C22.657 6.83016 22.6047 6.73754 22.5116 6.7086C22.4186 6.68545 22.3256 6.73754 22.2965 6.83016Z" fill="#A4681D"/>
<path d="M22.9535 7.02113C22.9244 7.10796 22.9709 7.20636 23.064 7.24109C23.1512 7.27003 23.25 7.22372 23.2849 7.13111C23.314 7.0385 23.2674 6.94588 23.1744 6.91115C23.0814 6.88221 22.9884 6.92852 22.9535 7.02113Z" fill="#A4681D"/>
<path d="M23.5989 7.24695C23.564 7.33378 23.6047 7.43218 23.6977 7.4727C23.7849 7.50743 23.8896 7.46691 23.9186 7.3743C23.9535 7.28747 23.9128 7.18328 23.8198 7.14855C23.7326 7.11382 23.6279 7.15434 23.5931 7.24695H23.5989Z" fill="#A4681D"/>
<path d="M24.2326 7.50733C24.1919 7.59416 24.2326 7.69834 24.314 7.73307C24.4012 7.77359 24.5 7.73307 24.5407 7.65204C24.5814 7.56521 24.5407 7.46103 24.4593 7.4263C24.3721 7.38578 24.2675 7.4263 24.2326 7.50733Z" fill="#A4681D"/>
<path d="M24.8488 7.79674C24.8023 7.87778 24.8372 7.98197 24.9186 8.02827C25 8.07458 25.1046 8.03985 25.1512 7.95881C25.1977 7.87199 25.1628 7.77359 25.0814 7.72728C25 7.68098 24.8953 7.71571 24.8488 7.79674Z" fill="#A4681D"/>
<path d="M25.4477 8.12677C25.4011 8.20781 25.4244 8.312 25.5058 8.36409C25.5872 8.4104 25.6918 8.38724 25.7442 8.30621C25.7907 8.22517 25.7674 8.12098 25.686 8.06889C25.6046 8.02258 25.5 8.04574 25.4477 8.12677Z" fill="#A4681D"/>
<path d="M26.0291 8.48559C25.9768 8.56663 25.9942 8.67081 26.0756 8.72291C26.157 8.775 26.2616 8.75764 26.314 8.6766C26.3663 8.59557 26.3488 8.49138 26.2674 8.43928C26.1861 8.38719 26.0814 8.40455 26.0291 8.48559Z" fill="#A4681D"/>
<path d="M26.5872 8.87338C26.5291 8.94863 26.5465 9.05861 26.6221 9.11649C26.6977 9.17437 26.8081 9.15701 26.8663 9.08176C26.9244 9.00651 26.907 8.89654 26.8314 8.83865C26.7558 8.78077 26.6454 8.79814 26.5872 8.87338Z" fill="#A4681D"/>
<path d="M27.1279 9.2902C27.0639 9.35966 27.0756 9.46964 27.1453 9.53331C27.2209 9.59698 27.3256 9.5854 27.3895 9.51016C27.4535 9.4407 27.4418 9.33072 27.3721 9.26705C27.3023 9.20338 27.1918 9.21495 27.1279 9.28441V9.2902Z" fill="#A4681D"/>
<path d="M27.6453 9.74168C27.5814 9.81114 27.5814 9.92112 27.6512 9.98479C27.7209 10.0485 27.8314 10.0485 27.8953 9.979C27.9593 9.90954 27.9593 9.79957 27.8895 9.7359C27.8198 9.67223 27.7093 9.67223 27.6453 9.74168Z" fill="#A4681D"/>
<path d="M28.1337 10.2162C28.0639 10.2799 28.0639 10.3899 28.1279 10.4594C28.1918 10.5288 28.3023 10.5288 28.3721 10.4651C28.4418 10.4015 28.4418 10.2915 28.3779 10.222C28.3139 10.1526 28.2035 10.1526 28.1337 10.2162Z" fill="#A4681D"/>
<path d="M28.5988 10.7141C28.5232 10.7777 28.5174 10.8819 28.5814 10.9572C28.6453 11.0266 28.75 11.0382 28.8256 10.9745C28.9012 10.9109 28.907 10.8067 28.843 10.7314C28.7791 10.6562 28.6744 10.6504 28.5988 10.7141Z" fill="#A4681D"/>
<path d="M29.0349 11.2408C28.9593 11.2987 28.9419 11.4087 29 11.4839C29.0581 11.5592 29.1686 11.5708 29.2442 11.5187C29.3198 11.4608 29.3372 11.3508 29.2791 11.2756C29.2209 11.2003 29.1105 11.1887 29.0407 11.2408H29.0349Z" fill="#A4681D"/>
<path d="M15.8604 2.81885L15.4651 2.92304L15.7907 4.15594L16.1802 4.05754L16.0465 3.53659L16.3721 3.44977L16.2907 3.12563L15.9593 3.21245L15.8604 2.81885Z" fill="#A4681D"/>
<path d="M16.4128 4.94311L16.2093 4.16748L14.3779 4.64212L14.4651 4.96626L15.9012 4.59581L15.9361 4.73473L14.5 5.10518L14.657 5.70137C14.6861 5.81135 14.7965 5.87502 14.907 5.84608L16.5698 5.41775L16.4826 5.0936L15.0175 5.47563L14.9768 5.32513L16.4128 4.95469V4.94311Z" fill="#A4681D"/>
<path d="M14.6686 3.94178C14.8488 4.10964 15.1047 4.21962 15.4767 4.24277L15.5465 3.91863C15.5465 3.91863 15.0698 3.90705 14.814 3.50766L15.3081 3.38032L15.2267 3.06775L14.6919 3.20667L14.6395 2.99829L14.2326 3.10248L14.2849 3.31086L13.75 3.44978L13.8314 3.76234L14.3256 3.635C14.2965 4.10964 13.8837 4.34696 13.8837 4.34696L14.1047 4.59585C14.4186 4.39326 14.5872 4.17331 14.6628 3.93599L14.6686 3.94178Z" fill="#A4681D"/>
<path d="M9.05814 6.17608L8.75 6.43656L8.96512 6.68545L9.27326 6.42498L9.41279 6.58705L9.10465 6.84752L9.31395 7.09642L9.62209 6.83016L9.79651 7.03854L10.1047 6.77228L9.22674 5.75354L8.9186 6.01401L9.05814 6.17608Z" fill="#A4681D"/>
<path d="M9.35469 7.30483C8.95934 7.64055 8.91282 8.13834 9.19189 8.46248C9.47096 8.78663 9.96515 8.82136 10.3663 8.48564C10.7617 8.14992 10.8082 7.65213 10.5291 7.32798C10.25 7.00384 9.75003 6.96911 9.3605 7.30483H9.35469ZM10.1338 8.21359C9.91283 8.39881 9.66282 8.36408 9.50585 8.19043C9.35469 8.011 9.3605 7.75631 9.58143 7.57109C9.80236 7.38586 10.0524 7.42059 10.2093 7.59424C10.3605 7.77368 10.3547 8.02836 10.1338 8.21359Z" fill="#A4681D"/>
<path d="M8.63955 6.49442C8.58722 6.43075 8.48839 6.42496 8.42443 6.47706L7.54071 7.22375L7.76164 7.47843L8.40118 6.93433C8.47676 7.08483 8.61048 7.49001 8.15699 8.06883L8.43025 8.24827C9.10466 7.42634 8.88373 6.77805 8.63373 6.48863L8.63955 6.49442Z" fill="#A4681D"/>
<path d="M30.9651 17.0348C30.9651 17.0348 30.6454 17.3937 30.5 18.1462C30.4244 18.0536 30.3256 17.9436 30.2268 17.8684C30.1919 17.8394 30.1454 17.8394 30.1047 17.8568C29.9651 17.9262 29.907 18.3372 29.907 18.6382C29.907 18.6556 29.907 18.6787 29.907 18.6961C29.907 18.8813 29.9302 19.026 29.9535 19.1418C29.6279 18.916 29.564 18.9276 29.5233 18.9508C29.4709 18.9739 29.4593 19.0376 29.4593 19.0376C29.3721 19.8306 29.7093 21.1966 31.0116 21.4802H31.0291H31.0465C32.343 21.1908 32.6861 19.8306 32.5989 19.0376C32.5989 19.0376 32.5814 18.9681 32.5349 18.9508C32.4884 18.9334 32.4302 18.916 32.1047 19.1418C32.1279 19.026 32.1454 18.8813 32.1512 18.6961C32.1512 18.6787 32.1512 18.6556 32.1512 18.6382C32.1512 18.3372 32.093 17.9262 31.9535 17.851C31.9128 17.8278 31.8663 17.8336 31.8314 17.8626C31.7384 17.932 31.6337 18.0478 31.5582 18.1404C31.4128 17.3937 31.1047 17.0464 31.093 17.0291L31.0291 16.9596L30.9651 17.0291V17.0348Z" fill="#A4681D"/>
<path d="M30.6395 18.3719C30.7267 17.7642 30.9302 17.3995 31.0349 17.249C31.1395 17.4053 31.343 17.7642 31.4302 18.3719L31.4593 18.5977L31.5872 18.4125C31.5872 18.4125 31.7442 18.1925 31.8953 18.0594C31.9302 18.1462 31.9825 18.3488 31.9825 18.6324C31.9825 18.6556 31.9825 18.6729 31.9825 18.6961C31.9709 19.0839 31.8837 19.327 31.8837 19.327L31.7791 19.6164L32.0232 19.4312C32.1628 19.3212 32.3372 19.2055 32.436 19.1534C32.436 19.1997 32.4419 19.2402 32.4419 19.2865C32.4419 20.0216 32.0872 21.0519 31.0407 21.3008C29.9884 21.0577 29.6395 20.0216 29.6395 19.2923C29.6395 19.246 29.6395 19.1997 29.6453 19.1534C29.7442 19.2055 29.9128 19.327 30.0581 19.4312L30.3023 19.6164L30.1977 19.327C30.1977 19.327 30.1105 19.0839 30.0988 18.6961C30.0988 18.6729 30.0988 18.6556 30.0988 18.6324C30.0988 18.3488 30.1453 18.1462 30.1802 18.0594C30.3256 18.1925 30.4825 18.4067 30.4884 18.4125L30.6221 18.5977L30.6512 18.3719H30.6395Z" fill="white"/>
<path d="M32 19.7727C31.9593 19.738 31.907 19.7438 31.8721 19.7843C31.6395 20.0564 31.2965 20.2127 31.1221 20.2763V19.3328C31.2558 19.2807 31.5872 19.1418 31.8256 18.8466C31.8547 18.8061 31.8488 18.754 31.814 18.7193C31.7733 18.6903 31.7209 18.6961 31.6861 18.7366C31.5058 18.9624 31.2674 19.0839 31.1221 19.1418V18.0247C31.1221 17.9726 31.0814 17.9379 31.0349 17.9379C30.9884 17.9379 30.9477 17.9784 30.9477 18.0247V19.1418C30.8081 19.0839 30.564 18.9566 30.3837 18.7366C30.3547 18.6961 30.2965 18.6903 30.2558 18.7193C30.2151 18.7482 30.2093 18.8061 30.2384 18.8466C30.4767 19.1476 30.8023 19.2865 30.9419 19.3328V20.2763C30.7674 20.2127 30.4244 20.0564 30.1919 19.7843C30.1628 19.7438 30.1047 19.7438 30.064 19.7727C30.0233 19.8017 30.0233 19.8596 30.0523 19.9001C30.343 20.2416 30.7733 20.4152 30.9419 20.4673V21.3414C30.9419 21.3935 30.9826 21.4282 31.0291 21.4282C31.0756 21.4282 31.1163 21.3877 31.1163 21.3414V20.4673C31.2791 20.4095 31.7151 20.2416 32.0058 19.9001C32.0349 19.8596 32.0349 19.8075 31.9942 19.7727H32Z" fill="#A4681D"/>
<path d="M31.0465 20.3805C31.0465 20.3805 30.6395 20.641 30.2907 21.3182C30.2442 21.2082 30.1802 21.0751 30.1047 20.9767C30.0756 20.9419 30.0349 20.9246 29.9884 20.9362C29.8372 20.9651 29.6686 21.3471 29.5814 21.6365C29.5814 21.6539 29.5698 21.6771 29.564 21.6944C29.5175 21.8739 29.5 22.0186 29.4884 22.1343C29.2384 21.8276 29.1744 21.8218 29.1279 21.8276C29.0698 21.8391 29.0465 21.8912 29.0465 21.8912C28.7384 22.6263 28.6919 24.0329 29.8605 24.6696L29.8779 24.6812H29.8954C31.2209 24.7622 31.9302 23.5467 32.064 22.7595C32.064 22.7595 32.064 22.69 32.0291 22.6611C31.9884 22.6321 31.9419 22.5974 31.5582 22.7305C31.6105 22.6263 31.6744 22.4932 31.7268 22.3196C31.7326 22.3022 31.7384 22.2848 31.7442 22.2617C31.8256 21.9723 31.8895 21.5613 31.7733 21.4513C31.7384 21.4224 31.6977 21.4108 31.6512 21.4282C31.5407 21.4687 31.4128 21.5497 31.314 21.6192C31.3779 20.8609 31.1802 20.4442 31.1744 20.4268L31.1337 20.34L31.0523 20.3921L31.0465 20.3805Z" fill="#A4681D"/>
<path d="M30.3605 21.5729C30.6105 21.0114 30.907 20.722 31.0524 20.6005C31.1105 20.7799 31.2035 21.1793 31.1163 21.7871L31.0872 22.0128L31.2675 21.8681C31.2675 21.8681 31.4826 21.7002 31.657 21.6134C31.6686 21.706 31.657 21.9144 31.5814 22.1865C31.5756 22.2038 31.5698 22.227 31.564 22.2501C31.4477 22.6206 31.2965 22.8289 31.2965 22.8289L31.1163 23.0778L31.4012 22.9679C31.5698 22.9042 31.7617 22.8405 31.8721 22.8116C31.8605 22.8579 31.8547 22.8984 31.8431 22.9447C31.6396 23.6509 31.0117 24.5481 29.9361 24.4902C28.9942 23.9635 28.9419 22.8753 29.1454 22.1691C29.157 22.1228 29.1745 22.0823 29.1919 22.0417C29.2733 22.1228 29.4012 22.2791 29.5117 22.4238L29.6977 22.6669L29.6745 22.3601C29.6745 22.3601 29.657 22.1054 29.7558 21.7234C29.7558 21.7002 29.7675 21.6829 29.7733 21.6597C29.8489 21.3877 29.9535 21.2082 30.0117 21.133C30.1163 21.3008 30.2093 21.5497 30.2093 21.5555L30.2849 21.7697L30.3779 21.5613L30.3605 21.5729Z" fill="white"/>
<path d="M31.2791 23.2977C31.25 23.2572 31.1977 23.2456 31.157 23.2746C30.8605 23.4714 30.4884 23.5292 30.2965 23.5408L30.5581 22.6321C30.7035 22.6205 31.0581 22.5742 31.3663 22.3542C31.407 22.3253 31.4186 22.2674 31.3895 22.2269C31.3605 22.1864 31.3023 22.1748 31.2616 22.2037C31.0291 22.3716 30.7616 22.4237 30.6105 22.4411L30.9186 21.3702C30.9302 21.3239 30.907 21.2718 30.8547 21.2602C30.8081 21.2487 30.7558 21.2718 30.7442 21.3239L30.436 22.3947C30.3198 22.3021 30.1163 22.1111 30.0116 21.8506C29.9942 21.8043 29.9419 21.7812 29.8954 21.8043C29.8488 21.8217 29.8256 21.8738 29.8488 21.9201C29.9942 22.2732 30.2733 22.4989 30.3895 22.58L30.1279 23.4887C29.9767 23.3788 29.6919 23.1356 29.5407 22.8057C29.5233 22.7594 29.4651 22.742 29.4244 22.7594C29.3779 22.7768 29.3605 22.8347 29.3779 22.8752C29.564 23.2861 29.9302 23.5698 30.0756 23.6682L29.8314 24.5075C29.8198 24.5538 29.843 24.6059 29.8954 24.6174C29.9477 24.629 29.9942 24.6059 30.0058 24.5538L30.25 23.7145C30.4244 23.7087 30.8895 23.6624 31.2616 23.4135C31.3023 23.3845 31.314 23.3324 31.2849 23.2919L31.2791 23.2977Z" fill="#A4681D"/>
<path d="M30.1977 23.6161C30.1977 23.6161 29.7326 23.755 29.2093 24.3107C29.1919 24.1892 29.1686 24.0445 29.1279 23.9345C29.1105 23.894 29.0756 23.865 29.0291 23.8592C28.8721 23.8477 28.6047 24.166 28.4419 24.4207C28.4302 24.4381 28.4186 24.4554 28.4128 24.4728C28.3198 24.6291 28.2616 24.7622 28.2151 24.8722C28.0581 24.5075 28 24.4844 27.9535 24.4786C27.8954 24.4728 27.8547 24.5191 27.8547 24.5191C27.3547 25.1442 26.9186 26.4813 27.8663 27.4074L27.8779 27.419H27.8953C29.1512 27.8705 30.1686 26.8923 30.5116 26.1745C30.5116 26.1745 30.5349 26.1051 30.5058 26.0703C30.4767 26.0356 30.436 25.9893 30.0349 26.0067C30.1163 25.9199 30.2093 25.8099 30.314 25.6594C30.3256 25.642 30.3372 25.6246 30.343 25.6131C30.5058 25.3584 30.6744 24.9764 30.593 24.8432C30.5698 24.8027 30.5291 24.7854 30.4826 24.7854C30.3663 24.7969 30.2209 24.8374 30.1047 24.878C30.3779 24.166 30.3023 23.7087 30.3023 23.6914L30.2849 23.5988L30.1919 23.6219L30.1977 23.6161Z" fill="#A4681D"/>
<path d="M29.2093 24.577C29.6046 24.1082 29.9709 23.9056 30.1395 23.8303C30.1453 24.0155 30.1221 24.4323 29.8721 24.9938L29.7791 25.2021L29.9884 25.1153C29.9884 25.1153 30.2384 25.0111 30.436 24.9764C30.4186 25.069 30.3546 25.2658 30.2035 25.5089C30.1918 25.5263 30.1802 25.5437 30.1686 25.561C29.9535 25.8852 29.75 26.0414 29.75 26.0472L29.5058 26.2325L29.8139 26.2035C29.9942 26.1861 30.1977 26.1804 30.3139 26.1862C30.2907 26.2267 30.2732 26.2672 30.25 26.3077C29.8604 26.927 29.0058 27.6159 27.9884 27.2686C27.2325 26.5045 27.4825 25.4453 27.8721 24.8201C27.8953 24.7796 27.9244 24.7449 27.9535 24.7101C28.0058 24.8085 28.093 24.9996 28.1511 25.1674L28.2616 25.4568L28.3256 25.1558C28.3256 25.1558 28.3779 24.9012 28.5814 24.5654C28.593 24.5481 28.6046 24.5307 28.6163 24.5076C28.7674 24.2702 28.9128 24.1255 28.9942 24.0676C29.0465 24.2587 29.0639 24.5249 29.0639 24.5249L29.0756 24.7507L29.2209 24.577H29.2093Z" fill="white"/>
<path d="M29.6163 26.4814C29.5988 26.4351 29.5523 26.4061 29.5058 26.4235C29.1628 26.5335 28.7907 26.4814 28.6046 26.4466L29.1104 25.6479C29.25 25.6768 29.6046 25.7347 29.9651 25.6073C30.0116 25.59 30.0349 25.5379 30.0174 25.4916C30 25.4453 29.9477 25.4221 29.9011 25.4395C29.6337 25.5321 29.3604 25.5089 29.2093 25.4858L29.8023 24.5423C29.8256 24.5018 29.8139 24.4439 29.7732 24.4207C29.7325 24.3918 29.6744 24.4092 29.6511 24.4497L29.0581 25.3932C28.9709 25.2716 28.8314 25.0343 28.7965 24.7507C28.7965 24.7044 28.7442 24.6639 28.6977 24.6696C28.6511 24.6696 28.6104 24.7217 28.6163 24.768C28.657 25.1443 28.8604 25.4395 28.9535 25.5552L28.4477 26.354C28.3314 26.2035 28.1221 25.891 28.0756 25.5379C28.0697 25.4916 28.0232 25.4568 27.9767 25.4626C27.9302 25.4684 27.8953 25.5147 27.9011 25.561C27.9651 26.0067 28.2383 26.3772 28.3488 26.5161L27.8837 27.257C27.8546 27.2975 27.8721 27.3554 27.9128 27.3785C27.9535 27.4075 28.0116 27.3901 28.0349 27.3496L28.5 26.6087C28.6686 26.6492 29.1279 26.7361 29.5581 26.5971C29.6046 26.5798 29.6337 26.5335 29.6163 26.4872V26.4814Z" fill="#A4681D"/>
<path d="M28.4884 26.4928C28.4884 26.4928 28.0058 26.4928 27.3488 26.8864C27.3663 26.7649 27.3837 26.6202 27.3721 26.4986C27.3721 26.4523 27.343 26.4176 27.2965 26.4002C27.1512 26.3423 26.8023 26.5797 26.5814 26.7765C26.5639 26.788 26.5523 26.8054 26.5407 26.817C26.407 26.9443 26.3139 27.0543 26.2442 27.1469C26.1977 26.7533 26.1453 26.7186 26.0988 26.7012C26.0465 26.6781 25.9942 26.7128 25.9942 26.7128C25.343 27.1758 24.5465 28.3393 25.2035 29.4912L25.2151 29.5085L25.2326 29.5201C26.3139 30.2899 27.5639 29.6301 28.093 29.0397C28.093 29.0397 28.1337 28.9818 28.1163 28.9355C28.0988 28.8892 28.0756 28.8371 27.686 28.7445C27.7849 28.6866 27.907 28.6055 28.0465 28.484C28.0639 28.4724 28.0756 28.4608 28.093 28.4435C28.3198 28.2409 28.5872 27.9225 28.5465 27.772C28.5349 27.7257 28.5 27.6968 28.4593 27.6852C28.343 27.6621 28.1919 27.6621 28.0698 27.6678C28.5291 27.0601 28.5872 26.6028 28.5872 26.5797L28.5988 26.4813H28.5L28.4884 26.4928Z" fill="#A4681D"/>
<path d="M27.2675 27.1411C27.7791 26.7996 28.1861 26.707 28.3721 26.6838C28.3256 26.8633 28.1919 27.2569 27.7907 27.7257L27.6454 27.8994L27.8721 27.8704C27.8721 27.8704 28.1395 27.8415 28.3372 27.8647C28.2965 27.9515 28.1744 28.1193 27.9651 28.3104C27.9477 28.3219 27.9361 28.3393 27.9186 28.3509C27.6221 28.6056 27.3837 28.6982 27.3779 28.6982L27.093 28.8139L27.3954 28.8718C27.5698 28.9065 27.7733 28.9529 27.8779 28.9876C27.8488 29.0223 27.8198 29.0513 27.7791 29.086C27.2326 29.578 26.2209 30.0005 25.3372 29.387C24.8198 28.4435 25.3547 27.4942 25.9012 27.0022C25.9361 26.9675 25.9709 26.9443 26.0058 26.9154C26.0291 27.0254 26.0581 27.2279 26.0698 27.4074L26.093 27.7142L26.2384 27.4421C26.2384 27.4421 26.3605 27.2164 26.6454 26.9501C26.6628 26.9327 26.6744 26.9212 26.6919 26.9038C26.9012 26.7186 27.0872 26.6144 27.1744 26.5854C27.1744 26.7823 27.1163 27.0427 27.1163 27.0485L27.064 27.2685L27.2558 27.1411H27.2675Z" fill="white"/>
<path d="M27.1279 29.086C27.1279 29.0339 27.0872 28.9992 27.0349 28.9992C26.6744 29.0108 26.3314 28.8603 26.1628 28.7734L26.8662 28.1425C26.9942 28.212 27.3197 28.3625 27.6976 28.3393C27.7442 28.3393 27.7849 28.293 27.779 28.2467C27.779 28.2004 27.7325 28.1599 27.686 28.1657C27.4011 28.183 27.1453 28.0846 27.0058 28.021L27.8372 27.2743C27.8721 27.2396 27.8779 27.1875 27.843 27.1469C27.8081 27.1122 27.7558 27.1064 27.7151 27.1412L26.8837 27.8878C26.8314 27.7431 26.7674 27.4827 26.8139 27.199C26.8197 27.1527 26.7907 27.1064 26.7383 27.0948C26.6918 27.0891 26.6453 27.118 26.6337 27.1701C26.5697 27.5463 26.6802 27.8821 26.7383 28.0152L26.0349 28.6461C25.9651 28.4725 25.8546 28.1136 25.9011 27.7605C25.9069 27.7142 25.8721 27.6679 25.8256 27.6621C25.779 27.6563 25.7325 27.691 25.7267 27.7373C25.6628 28.183 25.8256 28.6172 25.8953 28.7734L25.2442 29.3581C25.2093 29.3928 25.2035 29.4449 25.2383 29.4854C25.2732 29.5201 25.3256 29.5259 25.3662 29.4912L26.0174 28.9066C26.1686 28.9934 26.5872 29.2018 27.0349 29.1844C27.0814 29.1844 27.1221 29.1439 27.1221 29.0918L27.1279 29.086Z" fill="#A4681D"/>
<path d="M26.0407 28.785C26.0407 28.785 25.5756 28.6577 24.8314 28.8487C24.8837 28.7387 24.9419 28.5998 24.9651 28.484C24.9709 28.4377 24.9593 28.3972 24.9186 28.3682C24.7907 28.2756 24.3953 28.403 24.1221 28.5361C24.1047 28.5419 24.0872 28.5535 24.0698 28.5651C23.907 28.6519 23.7849 28.7329 23.6919 28.8024C23.7558 28.4088 23.7151 28.3625 23.6802 28.3335C23.6337 28.293 23.5756 28.3162 23.5756 28.3162C22.8198 28.5824 21.7326 29.4854 22.0407 30.7704V30.7877L22.0581 30.8051C22.8837 31.8412 24.2674 31.5518 24.9419 31.1293C24.9419 31.1293 24.9942 31.0829 24.9884 31.0366C24.9884 30.9903 24.9767 30.9267 24.6279 30.7357C24.7384 30.7067 24.8837 30.6604 25.0465 30.5852C25.064 30.5794 25.0814 30.5678 25.0988 30.562C25.3721 30.4289 25.7209 30.1973 25.7209 30.0468C25.7209 30.0005 25.6977 29.96 25.657 29.9427C25.5523 29.8906 25.407 29.85 25.2907 29.8211C25.9012 29.3638 26.0814 28.9355 26.0872 28.9181L26.1221 28.8255L26.0291 28.7966L26.0407 28.785Z" fill="#A4681D"/>
<path d="M24.6919 29.0744C25.2791 28.8834 25.6919 28.9123 25.8779 28.9355C25.7849 29.0976 25.5465 29.4333 25.0349 29.7806L24.843 29.9079L25.0698 29.9426C25.0698 29.9426 25.3372 29.9889 25.5233 30.0642C25.4593 30.1337 25.2965 30.2668 25.0407 30.3883C25.0233 30.3999 25 30.4057 24.9826 30.4173C24.6279 30.5794 24.3721 30.6025 24.3663 30.6025L24.0582 30.6314L24.3314 30.7704C24.4942 30.8514 24.6686 30.9556 24.7616 31.0193C24.7209 31.0424 24.6861 31.0656 24.6396 31.0829C23.9768 31.4013 22.8896 31.5344 22.2093 30.7009C21.9709 29.6532 22.75 28.8834 23.4128 28.565C23.4535 28.5419 23.4942 28.5303 23.5407 28.5129C23.5349 28.6229 23.5058 28.8313 23.4651 29.0049L23.407 29.3059L23.6221 29.086C23.6221 29.086 23.8023 28.9008 24.1512 28.7213C24.1686 28.7097 24.1919 28.704 24.2093 28.6924C24.4651 28.5708 24.6686 28.5245 24.7616 28.5187C24.7035 28.7097 24.5756 28.9413 24.5756 28.9471L24.4651 29.1439L24.6802 29.0744H24.6919Z" fill="white"/>
<path d="M24.0174 30.9094C24.0291 30.8631 24 30.811 23.9535 30.7994C23.6046 30.7126 23.3139 30.4694 23.1802 30.3421L24.0349 29.9311C24.1395 30.0295 24.407 30.2669 24.7849 30.3479C24.8314 30.3595 24.8837 30.3305 24.8895 30.2784C24.9012 30.2321 24.8721 30.18 24.8198 30.1742C24.5407 30.1106 24.3198 29.9485 24.2093 29.8501L25.2151 29.3639C25.2616 29.3407 25.2791 29.2886 25.2558 29.2423C25.2326 29.196 25.1802 29.1787 25.1337 29.2018L24.1279 29.688C24.1221 29.5375 24.1279 29.2655 24.25 29.005C24.2733 28.9587 24.25 28.9066 24.2093 28.8835C24.1628 28.8603 24.1105 28.8835 24.0872 28.924C23.9244 29.2655 23.936 29.6244 23.9535 29.7633L23.0988 30.1742C23.0814 29.989 23.0698 29.6128 23.2151 29.2886C23.2326 29.2423 23.2151 29.1902 23.1686 29.1729C23.1221 29.1497 23.0698 29.1729 23.0523 29.2192C22.8663 29.6302 22.9012 30.0932 22.9244 30.2611L22.1337 30.6431C22.0872 30.6663 22.0698 30.7183 22.093 30.7647C22.1163 30.811 22.1686 30.8283 22.2151 30.8052L23.0058 30.4231C23.1279 30.5447 23.4709 30.8631 23.907 30.973C23.9535 30.9846 24.0058 30.9557 24.0174 30.9094Z" fill="#A4681D"/>
<path d="M7.13956 16.9655L7.0756 17.0349C7.0756 17.0349 6.75584 17.3938 6.61049 18.1463C6.53491 18.0536 6.43607 17.9437 6.33723 17.8684C6.30235 17.8395 6.25584 17.8395 6.21514 17.8568C6.0756 17.9263 6.01746 18.3373 6.01746 18.6441C6.01746 18.6614 6.01746 18.6846 6.01746 18.7019C6.01746 18.8872 6.04072 19.0319 6.06398 19.1476C5.73839 18.9219 5.68025 18.9393 5.63374 18.9566C5.58723 18.974 5.56979 19.0434 5.56979 19.0434C5.48258 19.8364 5.81979 21.2025 7.12211 21.4861H7.13956H7.157C8.45351 21.1967 8.79653 19.8364 8.70932 19.0434C8.70932 19.0434 8.70351 18.9856 8.64537 18.9566C8.60467 18.9393 8.54072 18.9219 8.21514 19.1476C8.23839 19.0319 8.25584 18.8872 8.26165 18.7019C8.26165 18.6846 8.26165 18.6614 8.26165 18.6441C8.26165 18.3431 8.20351 17.9321 8.06398 17.8626C8.02328 17.8395 7.97677 17.8453 7.94188 17.8742C7.84886 17.9437 7.74421 18.0594 7.66863 18.1521C7.52328 17.4054 7.21514 17.0581 7.20351 17.0407L7.13956 16.9712V16.9655Z" fill="#A4681D"/>
<path d="M7.56397 18.5977L7.69769 18.4125C7.69769 18.4125 7.85467 18.1925 8.00583 18.0594C8.04071 18.1462 8.08722 18.3488 8.08722 18.6324C8.08722 18.6556 8.08722 18.6729 8.08722 18.6961C8.0756 19.0839 7.98839 19.327 7.98839 19.327L7.88374 19.6164L8.12792 19.4312C8.26746 19.3212 8.44188 19.2055 8.54071 19.1534C8.54071 19.1997 8.54653 19.2402 8.54653 19.2923C8.54653 20.0274 8.19188 21.0577 7.14536 21.3008C6.09304 21.0577 5.7442 20.0216 5.7442 19.2865C5.7442 19.2402 5.7442 19.1939 5.75002 19.1534C5.84885 19.2055 6.01746 19.327 6.16281 19.4312L6.40699 19.6164L6.30234 19.327C6.30234 19.327 6.21513 19.0839 6.2035 18.6961C6.2035 18.6729 6.2035 18.6556 6.2035 18.6324C6.2035 18.3488 6.25002 18.1462 6.29071 18.0594C6.43606 18.1925 6.59304 18.4067 6.59885 18.4125L6.72676 18.5977L6.75583 18.3719C6.84304 17.7642 7.04653 17.3995 7.15118 17.249C7.25583 17.4053 7.45932 17.7642 7.54653 18.3719L7.5756 18.5977H7.56397Z" fill="white"/>
<path d="M6.17441 19.7727C6.21511 19.738 6.26743 19.7438 6.30232 19.7843C6.53488 20.0564 6.8779 20.2127 7.05232 20.2763V19.3328C6.9186 19.2807 6.5872 19.1418 6.34883 18.8466C6.31976 18.8061 6.32557 18.754 6.36046 18.7193C6.40115 18.6903 6.45348 18.6961 6.48836 18.7366C6.6686 18.9624 6.90697 19.0839 7.05232 19.1418V18.0247C7.05232 17.9726 7.09301 17.9379 7.13953 17.9379C7.18604 17.9379 7.22674 17.9784 7.22674 18.0247V19.1418C7.36627 19.0839 7.61046 18.9566 7.79069 18.7366C7.81976 18.6961 7.8779 18.6903 7.9186 18.7193C7.95929 18.7482 7.96511 18.8061 7.93604 18.8466C7.69767 19.1476 7.37208 19.2865 7.23255 19.3328V20.2763C7.40697 20.2127 7.74999 20.0564 7.98255 19.7843C8.01162 19.7438 8.06976 19.7438 8.11046 19.7727C8.15115 19.8017 8.15115 19.8596 8.12208 19.9001C7.83139 20.2416 7.40115 20.4152 7.23255 20.4673V21.3414C7.23255 21.3935 7.19185 21.4282 7.14534 21.4282C7.09883 21.4282 7.05813 21.3877 7.05813 21.3414V20.4673C6.89534 20.4095 6.45929 20.2416 6.1686 19.9001C6.13371 19.8596 6.13953 19.8075 6.18022 19.7727H6.17441Z" fill="#A4681D"/>
<path d="M7.04075 20.3285L7.00005 20.4153C7.00005 20.4153 6.79075 20.8494 6.86052 21.6077C6.76168 21.5382 6.63377 21.4572 6.52331 21.4167C6.48261 21.3993 6.4361 21.4109 6.40121 21.4398C6.28494 21.544 6.34889 21.955 6.43028 22.2502C6.43028 22.2675 6.44191 22.2907 6.44773 22.3081C6.50587 22.4817 6.56401 22.6148 6.61633 22.719C6.23842 22.5917 6.1861 22.6264 6.1454 22.6496C6.1047 22.6785 6.11052 22.748 6.11052 22.748C6.24424 23.5352 6.95354 24.7507 8.27912 24.6697H8.29656L8.31401 24.6581C9.48261 24.0272 9.43028 22.6206 9.12796 21.8797C9.12796 21.8797 9.1047 21.8218 9.04656 21.8161C9.00005 21.8103 8.9361 21.8161 8.6861 22.1228C8.67447 22.0071 8.65703 21.8624 8.61052 21.6829C8.61052 21.6656 8.59889 21.6424 8.59308 21.625C8.51168 21.3356 8.34308 20.9536 8.1861 20.9247C8.13959 20.9131 8.09889 20.9305 8.06982 20.9652C8.00005 21.0578 7.93028 21.1967 7.88377 21.3067C7.53494 20.6295 7.1454 20.3806 7.12796 20.369L7.04656 20.3169L7.04075 20.3285Z" fill="#A4681D"/>
<path d="M7.90124 21.7813L7.97682 21.5671C7.97682 21.5671 8.06984 21.3124 8.17449 21.1446C8.23263 21.2198 8.33728 21.3993 8.41286 21.6713C8.41868 21.6887 8.42449 21.7118 8.4303 21.735C8.52914 22.1112 8.5117 22.3659 8.5117 22.3717L8.48844 22.6785L8.67449 22.4354C8.77914 22.2907 8.91286 22.1344 8.99426 22.0533C9.0117 22.0939 9.02333 22.1344 9.04077 22.1807C9.24426 22.8868 9.19193 23.975 8.25007 24.5018C7.17449 24.5539 6.54658 23.6625 6.3431 22.9563C6.33147 22.91 6.31984 22.8695 6.31403 22.8232C6.42449 22.8463 6.62217 22.9158 6.78496 22.9795L7.06984 23.0894L6.88961 22.8405C6.88961 22.8405 6.73844 22.6322 6.62217 22.2617C6.61635 22.2386 6.61054 22.2212 6.60472 22.198C6.52914 21.926 6.51751 21.7176 6.52914 21.625C6.70937 21.7118 6.91868 21.8797 6.91868 21.8797L7.09891 22.0244L7.06984 21.7987C6.98263 21.1909 7.07565 20.7857 7.13379 20.6121C7.27914 20.7336 7.56984 21.023 7.82565 21.5845L7.91868 21.7929L7.90124 21.7813Z" fill="white"/>
<path d="M6.88961 23.2978C6.91868 23.2573 6.97101 23.2457 7.01171 23.2747C7.30822 23.4715 7.68031 23.5294 7.87217 23.5409L7.61054 22.6322C7.4652 22.6206 7.11054 22.5743 6.8024 22.3544C6.76171 22.3254 6.75008 22.2675 6.77915 22.227C6.80822 22.1865 6.86636 22.1749 6.90706 22.2039C7.13961 22.3717 7.40706 22.4238 7.55822 22.4412L7.25008 21.3703C7.23845 21.324 7.26171 21.2719 7.31403 21.2604C7.36054 21.2488 7.41287 21.2719 7.4245 21.324L7.73264 22.3949C7.84892 22.3023 8.0524 22.1112 8.15706 21.8508C8.1745 21.8045 8.22682 21.7813 8.27333 21.8045C8.31985 21.8218 8.3431 21.8739 8.31985 21.9202C8.1745 22.2733 7.89543 22.4991 7.77915 22.5801L8.04078 23.4889C8.19194 23.3789 8.47682 23.1358 8.62799 22.8058C8.64543 22.7595 8.70357 22.7422 8.74426 22.7595C8.79078 22.7769 8.80822 22.8348 8.79078 22.8753C8.60473 23.2863 8.23845 23.5699 8.0931 23.6683L8.33729 24.5076C8.34892 24.5539 8.32566 24.606 8.27333 24.6176C8.22682 24.6291 8.1745 24.606 8.16287 24.5539L7.91868 23.7146C7.74426 23.7088 7.27915 23.6625 6.90706 23.4136C6.86636 23.3847 6.85473 23.3326 6.8838 23.2921L6.88961 23.2978Z" fill="#A4681D"/>
<path d="M7.87791 23.593L7.86046 23.6856C7.86046 23.6856 7.77907 24.1602 8.05814 24.8722C7.94186 24.8317 7.79651 24.7912 7.68023 24.7796C7.63372 24.7796 7.59302 24.797 7.56977 24.8375C7.48837 24.9706 7.66279 25.3526 7.81977 25.6073C7.83139 25.6247 7.84302 25.642 7.85465 25.6536C7.9593 25.8041 8.05232 25.9199 8.13372 26.0009C7.73256 25.9836 7.69186 26.0299 7.66279 26.0646C7.63372 26.0993 7.65698 26.1688 7.65698 26.1688C8.00581 26.8865 9.02325 27.8647 10.2733 27.419H10.2907L10.3023 27.3959C11.25 26.464 10.8081 25.1269 10.314 24.5075C10.314 24.5075 10.2733 24.4612 10.2151 24.467C10.1686 24.4728 10.1105 24.4902 9.95349 24.8606C9.91279 24.7507 9.84884 24.6175 9.75581 24.4612C9.74418 24.4439 9.73256 24.4265 9.72674 24.4091C9.56395 24.1545 9.29651 23.8361 9.13953 23.8477C9.09302 23.8477 9.05814 23.8766 9.0407 23.9229C9 24.0329 8.97093 24.1834 8.9593 24.2992C8.43605 23.7435 7.99418 23.6104 7.97093 23.6046L7.87791 23.5814V23.593Z" fill="#A4681D"/>
<path d="M9.10467 24.7507L9.11629 24.5249C9.11629 24.5249 9.13374 24.2587 9.18606 24.0676C9.26164 24.1255 9.41281 24.2702 9.56397 24.5076C9.5756 24.5249 9.58722 24.5423 9.59885 24.5654C9.79653 24.9012 9.85467 25.15 9.85467 25.1558L9.91862 25.4568L10.0291 25.1674C10.093 24.9996 10.1744 24.8143 10.2268 24.7101C10.2558 24.7449 10.2791 24.7796 10.3082 24.8201C10.6977 25.4395 10.9477 26.5045 10.1919 27.2686C9.17443 27.6159 8.31978 26.927 7.93025 26.3077C7.90699 26.2672 7.88374 26.2267 7.86629 26.1862C7.97676 26.1862 8.18606 26.1861 8.36629 26.2035L8.67443 26.2325L8.43025 26.0472C8.43025 26.0472 8.22676 25.8909 8.01164 25.561C8.00002 25.5437 7.98839 25.5263 7.97676 25.5089C7.8256 25.2716 7.76164 25.0748 7.7442 24.9764C7.94188 25.0111 8.18606 25.1095 8.19188 25.1153L8.40118 25.2021L8.30816 24.9938C8.05816 24.4323 8.0349 24.0213 8.04071 23.8303C8.20932 23.9056 8.5756 24.1024 8.97095 24.577L9.11629 24.7507H9.10467Z" fill="white"/>
<path d="M8.55814 26.4814C8.57558 26.4351 8.62209 26.4061 8.6686 26.4235C9.01163 26.5335 9.38372 26.4814 9.56977 26.4466L9.06395 25.6479C8.92442 25.6768 8.56977 25.7347 8.2093 25.6073C8.16279 25.59 8.13953 25.5379 8.15698 25.4916C8.17442 25.4453 8.22674 25.4221 8.27325 25.4395C8.5407 25.5321 8.81395 25.5089 8.96511 25.4858L8.37209 24.5423C8.34884 24.5018 8.36046 24.4439 8.40116 24.4207C8.44186 24.3918 8.5 24.4092 8.52325 24.4497L9.11628 25.3932C9.20349 25.2716 9.34302 25.0343 9.37791 24.7507C9.37791 24.7044 9.43023 24.6639 9.47674 24.6696C9.52325 24.6696 9.56395 24.7217 9.55814 24.768C9.51744 25.1443 9.31395 25.4395 9.22093 25.5552L9.72674 26.354C9.84302 26.2035 10.0523 25.891 10.0988 25.5379C10.1047 25.4916 10.1512 25.4568 10.1977 25.4626C10.2442 25.4684 10.2791 25.5147 10.2733 25.561C10.2093 26.0067 9.93604 26.3772 9.82558 26.5161L10.2907 27.257C10.3198 27.2975 10.3023 27.3554 10.2616 27.3785C10.2209 27.4075 10.1628 27.3901 10.1395 27.3496L9.67442 26.6087C9.50581 26.6492 9.04651 26.7361 8.61628 26.5971C8.56977 26.5798 8.5407 26.5335 8.55814 26.4872V26.4814Z" fill="#A4681D"/>
<path d="M9.58722 26.4929L9.59885 26.5913C9.59885 26.5913 9.65699 27.0717 10.1163 27.6795C9.9942 27.6795 9.84303 27.6737 9.72675 27.6969C9.68024 27.7084 9.65117 27.7374 9.63954 27.7837C9.59885 27.9342 9.8721 28.2525 10.093 28.4551C10.1105 28.4667 10.1221 28.4783 10.1395 28.4956C10.2791 28.6172 10.4012 28.6982 10.5 28.7561C10.1105 28.8487 10.0872 28.9008 10.0698 28.9471C10.0523 28.9876 10.093 29.0513 10.093 29.0513C10.6279 29.6475 11.8721 30.3074 12.9535 29.5317L12.9709 29.5202L12.9826 29.5028C13.6337 28.3509 12.843 27.1817 12.1919 26.7244C12.1919 26.7244 12.1395 26.6897 12.0872 26.7129C12.0465 26.7302 11.9942 26.7649 11.9419 27.1585C11.8721 27.0659 11.7791 26.956 11.6454 26.8286C11.6337 26.817 11.6163 26.7997 11.6047 26.7881C11.3779 26.5855 11.0349 26.354 10.8895 26.4119C10.8488 26.4292 10.8198 26.464 10.814 26.5103C10.8023 26.6318 10.8198 26.7765 10.8372 26.8981C10.1802 26.5103 9.71513 26.5045 9.69768 26.5045H9.59885L9.58722 26.4929Z" fill="#A4681D"/>
<path d="M11.0931 27.2685L11.0407 27.0485C11.0407 27.0485 10.9826 26.788 10.9826 26.5854C11.0756 26.6202 11.2558 26.7186 11.4651 26.9038C11.4826 26.9154 11.4942 26.9327 11.5117 26.9501C11.7965 27.2164 11.9186 27.4421 11.9186 27.4421L12.064 27.7142L12.0872 27.4074C12.0989 27.2279 12.1279 27.0254 12.1512 26.9154C12.1861 26.9443 12.221 26.9675 12.2558 27.0022C12.8024 27.4942 13.3431 28.4435 12.8198 29.387C11.9361 30.0005 10.9244 29.5722 10.3779 29.086C10.3431 29.057 10.314 29.0223 10.2791 28.9876C10.3837 28.9529 10.5872 28.9008 10.7617 28.8718L11.064 28.8139L10.7791 28.6982C10.7791 28.6982 10.5407 28.5998 10.2384 28.3509C10.221 28.3335 10.2035 28.3219 10.1919 28.3104C9.98259 28.1193 9.86049 27.9515 9.8198 27.8647C10.0175 27.8415 10.2849 27.8704 10.2849 27.8704L10.5117 27.8994L10.3663 27.7257C9.96514 27.2569 9.83142 26.8633 9.78491 26.6838C9.97096 26.707 10.3779 26.7996 10.8896 27.1411L11.0814 27.2685H11.0931Z" fill="white"/>
<path d="M11.0407 29.086C11.0407 29.0339 11.0814 28.9992 11.1337 28.9992C11.4942 29.0108 11.8372 28.8603 12.0058 28.7734L11.3023 28.1425C11.1744 28.212 10.8488 28.3625 10.4709 28.3393C10.4244 28.3393 10.3837 28.293 10.3895 28.2467C10.3895 28.2004 10.436 28.1599 10.4825 28.1657C10.7674 28.183 11.0232 28.0846 11.1628 28.021L10.3314 27.2743C10.2965 27.2396 10.2907 27.1875 10.3256 27.1469C10.3604 27.1122 10.4128 27.1064 10.4535 27.1412L11.2849 27.8878C11.3372 27.7431 11.4011 27.4827 11.3546 27.199C11.3488 27.1527 11.3779 27.1064 11.4302 27.0948C11.4767 27.0891 11.5232 27.118 11.5349 27.1701C11.5988 27.5463 11.4884 27.8821 11.4302 28.0152L12.1337 28.6461C12.2035 28.4725 12.3139 28.1136 12.2674 27.7605C12.2616 27.7142 12.2965 27.6679 12.343 27.6621C12.3895 27.6563 12.436 27.691 12.4418 27.7373C12.5058 28.183 12.343 28.6172 12.2732 28.7734L12.9244 29.3581C12.9593 29.3928 12.9651 29.4449 12.9302 29.4854C12.8953 29.5201 12.843 29.5259 12.8023 29.4912L12.1511 28.9066C12 28.9934 11.5814 29.2018 11.1337 29.1844C11.0872 29.1844 11.0465 29.1439 11.0465 29.0918L11.0407 29.086Z" fill="#A4681D"/>
<path d="M12.0349 28.814L12.0698 28.9066C12.0698 28.9066 12.2558 29.3523 12.8663 29.8096C12.75 29.8385 12.6046 29.879 12.5 29.9311C12.4593 29.9543 12.436 29.989 12.436 30.0353C12.436 30.1916 12.7849 30.4231 13.0581 30.5505C13.0756 30.5563 13.093 30.5678 13.1105 30.5736C13.2791 30.6489 13.4186 30.6952 13.5291 30.7241C13.1802 30.9209 13.1686 30.9788 13.1686 31.0251C13.1686 31.0714 13.2151 31.1177 13.2151 31.1177C13.8953 31.5461 15.2733 31.8297 16.0988 30.7936L16.1105 30.7762V30.7589C16.4244 29.4681 15.3372 28.5709 14.5814 28.3046C14.5814 28.3046 14.5233 28.2873 14.4767 28.322C14.4419 28.3509 14.4012 28.3972 14.4651 28.7908C14.3721 28.7214 14.25 28.6404 14.0872 28.5535C14.0698 28.542 14.0523 28.5362 14.0349 28.5246C13.7616 28.3915 13.3663 28.2641 13.2384 28.3567C13.2035 28.3857 13.186 28.4262 13.1919 28.4725C13.2151 28.5883 13.2733 28.7272 13.3256 28.8372C12.5872 28.6404 12.1395 28.7677 12.1163 28.7735L12.0233 28.8024L12.0349 28.814Z" fill="#A4681D"/>
<path d="M13.6977 29.1497L13.5872 28.9529C13.5872 28.9529 13.4593 28.7156 13.4012 28.5246C13.4942 28.5304 13.7035 28.5767 13.9535 28.6982C13.971 28.7098 13.9942 28.7156 14.0117 28.7272C14.3605 28.9066 14.5407 29.086 14.5407 29.0918L14.7558 29.3118L14.6977 29.0108C14.6628 28.8372 14.6337 28.6346 14.6221 28.5188C14.6628 28.5362 14.7035 28.5477 14.75 28.5709C15.4128 28.8892 16.1919 29.6591 15.9535 30.7068C15.2733 31.5403 14.1861 31.4071 13.5233 31.0888C13.4826 31.0656 13.4419 31.0425 13.4012 31.0251C13.4942 30.9614 13.6744 30.8573 13.8314 30.7762L14.1047 30.6373L13.7965 30.6084C13.7965 30.6084 13.5407 30.5794 13.1803 30.4231C13.1628 30.4116 13.1396 30.4058 13.1221 30.3942C12.8663 30.2726 12.7035 30.1395 12.6396 30.0701C12.8256 29.9948 13.0872 29.9485 13.0931 29.9485L13.3198 29.9138L13.1279 29.7864C12.6163 29.4449 12.3779 29.1034 12.2849 28.9413C12.471 28.9124 12.8837 28.8892 13.471 29.0803L13.6861 29.1497H13.6977Z" fill="white"/>
<path d="M14.157 30.9094C14.1453 30.8631 14.1744 30.811 14.2209 30.7994C14.5697 30.7126 14.8604 30.4694 14.9942 30.3421L14.1395 29.9311C14.0349 30.0295 13.7674 30.2669 13.3895 30.3479C13.343 30.3595 13.2907 30.3305 13.2849 30.2784C13.2732 30.2321 13.3023 30.18 13.3546 30.1742C13.6337 30.1106 13.8546 29.9485 13.9651 29.8501L12.9593 29.3639C12.9128 29.3407 12.8953 29.2886 12.9186 29.2423C12.9418 29.196 12.9942 29.1787 13.0407 29.2018L14.0465 29.688C14.0523 29.5375 14.0465 29.2655 13.9244 29.005C13.9011 28.9587 13.9244 28.9066 13.9651 28.8835C14.0116 28.8603 14.0639 28.8835 14.0872 28.924C14.25 29.2655 14.2383 29.6244 14.2209 29.7633L15.0756 30.1742C15.093 29.989 15.1046 29.6128 14.9593 29.2886C14.9418 29.2423 14.9593 29.1902 15.0058 29.1729C15.0523 29.1497 15.1046 29.1729 15.1221 29.2192C15.3081 29.6302 15.2732 30.0932 15.25 30.2611L16.0407 30.6431C16.0872 30.6663 16.1046 30.7183 16.0814 30.7647C16.0581 30.811 16.0058 30.8283 15.9593 30.8052L15.1686 30.4231C15.0465 30.5447 14.7035 30.8631 14.2674 30.973C14.2209 30.9846 14.1686 30.9557 14.157 30.9094Z" fill="#A4681D"/>
<path d="M19.0872 28.7619C18.7616 28.5536 17.4477 27.8474 16.0698 28.7388L16.0174 28.7735L15.5465 32.3101L15.7907 32.1828C17.5407 31.2509 18.9535 32.206 19.0116 32.2465L19.093 32.3044L19.1744 32.2465C19.2326 32.206 20.6453 31.2567 22.3953 32.1828L22.6395 32.3101L22.1686 28.7735L22.1163 28.7388C20.7384 27.8416 19.4244 28.5536 19.0988 28.7619H19.0872Z" fill="#A4681D"/>
<path d="M19.1686 29.0455C19.2209 29.005 20.5 28.0905 21.8953 28.9529C21.9128 29.0745 22.2267 31.4129 22.279 31.8355C20.6918 31.1235 19.407 31.7776 19.0872 31.9744C18.7674 31.7776 17.4767 31.1235 15.8953 31.8355C15.9535 31.4187 16.2616 29.0803 16.279 28.9529C17.6744 28.0905 18.9476 29.005 19.0058 29.0455L19.0872 29.1092L19.1744 29.0455H19.1686Z" fill="white"/>
<path d="M19.2268 28.8777H18.9419V29.1903H19.2268V28.8777Z" fill="#A4681D"/>
<path d="M19.2268 31.3376H18.9419V32.0612H19.2268V31.3376Z" fill="#A4681D"/>
<path d="M17.1919 29.4449H17.4884V31.1235H17.1512V29.827L16.8663 30.0585L16.6977 29.8385L17.1919 29.4449Z" fill="#A4681D"/>
<path d="M18.407 30.2843C18.2442 30.2843 18.1802 30.1338 18.1802 29.9717C18.1802 29.8212 18.2442 29.6707 18.4012 29.6707C18.5698 29.6707 18.6337 29.8096 18.6337 29.9717C18.6337 30.1395 18.5698 30.29 18.407 30.29V30.2843ZM17.9244 31.0946C18.0407 31.1351 18.157 31.1525 18.2791 31.1525C18.8256 31.1525 18.9709 30.6547 18.9709 30.1974C18.9709 29.8038 18.8663 29.416 18.4012 29.416C18.0174 29.416 17.843 29.6591 17.843 30.018C17.843 30.3306 18.0174 30.5274 18.3372 30.5274C18.4826 30.5274 18.5814 30.4753 18.6628 30.3595C18.6512 30.6142 18.5523 30.8862 18.2616 30.8862C18.1453 30.8862 18.0581 30.8573 17.9651 30.8168L17.9186 31.0888L17.9244 31.0946Z" fill="#A4681D"/>
<path d="M19.1105 29.4449H20.1977V29.7228L19.5988 31.1235H19.2326L19.8605 29.7112H19.1163V29.4449H19.1105Z" fill="#A4681D"/>
<path d="M20.9826 30.2843C20.8198 30.2843 20.7559 30.1338 20.7559 29.9717C20.7559 29.8212 20.8198 29.6707 20.9768 29.6707C21.1454 29.6707 21.2093 29.8096 21.2093 29.9717C21.2093 30.1395 21.1454 30.29 20.9826 30.29V30.2843ZM20.5 31.0946C20.6163 31.1351 20.7326 31.1525 20.8547 31.1525C21.4012 31.1525 21.5465 30.6547 21.5465 30.1974C21.5465 29.8038 21.4419 29.416 20.9768 29.416C20.5931 29.416 20.4186 29.6591 20.4186 30.018C20.4186 30.3306 20.5931 30.5274 20.9128 30.5274C21.0524 30.5274 21.157 30.4753 21.2384 30.3595C21.2268 30.6142 21.1279 30.8862 20.8372 30.8862C20.721 30.8862 20.6338 30.8573 20.5407 30.8168L20.5 31.0888V31.0946Z" fill="#A4681D"/>
<path d="M2.59305 17.2722L2.59886 16.9596L4.4477 16.9712V17.2837L3.60468 17.278L4.44189 18.0131L4.43026 18.4067L3.657 17.6947L2.58142 18.4703L2.59305 18.0709L3.407 17.4632L3.19189 17.278L2.59305 17.2722Z" fill="#A46A28"/>
<path d="M2.78487 20.1547C2.57557 19.9985 2.47092 19.7727 2.47673 19.4717C2.47673 19.1592 2.5872 18.9334 2.80231 18.7829C2.97092 18.6614 3.18603 18.6035 3.44185 18.6093C3.69185 18.6093 3.90696 18.6787 4.08138 18.8061C4.2965 18.9682 4.40115 19.1997 4.40115 19.5007C4.40115 19.7959 4.28487 20.0216 4.06975 20.1721C3.89534 20.2937 3.68022 20.3573 3.41859 20.3516C3.16278 20.3516 2.94766 20.2821 2.77906 20.1547M4.02324 19.8595C4.16278 19.7554 4.18603 19.6975 4.18603 19.4891C4.18603 19.4138 4.16278 19.1939 4.02906 19.0839C3.89534 18.9739 3.70348 18.9161 3.44766 18.9161C3.18603 18.9161 2.98836 18.9624 2.85464 19.0723C2.72673 19.1765 2.70348 19.3386 2.70348 19.4717C2.70348 19.5875 2.72673 19.7206 2.85464 19.8306C2.98254 19.9464 3.18022 20.0043 3.44185 20.01C3.69766 20.01 3.89534 19.9637 4.02906 19.8595H4.02324Z" fill="#A46A28"/>
<path d="M2.65117 21.4108L2.56396 21.0809L4.33722 20.5426L4.55234 21.3124C4.59885 21.4803 4.60466 21.6134 4.56978 21.7234C4.52327 21.8681 4.40699 21.9665 4.22094 22.0244C4.09885 22.0649 3.9942 22.0649 3.9128 22.0418C3.84303 22.0244 3.79071 21.9839 3.75001 21.9202C3.73838 21.9955 3.71513 22.0476 3.69187 22.0765C3.65117 22.1344 3.57559 22.1807 3.46513 22.2154L3.17443 22.3196H3.16862C3.11629 22.3428 3.08722 22.3601 3.06978 22.3775C3.04652 22.3948 3.02908 22.4296 3.02327 22.4701L2.9535 22.4875L2.85466 22.1402C2.88955 22.1112 2.96513 22.0765 3.06978 22.0302C3.14536 22.0012 3.23257 21.9723 3.33722 21.9376C3.43606 21.9028 3.48257 21.8565 3.51164 21.8044C3.54652 21.7466 3.55234 21.6655 3.52908 21.5671L3.4128 21.1677L2.64536 21.4051M3.69187 21.0809L3.79652 21.4514C3.83141 21.5671 3.86629 21.6655 3.93024 21.7003C4.01164 21.7466 4.06978 21.7755 4.14536 21.7524C4.26164 21.7176 4.23838 21.6887 4.27327 21.6019C4.29652 21.5382 4.31396 21.4977 4.2849 21.4051L4.15117 20.9362L3.69769 21.0809H3.69187Z" fill="#A46A28"/>
<path d="M3.69183 24.3224L3.16858 23.0953L4.86044 22.3138L5.37207 23.5294L5.15114 23.6336L4.76742 22.7364L4.29649 22.9621L4.63951 23.7783L4.41277 23.8651L4.06974 23.0547L3.54067 23.3036L3.92439 24.2124L3.69183 24.3224Z" fill="#A46A28"/>
<path d="M4.3721 24.878L3.82559 24.959L3.68024 24.6638L5.63372 24.3976L5.73256 24.5944L4.40698 26.1167L4.21512 25.8504L4.61628 25.4047L4.36628 24.8838M4.85466 25.2311L5.32559 24.7044L4.65698 24.8028L4.85466 25.2311Z" fill="#A46A28"/>
<path d="M8.1163 28.7272L8.29653 28.9992L6.7849 30.1106L6.59304 29.827L7.18606 28.3857L6.157 29.1555L5.94769 28.8661L7.45932 27.7548L7.65118 28.021L7.06397 29.4912L8.1163 28.7272Z" fill="#A46A28"/>
<path d="M7.90119 30.4173L7.36049 30.6546L7.12793 30.3884L8.95351 29.6185L9.09305 29.7806L8.17444 31.6039L7.95932 31.3724L8.24421 30.8341L7.89537 30.4173M8.38956 30.5678L8.70932 30.0295L8.12793 30.2726L8.39537 30.5678H8.38956Z" fill="#A46A28"/>
<path d="M9.36049 30.099L10.4419 31.0772L10.2442 31.2972L9.81398 30.9151L8.80235 32.1538L8.55817 31.9223L9.57561 30.6778L9.16282 30.319L9.36049 30.099Z" fill="#A46A28"/>
<path d="M10.157 32.9874L9.87793 32.808L10.8954 31.1873L11.1744 31.3725L10.157 32.9874Z" fill="#A46A28"/>
<path d="M11.8314 33.763C11.593 33.8672 11.3546 33.8383 11.1163 33.682C10.8663 33.5141 10.7384 33.3 10.7267 33.0279C10.7209 32.8138 10.7849 32.5938 10.9186 32.3623C11.0523 32.1365 11.2209 31.986 11.4128 31.8934C11.657 31.7834 11.9012 31.8124 12.1453 31.9745C12.3895 32.1365 12.5116 32.3507 12.5233 32.6227C12.5291 32.8427 12.4651 33.0684 12.3314 33.2942C12.1919 33.5199 12.0291 33.6762 11.8372 33.763M12.2326 32.5128C12.2209 32.4491 12.1919 32.3796 12.1453 32.3218C12.0174 32.1539 11.8081 32.0555 11.6046 32.1307C11.4477 32.1944 11.3023 32.3102 11.1628 32.5359C11.0349 32.7501 10.9535 33.0858 11.0872 33.2826C11.2791 33.5662 11.6395 33.6068 11.8779 33.3636C11.9477 33.2884 12.0174 33.2016 12.0698 33.1147C12.1744 32.9353 12.2733 32.7096 12.2326 32.507V32.5128Z" fill="#A46A28"/>
<path d="M14.093 32.8774L14.3605 32.9931L13.6454 34.7759L13.3663 34.6486L13.157 33.0799L12.6686 34.3476L12.3837 34.226L13.0988 32.4432L13.3663 32.559L13.5988 34.1797L14.093 32.8774Z" fill="#A46A28"/>
<path d="M14.75 34.3475L14.4477 34.8743L14.1628 34.8106L15.2035 33.0568L15.4128 33.1031L15.7035 35.1405L15.4128 35.0827L15.3314 34.4749L14.7558 34.3475M15.3488 34.1855L15.2325 33.4909L14.8721 34.0813L15.3488 34.1855Z" fill="#A46A28"/>
<path d="M16.3547 35.0769L17.221 35.21L17.1861 35.4705L16.0349 35.3084L16.2907 33.3867L16.5698 33.4214L16.3547 35.0769Z" fill="#A46A28"/>
<path d="M18.9128 35.4416H18.6105V33.5026H19.3895C19.5756 33.5026 19.7151 33.5489 19.8023 33.6415C19.8895 33.7283 19.9361 33.8672 19.9361 34.0524C19.9361 34.2377 19.8895 34.3766 19.8023 34.4692C19.7151 34.5618 19.564 34.6023 19.3663 34.6023H18.9186V35.4416M18.9186 34.3361C18.9186 34.3361 19.3081 34.3361 19.314 34.3361C19.4186 34.3361 19.5407 34.3303 19.6279 34.2608C19.7384 34.1682 19.7268 33.9946 19.6512 33.8846C19.5872 33.7862 19.4593 33.7746 19.3488 33.7746H18.9186V34.3361Z" fill="#A46A28"/>
<path d="M21.8372 34.9901C21.7093 35.2217 21.5058 35.3548 21.2151 35.378C20.9186 35.4069 20.6919 35.3143 20.5233 35.1059C20.3895 34.938 20.314 34.7239 20.2907 34.4576C20.2674 34.1971 20.3081 33.9656 20.4128 33.7688C20.5465 33.5315 20.75 33.3926 21.0407 33.3694C21.3256 33.3405 21.5523 33.4331 21.7151 33.6473C21.8488 33.8209 21.9302 34.0351 21.9535 34.3013C21.9768 34.5676 21.9361 34.7991 21.8314 34.9901M21.4419 33.8035C21.3605 33.7109 21.2849 33.6473 21.1628 33.6357C20.9477 33.6125 20.7849 33.7109 20.6744 33.8962C20.5756 34.064 20.564 34.2492 20.5814 34.4403C20.593 34.6081 20.6395 34.7818 20.7442 34.9207C20.843 35.048 21 35.1175 21.157 35.1117C21.3372 35.1117 21.4768 34.9843 21.564 34.8223C21.6512 34.666 21.6628 34.4981 21.6512 34.3187C21.6337 34.1161 21.5698 33.954 21.4419 33.8035Z" fill="#A46A28"/>
<path d="M22.7907 34.6313L23.6337 34.4692L23.686 34.747L22.5407 34.9612L22.2151 33.0569L22.5116 33.0048L22.7907 34.6313Z" fill="#A46A28"/>
<path d="M24.4303 34.4981L24.1163 34.6023L23.5582 32.7616L23.8663 32.6516L24.4303 34.4981Z" fill="#A46A28"/>
<path d="M25.5872 32.6979C25.5872 32.6979 25.4942 32.5532 25.4825 32.5417C25.436 32.4954 25.3837 32.4664 25.3198 32.4491C25.2035 32.4201 25.0639 32.4317 24.9709 32.5069C24.907 32.559 24.8488 32.6401 24.8139 32.7153C24.7442 32.86 24.7267 33.0279 24.7442 33.1842C24.7674 33.4446 24.8953 33.7514 25.157 33.8382C25.2267 33.8614 25.3198 33.8672 25.3895 33.8556C25.5058 33.8267 25.593 33.7688 25.6628 33.682C25.7442 33.5662 25.7558 33.5257 25.75 33.3289L26.0174 33.2652C26.0407 33.5662 25.9767 33.7919 25.8198 33.9482C25.7267 34.0466 25.5988 34.1103 25.4418 34.1508C25.2325 34.1971 25.0407 34.1624 24.8721 34.0408C24.6744 33.9019 24.5407 33.6646 24.4709 33.3347C24.407 33.0395 24.4244 32.7906 24.5116 32.588C24.6105 32.3738 24.7849 32.2349 25.0465 32.1712C25.2674 32.1191 25.4477 32.1365 25.5872 32.2291C25.7093 32.3101 25.8023 32.4433 25.8605 32.6285L25.5872 32.6864V32.6979Z" fill="#A46A28"/>
<path d="M27.936 33.0047L26.7791 33.5894L25.9767 31.8471L27.1221 31.274L27.2326 31.5172L26.3663 31.9571L26.5872 32.4259L27.3663 32.0381L27.4884 32.287L26.6919 32.6922L26.9302 33.2131L27.8256 32.7674L27.936 33.0047Z" fill="#A46A28"/>
<path d="M29.1105 29.8328L29.8314 30.9152C29.9477 31.0888 29.9884 31.2509 29.9651 31.4014C29.9361 31.5692 29.7616 31.7776 29.5698 31.9223C29.3721 32.067 29.1977 32.1191 29.0407 32.0844C28.907 32.0497 28.7849 31.9513 28.6744 31.7834L27.9477 30.6952L28.2093 30.5158L28.9012 31.5229C28.9884 31.6503 29.0756 31.7197 29.1686 31.7371C29.2616 31.7487 29.2965 31.7545 29.4244 31.6619C29.5465 31.575 29.6163 31.4824 29.6396 31.384C29.6628 31.274 29.6337 31.1525 29.5407 31.0194L28.8605 30.0296L29.1105 29.8328Z" fill="#A46A28"/>
<path d="M30.1454 28.8603L30.4186 28.6288L31.6221 30.0932L31.3547 30.3421L30.0116 29.8559L30.8488 30.7994L30.5872 31.0251L29.3837 29.5549L29.6105 29.3697L31.0872 29.8964L30.1454 28.8603Z" fill="#A46A28"/>
<path d="M32.1802 29.3755L31.9419 29.6186L30.6163 28.27L30.8605 28.0269L32.1802 29.3755Z" fill="#A46A28"/>
<path d="M31.6861 26.6782L31.8488 26.3945L33.1047 28.021L32.9884 28.2178L31.0407 27.7374L31.2326 27.4422L32.5349 27.7721L31.6861 26.6782Z" fill="#A46A28"/>
<path d="M34.2674 26.0067L33.593 27.147L32.0233 26.1282L32.6919 24.9995L32.9302 25.1326L32.4128 25.9777L32.8314 26.2671L33.3023 25.5031L33.5174 25.6478L33.0465 26.4119L33.5233 26.7302L34.0523 25.8735L34.2674 26.0067Z" fill="#A46A28"/>
<path d="M34.4709 25.0516L34.3604 25.3352L32.6453 24.6117L32.9302 23.865C32.9942 23.7029 33.0697 23.593 33.1628 23.5293C33.2849 23.4483 33.436 23.4425 33.6163 23.5177C33.7325 23.5698 33.8197 23.6277 33.8663 23.7029C33.907 23.7608 33.9244 23.8303 33.9244 23.9055C33.9767 23.8534 34.0232 23.8303 34.0581 23.8187C34.1221 23.8013 34.2093 23.8187 34.3197 23.8592L34.6104 23.9692H34.6163C34.6686 23.9866 34.7035 23.9924 34.7209 23.9924C34.75 23.9924 34.779 23.975 34.8139 23.9518L34.8779 23.9808L34.7442 24.3165C34.6976 24.3165 34.6221 24.2991 34.5116 24.2644C34.436 24.2355 34.3953 24.2181 34.2965 24.1776C34.1976 24.1429 34.1163 24.1371 34.0581 24.1544C33.9942 24.1776 33.9418 24.2355 33.9069 24.3281L33.75 24.7506L34.4651 25.0574M33.4942 24.6464L33.6395 24.2818C33.686 24.166 33.6976 24.0734 33.6802 24.0039C33.657 23.9113 33.6279 23.8592 33.5058 23.8071C33.3953 23.7608 33.3546 23.7782 33.279 23.8187C33.2209 23.8534 33.1744 23.9171 33.1395 24.0039L32.9709 24.4265L33.4883 24.6464H33.4942Z" fill="#A46A28"/>
<path d="M34.0698 22.0648C34.0698 22.0648 33.9825 22.0533 33.9709 22.059C33.907 22.0706 33.8605 22.1111 33.8198 22.1517C33.6453 22.3253 33.7325 22.8173 34.0291 22.6495C34.0872 22.6147 34.1279 22.5858 34.2558 22.4179C34.3953 22.2443 34.5756 22.059 34.7965 22.0301C35.0116 21.9954 35.2616 22.1227 35.3314 22.3485C35.4244 22.6321 35.2791 23.0894 35.0523 23.2746C34.8837 23.4135 34.6744 23.4077 34.4767 23.3556C34.5058 23.263 34.5407 23.1357 34.5581 23.0373C34.7093 23.0778 34.8953 23.0836 35 22.9389C35.0814 22.8289 35.1512 22.6552 35.093 22.5163C35.0232 22.3485 34.8314 22.3427 34.6977 22.4179C34.5872 22.4758 34.5 22.58 34.4186 22.6784C34.2732 22.8578 34.1395 22.9331 34.0698 22.9794C33.9709 23.0431 33.8546 23.0546 33.7209 23.0025C33.5814 22.9562 33.4884 22.8694 33.436 22.7421C33.3895 22.6089 33.3953 22.4411 33.4535 22.2443C33.5291 22.007 33.6395 21.8565 33.7849 21.7928C33.8895 21.7465 34.0174 21.7465 34.1628 21.7928C34.1628 21.7928 34.0639 22.0706 34.0639 22.0764L34.0698 22.0648Z" fill="#A46A28"/>
<path d="M35.4593 21.1851L35.3779 21.5266L33.5756 21.1156L33.6511 20.7683L35.4593 21.1851Z" fill="#A46A28"/>
<path d="M33.7093 20.5716L33.8663 19.084L34.1744 19.1129L34.1105 19.6802L35.6395 19.8654L35.593 20.2243L34.0814 20.0448L34.0174 20.6005L33.7093 20.5716Z" fill="#A46A28"/>
<path d="M35.6512 18.0536L35.6337 18.4125L34.8779 18.3951L33.7733 19.0029L33.7791 18.6498L34.5233 18.2215L33.8081 17.6542L33.8198 17.2722L34.8837 18.0363L35.6512 18.0536Z" fill="#A46A28"/>
<path d="M6.6163 26.4235L6.79653 26.6955L5.2849 27.8069L5.09304 27.5232L5.68606 26.082L4.657 26.8576L4.44769 26.5624L5.95932 25.451L6.15118 25.7173L5.56397 27.1875L6.6163 26.4235Z" fill="#A46A28"/>
</g>
<defs>
<clipPath id="clip0_774_7442">
<rect width="151" height="38" fill="white"/>
</clipPath>
</defs>
</svg>
