<svg width="151" height="38" viewBox="0 0 151 38" fill="none" xmlns="http://www.w3.org/2000/svg">
<g clip-path="url(#clip0_774_9558)">
<path d="M65.8372 19.0376C64.25 17.7005 62.3954 17.0291 60.2733 17.0291C58.1512 17.0291 56.3081 17.7005 54.7384 19.0376C53.0756 20.4673 52.2384 22.2675 52.2384 24.4381C52.2384 26.6087 53.0698 28.3741 54.7384 29.8096C56.3081 31.164 58.157 31.8471 60.2733 31.8471C62.3895 31.8471 64.25 31.1698 65.8372 29.8096C67.5407 28.3799 68.3895 26.5855 68.3895 24.4381C68.3895 22.2906 67.5407 20.4731 65.8372 19.0376ZM63.1105 27.147C62.314 27.8647 61.3895 28.2236 60.3256 28.2236C59.2616 28.2236 58.3372 27.8647 57.5407 27.147C56.7093 26.3945 56.2907 25.4915 56.2907 24.4323C56.2907 23.373 56.7093 22.4527 57.5407 21.7176C58.3372 21.023 59.2616 20.6699 60.3256 20.6699C61.3895 20.6699 62.3314 21.0172 63.1105 21.7176C63.9244 22.4353 64.3314 23.3383 64.3314 24.4323C64.3314 25.5263 63.9244 26.4119 63.1105 27.147ZM65.2674 6.43076H69.2674V17.9321H65.2674V16.0682H61.6628V12.8731H65.2674V11.2061H61.6628V8.01095H65.2674V6.43076ZM55.9302 16.6355C53.5465 18.0305 50.5 18.7829 46.7907 18.8987V15.2521C50.064 15.1595 52.5698 14.5285 54.314 13.3593C55.75 12.3811 56.4709 11.2119 56.4709 9.85741H47.157V6.43654H60.6686V8.32931C60.6686 12.0396 59.0872 14.8122 55.9302 16.6413V16.6355ZM74.2849 18.3604H95.4361V25.8793H78.2907V26.9791H95.4361V30.4579H76.2442C75.5814 30.4579 75.0988 30.319 74.7965 30.0353C74.4535 29.6938 74.2849 29.1324 74.2849 28.3394V22.8H91.4302V21.7234H74.2849V18.3604ZM77.0698 15.9872C75.6337 16.6297 74.1861 16.9596 72.7267 16.977V13.3883C74.3547 13.1799 75.6047 12.8326 76.4767 12.3406C77.2326 11.9065 77.7442 11.3624 78.0116 10.7025H72.9593V7.33951H78.3256V5.13418H82.5V7.33951H87.8372V10.7025H82.6686C82.9535 11.345 83.4942 11.8775 84.2849 12.3116C85.2093 12.821 86.4826 13.1683 88.0872 13.3593V16.977C86.4419 16.9423 84.9244 16.6007 83.5465 15.9583C82.1628 15.3158 81.1337 14.4765 80.4535 13.4404C79.7326 14.4765 78.6105 15.3273 77.0756 15.9814L77.0698 15.9872ZM95.4361 9.85162H98.6744V13.3825H95.4361V17.1159H91.4361V6.43076H95.4361V9.85162ZM117.767 6.43076H121.599V30.5678H117.767V17.4806H116.122V30.5678H112.372V25.2832H101.047C100.384 25.2832 99.9012 25.1442 99.5988 24.8606C99.2791 24.5191 99.1163 23.9576 99.1163 23.1646V6.43076H110.442V9.9616H103.145V21.7465H112.372V6.43076H116.122V13.8918H117.767V6.43076ZM126.61 20.2531H147.762V30.5678H143.762V23.784H126.616V20.2531H126.61ZM126.041 13.1567C126.041 14.8932 126.733 16.3345 128.11 17.4806C129.395 18.5572 130.919 19.0897 132.68 19.0897C134.442 19.0897 135.924 18.5514 137.192 17.4806C138.552 16.3287 139.238 14.8874 139.238 13.1567C139.238 12.7052 139.151 12.2538 138.983 11.8023C138.849 11.4087 138.651 11.0209 138.384 10.6446H140.058V7.33951H134.808V5.13418H130.552V7.33951H125.215V10.6446H126.86C126.593 11.0209 126.39 11.4202 126.238 11.8312C126.105 12.2653 126.041 12.7052 126.041 13.1567ZM130.779 11.3739C131.291 10.9051 131.924 10.6678 132.68 10.6678C133.436 10.6678 134.023 10.9051 134.552 11.3739C135.081 11.8659 135.349 12.4679 135.349 13.1799C135.349 13.8571 135.081 14.4417 134.552 14.9337C134.023 15.4431 133.395 15.6978 132.68 15.6978C131.924 15.6978 131.291 15.4431 130.779 14.9337C130.25 14.4417 129.983 13.8571 129.983 13.1799C129.983 12.4621 130.25 11.8602 130.779 11.3739ZM150.994 10.2163V13.7471H147.756V18.3546H143.756V6.43076H147.756V10.2163H150.994ZM19.0872 22.4527C18.7326 22.9852 18.0116 23.1299 17.4767 22.771C16.9419 22.418 16.7965 21.6944 17.157 21.1677C17.5756 20.5484 18.2849 20.1374 19.093 20.1374C20.3779 20.1374 21.4186 21.1735 21.4186 22.4527C21.4186 22.9273 21.2733 23.3672 21.0291 23.7377C21.3837 23.2052 21.2442 22.4874 20.7035 22.1343C20.1686 21.7813 19.4477 21.926 19.093 22.4527H19.0872ZM25.5349 13.886L26.5291 16.0335H24.5349V16.0219L25.5291 13.886H25.5349ZM26.0407 14.4186C26.7791 14.3202 27.4767 14.1639 28.1279 13.9729C28.0988 14.1928 27.9535 14.6848 27.2849 14.9164C26.9884 15.0206 26.6686 15.0726 26.3547 15.09L26.0349 14.4186H26.0407ZM26.7733 15.9756L26.4593 15.31C26.7674 15.2868 27.0756 15.2347 27.3663 15.1363C27.407 15.1247 27.4419 15.1074 27.4826 15.09C27.3721 15.5299 27.1395 15.8251 26.7733 15.9756ZM22.2326 19.7206C22.2326 19.7206 22.2674 19.6685 22.2674 19.6396C22.2674 19.6107 22.2558 19.5817 22.2326 19.5586C22.2093 19.5354 22.186 19.5238 22.157 19.5238C22.1454 19.5238 22.1337 19.5238 22.1221 19.5238C22.1047 19.5238 22.0872 19.5354 22.0756 19.5528L20.9884 20.6583C20.9128 20.5773 20.8256 20.4963 20.7384 20.4268L21.7093 19.1302C21.8488 18.945 22.0523 18.8061 22.2616 18.8061C22.4884 18.8061 22.6977 18.9045 22.8547 19.1186C23.0349 19.3618 23.1802 19.547 23.343 19.6859C22.9942 19.929 22.1221 20.5368 21.3256 21.0924C21.2616 20.9883 21.1919 20.8899 21.1163 20.7972L22.2384 19.7148L22.2326 19.7206ZM20.9302 18.7366C20.9302 18.7366 20.9419 18.7019 20.9419 18.6845C20.9419 18.673 20.9419 18.6614 20.936 18.6498C20.9244 18.6209 20.907 18.5977 20.8779 18.5861C20.8488 18.5745 20.8198 18.5745 20.7907 18.5861C20.7616 18.5919 20.7384 18.6151 20.7267 18.6382L20.0407 20.0332C19.9302 19.9869 19.814 19.9522 19.6919 19.9232C19.9767 18.9971 20.2849 17.9841 20.407 17.579C20.593 17.6947 20.814 17.7758 21.0988 17.8684C21.3488 17.9552 21.5058 18.1173 21.5814 18.3314C21.6453 18.534 21.5814 18.7656 21.4419 18.9508L20.5058 20.2763C20.4128 20.2126 20.3081 20.1605 20.2093 20.1084L20.9244 18.7424L20.9302 18.7366ZM17.2384 18.6498C17.2384 18.6498 17.2326 18.673 17.2326 18.6845C17.2326 18.7019 17.2326 18.7193 17.2442 18.7366L17.9593 20.1027C17.8547 20.1547 17.7558 20.2068 17.6628 20.2705L16.7267 18.945C16.5872 18.754 16.5233 18.5225 16.5872 18.3257C16.657 18.1115 16.814 17.9436 17.0698 17.8626C17.3547 17.77 17.5756 17.6889 17.7616 17.5732C17.8837 17.9784 18.1977 18.9913 18.4767 19.9174C18.3605 19.9464 18.2442 19.9811 18.1279 20.0274L17.4419 18.6324C17.4419 18.6324 17.407 18.5861 17.3779 18.5803C17.3488 18.5688 17.3198 18.5688 17.2907 18.5803C17.2616 18.5919 17.2442 18.6151 17.2384 18.644V18.6498ZM15.9419 19.5643C15.9419 19.5643 15.907 19.6164 15.907 19.6454C15.907 19.6743 15.9186 19.7033 15.9419 19.7264L17.064 20.8088C16.9884 20.9014 16.9186 20.9998 16.8547 21.104C16.0581 20.5483 15.186 19.9406 14.8372 19.6975C15.0058 19.5528 15.1512 19.3733 15.3256 19.1302C15.4826 18.9161 15.686 18.8177 15.9186 18.8177C16.1279 18.8177 16.3314 18.9508 16.4709 19.1418L17.4419 20.4384C17.3547 20.5078 17.2674 20.5889 17.1919 20.6699L16.1047 19.5643C16.1047 19.5643 16.0756 19.5412 16.0581 19.5354C16.0465 19.5354 16.0349 19.5296 16.0233 19.5354C15.9942 19.5354 15.9651 19.547 15.9477 19.5701L15.9419 19.5643ZM24.7965 14.9279C24.6047 14.8758 24.436 14.8237 24.3023 14.7717C24.5116 14.6327 24.7442 14.5517 24.9884 14.5285L24.7965 14.9337V14.9279ZM24.7035 15.1305L24.4651 15.6399C24.1686 15.4894 23.9302 15.3447 23.7965 15.2579C23.8081 15.2405 23.8198 15.2289 23.8314 15.2116C23.9128 15.1016 24.0058 15.009 24.1047 14.9221C24.25 14.9858 24.4593 15.0611 24.7035 15.1247V15.1305ZM25.1105 14.2681C24.5988 14.2681 24.0349 14.4822 23.6105 15.0495C23.1628 15.6457 22.4244 16.0393 21.7267 16.103C21.6512 15.8714 21.5698 15.6399 21.5 15.4142C21.907 15.3736 22.6977 15.1942 23.3488 14.5054C23.75 14.0771 24.2733 13.7182 25.0233 13.724C25.1395 13.724 25.2558 13.724 25.3721 13.724L25.1105 14.2739V14.2681ZM21.9244 18.5803C21.9244 18.5803 21.9244 18.5456 21.9244 18.534C21.9244 18.4356 21.907 18.343 21.8779 18.2562C21.8779 18.2504 21.8779 18.2446 21.8779 18.2388C21.9186 18.1867 21.9651 18.1173 22 18.0362C22.0465 18.2157 22.0814 18.3835 22.1047 18.5282C22.0581 18.534 22.0174 18.5456 21.9709 18.563C21.9535 18.563 21.9419 18.5745 21.9244 18.5803ZM21.6744 16.9596C21.7733 17.2548 21.8605 17.5327 21.936 17.7931C21.8953 17.8973 21.843 17.9899 21.7907 18.0536C21.6802 17.8684 21.5058 17.7237 21.2849 17.6369C21.3256 17.6079 21.5756 17.3937 21.6744 16.9596ZM21.3023 15.8367C21.3721 16.0393 21.436 16.2419 21.5058 16.4445V16.456C21.5291 16.5197 21.5523 16.5834 21.5756 16.6528C21.564 17.087 21.3314 17.3764 21.2384 17.4343C21.1453 17.3764 20.9186 17.0928 20.9012 16.6644C21.0174 16.5487 21.2267 16.2882 21.3023 15.8367ZM20.6105 17.3764C20.686 17.2953 20.7616 17.1796 20.814 17.0291C20.8895 17.3185 21.0349 17.4979 21.1221 17.5848C20.9128 17.5153 20.75 17.4574 20.6105 17.3764ZM20.9826 14.8353C21.064 15.0958 21.1512 15.3678 21.2384 15.6399C21.2151 15.663 21.1977 15.6804 21.1802 15.692C21.093 15.6399 20.8779 15.391 20.8314 15.0032C20.8605 14.98 20.9186 14.9222 20.9826 14.8353ZM21.1337 15.9062C21.0349 16.2592 20.8547 16.4734 20.7733 16.5255C20.686 16.4676 20.4767 16.2187 20.4244 15.8193C20.4884 15.7614 20.6512 15.5994 20.75 15.3042C20.8721 15.7151 21.1221 15.8946 21.1395 15.9062H21.1337ZM20.343 14.4244C20.4302 14.7311 20.593 14.9106 20.6686 14.9858C20.6221 15.3447 20.4244 15.582 20.343 15.6341C20.2616 15.582 20.064 15.3447 20.0174 14.9858C20.0988 14.9106 20.2558 14.7311 20.343 14.4244ZM19.9244 13.614C20.0116 13.9208 20.1686 14.1002 20.25 14.1697C20.1977 14.5285 20.0058 14.7543 19.9244 14.8122C19.843 14.7601 19.6512 14.5285 19.5988 14.1697C19.6802 14.0944 19.8372 13.915 19.9244 13.614ZM19.5058 14.4244C19.593 14.7311 19.7558 14.9106 19.8314 14.9858C19.7849 15.3447 19.5872 15.582 19.5058 15.6341C19.4186 15.582 19.2267 15.3447 19.1802 14.9858C19.2616 14.9106 19.4186 14.7311 19.5058 14.4244ZM19.0872 13.614C19.1744 13.9208 19.3314 14.1002 19.4128 14.1697C19.3605 14.5285 19.1686 14.7543 19.0872 14.8122C19.0058 14.7601 18.814 14.5285 18.7616 14.1697C18.843 14.0944 19 13.915 19.0872 13.614ZM18.6686 14.4244C18.7558 14.7311 18.9186 14.9106 18.9942 14.9858C18.9477 15.3447 18.75 15.582 18.6686 15.6341C18.5872 15.582 18.3895 15.3447 18.343 14.9858C18.4244 14.9106 18.5814 14.7311 18.6686 14.4244ZM18.25 13.614C18.3372 13.9208 18.4942 14.1002 18.5756 14.1697C18.5233 14.5285 18.3314 14.7543 18.25 14.8122C18.1686 14.7601 17.9767 14.5285 17.9244 14.1697C18.0058 14.0944 18.1628 13.915 18.25 13.614ZM17.8314 14.4244C17.9186 14.7311 18.0814 14.9106 18.157 14.9858C18.1105 15.3447 17.9128 15.582 17.8314 15.6341C17.75 15.582 17.5523 15.3447 17.5058 14.9858C17.5872 14.9106 17.7442 14.7311 17.8314 14.4244ZM17.7558 15.8193C17.7035 16.2245 17.4942 16.4676 17.407 16.5255C17.3256 16.4734 17.1395 16.2535 17.0465 15.9062C17.0465 15.9062 17.314 15.7151 17.436 15.3042C17.5349 15.5936 17.6919 15.7614 17.7616 15.8193H17.7558ZM16.2965 18.2562C16.2674 18.343 16.2558 18.4356 16.2558 18.534C16.2558 18.5514 16.2558 18.5688 16.2558 18.5803C16.2384 18.5745 16.2267 18.5688 16.2093 18.563C16.1686 18.5514 16.1221 18.5398 16.0756 18.5282C16.0988 18.3777 16.1337 18.2157 16.1802 18.0362C16.2209 18.1173 16.2616 18.1867 16.3023 18.2388C16.3023 18.2446 16.3023 18.2504 16.3023 18.2562H16.2965ZM16.3895 18.0594C16.3372 17.9899 16.2849 17.9031 16.2442 17.7989C16.3198 17.5384 16.407 17.2548 16.5058 16.9654C16.6047 17.4053 16.8547 17.6137 16.8953 17.6426C16.6802 17.7295 16.5 17.88 16.3895 18.0594ZM16.8837 15.8367C16.9593 16.2882 17.1686 16.5487 17.2849 16.6644C17.2674 17.0928 17.0407 17.3706 16.9477 17.4343C16.8547 17.3706 16.6221 17.087 16.6105 16.6528C16.6337 16.5892 16.6512 16.5255 16.6744 16.456V16.4445C16.7442 16.2419 16.814 16.0393 16.8837 15.8367ZM17.064 17.579C17.1512 17.4921 17.2907 17.3127 17.3721 17.0233C17.4244 17.1738 17.5 17.2896 17.5756 17.3706C17.436 17.4458 17.2733 17.5095 17.064 17.579ZM17.2035 14.8353C17.2674 14.9222 17.3256 14.98 17.3547 15.0032C17.3081 15.391 17.093 15.6399 17.0058 15.692C16.9884 15.6804 16.9709 15.663 16.9477 15.6399C17.0349 15.3678 17.1221 15.0958 17.2035 14.8353ZM14.8372 14.5054C15.4884 15.1942 16.2733 15.3678 16.686 15.4142C16.6105 15.6399 16.5349 15.8714 16.4593 16.103C15.7616 16.0335 15.0233 15.6399 14.5756 15.0495C14.1512 14.488 13.5872 14.2739 13.0756 14.2681L12.814 13.7182C12.9302 13.7182 13.0465 13.724 13.1628 13.7182C13.9128 13.7182 14.436 14.0713 14.8372 14.4996V14.5054ZM13.1977 14.5285C13.4419 14.5517 13.6744 14.6385 13.8837 14.7717C13.75 14.8237 13.5814 14.8816 13.3895 14.9279L13.1977 14.5228V14.5285ZM13.7267 15.6399L13.4884 15.1305C13.7326 15.0669 13.9419 14.9916 14.093 14.9279C14.1919 15.0148 14.2791 15.1074 14.3663 15.2174C14.3779 15.2347 14.3895 15.2463 14.4012 15.2637C14.2733 15.3505 14.0291 15.4952 13.7326 15.6457L13.7267 15.6399ZM13.9186 16.1724C13.9593 16.1377 13.9477 16.1087 13.936 16.0798L13.8198 15.8425C14.1512 15.6746 14.407 15.5126 14.5349 15.4257C14.6337 15.5299 14.7326 15.6283 14.8372 15.7151C14.5814 16.0219 13.7674 16.8728 12.7151 16.8612C12.1163 16.8554 11.8081 16.5602 11.657 16.3461C11.8895 16.4618 12.2326 16.5834 12.6453 16.5834C13.3023 16.5834 13.7791 16.2824 13.9128 16.1666L13.9186 16.1724ZM12.7384 17.087C13.9128 17.087 14.7616 16.1666 15.0174 15.8483C15.1279 15.9293 15.25 15.9988 15.3721 16.0624C15.2267 16.3403 14.657 17.2896 13.7093 17.4458C13.1395 17.5384 12.8547 17.249 12.7384 17.087ZM13.9419 17.6253C14.907 17.3648 15.4419 16.4213 15.5698 16.1551C15.7035 16.2071 15.843 16.2535 15.9826 16.2882C15.8779 16.6065 15.5698 17.3822 15.0174 17.7005C14.5058 17.9957 14.1221 17.7873 13.936 17.6311L13.9419 17.6253ZM16.2035 16.3287C16.2616 16.3345 16.314 16.3461 16.3721 16.3519C16.1977 16.867 16.0291 17.3706 15.9128 17.8105C15.5872 18.0768 15.2093 18.0015 15.0349 17.9436C15.0698 17.9263 15.1047 17.9089 15.1453 17.8857C15.7907 17.5211 16.1047 16.6528 16.2093 16.3287H16.2035ZM17.843 16.1319C17.9767 16.5023 18.1977 16.6702 18.2151 16.6818L18.2384 16.6992C18.1686 16.7686 18.1047 16.8554 18.0407 16.948C17.9477 17.0812 17.8547 17.1738 17.75 17.2548C17.6279 17.1622 17.4942 16.9828 17.4593 16.7281C17.4826 16.7107 17.7209 16.5313 17.843 16.1319ZM18.6105 15.8193C18.5407 16.184 18.3488 16.4213 18.2616 16.4734C18.1744 16.4213 17.9826 16.184 17.9128 15.8193C17.9767 15.7614 18.1628 15.582 18.2616 15.2405C18.3547 15.5762 18.5465 15.7614 18.6105 15.8193ZM18.7035 16.0624C18.75 16.1782 18.8023 16.2766 18.8547 16.3461C18.7674 16.3634 18.6686 16.3924 18.5698 16.4387C18.5407 16.4503 18.5174 16.4676 18.4942 16.485C18.5698 16.3866 18.6453 16.2419 18.7035 16.0624ZM19.1047 15.2405C19.1919 15.5473 19.3547 15.7267 19.4302 15.7962C19.3605 16.0682 19.2209 16.2535 19.1395 16.3287C19.1279 16.3287 19.1163 16.3287 19.1047 16.3287C19.093 16.3287 19.0814 16.3287 19.0698 16.3287C18.9826 16.2535 18.8488 16.0682 18.7733 15.7962C18.8547 15.7209 19.0116 15.5415 19.0988 15.2405H19.1047ZM19.5058 16.0624C19.564 16.2477 19.6395 16.3866 19.7151 16.485C19.6919 16.4676 19.6628 16.456 19.6395 16.4387C19.5407 16.3866 19.4477 16.3634 19.3547 16.3461C19.407 16.2708 19.4593 16.1782 19.5058 16.0624ZM20.2965 15.8193C20.2267 16.184 20.0349 16.4213 19.9477 16.4734C19.8605 16.4213 19.6686 16.184 19.5988 15.8193C19.6628 15.7614 19.8488 15.582 19.9477 15.2405C20.0465 15.5762 20.2326 15.7614 20.2965 15.8193ZM20.3605 16.1319C20.4826 16.5313 20.7209 16.7107 20.7442 16.7281C20.7093 16.9828 20.5756 17.1622 20.4535 17.2548C20.3547 17.1738 20.2616 17.0754 20.1628 16.948C20.0988 16.8554 20.0291 16.7686 19.9651 16.6992L19.9884 16.6818C19.9884 16.6818 20.2267 16.5023 20.3605 16.1319ZM22.2907 17.8105C22.1744 17.3706 22.0058 16.867 21.8314 16.3519C21.8895 16.3461 21.9419 16.3403 22 16.3287C22.0988 16.6471 22.4186 17.5153 23.064 17.8857C23.0988 17.9089 23.1337 17.9263 23.1744 17.9436C23 18.0015 22.6221 18.0825 22.2965 17.8105H22.2907ZM23.1802 17.6947C22.6337 17.3822 22.3256 16.6007 22.2151 16.2824C22.3605 16.2477 22.5 16.2071 22.6279 16.1493C22.7616 16.4155 23.2907 17.359 24.2558 17.6195C24.0698 17.7758 23.686 17.9841 23.1744 17.6889L23.1802 17.6947ZM24.4942 17.4458C23.5523 17.2896 22.9826 16.3403 22.8314 16.0624C22.9535 15.9988 23.0756 15.9293 23.186 15.8483C23.4419 16.1666 24.2907 17.087 25.4651 17.087C25.3488 17.249 25.064 17.5442 24.4942 17.4458ZM25.4826 16.8612C24.4302 16.8728 23.6163 16.0219 23.3605 15.7151C23.4651 15.6283 23.564 15.5299 23.6628 15.4257C23.7907 15.5126 24.0465 15.6746 24.3779 15.8425L24.2616 16.0798C24.2616 16.0798 24.2384 16.1319 24.2791 16.1724C24.4128 16.2824 24.8895 16.5892 25.5465 16.5892C25.9535 16.5892 26.3023 16.4676 26.5349 16.3519C26.3895 16.566 26.0814 16.8612 25.4767 16.867L25.4826 16.8612ZM20.9419 13.313C20.9419 13.313 20.936 13.2725 20.9302 13.2551H25.4012V13.4056C25.4012 13.4056 21.9302 13.6835 21.0349 13.7645C20.9942 13.6024 20.9651 13.4519 20.9419 13.3188V13.313ZM20.7093 13.7703C20.7674 14.0308 20.8488 14.3202 20.936 14.6269C20.8779 14.7196 20.8198 14.7832 20.7791 14.8064C20.6977 14.7543 20.5058 14.5228 20.4535 14.1639C20.5174 14.106 20.6279 13.9787 20.7035 13.7703H20.7093ZM16.4651 11.044C16.5116 10.9861 16.5814 10.9456 16.686 10.9167C16.9186 10.853 17.2558 10.8241 17.5 10.8472H17.5814C17.7035 10.8588 18.0349 11.0498 18.2384 11.3624C18.2384 11.3624 18.9535 11.2292 19.4419 10.7546C19.4419 10.7546 18.5407 10.8472 17.7907 10.743C17.7791 10.743 17.75 10.7314 17.7674 10.6967C17.7674 10.6967 17.7674 10.6909 17.7791 10.6793C17.8372 10.5925 17.9302 10.4768 18.2093 10.3899C18.343 10.3494 18.5465 10.3205 18.7907 10.3089C19.0465 10.2973 19.343 10.3089 19.6802 10.3263C20.186 10.361 20.564 10.3205 20.8314 10.2568C20.7558 10.4594 20.6105 10.6967 20.3547 10.8704L20.2616 10.934L20.1628 11.0035L20.2093 11.1135L20.25 11.2119C20.3314 11.4202 20.3895 11.8254 20.4593 12.3001V12.3522C20.5058 12.6474 20.5581 13.0004 20.6163 13.3651C20.6163 13.3709 20.6163 13.3767 20.6163 13.3825C20.5988 13.7182 20.4302 13.9324 20.3488 13.9844C20.25 13.9208 20.0174 13.6256 20.0116 13.1741H19.8488C19.8488 13.6256 19.6105 13.9208 19.5116 13.9844C19.4128 13.9208 19.1802 13.6256 19.1744 13.1741H19.0116C19.0116 13.6256 18.7733 13.9208 18.6744 13.9844C18.5756 13.9208 18.343 13.6256 18.3372 13.1741H18.1744C18.1744 13.6256 17.936 13.9208 17.8372 13.9844C17.7558 13.9324 17.5988 13.7298 17.5756 13.4114C17.6279 13.203 17.6977 12.9599 17.7035 12.9483C17.7849 12.6821 17.8256 12.439 17.8256 12.4274C17.8547 12.2364 17.8256 12.0801 17.7326 11.9701C17.6395 11.8544 17.4884 11.7907 17.2907 11.7849C17.25 11.7849 17.1744 11.7849 17.1279 11.7849C17.0523 11.7849 16.7093 11.7907 16.6105 11.9991C16.5407 11.9007 16.4884 11.7907 16.4477 11.6749C16.407 11.5534 16.3837 11.426 16.3895 11.3103C16.3895 11.1887 16.4128 11.1019 16.4593 11.0382L16.4651 11.044ZM17.5058 13.7703C17.5814 13.9787 17.6919 14.106 17.7558 14.1639C17.7035 14.517 17.5116 14.7485 17.4302 14.8064C17.3895 14.7832 17.3314 14.7196 17.2733 14.6269C17.3663 14.3202 17.4419 14.0308 17.5 13.7703H17.5058ZM17.1802 13.7703C16.2442 13.6892 12.814 13.4114 12.814 13.4114V13.2609H17.2965C17.2733 13.3477 17.25 13.4346 17.2384 13.5098C17.2209 13.5908 17.2035 13.6777 17.1802 13.7645V13.7703ZM12.6628 13.8976L13.6512 16.0335V16.0451H11.6628L12.657 13.8976H12.6628ZM10.8314 15.1421C11.1221 15.2405 11.4302 15.2984 11.7384 15.3158L11.4244 15.9814C11.0581 15.8309 10.8256 15.5299 10.7151 15.0958C10.75 15.1132 10.7907 15.1247 10.8314 15.1421ZM10.0698 13.9844C10.7267 14.1755 11.4244 14.3317 12.157 14.4301L11.843 15.1016C11.5291 15.0842 11.2093 15.0321 10.9128 14.9279C10.2442 14.6964 10.0988 14.1986 10.0698 13.9844ZM4.81977 10.853C4.51163 10.5578 4.47674 10.1989 4.5407 10.0079C6.40116 11.8949 9.5814 13.4982 12.5058 13.7066L12.2733 14.1986C8.39535 13.7298 5.67442 11.6749 4.81977 10.853ZM9.82558 13.9092C9.83721 14.0481 9.89535 14.4475 10.2326 14.7774C8.68605 14.5864 6.56977 13.8571 5.4186 12.8499C4.70349 12.2248 4.78488 11.5997 4.90116 11.2755C5.7093 11.9933 7.46512 13.1741 9.82558 13.9034V13.9092ZM5.49419 13.2493C6.82558 14.2739 8.97093 14.9048 10.4651 15.0263C10.5174 15.2868 10.6163 15.5646 10.8023 15.7904C9.45349 15.8946 7.64535 15.6804 6.34302 14.8122C5.50581 14.2507 5.4593 13.5793 5.5 13.2493H5.49419ZM6.5814 15.2694C7.9593 16.0161 9.72093 16.1319 11.0058 15.9988C11.0988 16.074 11.2093 16.1377 11.3372 16.1898C11.3547 16.2419 11.4477 16.4734 11.6802 16.6934C11.1744 16.8496 9.45349 17.2838 7.81977 16.6644C7.13372 16.4039 6.65116 15.9409 6.5814 15.2694ZM8.48837 17.1333C10.1919 17.4864 11.7093 16.9365 11.8953 16.8612C12.0465 16.9538 12.2384 17.0349 12.4709 17.0696C12.4826 17.0928 12.5523 17.2432 12.7093 17.388C12.4186 17.5558 11.407 18.0768 10.1744 18.0305C9.30814 17.9957 8.73837 17.7005 8.48256 17.1333H8.48837ZM10.3953 18.2967C11.5814 18.2736 12.593 17.7468 12.9128 17.5327C13.0988 17.6426 13.3547 17.7179 13.686 17.6774C13.7209 17.7179 13.7791 17.77 13.8547 17.8279C13.5988 18.0768 12.9128 18.6498 11.9535 18.8177C11.2326 18.945 10.7384 18.7714 10.3953 18.2967ZM12.5581 19.437C12.3023 19.4023 12.064 19.2576 11.9244 19.0955C13.0465 18.945 13.8023 18.2388 14.064 17.9552C14.25 18.0478 14.4942 18.1057 14.7791 18.0362C14.814 18.0768 14.8837 18.1173 14.9709 18.1462C14.7093 18.5051 13.8081 19.5875 12.5581 19.4312V19.437ZM15.2209 18.2157C15.4128 18.2446 15.6337 18.2273 15.8488 18.1289C15.814 18.2736 15.7907 18.4067 15.7733 18.5282C15.5233 18.5745 15.2907 18.7308 15.1221 18.9624C14.7907 19.4138 14.6163 19.6106 14.1744 19.7554C14.1744 19.7554 14.1686 19.7554 14.1628 19.7554C13.907 19.738 13.7093 19.6627 13.5756 19.5933C14.4535 19.2865 15.0465 18.4704 15.2209 18.2099V18.2157ZM13.75 21.596C13.407 21.133 13.4651 20.8899 13.5407 20.6583C13.6163 20.4268 13.7151 20.2011 14.2674 20.0216C14.436 19.9695 14.5698 19.9059 14.6919 19.8248C15.0116 20.0448 15.9477 20.6815 16.7965 21.2603C16.7442 21.3587 16.6977 21.4571 16.6628 21.5613L14.5698 20.8609C14.5058 20.8378 14.436 20.8725 14.4186 20.9362C14.3953 20.9998 14.436 21.0693 14.4942 21.0867L16.5988 21.7407C16.5698 21.8449 16.5465 21.9549 16.5291 22.0649C15.5058 22.0359 14.3721 22.007 13.9826 21.9954C13.9302 21.8623 13.8547 21.7292 13.7558 21.5902L13.75 21.596ZM14.1047 22.9563C14.1047 22.6553 14.093 22.4237 14.0465 22.2096C14.4767 22.2154 15.5349 22.2385 16.5116 22.2559C16.5116 22.3253 16.5058 22.3948 16.5058 22.4643C16.5058 22.5164 16.5058 22.5685 16.5058 22.6148L14.9593 22.8347C14.9302 22.8347 14.9012 22.8579 14.8837 22.881C14.8663 22.9042 14.8547 22.9331 14.8605 22.9678C14.8605 22.9968 14.8779 23.0199 14.907 23.0373C14.9186 23.0431 14.9302 23.0489 14.9419 23.0547C14.9593 23.0605 14.9767 23.0605 14.9942 23.0547L16.5233 22.8C16.5407 22.9158 16.5581 23.0257 16.5872 23.1357L15.0349 23.6103C14.814 23.6798 14.5698 23.674 14.3953 23.5525C14.2093 23.4193 14.1047 23.2167 14.0988 22.9563H14.1047ZM14.7733 24.9995C14.6163 24.7854 14.5872 24.5596 14.657 24.3455C14.7209 24.1487 14.9128 23.9982 15.1395 23.9229L16.6744 23.402C16.7151 23.5062 16.7616 23.6103 16.8198 23.7087L15.4302 24.3976C15.4302 24.3976 15.4012 24.4149 15.3895 24.4323C15.3837 24.4439 15.3779 24.4554 15.3721 24.467C15.3605 24.496 15.3663 24.5249 15.3779 24.5538C15.3895 24.5828 15.4186 24.6001 15.4477 24.6117C15.4767 24.6233 15.5058 24.6175 15.5349 24.6059L16.9186 23.8766C16.9826 23.9808 17.0581 24.0734 17.1337 24.166C16.3547 24.7506 15.5116 25.3873 15.1686 25.642C15.0814 25.4394 14.9535 25.2484 14.7791 25.0053L14.7733 24.9995ZM15.2907 26.3019C15.2907 26.1282 15.2733 25.9777 15.2384 25.8388C15.5465 25.6015 16.4477 24.9127 17.2616 24.2876C17.3372 24.3686 17.4244 24.4381 17.5116 24.5075L16.1919 26.273C16.1512 26.325 16.1628 26.4003 16.2209 26.4408C16.2733 26.4813 16.3488 26.4698 16.3895 26.4119L17.6686 24.6175C17.7616 24.6812 17.8547 24.7333 17.9535 24.7854C17.6105 25.7462 17.2326 26.8113 17.0988 27.1759C16.9535 27.1817 16.8081 27.2106 16.6395 27.2685C16.0872 27.448 15.8721 27.3206 15.6802 27.1759C15.4826 27.0312 15.2965 26.8691 15.2965 26.2961L15.2907 26.3019ZM18.0407 27.3611C17.7558 27.2685 17.5291 27.2049 17.3081 27.1875C17.4477 26.7823 17.7965 25.7867 18.1105 24.8664C18.2209 24.9127 18.3372 24.9532 18.4535 24.9822L18.186 26.5161C18.186 26.545 18.186 26.5739 18.2093 26.5971C18.2267 26.6202 18.25 26.6376 18.2849 26.6434C18.314 26.6434 18.343 26.6434 18.3663 26.626C18.3779 26.6202 18.3837 26.6087 18.3953 26.5971C18.407 26.5855 18.4128 26.5682 18.4128 26.5508L18.6395 25.0227C18.75 25.04 18.8663 25.0574 18.9826 25.0632L18.9593 26.6781C18.9593 26.9097 18.8721 27.1412 18.7035 27.2627C18.5174 27.3959 18.2965 27.4364 18.0407 27.3554V27.3611ZM19.2151 19.8595L19.2384 17.66C19.2384 17.5963 19.186 17.5384 19.1163 17.5384C19.0465 17.5384 18.9942 17.5905 18.9942 17.66L19.0174 19.8595C18.907 19.8595 18.7965 19.8769 18.686 19.8943C18.3953 18.9161 18.0756 17.8337 17.9651 17.4574C18.0756 17.3706 18.1802 17.2548 18.2849 17.1159C18.6221 16.6471 18.8721 16.6239 19.1163 16.6239C19.3605 16.6239 19.6047 16.6471 19.9477 17.1159C20.0523 17.2606 20.157 17.3706 20.2674 17.4574C20.157 17.8279 19.8372 18.9103 19.5465 19.8943C19.436 19.8769 19.3256 19.8653 19.2151 19.8595ZM19.2791 26.6781L19.2558 25.0632C19.3721 25.0632 19.4826 25.0458 19.593 25.0227L19.8198 26.5508C19.8198 26.5508 19.8314 26.5855 19.8372 26.5971C19.843 26.6087 19.8547 26.6145 19.8663 26.626C19.8895 26.6434 19.9186 26.6492 19.9477 26.6434C19.9767 26.6434 20 26.6202 20.0233 26.5971C20.0407 26.5739 20.0465 26.545 20.0407 26.5161L19.7733 24.9822C19.8895 24.9532 20.0058 24.9127 20.1163 24.8664C20.436 25.7809 20.7791 26.7823 20.9186 27.1875C20.6977 27.2049 20.4767 27.2685 20.186 27.3611C19.9302 27.4422 19.7093 27.4017 19.5233 27.2685C19.3547 27.147 19.2674 26.9154 19.2674 26.6839L19.2791 26.6781ZM21.1453 27.1817C21.0174 26.817 20.6337 25.752 20.2907 24.7912C20.3895 24.7391 20.4884 24.687 20.5756 24.6233L21.8547 26.4177C21.8953 26.4698 21.9709 26.4813 22.0233 26.4466C22.0756 26.4061 22.0872 26.3308 22.0523 26.2787L20.7326 24.5133C20.8198 24.4439 20.9012 24.3686 20.9826 24.2934C21.7965 24.9185 22.6919 25.6073 23.0058 25.8446C22.9709 25.9835 22.9535 26.134 22.9535 26.3077C22.9535 26.8865 22.7674 27.0486 22.5698 27.1875C22.3721 27.3322 22.157 27.4538 21.6105 27.2801C21.4419 27.228 21.2965 27.1991 21.1512 27.1875L21.1453 27.1817ZM23.0756 25.6362C22.7326 25.3816 21.8837 24.7391 21.1105 24.1602C21.1919 24.0676 21.2616 23.975 21.3256 23.8708L22.7093 24.6001C22.7093 24.6001 22.7674 24.6175 22.7965 24.6059C22.8256 24.5944 22.8488 24.577 22.8663 24.548C22.8779 24.5191 22.8837 24.4902 22.8721 24.4612C22.8721 24.4496 22.8605 24.4381 22.8547 24.4265C22.843 24.4091 22.8314 24.3976 22.814 24.3918L21.4244 23.703C21.4767 23.6046 21.5291 23.5004 21.5698 23.3962L23.1105 23.9171C23.3314 23.9924 23.5233 24.1371 23.593 24.3397C23.6628 24.5538 23.6337 24.7796 23.4767 24.9937C23.2965 25.2369 23.1686 25.4337 23.0814 25.6305L23.0756 25.6362ZM23.8372 23.5525C23.6628 23.674 23.4244 23.6856 23.1977 23.6103L21.6453 23.1299C21.6744 23.0199 21.6977 22.91 21.7093 22.7942L23.2384 23.0489C23.2384 23.0489 23.2733 23.0489 23.2907 23.0489C23.3023 23.0489 23.314 23.0431 23.3256 23.0315C23.3488 23.0142 23.3663 22.991 23.3721 22.9621C23.3721 22.9331 23.3721 22.9042 23.3488 22.8752C23.3314 22.8521 23.3081 22.8347 23.2733 22.8289L21.7267 22.609C21.7267 22.5569 21.7267 22.5106 21.7267 22.4585C21.7267 22.389 21.7267 22.3196 21.7209 22.2501C22.6977 22.2327 23.7558 22.2154 24.186 22.2038C24.1337 22.418 24.1279 22.6495 24.1279 22.9505C24.1279 23.2167 24.0174 23.4135 23.8314 23.5467L23.8372 23.5525ZM24.2558 22.0012C23.8663 22.0128 22.7326 22.0417 21.7093 22.0707C21.6919 21.9607 21.6686 21.8507 21.6395 21.7465L23.7442 21.0924C23.8081 21.0751 23.843 21.0056 23.8198 20.942C23.7965 20.8783 23.7326 20.8436 23.6686 20.8667L21.5756 21.5671C21.5349 21.4629 21.4942 21.3645 21.4419 21.2661C22.2907 20.6873 23.2209 20.0506 23.5465 19.8306C23.6686 19.9059 23.8023 19.9695 23.9709 20.0274C24.5233 20.2068 24.6221 20.4326 24.6977 20.6641C24.7733 20.8956 24.8256 21.1388 24.4884 21.6018C24.3837 21.7465 24.3081 21.8739 24.2558 22.007V22.0012ZM23.1105 18.9624C22.9419 18.7308 22.7093 18.5803 22.4535 18.5282C22.436 18.4067 22.4128 18.2736 22.3837 18.1289C22.5988 18.2273 22.8198 18.2388 23.0116 18.2157C23.1802 18.4761 23.7733 19.2923 24.657 19.5991C24.5233 19.6685 24.3256 19.7438 24.0698 19.7611C24.0698 19.7611 24.064 19.7611 24.0581 19.7611C23.6163 19.6222 23.4419 19.4196 23.1105 18.9682V18.9624ZM23.2616 18.1462C23.3488 18.1115 23.4186 18.071 23.4535 18.0362C23.7442 18.0999 23.9826 18.042 24.1744 17.9552C24.436 18.2388 25.1919 18.945 26.314 19.0955C26.1686 19.2518 25.936 19.4023 25.6802 19.437C24.4302 19.5933 23.5291 18.5109 23.2674 18.152L23.2616 18.1462ZM26.2791 18.8119C25.3198 18.644 24.6395 18.071 24.3779 17.8221C24.4535 17.7642 24.5058 17.7121 24.5465 17.6716C24.8779 17.7121 25.1337 17.6368 25.3198 17.5269C25.6395 17.7353 26.6512 18.2678 27.8372 18.2909C27.4942 18.7656 27 18.9392 26.2791 18.8119ZM28.0523 18.0247C26.8198 18.071 25.814 17.55 25.5233 17.3822C25.6802 17.2375 25.75 17.087 25.7616 17.0638C25.9942 17.0291 26.186 16.9538 26.3372 16.8554C26.5233 16.9307 28.0407 17.4806 29.7442 17.1275C29.4884 17.6947 28.9186 17.9899 28.0523 18.0247ZM30.4128 16.6586C28.7791 17.278 27.0581 16.8439 26.5523 16.6876C26.7791 16.4734 26.8779 16.2361 26.8953 16.184C27.0233 16.1319 27.1337 16.0682 27.2267 15.993C28.5058 16.1261 30.2733 16.0046 31.6512 15.2637C31.5814 15.9351 31.0988 16.3982 30.4128 16.6586ZM31.8954 14.8064C30.593 15.6804 28.7791 15.8888 27.436 15.7846C27.6221 15.5589 27.7209 15.281 27.7674 15.0206C29.2558 14.8932 31.407 14.2623 32.7384 13.2436C32.7791 13.5793 32.7384 14.2449 31.8954 14.8064ZM32.814 12.8442C31.6628 13.8513 29.5465 14.5864 28 14.7717C28.3372 14.4417 28.3954 14.0423 28.407 13.9034C30.7674 13.1741 32.5233 11.9933 33.3314 11.2755C33.4477 11.5997 33.5291 12.2248 32.814 12.8499V12.8442ZM25.7326 13.695C28.657 13.4867 31.8372 11.8833 33.6977 9.99633C33.7616 10.1873 33.7267 10.5462 33.4186 10.8414C32.5698 11.6634 29.8488 13.7182 25.9709 14.187L25.7384 13.695H25.7326ZM21.6163 4.5322L22.0174 2.98095L22.9884 3.22984L22.9012 3.55398L22.3314 3.40928L22.0465 4.50326L22.8721 4.71743L23.25 3.26457L23.6279 3.36297L23.4419 4.08651L23.6686 4.14439L23.8547 3.42085L24.2326 3.51926L23.5465 6.17028L23.1686 6.07188L23.5814 4.47432L23.3547 4.41644L22.9419 6.014L22.564 5.9156L22.7907 5.04157L21.7616 4.77531C21.6512 4.74637 21.5814 4.63639 21.6105 4.5322H21.6163ZM29.4651 7.39161C29.5698 7.27006 29.6047 7.11956 29.5756 6.97485L29.7616 7.13114L29.9767 6.87645L29.5349 6.506L29.6919 6.32078L29.3779 6.04873L29.2151 6.23974L28.7791 5.8635L28.564 6.11819L28.75 6.27447C28.5988 6.26868 28.4593 6.32657 28.3488 6.44812C28.1279 6.70859 28.1802 7.10798 28.5058 7.39161C28.8372 7.66945 29.2442 7.65208 29.4651 7.39161ZM28.6744 6.72017C28.7791 6.59862 28.9535 6.56967 29.0988 6.69702C29.25 6.81857 29.25 6.99222 29.1395 7.11956C29.0349 7.2469 28.8605 7.27006 28.7151 7.1485C28.5698 7.02116 28.564 6.84751 28.6744 6.72017ZM29.3372 8.05726L30.2384 6.99801L30.5581 7.26427L30.2151 7.66366L30.4709 7.87782L30.2442 8.1383L29.9884 7.92413L29.6512 8.31773L29.3314 8.05147L29.3372 8.05726ZM29.0058 8.44507L27.814 7.43791L28.0407 7.17744L29.5465 8.45086L28.7791 9.34804L28.4593 9.08178L29.0058 8.44507ZM19.0872 0.202576C8.54651 0.202576 0 8.71134 0 19.2055C0 29.6996 8.54651 38.2084 19.0872 38.2084C29.6279 38.2084 38.1686 29.6996 38.1686 19.2055C38.1686 8.71134 29.6279 0.202576 19.0872 0.202576ZM19.0872 38.0174C8.65116 38.0174 0.19186 29.5954 0.19186 19.2055C0.19186 8.81552 8.65116 0.393589 19.0872 0.393589C29.5233 0.393589 37.9767 8.81552 37.9767 19.2055C37.9767 29.5954 29.5174 38.0174 19.0872 38.0174ZM19.0872 0.775615C8.86047 0.775615 0.569767 9.0239 0.569767 19.2055C0.569767 29.387 8.86047 37.6353 19.0872 37.6353C29.314 37.6353 37.5988 29.387 37.5988 19.2055C37.5988 9.0239 29.3081 0.775615 19.0872 0.775615ZM19.0872 37.1607C9.1221 37.1607 1.05233 29.1208 1.05233 19.2055C1.05233 9.29016 9.1221 1.25025 19.0872 1.25025C29.0523 1.25025 37.1221 9.29016 37.1221 19.2055C37.1221 29.1208 29.0465 37.1607 19.0872 37.1607ZM18.2267 6.65071C18.2267 6.5581 18.2965 6.47706 18.3895 6.47127C18.4826 6.47127 18.564 6.54073 18.5698 6.63335C18.5698 6.72596 18.5 6.80699 18.407 6.81278C18.314 6.81278 18.2326 6.74332 18.2267 6.65071ZM18.9128 6.62177C18.9128 6.52916 18.9884 6.44812 19.0872 6.44812C19.186 6.44812 19.2616 6.52337 19.2616 6.62177C19.2616 6.72017 19.186 6.79542 19.0872 6.79542C18.9884 6.79542 18.9128 6.72017 18.9128 6.62177ZM17.5465 6.71438C17.5349 6.62177 17.6047 6.53494 17.6977 6.52337C17.7907 6.51179 17.8779 6.58125 17.8895 6.67386C17.9012 6.76648 17.8314 6.8533 17.7384 6.86488C17.6453 6.87645 17.5581 6.80699 17.5465 6.71438ZM16.8721 6.81278C16.8547 6.72017 16.9186 6.62756 17.0174 6.61598C17.1105 6.59862 17.2035 6.66229 17.2151 6.7549C17.2326 6.84751 17.1686 6.93434 17.0698 6.9517C16.9767 6.96906 16.8895 6.90539 16.8721 6.81278ZM16.407 7.07904C16.314 7.09641 16.2209 7.03852 16.2035 6.94591C16.1802 6.8533 16.2442 6.76069 16.3372 6.74332C16.4302 6.72596 16.5233 6.78384 16.5407 6.87645C16.564 6.96906 16.5 7.06168 16.407 7.07904ZM15.6628 6.91118C15.7558 6.88803 15.8488 6.94012 15.8721 7.03274C15.8953 7.12535 15.843 7.21796 15.75 7.2469C15.657 7.27006 15.564 7.21796 15.5349 7.12535C15.5116 7.03274 15.564 6.94012 15.657 6.91118H15.6628ZM15 7.11377C15.093 7.08483 15.186 7.13114 15.2209 7.22375C15.25 7.31636 15.2035 7.40897 15.1105 7.4437C15.0233 7.47264 14.9244 7.42634 14.8895 7.33373C14.8605 7.24111 14.907 7.1485 15 7.11377ZM14.5756 7.44949C14.6105 7.53632 14.5698 7.63472 14.4767 7.67523C14.3895 7.70996 14.2849 7.66945 14.25 7.57683C14.2151 7.49001 14.2558 7.39161 14.3488 7.35109C14.436 7.31636 14.5349 7.35688 14.5756 7.44949ZM13.6279 7.85467C13.5872 7.76785 13.6279 7.66366 13.7151 7.62893C13.8023 7.58841 13.9012 7.62893 13.9419 7.70996C13.9826 7.79679 13.9419 7.90098 13.8605 7.93571C13.7733 7.97622 13.6686 7.93571 13.6337 7.85467H13.6279ZM13.0174 8.16724C12.9709 8.08041 13.0058 7.98201 13.0872 7.93571C13.1686 7.8894 13.2733 7.92413 13.3198 8.00517C13.3663 8.09199 13.3314 8.19039 13.25 8.2367C13.1686 8.283 13.064 8.24827 13.0174 8.16724ZM12.4244 8.50875C12.3779 8.42771 12.4012 8.32352 12.4826 8.27143C12.564 8.22512 12.6686 8.24827 12.7209 8.32931C12.7674 8.41034 12.7442 8.51453 12.6628 8.56663C12.5814 8.61293 12.4767 8.58978 12.4244 8.50875ZM11.8547 8.88498C11.8023 8.80395 11.8198 8.69976 11.9012 8.64766C11.9826 8.59557 12.0872 8.61293 12.1395 8.69397C12.1919 8.77501 12.1744 8.87919 12.093 8.93129C12.0116 8.98338 11.907 8.96602 11.8547 8.88498ZM11.3023 9.29016C11.2442 9.21491 11.2616 9.10494 11.3372 9.04705C11.4128 8.98917 11.5233 9.00654 11.5814 9.08178C11.6395 9.15703 11.6221 9.26701 11.5465 9.32489C11.4709 9.38277 11.3605 9.36541 11.3023 9.29016ZM10.7733 9.72428C10.7093 9.65482 10.7209 9.54485 10.7907 9.48118C10.8663 9.4175 10.9709 9.42908 11.0349 9.49854C11.0988 9.568 11.0872 9.67798 11.0174 9.74165C10.9419 9.80532 10.8372 9.79374 10.7733 9.72428ZM10.5233 9.95002C10.5872 10.0195 10.5872 10.1295 10.5174 10.1931C10.4477 10.2568 10.3372 10.2568 10.2733 10.1873C10.2093 10.1179 10.2093 10.0079 10.2791 9.94424C10.3488 9.88057 10.4593 9.88057 10.5233 9.95002ZM10.0349 10.4247C10.1047 10.4883 10.1047 10.5983 10.0407 10.6678C9.97674 10.7372 9.86628 10.7372 9.79651 10.6736C9.72674 10.6099 9.72674 10.4999 9.7907 10.4305C9.85465 10.361 9.96512 10.361 10.0349 10.4247ZM9.56977 10.9225C9.64535 10.9861 9.65116 11.0903 9.58721 11.1656C9.52326 11.2408 9.4186 11.2466 9.34302 11.1829C9.26744 11.1193 9.26163 11.0151 9.32558 10.9398C9.38954 10.8646 9.49419 10.8588 9.56977 10.9225ZM9.13372 11.4492C9.2093 11.5071 9.22674 11.617 9.16861 11.6923C9.11047 11.7675 9 11.7849 8.92442 11.727C8.84884 11.6691 8.83721 11.5592 8.88954 11.4839C8.94767 11.4087 9.05814 11.3913 9.13372 11.4492ZM19.593 6.63335C19.593 6.54073 19.6802 6.46549 19.7733 6.47127C19.8663 6.47127 19.9419 6.5581 19.936 6.65071C19.936 6.74332 19.8488 6.81857 19.7558 6.81278C19.6628 6.81278 19.5872 6.72596 19.593 6.63335ZM20.2733 6.67965C20.2849 6.58704 20.3663 6.51758 20.4651 6.52916C20.5581 6.54073 20.6279 6.62177 20.6163 6.72017C20.6047 6.81278 20.5233 6.88224 20.4244 6.87066C20.3314 6.85909 20.2616 6.77805 20.2733 6.67965ZM20.9535 6.76069C20.9709 6.66807 21.0581 6.6044 21.1512 6.62177C21.2442 6.63913 21.3081 6.72596 21.2907 6.81857C21.2733 6.91118 21.186 6.97485 21.093 6.95749C21 6.94012 20.936 6.8533 20.9535 6.76069ZM21.8314 6.74911C21.9244 6.77226 21.9826 6.85909 21.9651 6.9517C21.9419 7.04431 21.8547 7.1022 21.7616 7.08483C21.6686 7.06168 21.6105 6.97485 21.6279 6.88224C21.6454 6.78963 21.7384 6.73175 21.8314 6.74911ZM22.5058 6.91697C22.5988 6.94012 22.6512 7.03852 22.6279 7.13114C22.6047 7.22375 22.5058 7.27584 22.4128 7.25269C22.3198 7.22954 22.2674 7.13114 22.2907 7.04431C22.314 6.9517 22.4128 6.89961 22.5058 6.92276V6.91697ZM23.1686 7.11956C23.2616 7.1485 23.3081 7.2469 23.2791 7.33951C23.25 7.42634 23.1512 7.47843 23.0581 7.44949C22.9651 7.42055 22.9186 7.32215 22.9477 7.22954C22.9767 7.13693 23.0756 7.09062 23.1686 7.11956ZM23.8198 7.35688C23.907 7.39161 23.9535 7.49001 23.9186 7.58262C23.8837 7.66945 23.7849 7.71575 23.6919 7.68102C23.6047 7.64629 23.5581 7.54789 23.593 7.45528C23.6279 7.36846 23.7267 7.32215 23.8198 7.35688ZM24.314 7.94149C24.2267 7.90098 24.1919 7.80258 24.2326 7.71575C24.2733 7.62893 24.3721 7.5942 24.4593 7.63472C24.5465 7.67523 24.5814 7.77363 24.5407 7.86046C24.5 7.94728 24.4012 7.98201 24.314 7.94149ZM24.9186 8.24249C24.8372 8.19618 24.8023 8.09199 24.8488 8.01095C24.8954 7.92413 25 7.89519 25.0814 7.94149C25.1628 7.9878 25.1977 8.09199 25.1512 8.17303C25.1047 8.25406 25 8.28879 24.9186 8.24249ZM25.5058 8.57242C25.4244 8.52611 25.3954 8.41613 25.4477 8.3351C25.4942 8.25406 25.6047 8.22512 25.686 8.27721C25.7674 8.32352 25.7965 8.4335 25.7442 8.51453C25.6977 8.59557 25.5872 8.62451 25.5058 8.57242ZM26.0756 8.93129C25.9942 8.87919 25.9767 8.76922 26.0291 8.69397C26.0814 8.61293 26.1919 8.59557 26.2674 8.64766C26.3488 8.69976 26.3663 8.80974 26.314 8.88498C26.2616 8.96602 26.1512 8.98338 26.0756 8.93129ZM26.6221 9.32489C26.5465 9.26701 26.5291 9.15703 26.5872 9.08178C26.6453 9.00654 26.75 8.99496 26.8314 9.04705C26.907 9.10494 26.9244 9.21491 26.8663 9.29016C26.8081 9.36541 26.6977 9.38277 26.6221 9.32489ZM27.1453 9.74744C27.0698 9.68376 27.064 9.57958 27.1279 9.50433C27.186 9.43487 27.2965 9.42329 27.3721 9.48696C27.4477 9.55063 27.4535 9.65482 27.3895 9.73007C27.3256 9.80532 27.2209 9.81111 27.1453 9.75322V9.74744ZM27.6453 10.1931C27.5756 10.1295 27.5756 10.0195 27.6395 9.95002C27.7035 9.88057 27.814 9.88057 27.8837 9.94424C27.9535 10.0079 27.9593 10.1179 27.8895 10.1873C27.8256 10.2568 27.7151 10.2568 27.6453 10.1931ZM28.3721 10.4305C28.436 10.4999 28.436 10.6099 28.3663 10.6736C28.2965 10.7372 28.186 10.7372 28.1221 10.6678C28.0581 10.5983 28.0581 10.4883 28.1279 10.4247C28.1977 10.361 28.3081 10.361 28.3721 10.4305ZM28.8372 10.9456C28.9012 11.0151 28.8895 11.125 28.8198 11.1887C28.75 11.2524 28.6395 11.2408 28.5756 11.1714C28.5116 11.1019 28.5233 10.9919 28.593 10.9282C28.6628 10.8646 28.7733 10.8761 28.8372 10.9456ZM29.2733 11.4839C29.3314 11.5592 29.314 11.6691 29.2384 11.727C29.1628 11.7849 29.0523 11.7675 28.9942 11.6923C28.936 11.617 28.9535 11.5071 29.0291 11.4492C29.1047 11.3913 29.2093 11.4029 29.2674 11.4839H29.2733ZM15.7907 4.36434L15.4651 3.12565L15.8605 3.02146L15.9593 3.40928L16.2849 3.32245L16.3721 3.6466L16.0465 3.73342L16.1802 4.25437L15.7907 4.35855V4.36434ZM16.4128 5.15155L14.9767 5.522L15.0174 5.67828L16.4826 5.29625L16.5698 5.6204L14.9128 6.04873C14.8023 6.07767 14.6919 6.014 14.6628 5.90402L14.5058 5.30783L15.9419 4.93738L15.907 4.79846L14.4709 5.16891L14.3837 4.84477L16.2151 4.37013L16.4186 5.14576L16.4128 5.15155ZM13.75 3.65817L14.2849 3.51926L14.2326 3.31088L14.6395 3.20669L14.6919 3.41507L15.2267 3.27615L15.3081 3.58871L14.814 3.71606C15.0698 4.11545 15.5465 4.12702 15.5465 4.12702L15.4767 4.45117C15.1047 4.42801 14.8488 4.31804 14.6686 4.15018C14.593 4.3875 14.4244 4.60745 14.1105 4.81004L13.8895 4.56114C13.8895 4.56114 14.3023 4.32382 14.3314 3.84919L13.8372 3.97653L13.7558 3.66396L13.75 3.65817ZM8.75581 6.64492L9.06395 6.38445L8.92442 6.22238L9.23256 5.96191L10.1105 6.98643L9.80233 7.2469L9.62791 7.04431L9.31977 7.30478L9.11047 7.06168L9.41861 6.8012L9.27907 6.63913L8.97093 6.89961L8.76163 6.65071L8.75581 6.64492ZM9.36047 7.51316C8.96512 7.84888 8.9186 8.34089 9.19767 8.66503C9.47674 8.98917 9.97093 9.0239 10.3663 8.68818C10.7616 8.35246 10.8081 7.85467 10.5291 7.53053C10.2558 7.20638 9.75581 7.17744 9.36047 7.51316ZM10.1395 8.42192C9.91861 8.60715 9.66861 8.57242 9.51163 8.39877C9.36047 8.21933 9.36628 7.96465 9.58721 7.77942C9.80814 7.58841 10.0581 7.62314 10.2151 7.80258C10.3663 7.98201 10.3605 8.2367 10.1395 8.42192ZM7.76744 7.68681L7.54651 7.43213L8.43023 6.68544C8.49419 6.63335 8.59302 6.63913 8.64535 6.7028C8.89535 6.99222 9.11628 7.63472 8.44186 8.46244L8.1686 8.283C8.62209 7.70418 8.49419 7.299 8.41279 7.1485L7.77326 7.6926L7.76744 7.68681ZM19.093 32.5069L19.1686 32.4548C19.2326 32.4143 20.6395 31.4592 22.3895 32.3912L22.6337 32.5243L22.4826 31.3956C23.2965 31.9512 24.3779 31.6908 24.9535 31.3319C24.9535 31.3319 25.0058 31.2856 25 31.2393C24.9942 31.1872 24.9884 31.1293 24.6395 30.9325C24.75 30.9036 24.8953 30.8631 25.0581 30.782C25.0756 30.7762 25.093 30.7704 25.1163 30.7589C25.3837 30.6257 25.7326 30.4 25.7384 30.2437C25.7384 30.1974 25.7151 30.1569 25.6744 30.1337C25.5698 30.0816 25.4244 30.0411 25.3081 30.0122C25.3663 29.9659 25.4244 29.9196 25.4767 29.879C26.4942 30.4 27.5988 29.798 28.0872 29.2481C28.0872 29.2481 28.1279 29.1845 28.1105 29.1439C28.093 29.0976 28.0698 29.0455 27.6802 28.9529C27.7791 28.895 27.9012 28.8082 28.0407 28.6924C28.0581 28.6809 28.0698 28.6693 28.0872 28.6519C28.314 28.4551 28.5814 28.1368 28.5407 27.9863C28.5291 27.94 28.4942 27.911 28.4535 27.8995C28.3372 27.8763 28.186 27.8763 28.064 27.8821C28.1105 27.8184 28.1512 27.7605 28.186 27.7027C29.314 27.9284 30.2035 27.0486 30.5233 26.3829C30.5233 26.3829 30.5465 26.3135 30.5174 26.273C30.4884 26.2382 30.4477 26.1919 30.0465 26.2093C30.1279 26.1282 30.2267 26.0125 30.3256 25.862C30.3372 25.8446 30.3488 25.8273 30.3605 25.8099C30.5174 25.5552 30.6919 25.179 30.6105 25.0458C30.5872 25.0053 30.5465 24.9822 30.5 24.988C30.3837 24.9995 30.2384 25.04 30.1221 25.0806C30.1512 25.0111 30.1744 24.9416 30.1919 24.878C31.3372 24.7796 31.9477 23.6856 32.0698 22.9563C32.0698 22.9563 32.0698 22.8868 32.0349 22.8579C31.9942 22.8289 31.9477 22.7942 31.564 22.9273C31.6221 22.8231 31.6802 22.6842 31.7326 22.5106C31.7442 22.4932 31.7442 22.4758 31.75 22.4585C31.8372 22.1633 31.8954 21.7523 31.7791 21.6481C31.75 21.6192 31.7035 21.6076 31.6628 21.625C31.5465 21.6655 31.4244 21.7465 31.3256 21.816C31.3314 21.7407 31.3372 21.6655 31.3314 21.596C32.4012 21.1966 32.6919 19.9753 32.6047 19.2402C32.6047 19.2402 32.5872 19.1707 32.5465 19.1534C32.5 19.1418 32.4419 19.1186 32.1105 19.3502C32.1337 19.2344 32.157 19.0897 32.1628 18.9045V18.8466C32.1628 18.5456 32.1047 18.1346 31.9651 18.0652C31.9244 18.042 31.8779 18.0478 31.843 18.071C31.75 18.1462 31.6454 18.2562 31.5698 18.3488C31.4244 17.6021 31.1163 17.2548 31.1047 17.2375L31.0349 17.168L30.9709 17.2375C30.9709 17.2375 30.6512 17.6021 30.5058 18.3488C30.4244 18.2562 30.3256 18.1462 30.2326 18.071C30.1919 18.0478 30.1512 18.042 30.1105 18.0652C29.9709 18.1346 29.9128 18.5456 29.9128 18.8466V18.9045C29.9186 19.0897 29.9419 19.2344 29.9593 19.3502C29.6337 19.1186 29.5698 19.136 29.5291 19.1534C29.4767 19.1823 29.4651 19.2402 29.4651 19.2402C29.407 19.7843 29.5465 20.5889 30.0581 21.1388C30.0407 21.133 30.0174 21.133 29.9942 21.1388C29.843 21.1677 29.6744 21.5497 29.593 21.8391C29.5872 21.8565 29.5814 21.8739 29.5756 21.8912C29.5291 22.0707 29.5116 22.2154 29.5 22.3311C29.2442 22.0244 29.186 22.0186 29.1395 22.0301C29.0756 22.0359 29.0523 22.0938 29.0523 22.0938C28.843 22.5974 28.7558 23.4135 29.093 24.085C29.0756 24.0734 29.0581 24.0676 29.0349 24.0618C28.8779 24.0503 28.6105 24.3686 28.4535 24.6233C28.4419 24.6407 28.4302 24.658 28.4186 24.6754C28.3256 24.8317 28.2674 24.9648 28.2267 25.0748C28.0698 24.7043 28.0116 24.687 27.9651 24.6812C27.9012 24.6754 27.8663 24.7217 27.8663 24.7217C27.5233 25.15 27.2093 25.9083 27.3488 26.6434C27.3372 26.626 27.3198 26.6145 27.3023 26.6087C27.157 26.5508 26.8081 26.7823 26.5814 26.9849C26.5698 27.0023 26.5523 27.0138 26.5407 27.0254C26.407 27.1528 26.314 27.2627 26.2442 27.3554C26.1919 26.9618 26.1395 26.927 26.0988 26.9097C26.0407 26.8865 25.9942 26.9212 25.9942 26.9212C25.5465 27.2338 25.0407 27.8763 24.9651 28.6172C24.9535 28.5998 24.9419 28.5883 24.9244 28.5767C24.8023 28.4841 24.407 28.6114 24.1337 28.7445C24.1163 28.7445 24.0988 28.7619 24.0814 28.7735C23.9186 28.8545 23.7965 28.9356 23.7035 29.005C23.7616 28.6114 23.7209 28.5651 23.686 28.5362C23.6395 28.5014 23.5814 28.5188 23.5814 28.5188C23.1337 28.6751 22.564 29.0571 22.25 29.6186L22.1628 28.9819L22.1105 28.9471C20.7267 28.0557 19.4186 28.7619 19.093 28.9703C18.7616 28.7619 17.4535 28.0557 16.0698 28.9471L16.0174 28.9819L15.936 29.6128C15.6105 29.0571 15.0465 28.6809 14.5988 28.5188C14.5988 28.5188 14.5407 28.5014 14.4942 28.5362C14.4593 28.5651 14.4186 28.6114 14.4826 29.005C14.3895 28.9356 14.2674 28.8545 14.1047 28.7735C14.0872 28.7619 14.064 28.7503 14.0465 28.7445C13.7733 28.6114 13.3779 28.4841 13.2558 28.5767C13.2384 28.5883 13.2267 28.6114 13.2209 28.6288C13.1512 27.8821 12.6337 27.2396 12.1919 26.9212C12.1919 26.9212 12.1395 26.8865 12.0814 26.9097C12.0407 26.927 11.9884 26.9618 11.9419 27.3554C11.8721 27.2627 11.7733 27.1528 11.6395 27.0254C11.6279 27.0138 11.6105 27.0023 11.5988 26.9849C11.3721 26.7823 11.0291 26.5508 10.8779 26.6087C10.8605 26.6087 10.843 26.626 10.8314 26.6434C10.9709 25.9083 10.657 25.15 10.3198 24.7217C10.3198 24.7217 10.2791 24.6754 10.2209 24.6812C10.1744 24.687 10.1105 24.7043 9.9593 25.0748C9.91279 24.9648 9.85465 24.8317 9.76163 24.6754C9.75 24.658 9.73837 24.6407 9.73256 24.6233C9.56977 24.3686 9.30233 24.0503 9.14535 24.0618C9.12209 24.0676 9.09884 24.0734 9.08721 24.085C9.42442 23.4135 9.33721 22.5974 9.12791 22.0938C9.12791 22.0938 9.10465 22.0359 9.04651 22.0301C9 22.0186 8.93605 22.0244 8.68605 22.3311C8.67442 22.2154 8.65116 22.0707 8.60465 21.8912C8.60465 21.8739 8.59884 21.8565 8.59302 21.8391C8.50581 21.5497 8.33721 21.1677 8.18605 21.1388C8.16279 21.133 8.13954 21.133 8.12209 21.1445C8.63372 20.5947 8.77326 19.7843 8.71512 19.2402C8.71512 19.2402 8.70349 19.1823 8.65116 19.1534C8.61047 19.136 8.54651 19.1186 8.22093 19.3502C8.24419 19.2344 8.26163 19.0897 8.26744 18.9045V18.8466C8.26744 18.5456 8.21512 18.1346 8.07558 18.0652C8.03488 18.042 7.98837 18.0478 7.95349 18.071C7.85465 18.1462 7.75581 18.2562 7.68023 18.3488C7.52907 17.6021 7.22674 17.2548 7.2093 17.2375L7.14535 17.168L7.0814 17.2375C7.0814 17.2375 6.75581 17.6021 6.61047 18.3488C6.53488 18.2562 6.43605 18.1462 6.33721 18.071C6.30233 18.0478 6.25581 18.042 6.21512 18.0652C6.07558 18.1346 6.01744 18.5456 6.01744 18.8466C6.01744 18.8698 6.01744 18.8871 6.02326 18.9045C6.02326 19.0897 6.04651 19.2344 6.06977 19.3502C5.73837 19.1186 5.68023 19.1418 5.63953 19.1534C5.59302 19.1707 5.57558 19.2402 5.57558 19.2402C5.48837 19.9753 5.77326 21.1966 6.84884 21.596C6.84884 21.6655 6.85465 21.7407 6.86047 21.816C6.76163 21.7465 6.63372 21.6655 6.52326 21.625C6.47674 21.6076 6.43605 21.625 6.40116 21.6481C6.28488 21.7523 6.34302 22.1633 6.43023 22.4585C6.43605 22.4758 6.44186 22.4932 6.44767 22.5106C6.5 22.6842 6.56395 22.8231 6.61628 22.9273C6.23837 22.7942 6.18605 22.8289 6.14535 22.8579C6.11047 22.8868 6.11047 22.9563 6.11047 22.9563C6.23256 23.6856 6.84884 24.7796 7.98837 24.878C8.00581 24.9416 8.02907 25.0111 8.05814 25.0806C7.94767 25.04 7.80233 24.9995 7.68023 24.988C7.63372 24.988 7.59302 25.0053 7.56977 25.0458C7.49419 25.179 7.66279 25.5552 7.82558 25.8099C7.83721 25.8273 7.84302 25.8446 7.85465 25.862C7.9593 26.0125 8.05233 26.1282 8.13372 26.2093C7.73256 26.1919 7.69186 26.2382 7.66279 26.273C7.63372 26.3135 7.65698 26.3829 7.65698 26.3829C7.97674 27.0486 8.87209 27.9284 9.99419 27.7027C10.0291 27.7605 10.0698 27.8184 10.1163 27.8821C10 27.8821 9.84884 27.8821 9.73256 27.8995C9.68605 27.911 9.65116 27.94 9.63954 27.9863C9.59884 28.1368 9.87209 28.4551 10.0988 28.6519C10.1105 28.6693 10.1279 28.6809 10.1395 28.6924C10.2791 28.8082 10.4012 28.895 10.5058 28.9529C10.1163 29.0455 10.0872 29.0976 10.0698 29.1439C10.0523 29.1845 10.093 29.2481 10.093 29.2481C10.5872 29.798 11.6919 30.4 12.7093 29.879C12.7616 29.9254 12.8198 29.9659 12.8779 30.0122C12.7558 30.0411 12.6105 30.0816 12.5058 30.1337C12.4651 30.1569 12.4419 30.1974 12.4477 30.2437C12.4477 30.4 12.7965 30.6257 13.0698 30.7589C13.0872 30.7704 13.1047 30.7762 13.1221 30.782C13.2907 30.8631 13.4302 30.9036 13.5407 30.9325C13.1919 31.1293 13.186 31.1872 13.1802 31.2393C13.1802 31.2856 13.2267 31.3319 13.2267 31.3319C13.8023 31.6908 14.8779 31.9512 15.6977 31.3956L15.5465 32.5243L15.7907 32.3912C17.5407 31.4592 18.9477 32.4143 19.0116 32.4548L19.093 32.5069ZM29.6337 19.4891C29.6337 19.4428 29.6337 19.4023 29.6337 19.356C29.7326 19.4081 29.907 19.5296 30.0465 19.6338L30.2907 19.819L30.186 19.5354C30.186 19.5354 30.0988 19.2923 30.0872 18.8987V18.835C30.0872 18.5572 30.1337 18.3546 30.1686 18.262C30.3198 18.3951 30.4767 18.6151 30.4767 18.6151L30.6047 18.8003L30.6395 18.5745C30.7209 17.9668 30.9244 17.6079 31.0291 17.4516C31.1337 17.6079 31.3372 17.9668 31.4244 18.5745L31.4535 18.8003L31.5872 18.6151C31.5872 18.6151 31.7442 18.3951 31.8895 18.262C31.9302 18.3546 31.9767 18.5572 31.9767 18.835V18.8987C31.9651 19.2923 31.8779 19.5296 31.8779 19.5354L31.7733 19.819L32.0174 19.6338C32.157 19.5296 32.3314 19.4081 32.4302 19.356C32.4302 19.4023 32.4361 19.4428 32.4361 19.4891C32.4361 20.149 32.1512 21.0577 31.3256 21.405C31.314 20.9883 31.2267 20.7336 31.1919 20.6525C31.3895 20.5773 31.7558 20.4094 32.0116 20.1027C32.0407 20.0679 32.0349 20.01 32 19.9811C31.9593 19.9464 31.9012 19.9522 31.8721 19.9869C31.6395 20.2647 31.2965 20.4152 31.1221 20.4847V19.5412C31.2558 19.4891 31.5872 19.3502 31.8256 19.0492C31.8547 19.0145 31.8488 18.9566 31.8081 18.9276C31.7674 18.8929 31.7151 18.8987 31.6802 18.9392C31.5058 19.165 31.2616 19.2865 31.1221 19.3444V18.233C31.1221 18.1809 31.0814 18.1404 31.0291 18.1404C30.9826 18.1404 30.9419 18.1809 30.9419 18.233V19.3444C30.8023 19.2865 30.5581 19.165 30.3779 18.9392C30.3488 18.8987 30.2907 18.8929 30.2558 18.9276C30.2151 18.9566 30.2093 19.0145 30.2384 19.0492C30.4767 19.3502 30.8023 19.4891 30.9419 19.5412V20.4847C30.7674 20.4152 30.4244 20.2647 30.1919 19.9869C30.157 19.9522 30.1047 19.9464 30.064 19.9811C30.0233 20.01 30.0233 20.0679 30.0523 20.1027C30.3372 20.4442 30.7616 20.612 30.9302 20.6699C30.814 20.7683 30.6337 20.9535 30.4535 21.2487C29.8488 20.832 29.6279 20.0679 29.6279 19.4891H29.6337ZM30.3663 21.3992C30.3372 21.4397 30.3198 21.4803 30.2965 21.5208C30.2558 21.4282 30.2035 21.3124 30.1395 21.2256C30.2093 21.2892 30.2849 21.3529 30.3663 21.3992ZM29.1454 22.3774C29.157 22.3369 29.1744 22.2964 29.186 22.2501C29.2674 22.3311 29.4012 22.4932 29.5058 22.6321L29.6919 22.881L29.6686 22.5742C29.6686 22.5742 29.6512 22.3138 29.75 21.9375C29.7558 21.9202 29.7616 21.897 29.7674 21.8797C29.843 21.6076 29.9477 21.4224 30.0058 21.3471C30.1105 21.515 30.2035 21.7697 30.2035 21.7697L30.2733 21.9838L30.3663 21.7812C30.4128 21.6771 30.4651 21.5787 30.5116 21.4918C30.5465 21.434 30.5756 21.3819 30.6047 21.3356C30.7326 21.1388 30.8547 20.9998 30.9477 20.9072C30.9884 20.8667 31.0291 20.832 31.0581 20.8088C31.0814 20.8783 31.1105 20.9825 31.1279 21.1272C31.1454 21.2256 31.157 21.3356 31.157 21.4687C31.157 21.5266 31.157 21.5902 31.1512 21.6597C31.1454 21.7639 31.1395 21.8739 31.1221 21.9954L31.093 22.2212L31.2674 22.0765C31.2674 22.0765 31.4826 21.9086 31.6628 21.8218C31.6686 21.9202 31.6628 22.1285 31.5814 22.3948C31.5756 22.418 31.5698 22.4353 31.564 22.4585C31.4477 22.8289 31.2965 23.0373 31.2965 23.0373L31.1105 23.2862L31.4012 23.1762C31.564 23.1126 31.7616 23.0431 31.8721 23.0199C31.8605 23.0662 31.8547 23.1068 31.843 23.1531C31.6628 23.7898 31.1337 24.5654 30.25 24.6812C30.3488 24.2876 30.3314 24.0213 30.3256 23.9229C30.5407 23.9055 30.936 23.8477 31.2616 23.6219C31.3023 23.5988 31.314 23.5409 31.2849 23.5004C31.2616 23.4599 31.2035 23.4483 31.1628 23.4772C30.8663 23.674 30.4942 23.7319 30.3023 23.7435L30.564 22.8347C30.7093 22.8289 31.064 22.7826 31.3779 22.5627C31.4186 22.5337 31.4244 22.4758 31.3954 22.4353C31.3663 22.3948 31.314 22.3832 31.2733 22.4122C31.0407 22.58 30.7733 22.6321 30.6221 22.6495L30.907 21.6539L30.9302 21.5787C30.9419 21.5324 30.9128 21.4803 30.8663 21.4687C30.8198 21.4571 30.7674 21.4803 30.7558 21.5324L30.7384 21.596L30.4477 22.6032C30.3256 22.5048 30.1279 22.3196 30.0174 22.0591C30 22.0128 29.9477 21.9896 29.9012 22.007C29.8547 22.0244 29.8372 22.0765 29.8547 22.1228C30 22.4758 30.2733 22.7016 30.3953 22.7884L30.1337 23.6972C29.9826 23.5814 29.6919 23.3383 29.5465 23.0142C29.5291 22.9678 29.4709 22.9505 29.4302 22.9678C29.3837 22.991 29.3605 23.0431 29.3837 23.0836C29.564 23.4888 29.9302 23.7724 30.0698 23.8708C29.936 23.9345 29.7093 24.056 29.4477 24.2876C28.9826 23.7203 28.9884 22.9331 29.1454 22.3774ZM29.314 24.4149C29.314 24.4149 29.25 24.4786 29.2151 24.5133C29.2035 24.4149 29.186 24.2934 29.1512 24.195C29.2035 24.2702 29.2558 24.3455 29.314 24.4149ZM27.8721 25.0227C27.8953 24.9822 27.9244 24.9474 27.9477 24.9127C28.0058 25.0111 28.0872 25.1963 28.1512 25.3642L28.2558 25.6536L28.3198 25.3526C28.3198 25.3526 28.3779 25.0979 28.5756 24.7622C28.5872 24.7448 28.5988 24.7275 28.6105 24.7101C28.7616 24.4728 28.907 24.3223 28.9884 24.2702C29.0407 24.4612 29.0581 24.7275 29.0581 24.7275L29.0698 24.9532L29.2151 24.7796C29.2907 24.6928 29.3663 24.6117 29.436 24.548C29.4767 24.496 29.5233 24.4554 29.564 24.4207C29.7384 24.2702 29.8953 24.166 30.0116 24.1023C30.064 24.0734 30.1105 24.0503 30.1512 24.0329C30.1512 24.1023 30.1512 24.2007 30.1337 24.3281C30.1221 24.4323 30.0988 24.5596 30.064 24.6985C30.0465 24.7564 30.0291 24.8201 30.0058 24.8838C29.9767 24.9822 29.936 25.0864 29.8837 25.1963L29.7907 25.4047L30 25.3179C30 25.3179 30.25 25.2137 30.4477 25.179C30.4302 25.2716 30.3605 25.4684 30.2093 25.7115C30.1977 25.7289 30.186 25.7462 30.1744 25.7636C29.9593 26.0877 29.7558 26.244 29.7558 26.244L29.5116 26.435L29.8198 26.4061C29.9942 26.3887 30.2035 26.3829 30.314 26.3887C30.2965 26.4234 30.2733 26.464 30.25 26.5045C29.9012 27.0659 29.1686 27.6853 28.2849 27.5406C28.5058 27.1759 28.5581 26.9097 28.5756 26.8228C28.7791 26.8691 29.186 26.9212 29.564 26.7997C29.6105 26.7823 29.6337 26.736 29.6221 26.6897C29.6047 26.6434 29.5523 26.6145 29.5058 26.6318C29.1628 26.7418 28.7907 26.6897 28.6105 26.6492L29.1105 25.8504C29.2558 25.8793 29.6047 25.9372 29.9651 25.8099C30.0116 25.7925 30.0407 25.7404 30.0233 25.6941C30.0058 25.6478 29.9535 25.6247 29.907 25.642C29.6395 25.7346 29.3663 25.7115 29.2151 25.6883L29.7674 24.8085L29.8081 24.7448C29.8372 24.6985 29.8256 24.6464 29.7791 24.6175C29.7384 24.5944 29.686 24.6059 29.657 24.6464L29.6221 24.7043L29.064 25.5899C28.9767 25.4684 28.8372 25.2368 28.8023 24.9532C28.7965 24.9011 28.7558 24.8664 28.7035 24.8722C28.657 24.8722 28.6221 24.9243 28.6221 24.9706C28.6686 25.3468 28.8721 25.642 28.9593 25.7578L28.4535 26.5566C28.343 26.4061 28.1337 26.0935 28.0814 25.7404C28.0756 25.6941 28.0291 25.6594 27.9826 25.6652C27.9302 25.671 27.8954 25.7173 27.907 25.7636C27.9651 26.1977 28.2326 26.5682 28.3488 26.7071C28.2035 26.7302 27.9477 26.7881 27.6337 26.9444C27.3372 26.273 27.5581 25.5089 27.8721 25.0227ZM27.3779 26.7707C27.4012 26.8576 27.4302 26.9444 27.4709 27.0312C27.4302 27.0486 27.3895 27.0717 27.3488 27.0949C27.3663 26.9965 27.3779 26.8749 27.3779 26.7707ZM25.9128 27.2106C25.9535 27.1759 25.9884 27.1528 26.0233 27.1238C26.0465 27.2338 26.0756 27.4364 26.0872 27.6158L26.1105 27.9226L26.2558 27.6506C26.2558 27.6506 26.3779 27.4248 26.6628 27.1586C26.6802 27.1412 26.6977 27.1238 26.7093 27.1123C26.9244 26.927 27.1047 26.8228 27.1977 26.7939C27.1977 26.9907 27.1395 27.2512 27.1337 27.2512L27.0872 27.4769L27.2733 27.3496C27.3663 27.2859 27.4593 27.228 27.5465 27.1875C27.6047 27.1528 27.657 27.1238 27.7093 27.1007C27.9186 26.9965 28.0988 26.9444 28.2326 26.9154C28.2907 26.9039 28.3372 26.8923 28.3779 26.8865C28.3605 26.956 28.3314 27.0486 28.2849 27.1643C28.2849 27.1643 28.2791 27.1701 28.2791 27.1759L28.0814 27.4885C28.0814 27.4885 28.0988 27.5001 28.1105 27.5001C28.0814 27.5522 28.0465 27.6043 28.0058 27.6621C27.9477 27.749 27.8779 27.8358 27.8023 27.9284L27.6512 28.102L27.8779 28.0789C27.8779 28.0789 28.1454 28.0499 28.343 28.0673C28.3023 28.1541 28.186 28.3278 27.9709 28.513C27.9593 28.5304 27.9419 28.542 27.9244 28.5535C27.6279 28.8082 27.3895 28.9066 27.3837 28.9066L27.0988 29.0166L27.4012 29.0745C27.5814 29.1092 27.7791 29.1555 27.8837 29.196C27.8547 29.225 27.8256 29.2597 27.7907 29.2886C27.3023 29.7285 26.4302 30.1222 25.6221 29.7517C25.9302 29.4565 26.0581 29.2134 26.093 29.1381C26.2849 29.2365 26.6512 29.3986 27.0465 29.387C27.0988 29.3813 27.1337 29.3407 27.1337 29.2944C27.1337 29.2423 27.093 29.2018 27.0407 29.2076C26.6802 29.2192 26.3372 29.0687 26.1686 28.9819L26.8779 28.3509C27.0058 28.4146 27.3314 28.5651 27.7093 28.542C27.7616 28.542 27.7965 28.4956 27.7965 28.4493C27.7907 28.3972 27.75 28.3625 27.6977 28.3625C27.4128 28.3799 27.157 28.2873 27.0233 28.2178L27.7965 27.529L27.8547 27.4769C27.8954 27.4422 27.8954 27.3843 27.8547 27.3496C27.8256 27.3148 27.7674 27.309 27.7267 27.3438L27.6744 27.3901L26.8953 28.0847C26.843 27.9458 26.7791 27.6795 26.8256 27.4017C26.8314 27.3496 26.8023 27.3033 26.75 27.2975C26.7035 27.2859 26.657 27.3206 26.6454 27.3669C26.5814 27.7432 26.6977 28.0789 26.75 28.2178L26.0465 28.8487C25.9767 28.6693 25.8605 28.3162 25.9128 27.9573C25.9186 27.911 25.8837 27.8647 25.8372 27.8589C25.7849 27.8531 25.7442 27.8879 25.7326 27.9342C25.6744 28.3683 25.8256 28.7966 25.8954 28.9645C25.75 28.9471 25.4884 28.9298 25.1454 28.9934C25.0581 28.2641 25.4767 27.5985 25.907 27.2106H25.9128ZM24.9535 28.7561C24.9535 28.8429 24.9593 28.9356 24.9651 29.0282C24.9244 29.034 24.8837 29.0455 24.843 29.0571C24.8837 28.9645 24.9302 28.8545 24.9535 28.7561ZM22.2907 29.9485C22.5 29.3986 22.9942 28.9876 23.4302 28.7735C23.4709 28.7561 23.5116 28.7388 23.5523 28.7214C23.5465 28.8372 23.5174 29.0397 23.4826 29.2134L23.4186 29.5144L23.6337 29.2944C23.6337 29.2944 23.814 29.1092 24.1628 28.9298C24.1802 28.9182 24.2035 28.9124 24.2209 28.9008C24.4767 28.7793 24.6802 28.733 24.7733 28.7272C24.7209 28.9182 24.593 29.1497 24.5872 29.1555L24.4767 29.3523L24.6977 29.2829C24.8023 29.2481 24.907 29.2192 25 29.2018C25.064 29.1845 25.1279 29.1729 25.186 29.1613C25.4186 29.1208 25.5988 29.1208 25.7326 29.1324C25.7965 29.1324 25.843 29.1381 25.8837 29.1439C25.8488 29.2018 25.8023 29.2771 25.7267 29.3697C25.7209 29.3755 25.7151 29.3813 25.7093 29.3928C25.6454 29.4739 25.5581 29.5607 25.4535 29.6649C25.4128 29.6996 25.3663 29.7401 25.314 29.7864C25.2326 29.8501 25.1453 29.9196 25.0407 29.989L24.8488 30.1106L25.0756 30.1511C25.0756 30.1511 25.343 30.1974 25.5233 30.2669C25.4593 30.3421 25.2965 30.4694 25.0465 30.5968C25.0233 30.6026 25.0058 30.6142 24.9884 30.6199C24.6279 30.782 24.3721 30.811 24.3721 30.811L24.064 30.8399L24.343 30.9788C24.5 31.0598 24.6802 31.1583 24.7733 31.2277C24.7326 31.2451 24.6977 31.2682 24.6512 31.2914C24.0581 31.575 23.1279 31.7139 22.4477 31.1409L22.4186 30.9151L23.0116 30.6315C23.1337 30.7531 23.4767 31.0656 23.9128 31.1756C23.9593 31.1872 24.0116 31.1583 24.0233 31.1119C24.0349 31.0656 24.0058 31.0135 23.9593 31.002C23.6105 30.9151 23.3198 30.6778 23.1802 30.5447L24.0349 30.1337C24.1395 30.2379 24.4128 30.4694 24.7849 30.5505C24.8314 30.5621 24.8779 30.5331 24.8895 30.481C24.9012 30.4347 24.8721 30.3884 24.8256 30.3768C24.5465 30.3132 24.3256 30.1511 24.2093 30.0527L25.1512 29.6012L25.2209 29.5665C25.2616 29.5433 25.2849 29.4912 25.2616 29.4449C25.2384 29.3986 25.186 29.3813 25.1395 29.4044L25.0756 29.4333L24.1337 29.8906C24.1221 29.7401 24.1337 29.4681 24.2558 29.2076C24.2791 29.1671 24.2558 29.1092 24.2151 29.0918C24.1686 29.0687 24.1163 29.0861 24.093 29.1324C23.9302 29.4739 23.9419 29.8269 23.9593 29.9717L23.1047 30.3826C23.0872 30.1974 23.0756 29.8212 23.2209 29.497C23.2442 29.4507 23.2267 29.3986 23.1802 29.3813C23.1337 29.3581 23.0814 29.3813 23.0581 29.4218C22.8779 29.8327 22.9128 30.2958 22.9302 30.4694L22.3954 30.7299L22.2907 29.9543V29.9485ZM13.2267 28.7561C13.25 28.8545 13.3023 28.9645 13.343 29.0571C13.2965 29.0455 13.2558 29.034 13.2151 29.0282C13.2209 28.9413 13.2267 28.8487 13.2267 28.7561ZM10.8023 26.765C10.8023 26.8691 10.814 26.9907 10.8314 27.0949C10.7907 27.0717 10.75 27.0486 10.7093 27.0312C10.75 26.9444 10.7791 26.8576 10.8023 26.765ZM6.84884 21.405C6.02326 21.0519 5.73837 20.149 5.73837 19.4891C5.73837 19.4428 5.74419 19.4023 5.75 19.356C5.84884 19.4081 6.01744 19.5296 6.16279 19.6338L6.40698 19.819L6.29651 19.5354C6.29651 19.5354 6.2093 19.2923 6.19767 18.8987V18.835C6.19767 18.5572 6.25 18.3546 6.28488 18.262C6.43023 18.3951 6.58721 18.6151 6.58721 18.6151L6.72093 18.8003L6.75 18.5745C6.83721 17.9668 7.0407 17.6079 7.14535 17.4516C7.25 17.6079 7.45349 17.9668 7.5407 18.5745L7.56977 18.8003L7.69767 18.6151C7.69767 18.6151 7.86047 18.3951 8.00581 18.262C8.0407 18.3546 8.08721 18.5572 8.08721 18.835V18.8987C8.0814 19.2923 7.99419 19.5296 7.98837 19.5354L7.88372 19.819L8.12791 19.6338C8.27326 19.5296 8.44186 19.4081 8.5407 19.356C8.54651 19.4023 8.54651 19.4428 8.54651 19.4891C8.54651 20.0679 8.32558 20.832 7.72093 21.2487C7.5407 20.9535 7.36047 20.7683 7.24419 20.6699C7.41861 20.612 7.83721 20.4442 8.12209 20.1027C8.15698 20.0679 8.15116 20.01 8.11047 19.9811C8.07558 19.9464 8.01744 19.9522 7.98837 19.9869C7.75581 20.2647 7.41279 20.4152 7.23256 20.4847V19.5412C7.37209 19.4891 7.69767 19.3502 7.93605 19.0492C7.96512 19.0145 7.9593 18.9566 7.92442 18.9276C7.88372 18.8929 7.82558 18.8987 7.79651 18.9392C7.61628 19.165 7.37791 19.2865 7.23256 19.3444V18.233C7.23256 18.1809 7.19186 18.1404 7.14535 18.1404C7.09302 18.1404 7.05233 18.1809 7.05233 18.233V19.3444C6.91279 19.2865 6.67442 19.165 6.49419 18.9392C6.46512 18.8987 6.40698 18.8929 6.36628 18.9276C6.3314 18.9566 6.31977 19.0145 6.35465 19.0492C6.59302 19.3502 6.91861 19.4891 7.05233 19.5412V20.4847C6.87791 20.4152 6.53488 20.2647 6.30233 19.9869C6.27326 19.9522 6.21512 19.9464 6.18023 19.9811C6.13954 20.01 6.13372 20.0679 6.1686 20.1027C6.42442 20.4094 6.79651 20.5773 6.98837 20.6525C6.95349 20.7336 6.86047 20.9883 6.84884 21.405ZM8.0407 21.2256C7.98256 21.3124 7.92442 21.4282 7.88372 21.5208C7.86047 21.4803 7.84302 21.4397 7.81977 21.405C7.90116 21.3471 7.97093 21.2892 8.0407 21.2256ZM8.27907 22.007C8.23256 21.9896 8.18023 22.0128 8.16279 22.0591C8.05233 22.3196 7.85465 22.5048 7.73256 22.6032L7.44186 21.596L7.42442 21.5324C7.41279 21.4803 7.36047 21.4571 7.31395 21.4687C7.26744 21.4803 7.23837 21.5324 7.25581 21.5787L7.27907 21.6539L7.56395 22.6495C7.41279 22.6321 7.14535 22.58 6.91279 22.4122C6.87209 22.3832 6.81395 22.3948 6.78488 22.4353C6.75581 22.4758 6.76744 22.5337 6.80814 22.5627C7.11628 22.7826 7.47093 22.8289 7.61628 22.8347L7.87791 23.7435C7.69186 23.7319 7.31977 23.674 7.01744 23.4772C6.97674 23.4483 6.92442 23.4599 6.89535 23.5004C6.86628 23.5409 6.87791 23.5988 6.9186 23.6219C7.25 23.8477 7.65116 23.9055 7.86047 23.9229C7.84884 24.0213 7.83721 24.2876 7.93023 24.6812C7.0407 24.5654 6.52326 23.7898 6.33721 23.1531C6.32558 23.1068 6.31977 23.0662 6.30814 23.0199C6.41861 23.0431 6.61628 23.1126 6.78488 23.1762L7.06977 23.2862L6.88954 23.0373C6.88954 23.0373 6.73837 22.8289 6.61628 22.4585C6.61047 22.4353 6.60465 22.418 6.59884 22.3948C6.52326 22.1285 6.51163 21.9202 6.52326 21.8218C6.69768 21.9086 6.91279 22.0765 6.91279 22.0765L7.08721 22.2212L7.05814 21.9954C7.0407 21.8739 7.02907 21.7581 7.02907 21.6539C7.02326 21.5902 7.02326 21.5266 7.02326 21.4687C7.02326 21.3356 7.03488 21.2256 7.05233 21.1272C7.06977 20.9825 7.09884 20.8783 7.12209 20.8088C7.15116 20.832 7.19186 20.8667 7.23256 20.9072C7.32558 20.9998 7.44767 21.1388 7.57558 21.3356C7.61047 21.3819 7.63954 21.4397 7.67442 21.4976C7.72093 21.5845 7.76744 21.6771 7.81395 21.7812L7.90698 21.9838L7.98256 21.7697C7.98256 21.7697 8.06977 21.515 8.17442 21.3471C8.23256 21.4224 8.33721 21.6076 8.4186 21.8797C8.42442 21.897 8.43023 21.9202 8.43023 21.9375C8.52907 22.3138 8.51163 22.5685 8.51163 22.5742L8.49419 22.881L8.67442 22.6321C8.78488 22.4932 8.91279 22.3311 8.99419 22.2501C9.01163 22.2964 9.02326 22.3369 9.0407 22.3774C9.20349 22.9331 9.19768 23.7261 8.73256 24.2934C8.47093 24.056 8.24419 23.9287 8.11047 23.8708C8.25 23.7724 8.61628 23.4888 8.80233 23.0836C8.81977 23.0431 8.79651 22.991 8.75581 22.9678C8.7093 22.9505 8.65698 22.9678 8.63372 23.0142C8.48837 23.3383 8.20349 23.5814 8.05233 23.6972L7.7907 22.7884C7.90698 22.7016 8.18023 22.4758 8.32558 22.1228C8.34884 22.0765 8.32558 22.0244 8.27907 22.007ZM9.02907 24.195C8.99419 24.2934 8.97674 24.4149 8.96512 24.5133C8.93023 24.4786 8.89535 24.4439 8.86628 24.4149C8.92442 24.3455 8.97674 24.2702 9.02907 24.195ZM7.93023 26.5045C7.90698 26.464 7.88954 26.4234 7.86628 26.3887C7.97674 26.3829 8.18605 26.3887 8.36628 26.4061L8.6686 26.435L8.42442 26.244C8.42442 26.244 8.22093 26.0877 8.00581 25.7636C7.99419 25.7462 7.98256 25.7289 7.97093 25.7115C7.81977 25.4684 7.75581 25.2716 7.73837 25.179C7.93023 25.2137 8.18023 25.3121 8.18023 25.3179L8.39535 25.4047L8.30233 25.1963C8.25 25.0864 8.2093 24.9822 8.18023 24.8838C8.15698 24.8201 8.13954 24.7564 8.12209 24.6985C8.08721 24.5654 8.06395 24.4496 8.05233 24.3512C8.03488 24.2065 8.03488 24.1081 8.03488 24.0329C8.06977 24.0503 8.11628 24.0676 8.1686 24.1023C8.28488 24.166 8.44186 24.2644 8.61628 24.4207C8.66279 24.4612 8.70349 24.5017 8.75 24.548C8.81977 24.6175 8.88954 24.6928 8.96512 24.7796L9.11047 24.9532L9.12209 24.7275C9.12209 24.7275 9.13953 24.4612 9.19767 24.2702C9.27326 24.3223 9.42442 24.4728 9.57558 24.7101C9.57558 24.7275 9.59302 24.7448 9.60465 24.7622C9.80814 25.0979 9.86047 25.3468 9.86047 25.3526L9.92442 25.6536L10.0349 25.3642C10.093 25.1963 10.1802 25.0111 10.2326 24.9127C10.2616 24.9474 10.2849 24.9822 10.314 25.0227C10.6221 25.5089 10.843 26.273 10.5465 26.9444C10.2267 26.7881 9.97674 26.7302 9.8314 26.7071C9.94767 26.5682 10.2151 26.1977 10.2791 25.7636C10.2849 25.7173 10.25 25.671 10.1977 25.6652C10.1512 25.6594 10.1047 25.6941 10.0988 25.7404C10.0523 26.0935 9.84302 26.4061 9.72674 26.5566L9.22093 25.7578C9.31395 25.642 9.51744 25.3468 9.55814 24.9706C9.56395 24.9243 9.52907 24.878 9.47674 24.8722C9.43023 24.8664 9.38372 24.9011 9.37791 24.9532C9.34884 25.2368 9.2093 25.4684 9.12209 25.5899L8.55814 24.7043L8.52326 24.6464C8.5 24.6059 8.44186 24.5944 8.40116 24.6175C8.36047 24.6464 8.34884 24.6985 8.37209 24.7448L8.41279 24.8085L8.96512 25.6883C8.81977 25.7115 8.54651 25.7346 8.27326 25.642C8.22674 25.6247 8.17442 25.6478 8.16279 25.6941C8.14535 25.7404 8.1686 25.7925 8.21512 25.8099C8.57558 25.9372 8.93023 25.8793 9.06977 25.8504L9.57558 26.6492C9.38953 26.6897 9.01744 26.7418 8.67442 26.6318C8.62791 26.6145 8.57558 26.6434 8.56395 26.6897C8.54651 26.736 8.56977 26.7823 8.62209 26.7997C9 26.9212 9.40116 26.8691 9.60465 26.8228C9.62209 26.9097 9.67442 27.1759 9.89535 27.5406C9.01163 27.6853 8.28488 27.0659 7.93023 26.5045ZM10.3895 29.2886C10.3547 29.2597 10.3256 29.225 10.2965 29.196C10.4012 29.1555 10.6047 29.1092 10.7791 29.0745L11.0814 29.0166L10.7965 28.9066C10.7965 28.9066 10.5581 28.8082 10.2558 28.5535C10.2384 28.542 10.2267 28.5304 10.2093 28.513C10 28.3278 9.87791 28.1541 9.83721 28.0673C10.0349 28.0499 10.3023 28.0789 10.3023 28.0789L10.5291 28.102L10.3837 27.9284C10.3023 27.8358 10.2384 27.749 10.1744 27.6621C10.1395 27.6043 10.1047 27.5522 10.0698 27.5001C9.99419 27.3785 9.94186 27.2685 9.90116 27.1759C9.90116 27.1701 9.89535 27.1643 9.89535 27.1643C9.84884 27.0486 9.81977 26.956 9.80233 26.8865C9.84302 26.8923 9.88954 26.9039 9.94768 26.9154H9.95349C10.0872 26.9444 10.2616 26.9965 10.4709 27.1007C10.5233 27.1238 10.5756 27.1528 10.6337 27.1875C10.7209 27.228 10.8081 27.2859 10.907 27.3496L11.0988 27.4769L11.0465 27.2512C11.0465 27.2512 10.9884 26.9907 10.9884 26.7939C11.0756 26.8228 11.2616 26.927 11.4709 27.1123C11.4884 27.1238 11.5 27.1412 11.5174 27.1586C11.8023 27.4248 11.9244 27.6506 11.9244 27.6506L12.0698 27.9226L12.093 27.6158C12.1105 27.4364 12.1337 27.2338 12.1628 27.1238C12.1977 27.1528 12.2326 27.1759 12.2674 27.2106C12.6977 27.5985 13.1163 28.2641 13.0291 28.9934C12.6802 28.9298 12.4244 28.9471 12.2791 28.9645C12.3488 28.7966 12.5058 28.3683 12.4419 27.9342C12.436 27.8879 12.3895 27.8531 12.3372 27.8589C12.2907 27.8647 12.2558 27.911 12.2616 27.9573C12.314 28.3162 12.1977 28.6693 12.1279 28.8487L11.4244 28.2178C11.4767 28.0789 11.593 27.7432 11.5291 27.3669C11.5174 27.3206 11.4709 27.2859 11.4244 27.2975C11.3779 27.2975 11.343 27.3496 11.3488 27.4017C11.4012 27.6795 11.3314 27.9458 11.2791 28.0847L10.5 27.3901L10.4477 27.3438C10.407 27.309 10.3547 27.3148 10.3198 27.3496C10.2849 27.3843 10.2907 27.4422 10.3256 27.4769L10.3837 27.529L11.1628 28.2178C11.0233 28.2873 10.7674 28.3799 10.4826 28.3625C10.4302 28.3625 10.3895 28.3972 10.3895 28.4493C10.3837 28.4956 10.4244 28.542 10.4709 28.542C10.8547 28.5651 11.1744 28.4146 11.3023 28.3509L12.0116 28.9819C11.843 29.0687 11.5 29.2192 11.1395 29.2076C11.093 29.2018 11.0465 29.2423 11.0465 29.2944C11.0465 29.3407 11.0872 29.3813 11.1337 29.387C11.5349 29.3986 11.9012 29.2365 12.0872 29.1381C12.1279 29.2134 12.2558 29.4565 12.564 29.7459C11.75 30.1222 10.8895 29.7343 10.3895 29.2886ZM15.7849 30.7299L15.25 30.4694C15.2733 30.2958 15.3081 29.8327 15.1221 29.4218C15.0988 29.3813 15.0465 29.3581 15.0058 29.3813C14.9593 29.3986 14.936 29.4507 14.9593 29.497C15.1047 29.8212 15.093 30.1974 15.0756 30.3826L14.2209 29.9717C14.2384 29.8269 14.2558 29.4739 14.0872 29.1324C14.064 29.0861 14.0116 29.0687 13.9709 29.0918C13.9244 29.1092 13.907 29.1671 13.9244 29.2076C14.0523 29.4681 14.0581 29.7401 14.0465 29.8906L13.1047 29.4333L13.0407 29.4044C12.9942 29.3813 12.9419 29.4044 12.9186 29.4449C12.9012 29.4912 12.9186 29.5433 12.9651 29.5665L13.0291 29.5954L13.9709 30.0527C13.8547 30.1511 13.6395 30.3132 13.3605 30.3768C13.3081 30.3884 13.2791 30.4347 13.2907 30.481C13.3023 30.5331 13.3488 30.5621 13.3954 30.5505C13.7733 30.4694 14.0407 30.2379 14.1453 30.1337L15 30.5447C14.8605 30.6778 14.5756 30.9151 14.2267 31.002C14.1802 31.0135 14.1454 31.0656 14.1628 31.1119C14.1744 31.1583 14.2209 31.1872 14.2674 31.1756C14.7093 31.0656 15.0523 30.7531 15.1686 30.6315L15.7616 30.9151L15.7326 31.1409C15.0523 31.7139 14.1221 31.575 13.5291 31.2914C13.4884 31.2682 13.4477 31.2451 13.407 31.2277C13.5 31.1583 13.6802 31.0598 13.843 30.9788L14.1163 30.8399L13.8081 30.811C13.8081 30.811 13.5523 30.782 13.1977 30.6199C13.1744 30.6142 13.157 30.6026 13.1395 30.5968C12.8837 30.4694 12.7209 30.3421 12.657 30.2669C12.843 30.1974 13.1047 30.1511 13.1047 30.1511L13.3314 30.1106L13.1454 29.989C13.0465 29.9196 12.9535 29.8559 12.8721 29.7864H12.8663C12.814 29.7401 12.7674 29.6996 12.7267 29.6591C12.7326 29.6591 12.7442 29.6533 12.7558 29.6417L12.4709 29.3928C12.4709 29.3928 12.4593 29.3813 12.4593 29.3755C12.3779 29.2829 12.3314 29.2018 12.2965 29.1439C12.3372 29.1381 12.3837 29.1324 12.4477 29.1324C12.5814 29.1208 12.7616 29.1208 12.9942 29.1613C13.0523 29.1729 13.1105 29.1845 13.1744 29.2018C13.2733 29.2192 13.3779 29.2481 13.4884 29.2829L13.7035 29.3523L13.593 29.1555C13.593 29.1555 13.4651 28.9182 13.407 28.7272C13.5058 28.733 13.7093 28.7793 13.9593 28.9008C13.9826 28.9124 14 28.9182 14.0174 28.9298C14.3663 29.1092 14.5465 29.2886 14.5465 29.2944L14.7616 29.5144L14.6977 29.2134C14.6628 29.0397 14.6337 28.8372 14.6279 28.7214C14.6686 28.7388 14.7093 28.7561 14.7558 28.7735C15.1919 28.9876 15.6744 29.387 15.8895 29.9369L15.7849 30.7299ZM18.9477 32.0902C18.4767 31.8528 17.3081 31.4014 15.8954 32.0323C15.9128 31.8934 15.9651 31.5345 16.0174 31.1177L16.0349 31.0135C16.0407 30.9557 16.0465 30.9151 16.0523 30.8631C16.0814 30.6315 16.1163 30.4 16.1453 30.1742V30.1511C16.2151 29.6359 16.2733 29.2076 16.2791 29.1555C17.5233 28.3857 18.6802 29.034 18.9477 29.2076V29.3928H19.2326V29.2076C19.5 29.034 20.657 28.3857 21.9012 29.1555C21.9128 29.2076 21.9709 29.6417 22.0349 30.1627V30.1742C22.064 30.4 22.0988 30.6373 22.1279 30.8631C22.1337 30.9151 22.1395 30.9615 22.1453 31.0135C22.1512 31.0483 22.157 31.0772 22.157 31.1062H22.1628C22.2151 31.5287 22.2674 31.8934 22.2849 32.0323C20.8721 31.3956 19.6977 31.8528 19.2326 32.096V31.5403H18.9477V32.0902ZM17.1977 29.6533H17.4942V31.3319H17.157V30.0353L16.8721 30.2669L16.7035 30.0469L17.1977 29.6533ZM18.407 29.6244C18.0233 29.6244 17.8488 29.8617 17.8488 30.2263C17.8488 30.5389 18.0233 30.7357 18.3372 30.7357C18.4826 30.7357 18.5872 30.6894 18.6628 30.5678H18.6686C18.6628 30.8225 18.564 31.0946 18.2674 31.0946C18.157 31.0946 18.064 31.0656 17.9767 31.0251L17.9302 31.2972C18.0465 31.3377 18.1628 31.3608 18.2849 31.3608C18.8314 31.3608 18.9767 30.8573 18.9767 30.4058C18.9767 30.0122 18.8779 29.6244 18.407 29.6244ZM18.407 30.4868C18.2442 30.4868 18.1802 30.3363 18.1802 30.1742C18.1802 30.0238 18.2442 29.8733 18.4012 29.8733C18.5698 29.8733 18.6337 30.0122 18.6337 30.1685C18.6337 30.3363 18.5756 30.4868 18.407 30.4868ZM19.8605 29.9138H19.1105V29.6533H20.1977V29.9311L19.5988 31.3319H19.2326L19.8605 29.9138ZM20.907 30.7357C21.0465 30.7357 21.1512 30.6894 21.2326 30.5678H21.2384C21.2267 30.8225 21.1279 31.0946 20.8372 31.0946C20.7209 31.0946 20.6279 31.0656 20.5407 31.0251L20.4942 31.2972C20.6105 31.3377 20.7267 31.3608 20.8547 31.3608C21.3953 31.3608 21.5465 30.8573 21.5465 30.4058C21.5465 30.0122 21.4419 29.6244 20.9709 29.6244C20.593 29.6244 20.4128 29.8617 20.4128 30.2263C20.4128 30.5389 20.5872 30.7357 20.907 30.7357ZM20.9709 29.8733C21.1395 29.8733 21.2093 30.0122 21.2093 30.1685C21.2093 30.3363 21.1453 30.4868 20.9826 30.4868C20.8198 30.4868 20.75 30.3363 20.75 30.1742C20.75 30.0238 20.814 29.8733 20.9709 29.8733ZM3.56977 17.8394L2.48837 18.6151L2.5 18.2099L3.31977 17.6079L3.10465 17.4169H2.50581V17.0985L4.35465 17.1101V17.4227H3.51163L4.34884 18.1578L4.33721 18.5514L3.56977 17.8452V17.8394ZM2.69767 20.2995C2.86628 20.4268 3.0814 20.4905 3.33721 20.4963C3.59302 20.4963 3.81395 20.4384 3.98837 20.3168C4.20349 20.1605 4.31395 19.9406 4.31977 19.6396C4.32558 19.3386 4.21512 19.1071 4 18.945C3.82558 18.8177 3.61047 18.754 3.36047 18.7482C3.10465 18.7482 2.88953 18.8061 2.72093 18.9276C2.5 19.0723 2.39535 19.3039 2.38954 19.6164C2.38372 19.9174 2.48837 20.1432 2.69767 20.2995ZM2.77326 19.217C2.90116 19.1071 3.09884 19.055 3.36047 19.0608C3.62209 19.0608 3.81395 19.1186 3.94767 19.2286C4.0814 19.3386 4.10465 19.5586 4.10465 19.6338C4.10465 19.8422 4.07558 19.9001 3.94186 20.0043C3.80233 20.1084 3.61047 20.1605 3.35465 20.1547C3.09302 20.1547 2.89535 20.0911 2.76744 19.9753C2.63954 19.8711 2.61628 19.738 2.61628 19.6164C2.61628 19.4949 2.64535 19.3212 2.77326 19.217ZM3.60465 22.2212C3.62791 22.1864 3.64535 22.1343 3.65698 22.0649C3.70349 22.1228 3.75581 22.1633 3.81977 22.1864C3.90698 22.2096 4.00581 22.2038 4.12791 22.1691C4.31395 22.1112 4.43023 22.0128 4.48256 21.8681C4.51744 21.7581 4.51163 21.6192 4.46512 21.4513L4.25 20.6815L2.47093 21.2198L2.55814 21.5497L3.32558 21.3124L3.44186 21.7118C3.46512 21.8102 3.4593 21.8912 3.42442 21.9491C3.38953 22.0012 3.34884 22.0475 3.25 22.0822C3.14535 22.117 3.05814 22.1459 2.98256 22.1749C2.87209 22.2154 2.80233 22.2501 2.76744 22.2848L2.86628 22.6263L2.93023 22.609C2.94186 22.5627 2.9593 22.5337 2.98256 22.5164C2.99419 22.499 3.02907 22.4816 3.07558 22.4643H3.0814L3.37791 22.3543C3.48837 22.3196 3.56395 22.2733 3.60465 22.2212ZM4.06395 21.0809L4.19186 21.5555C4.22093 21.6481 4.2093 21.6886 4.18023 21.7523C4.15116 21.8333 4.1686 21.8623 4.05814 21.897C3.98256 21.9202 3.92442 21.8912 3.84302 21.8449C3.77907 21.8102 3.74419 21.7176 3.7093 21.596L3.61047 21.2256L4.06395 21.0809ZM3.60465 24.4728L3.08721 23.2457L4.77907 22.4643L5.2907 23.6798L5.06977 23.784L4.69186 22.8868L4.22093 23.1126L4.56395 23.9287L4.3314 24.0155L3.98837 23.1994L3.4593 23.4483L3.84302 24.3628L3.61047 24.4728H3.60465ZM5.55233 24.5423L3.59302 24.8085L3.73837 25.1037L4.28488 25.0227L4.53488 25.5494L4.13372 25.9951L4.32558 26.2614L5.65116 24.7391L5.55233 24.5423ZM4.76744 25.37L4.56977 24.9416L5.24419 24.8432L4.76744 25.37ZM8.21512 29.1497L6.70349 30.2611L6.51163 29.9774L7.10465 28.5362L6.07558 29.3118L5.86628 29.0166L7.37791 27.9052L7.56977 28.1715L6.97674 29.6417L8.02907 28.8777L8.21512 29.1555V29.1497ZM8.87209 29.7691L7.0407 30.5389L7.27326 30.8052L7.81395 30.5678L8.16279 30.9846L7.87791 31.5229L8.09302 31.7544L9.01163 29.9311L8.87209 29.7691ZM8.30814 30.7126L8.04651 30.4231L8.62791 30.1742L8.30814 30.7126ZM10.1628 31.4477L9.73256 31.0599L8.71512 32.3043L8.47674 32.0728L9.49419 30.8283L9.0814 30.4694L9.27907 30.2495L10.3605 31.2277L10.1628 31.4477ZM11.093 31.5229L10.0756 33.1378L9.79651 32.9526L10.814 31.3319L11.093 31.5171V31.5229ZM12.0581 32.1191C11.814 31.9628 11.5698 31.9339 11.3256 32.0439C11.1337 32.1307 10.9651 32.287 10.8314 32.5127C10.6977 32.7384 10.6279 32.9584 10.6395 33.1726C10.6453 33.4446 10.7791 33.6646 11.0291 33.8266C11.2733 33.9887 11.5116 34.0177 11.7442 33.9135C11.9419 33.8266 12.1047 33.6704 12.2442 33.4446C12.3779 33.2189 12.4419 32.9931 12.436 32.7732C12.4244 32.4953 12.3023 32.2812 12.0581 32.1191ZM11.9826 33.271C11.9302 33.3578 11.8605 33.4446 11.7907 33.5141C11.5523 33.763 11.186 33.7167 11 33.433C10.8663 33.2305 10.9477 32.9005 11.0756 32.6864C11.2093 32.4606 11.3547 32.3391 11.5116 32.2812C11.7151 32.2001 11.9244 32.3043 12.0523 32.4722C12.0988 32.5301 12.1279 32.5937 12.1453 32.6632C12.186 32.8658 12.0872 33.0915 11.9826 33.271ZM14.2791 33.1436L13.564 34.9264L13.2849 34.7991L13.0756 33.2305L12.5872 34.5039L12.3023 34.3823L13.0174 32.5937L13.2849 32.7153L13.5174 34.336L14.0116 33.0279L14.2791 33.1436ZM15.1221 33.2073L14.0814 34.9611L14.3663 35.0248L14.6686 34.4981L15.2442 34.6254L15.3256 35.2332L15.6163 35.2911L15.3256 33.2536L15.1221 33.2073ZM14.7791 34.2318L15.1453 33.6414L15.2616 34.336L14.7791 34.2318ZM16.2733 35.2274L17.1395 35.3605L17.1047 35.621L15.9535 35.4531L16.2093 33.5372L16.4884 33.572L16.2733 35.2274ZM19.314 33.653H18.5349V35.5921H18.8372V34.7586H19.2849C19.4884 34.7586 19.6337 34.7065 19.7209 34.6196C19.814 34.5328 19.8605 34.3939 19.8605 34.2029C19.8605 34.0119 19.814 33.8787 19.7267 33.7919C19.6395 33.6993 19.5 33.653 19.314 33.653ZM19.5407 34.4113C19.4593 34.4865 19.3372 34.4923 19.2326 34.4923C19.2267 34.4923 18.8372 34.4865 18.8372 34.4865V33.9308H19.2674C19.3779 33.925 19.5058 33.9366 19.5698 34.0408C19.6453 34.1508 19.6512 34.3244 19.5407 34.4113ZM20.9709 33.5199C20.686 33.5488 20.4767 33.6819 20.343 33.9193C20.2384 34.1161 20.1977 34.3476 20.2209 34.6081C20.2442 34.8743 20.3198 35.0885 20.4535 35.2563C20.6163 35.4647 20.8488 35.5573 21.1453 35.5284C21.4302 35.5052 21.6337 35.3721 21.7616 35.1406C21.8663 34.9496 21.907 34.7238 21.8837 34.4518C21.8605 34.1855 21.7849 33.9656 21.6512 33.7977C21.4826 33.5835 21.2558 33.4909 20.9709 33.5199ZM21.4942 34.9727C21.407 35.1348 21.2674 35.2621 21.0872 35.2621C20.9302 35.2621 20.7733 35.1985 20.6744 35.0711C20.5698 34.938 20.5233 34.7643 20.5116 34.5907C20.4942 34.3997 20.5058 34.2087 20.6047 34.0466C20.7151 33.8614 20.8779 33.7572 21.093 33.7861C21.2151 33.7977 21.2907 33.8614 21.3721 33.954C21.5 34.1045 21.564 34.2723 21.5814 34.4691C21.593 34.6544 21.5814 34.8164 21.4942 34.9727ZM23.5581 34.6254L23.6105 34.9033L22.4709 35.1174L22.1395 33.2131L22.436 33.1552L22.7151 34.7817L23.5581 34.6196V34.6254ZM23.7965 32.8079L24.3547 34.6544L24.0465 34.7643L23.4884 32.9179L23.7965 32.8137V32.8079ZM25.936 33.4273C25.9593 33.7282 25.8954 33.954 25.7384 34.1103C25.6454 34.2087 25.5174 34.2723 25.3605 34.3129C25.1512 34.3592 24.9593 34.3244 24.7907 34.2029C24.593 34.064 24.4593 33.8266 24.3895 33.4967C24.3256 33.2015 24.343 32.9526 24.4302 32.75C24.5291 32.5359 24.7093 32.3969 24.9651 32.3333C25.186 32.2812 25.3663 32.2985 25.5058 32.3912C25.6279 32.4722 25.7209 32.6053 25.7791 32.7905L25.5058 32.8484C25.5058 32.8484 25.4128 32.7037 25.4012 32.6921C25.3547 32.6458 25.3023 32.6169 25.2384 32.5995C25.1221 32.5706 24.9826 32.5822 24.8895 32.6574C24.8256 32.7095 24.7674 32.7905 24.7326 32.8658C24.6628 33.0105 24.6453 33.1784 24.6628 33.3346C24.686 33.5951 24.814 33.9019 25.0756 33.9887C25.1454 34.0119 25.2384 34.0177 25.3081 34.0061C25.4244 33.9771 25.5116 33.9193 25.5814 33.8324C25.6628 33.7167 25.6744 33.6762 25.6686 33.4793L25.936 33.4157V33.4273ZM27.7558 32.9237L27.8663 33.161L26.7093 33.7456L25.907 32.0033L27.0523 31.4245L27.1628 31.6676L26.2965 32.1075L26.5116 32.5764L27.2965 32.1828L27.4186 32.4317L26.6163 32.8368L26.8605 33.3636L27.7558 32.9179V32.9237ZM29.7616 31.0656C29.8779 31.2393 29.9186 31.4014 29.8953 31.5519C29.8663 31.7197 29.6919 31.9281 29.5 32.0728C29.3023 32.2175 29.1279 32.2696 28.9709 32.2349C28.8372 32.2001 28.7151 32.1017 28.6047 31.9339L27.8779 30.8457L28.1395 30.6662L28.8372 31.6734C28.9244 31.8007 29.0116 31.8702 29.1047 31.8876C29.1977 31.8992 29.2326 31.9049 29.3605 31.8123C29.4826 31.7255 29.5523 31.6329 29.5756 31.5345C29.5988 31.4245 29.5698 31.303 29.4767 31.1698L28.7965 30.18L29.0465 29.9832L29.7674 31.0656H29.7616ZM30.3488 28.7793L31.5523 30.2495L31.2849 30.4984L29.9419 30.0064L30.7733 30.9557L30.5116 31.1756L29.3081 29.7054L29.5349 29.5202L31.0116 30.0469L30.0698 29.0108L30.343 28.7735L30.3488 28.7793ZM30.7907 28.1773L32.1163 29.5317L31.8721 29.7806L30.5465 28.432L30.7907 28.1831V28.1773ZM31.7849 26.545L33.0407 28.1773L32.9244 28.3683L30.9767 27.8879L31.1686 27.5927L32.4709 27.9226L31.6221 26.8286L31.7907 26.545H31.7849ZM33.9884 26.0241L34.2035 26.1572L33.5291 27.2975L31.9593 26.2787L32.6279 25.15L32.8721 25.2832L32.3488 26.1282L32.7674 26.4234L33.2384 25.6594L33.4535 25.7983L32.9767 26.5624L33.4535 26.8807L33.9826 26.0241H33.9884ZM34.6628 24.1429C34.6628 24.1429 34.6105 24.1371 34.5581 24.1255H34.5523L34.2616 24.0097C34.1512 23.9692 34.064 23.9576 34 23.9692C33.9593 23.9808 33.9186 24.0097 33.8663 24.056H33.8605C33.8663 23.9866 33.8488 23.9171 33.8081 23.8592C33.7558 23.784 33.6744 23.7203 33.5523 23.674C33.3779 23.5988 33.2267 23.5988 33.1047 23.6798C33.0116 23.7435 32.9302 23.8535 32.8721 24.0155L32.5814 24.7622L34.2965 25.4857L34.407 25.2021L33.6919 24.9011L33.8488 24.4786C33.8895 24.386 33.9361 24.3223 34 24.3049C34.0581 24.2818 34.1395 24.2934 34.2384 24.3281C34.3372 24.3686 34.3779 24.386 34.4593 24.4091C34.564 24.4439 34.6454 24.467 34.6919 24.467L34.8198 24.1255L34.7558 24.1023C34.7267 24.1313 34.6919 24.1429 34.6628 24.1429ZM33.5814 24.4265L33.436 24.7912L32.9186 24.5712L33.0872 24.1487C33.1221 24.056 33.1686 23.9924 33.2267 23.9576C33.3023 23.9171 33.343 23.8998 33.4535 23.9461C33.5698 23.9982 33.6047 24.0503 33.6221 24.1429C33.6395 24.2181 33.6279 24.3107 33.5814 24.4265ZM35.2791 22.4932C35.3721 22.7826 35.2267 23.2399 35 23.4251C34.8314 23.564 34.6221 23.5583 34.4244 23.5062C34.4535 23.4135 34.4884 23.2862 34.5058 23.1878C34.657 23.2283 34.843 23.2341 34.9477 23.0894C35.0349 22.9794 35.0988 22.8058 35.0407 22.6669C34.9709 22.499 34.7791 22.4932 34.6454 22.5685C34.5349 22.6263 34.4477 22.7305 34.3663 22.8289C34.2209 23.0084 34.0872 23.0836 34.0174 23.1299C33.9186 23.1936 33.8023 23.2052 33.6686 23.1531C33.5291 23.1068 33.436 23.0199 33.3837 22.8926C33.3372 22.7595 33.343 22.5916 33.4012 22.3948C33.4767 22.1575 33.5872 22.007 33.7326 21.9433C33.8372 21.897 33.9651 21.897 34.1105 21.9433C34.1105 21.9433 34.0116 22.2212 34.0116 22.2269C34.0116 22.2154 33.9244 22.2154 33.9128 22.2212C33.8488 22.2327 33.8023 22.2733 33.7616 22.3138C33.5872 22.4874 33.6744 22.9794 33.9709 22.8116C34.0291 22.7768 34.0698 22.7479 34.2035 22.58C34.343 22.4064 34.5233 22.2212 34.7442 22.1922C34.9593 22.1575 35.2093 22.2848 35.2791 22.5106V22.4932ZM33.593 20.9188L35.4012 21.3356L35.3256 21.6771L33.5174 21.2603L33.593 20.9188ZM34.0523 19.8306L35.5872 20.01L35.5407 20.3747L34.0291 20.1895L33.9651 20.7452L33.657 20.7162L33.814 19.2286L34.1221 19.2576L34.0581 19.8248L34.0523 19.8306ZM34.8198 18.5398L33.7151 19.1534V18.8003L34.4651 18.372L33.75 17.7989L33.7616 17.4169L34.8314 18.1809L35.5988 18.2041L35.5814 18.563L34.8256 18.5456L34.8198 18.5398ZM6.72093 26.846L5.20349 27.9573L5.01163 27.6737L5.60465 26.2324L4.57558 27.0081L4.36628 26.7129L5.88372 25.6015L6.07558 25.8678L5.48256 27.338L6.53488 26.5739L6.72093 26.8518V26.846Z" fill="#191D31" fill-opacity="0.4"/>
</g>
<defs>
<clipPath id="clip0_774_9558">
<rect width="151" height="38" fill="white"/>
</clipPath>
</defs>
</svg>
